<svg width="18" height="18" viewBox="0 0 18 18" fill="none" xmlns="http://www.w3.org/2000/svg">
<path d="M4.931 17.5H0.75C0.551169 17.4997 0.360557 17.4206 0.219962 17.28C0.0793672 17.1395 0.000264579 16.9488 0 16.75L0 12.568C0.000719613 12.3693 0.0797693 12.1788 0.22 12.038L11.461 0.800007C11.9713 0.289744 12.6634 0.00308228 13.385 0.00308228C14.1066 0.00308228 14.7987 0.289744 15.309 0.800007L16.7 2.19001C17.2103 2.70029 17.4969 3.39237 17.4969 4.11401C17.4969 4.83564 17.2103 5.52772 16.7 6.03801L5.462 17.28C5.39244 17.35 5.30969 17.4054 5.21854 17.4432C5.12739 17.481 5.02966 17.5003 4.931 17.5ZM13.385 1.50001C13.2245 1.49954 13.0654 1.53094 12.9171 1.59239C12.7688 1.65384 12.6342 1.74413 12.521 1.85801L1.5 12.879V16H4.62L15.642 4.97901C15.8706 4.74976 15.9989 4.43923 15.9989 4.11551C15.9989 3.79178 15.8706 3.48126 15.642 3.25201L14.249 1.85701C14.1358 1.74331 14.0011 1.65321 13.8528 1.59193C13.7045 1.53065 13.5455 1.4994 13.385 1.50001Z" fill="white"/>
<path opacity="0.5" d="M7.946 4.559L12.582 9.143L13.646 8.082L9.007 3.498L7.946 4.559Z" fill="white"/>
</svg>
