<svg width="18" height="17" viewBox="0 0 18 17" fill="none" xmlns="http://www.w3.org/2000/svg">
<path d="M17.058 11.519C17.065 11.3983 17.0473 11.2773 17.0059 11.1637C16.9646 11.05 16.9004 10.946 16.8174 10.858C16.7344 10.77 16.6343 10.6999 16.5232 10.652C16.4121 10.6041 16.2925 10.5794 16.1715 10.5794C16.0505 10.5794 15.9309 10.6041 15.8198 10.652C15.7087 10.6999 15.6086 10.77 15.5256 10.858C15.4426 10.946 15.3784 11.05 15.3371 11.1637C15.2957 11.2773 15.278 11.3983 15.285 11.519V13.451L11.708 9.87201C11.5418 9.70585 11.3165 9.6125 11.0815 9.6125C10.8465 9.6125 10.6212 9.70585 10.455 9.87201C10.2888 10.0382 10.1955 10.2635 10.1955 10.4985C10.1955 10.7335 10.2888 10.9588 10.455 11.125L14.015 14.684H12.092C11.9706 14.6758 11.8489 14.6927 11.7343 14.7335C11.6198 14.7744 11.5148 14.8383 11.4259 14.9214C11.3371 15.0045 11.2663 15.1049 11.2178 15.2165C11.1694 15.328 11.1444 15.4484 11.1444 15.57C11.1444 15.6916 11.1694 15.812 11.2178 15.9235C11.2663 16.0351 11.3371 16.1356 11.4259 16.2186C11.5148 16.3017 11.6198 16.3656 11.7343 16.4065C11.8489 16.4473 11.9706 16.4642 12.092 16.456H16.111C16.354 16.4638 16.5902 16.3749 16.7677 16.2088C16.9453 16.0427 17.0497 15.813 17.058 15.57L17.053 15.534C17.0556 15.5168 17.0573 15.4994 17.058 15.482V11.519Z" fill="white"/>
<path d="M5.54903 9.87201L1.97303 13.451V11.519C1.97841 11.2777 1.888 11.0441 1.7216 10.8692C1.55519 10.6944 1.32631 10.5926 1.08503 10.586C0.843832 10.5923 0.615004 10.6941 0.448858 10.8691C0.282712 11.044 0.192849 11.2778 0.199029 11.519V15.483C0.199029 15.5 0.199029 15.518 0.205029 15.535C0.211029 15.552 0.205029 15.558 0.205029 15.571C0.213119 15.8139 0.317297 16.0436 0.494677 16.2098C0.672056 16.3759 0.908128 16.4648 1.15103 16.457H5.17103C5.29239 16.4652 5.41413 16.4483 5.5287 16.4075C5.64327 16.3666 5.74824 16.3027 5.83708 16.2196C5.92592 16.1366 5.99676 16.0361 6.04518 15.9246C6.09361 15.813 6.11859 15.6926 6.11859 15.571C6.11859 15.4494 6.09361 15.329 6.04518 15.2175C5.99676 15.1059 5.92592 15.0055 5.83708 14.9224C5.74824 14.8393 5.64327 14.7754 5.5287 14.7345C5.41413 14.6937 5.29239 14.6768 5.17103 14.685H3.24303L6.79903 11.125C6.94701 10.9558 7.02521 10.7367 7.01783 10.512C7.01045 10.2873 6.91803 10.0738 6.75926 9.91468C6.60049 9.75553 6.38722 9.6626 6.16256 9.65468C5.9379 9.64676 5.71861 9.72444 5.54903 9.87201Z" fill="white"/>
<path d="M11.707 6.728L15.284 3.151V5.085C15.277 5.20576 15.2947 5.32667 15.3361 5.44034C15.3775 5.554 15.4416 5.65801 15.5246 5.74599C15.6077 5.83397 15.7078 5.90406 15.8188 5.95197C15.9299 5.99988 16.0496 6.02459 16.1705 6.02459C16.2915 6.02459 16.4112 5.99988 16.5222 5.95197C16.6333 5.90406 16.7334 5.83397 16.8164 5.74599C16.8994 5.65801 16.9636 5.554 17.005 5.44034C17.0463 5.32667 17.0641 5.20576 17.057 5.085V1.118C17.0564 1.10092 17.0547 1.08389 17.052 1.067L17.057 1.03C17.0487 0.787198 16.9444 0.557606 16.7671 0.391533C16.5898 0.225459 16.3539 0.136447 16.111 0.144001H12.092C11.9717 0.139996 11.8518 0.159743 11.7391 0.202113C11.6265 0.244482 11.5233 0.308644 11.4354 0.390929C11.3475 0.473214 11.2768 0.572009 11.2271 0.681666C11.1775 0.791322 11.1499 0.90969 11.146 1.03C11.1544 1.27289 11.2586 1.50258 11.4359 1.66881C11.6132 1.83505 11.8491 1.92428 12.092 1.917H14.015L10.455 5.476C10.3728 5.55821 10.3076 5.6558 10.2631 5.76321C10.2186 5.87062 10.1957 5.98574 10.1957 6.102C10.1957 6.21826 10.2186 6.33338 10.2631 6.44079C10.3076 6.5482 10.3728 6.64579 10.455 6.728C10.6211 6.89403 10.8462 6.9873 11.081 6.9873C11.1973 6.9873 11.3124 6.9644 11.4198 6.91991C11.5272 6.87542 11.6248 6.81021 11.707 6.728Z" fill="white"/>
<path d="M3.243 1.917H5.166C5.40876 1.92402 5.64442 1.83466 5.82149 1.66846C5.99856 1.50225 6.10265 1.27272 6.111 1.03C6.10317 0.787201 5.99921 0.557452 5.82199 0.391296C5.64477 0.22514 5.40881 0.136187 5.166 0.144005H1.147C1.02657 0.139864 0.906491 0.159504 0.793647 0.201801C0.680803 0.244098 0.577403 0.308223 0.489359 0.390509C0.401315 0.472795 0.330354 0.571628 0.280533 0.681357C0.230711 0.791087 0.203007 0.909561 0.199004 1.03C0.199004 1.042 0.199004 1.054 0.199004 1.067C0.199004 1.08 0.199004 1.1 0.199004 1.118V5.085C0.193094 5.32603 0.283076 5.55956 0.449193 5.7343C0.615311 5.90904 0.843985 6.01072 1.085 6.017C1.32602 6.01019 1.55459 5.90842 1.72092 5.73386C1.88724 5.55929 1.97785 5.32607 1.973 5.085V3.152L5.549 6.728C5.62907 6.8188 5.7269 6.89222 5.83644 6.94374C5.94599 6.99527 6.06493 7.02379 6.18593 7.02756C6.30693 7.03133 6.42741 7.01026 6.53996 6.96566C6.6525 6.92106 6.7547 6.85387 6.84027 6.76824C6.92583 6.6826 6.99294 6.58034 7.03746 6.46777C7.08197 6.35519 7.10294 6.23469 7.09907 6.11369C7.0952 5.9927 7.06658 5.87378 7.01497 5.76427C6.96336 5.65477 6.88986 5.557 6.799 5.477L3.243 1.917Z" fill="white"/>
</svg>
