<svg width="26" height="23" viewBox="0 0 26 23" fill="none" xmlns="http://www.w3.org/2000/svg">
<path d="M4.95215 22.6152L0.166016 17.2598H3.37402L3.33398 7.35986C3.33398 4.22986 6.26021 2.54199 9.01221 2.54199C11.5922 2.54199 14.1948 4.03186 14.1948 7.35986V15.916L12.689 15.6401L11.2891 12.0039V7.35986C11.3009 7.03108 11.2368 6.70396 11.1021 6.40381C10.9673 6.10366 10.7657 5.83857 10.5122 5.62891C10.0201 5.24912 9.41251 5.04945 8.79102 5.06299C8.46642 5.03342 8.13947 5.07035 7.82959 5.17139C7.51971 5.27242 7.23355 5.43567 6.98877 5.65088C6.74399 5.86609 6.54564 6.12895 6.40576 6.42334C6.26588 6.71773 6.18704 7.03709 6.1748 7.36279L6.21582 17.2632L9.56299 17.3628L4.95117 22.6128L4.95215 22.6152Z" fill="#02C076"/>
<path d="M20.5139 0.536774L25.3 5.89224H22.092L22.1321 15.7921C22.1321 18.9221 19.2059 20.61 16.4539 20.61C13.8739 20.61 11.2712 19.1201 11.2712 15.7921L11.2712 8.95718L14.1711 15.7921C14.1593 16.1209 14.2229 16.4481 14.3577 16.7482C14.4924 17.0483 14.6945 17.3134 14.948 17.5231C15.4401 17.9029 16.0477 18.1026 16.6692 18.089C16.9938 18.1186 17.3207 18.0817 17.6306 17.9806C17.9405 17.8796 18.2267 17.7163 18.4714 17.5011C18.7162 17.2859 18.9146 17.0231 19.0544 16.7287C19.1943 16.4343 19.2727 16.1149 19.2849 15.7892L19.2439 5.88882L15.8972 5.78922L20.509 0.539215L20.5139 0.536774Z" fill="white"/>
</svg>
