<svg width="26" height="26" viewBox="0 0 26 26" fill="none" xmlns="http://www.w3.org/2000/svg">
<g clip-path="url(#clip0)">
<path d="M17.7165 14.8154L17.2402 11.436L21.371 8.7276L17.5968 9.93506L16.7054 8.64342L13.4508 6.73602L6.27673 10.469L5.90491 16.1648L9.10101 20.3596L11.6273 20.7252L10.3209 18.4666V16.2922L11.2708 14.5941L12.236 13.9904L13.7207 15.436V16.9657L14.8794 17.9904L16.3514 18.1588L17.0034 18.5075L18.073 18.1852L18.5187 16.6699L17.7165 15.6043V14.8154Z" fill="white"/>
<path d="M11.1206 8.69872C11.9075 8.54478 12.7683 8.58567 12.7683 8.58567C12.7683 8.58567 13.051 9.81958 14.8031 10.1443C14.7904 10.1443 12.4881 10.8875 11.1206 8.69872Z" fill="#94A6C3"/>
<path d="M10.4075 19.8954C9.45758 19.193 8.7445 18.2261 8.41598 17.1317C8.4007 17.0908 8.26827 17.0186 8.17914 16.9633C8.03143 16.8791 7.88118 16.8094 7.85316 16.6963C7.79459 16.374 7.76403 16.0373 7.76403 15.7005C7.76403 15.5755 7.899 15.448 8.03143 15.3229C8.13585 15.2387 8.24026 15.1401 8.24026 15.0703C8.38797 13.7931 9.01191 12.6001 10.0077 11.7318L10.1121 11.8304C9.14688 12.6867 8.52294 13.8509 8.38797 15.0848C8.37269 15.1978 8.25554 15.3085 8.13584 15.4215C8.03143 15.5057 7.91174 15.6332 7.91174 15.6885C7.91174 16.0108 7.9423 16.3331 8.00087 16.6554C8.01615 16.7108 8.14858 16.7685 8.25299 16.8238C8.4007 16.8936 8.53568 16.9633 8.56369 17.0764C8.92023 18.2694 9.73771 19.3085 10.8226 19.982C10.6291 19.5899 10.0204 18.3127 9.69442 17.6657L9.75299 15.5899L11.6401 13.8653L12.7097 14.0048L13.8837 15.8016C13.8837 15.8016 13.3336 16.4606 14.1078 17.2327C14.8642 17.9904 15.4601 18.1587 15.4601 18.1587L16.0102 17.8773C15.8472 17.6801 15.5187 17.3866 15.2666 17.1894C14.8362 16.8527 14.4058 16.8238 14.4058 16.4606C14.388 15.7005 15.2513 15.9098 15.2513 15.9098L15.5645 16.1912L15.697 17.2303L16.3489 18.0024L16.4228 17.988L17.4924 17.7643C17.4924 17.7643 16.8379 17.442 16.7335 17.0764C16.629 16.7252 16.9423 15.561 16.9576 15.4913C16.9423 15.5057 16.6443 15.7438 16.5119 16.1359C16.2751 15.5177 15.9618 14.9284 15.8727 14.8731C15.7835 14.8178 14.5815 14.2141 14.5815 14.2141L14.9813 15.2099L14.6834 15.0559L13.9703 13.4011C13.9703 13.4011 13.2725 13.0788 12.753 13.0788C11.8184 13.0643 10.4355 11.9844 11.0594 10.0481C10.8812 10.1178 7.79204 11.5779 7.25724 14.4402C6.85741 16.641 8.17914 18.7023 10.4075 19.8954Z" fill="#94A6C3"/>
<path d="M13.9422 9.00663C13.6009 8.6266 13.7334 8.06616 13.7334 8.06616L14.7291 9.45642C14.7444 9.45642 14.3751 9.47085 13.9422 9.00663Z" fill="#1B314F"/>
<path d="M17.2861 16.5977L17.1664 16.0373C17.1664 16.0373 17.6579 16.8503 17.7012 16.9633C17.747 17.0908 17.6706 17.3145 17.4796 17.3001C17.2861 17.2856 17.0492 17.0186 17.0492 16.8238C17.0492 16.5713 17.2861 16.5977 17.2861 16.5977Z" fill="#1B314F"/>
<path d="M8.46353 7.6739C8.46353 7.6739 7.7199 7.70276 6.94825 7.78695C8.68764 6.49531 10.3353 6.11768 11.6724 6.11768C13.5136 6.11768 14.7615 6.83445 14.8379 6.87534L14.2572 6.00463C14.2572 6.00463 16.5747 5.79296 17.3922 8.10926C17.6011 7.61858 17.7921 6.9018 17.7921 6.9018C17.7921 6.9018 18.9966 7.9 18.4313 9.55484C19.8141 9.07859 21.7878 8.41713 21.8642 8.40511C21.9686 8.39068 21.9992 8.43397 21.9992 8.43397C21.9992 8.43397 22.0297 8.47486 21.9406 8.54702C21.7751 8.66969 18.6554 10.8465 17.9703 11.2674C18.118 11.7725 18.118 12.0106 17.9703 12.2488C17.7615 12.5711 17.7488 12.7394 17.7768 12.9776C17.8073 13.2157 18.0747 15.2794 18.1333 15.532C18.1919 15.7845 18.8158 16.6817 18.7878 16.9487C18.7572 17.2157 18.3727 18.351 18.0289 18.4785C17.7768 18.5627 17.1528 18.7455 16.7377 18.7455C16.59 18.7455 16.455 18.7166 16.3965 18.6613C16.1443 18.452 16.0705 18.4087 15.8922 18.4087C15.8769 18.4087 15.8617 18.4087 15.8489 18.4087C15.7751 18.4087 15.6859 18.4231 15.5815 18.4231C15.3447 18.4231 15.0314 18.3799 14.8099 18.185C14.4839 17.8771 13.9185 17.4562 13.7403 17.259C13.5162 16.992 13.399 16.6288 13.4576 16.2632C13.5034 15.9265 13.3099 15.6306 13.0858 15.3372C12.8031 14.986 12.2836 14.3558 12.2836 14.3558C11.2572 15.0822 10.618 16.191 10.618 17.425C10.618 19.6138 12.6376 21.3817 15.1333 21.3817C15.5204 21.3817 15.8897 21.3408 16.2615 21.2566C15.118 21.6342 14.1528 21.7617 13.3634 21.7617C11.6851 21.7617 10.7938 21.1868 10.7938 21.1868C10.7938 21.1868 11.1044 21.5669 11.6112 21.9998C11.596 21.9998 11.596 21.9998 11.596 21.9998C8.81752 21.6342 7.46523 19.4743 7.46523 19.4743C7.46523 19.4743 7.56964 20.1766 7.70207 20.6529C4.00682 18.0287 4.63076 14.7455 4.64604 14.6348C4.61548 14.6757 4.24367 15.0966 4.05267 15.3227C3.45674 9.54041 8.46353 7.6739 8.46353 7.6739ZM14.1528 16.9078C14.2114 16.9776 14.4635 17.1892 14.6418 17.3432C14.8201 17.4971 15.0136 17.651 15.1613 17.793C15.2199 17.8483 15.3396 17.8771 15.5179 17.8771C15.5764 17.8771 15.6376 17.8771 15.6808 17.8771C15.7114 17.8771 15.7394 17.8771 15.77 17.8771C15.8005 17.8771 15.8158 17.8771 15.8286 17.8771C15.8744 17.8771 15.9177 17.8771 15.9635 17.8771C15.7394 17.5957 15.0875 16.9511 14.8634 16.8116C14.596 16.6432 14.461 16.4749 14.6265 16.1814C14.7895 15.8856 15.2199 15.9577 15.2199 15.9577C15.2199 15.9577 14.9678 15.8591 14.7437 15.8591C15.0263 15.7894 15.3829 15.8591 15.5459 16.013C15.7241 16.167 15.6936 16.7154 15.7674 17.0642C15.8413 17.4298 16.0934 17.6126 16.4805 17.9493C16.6893 18.1321 16.837 18.1874 16.9567 18.1874C17.2089 18.1465 17.5068 18.0744 17.7157 18.0046C17.8634 17.8218 18.0875 17.2181 18.146 16.9655C18.1028 16.826 17.9245 16.5302 17.8353 16.3618C17.6571 16.0395 17.5527 15.8567 17.5221 15.6883C17.4635 15.4502 17.27 13.9758 17.1961 13.36C17.0026 13.5981 16.7352 13.9926 16.7963 14.2452C16.3659 13.6703 16.6766 13.1075 16.8269 12.8838C16.9593 12.6601 17.1376 12.2103 16.9898 11.734C16.8421 11.2578 16.3073 9.93728 16.3073 9.93728C16.3073 9.93728 16.1291 10.2331 15.8769 10.1754C15.6248 10.1201 13.59 7.22892 13.59 7.22892C13.59 7.22892 13.0399 8.36422 13.6206 9.19404C14.214 10.0215 14.7946 10.1754 14.7946 10.1754C14.7946 10.1754 13.9771 10.3149 13.2207 9.79537C12.9101 10.4833 12.6121 11.1977 12.5968 11.2963C12.6426 11.3949 13.236 12.7418 13.2946 12.826C13.3252 12.8549 13.5314 12.9102 13.6817 12.9391C13.9338 13.0088 14.0815 13.0521 14.1426 13.093C14.2471 13.1772 14.7233 14.4111 14.9449 15.0148C15.2123 15.0846 15.4797 15.2265 15.6732 15.5055C15.5688 15.4358 15.2428 15.3925 15.0034 15.366C14.7946 15.3516 14.1579 15.6739 13.9924 16.2776C13.9924 16.2921 13.9924 16.2921 13.9924 16.3065C13.9593 16.5278 14.0331 16.7394 14.1528 16.9078ZM15.5484 17.0762C15.4134 16.8934 15.4287 16.5855 15.4134 16.4869C15.3982 16.3883 15.3702 16.2055 15.2505 16.179C15.1308 16.1501 14.8481 16.1934 14.8481 16.3883C14.8481 16.5711 15.0569 16.612 15.2046 16.7394C15.3116 16.8357 15.5204 17.0473 15.5484 17.0762ZM9.62227 14.3943C9.47457 13.6799 9.45929 13.0618 9.50258 12.5566C8.92448 13.2854 8.56795 14.1706 8.46353 15.0822C8.44825 15.1952 8.3311 15.3059 8.21141 15.4189C8.10699 15.5031 7.9873 15.6162 7.9873 15.6859C7.9873 16.0082 8.01786 16.3305 8.07643 16.6553C8.09172 16.6961 8.22414 16.7683 8.32856 16.8236C8.47626 16.8934 8.61124 16.9631 8.63925 17.0762C8.96523 18.1562 9.66557 19.1111 10.6002 19.7845C9.2199 18.4231 8.55267 16.1766 9.62227 14.3943ZM10.5569 19.9096C9.59171 19.2073 8.84808 18.2259 8.52211 17.1171C8.50683 17.0762 8.3744 17.004 8.28526 16.9487C8.13756 16.879 7.9873 16.7948 7.95929 16.6817C7.90071 16.3594 7.87015 16.0227 7.87015 15.6859C7.87015 15.5609 8.00513 15.4334 8.13755 15.3083C8.21141 15.2241 8.3311 15.1255 8.3311 15.0557C8.4508 14.0311 8.88119 13.0642 9.54842 12.2632C9.84638 10.5795 11.0331 10.0599 11.0637 10.0455C11.0331 10.0888 10.2615 11.1399 10.7963 12.3738C11.3464 13.6222 12.7572 13.4274 12.8769 13.4394C12.9966 13.4394 13.455 13.9998 14.0357 15.0389C14.1095 15.01 14.4228 14.9403 14.7793 14.998C14.5119 14.2957 14.1095 13.2999 14.0357 13.2157C14.0051 13.1868 13.7836 13.1315 13.6333 13.0906C13.3506 13.0209 13.2182 12.9776 13.1724 12.9222C13.1418 12.879 12.9941 12.5566 12.8464 12.2199C12.7114 12.2199 12.3702 12.191 12.3421 12.1766C12.3116 12.1477 12.0289 11.4622 12.0289 11.378C12.0289 11.3083 12.6095 9.9469 12.8311 9.42736C12.7267 9.31431 12.6223 9.1748 12.5204 9.02086C9.47457 9.33114 7.09596 11.7725 7.09596 14.731C7.09596 17.004 8.50683 18.9836 10.5569 19.9096Z" fill="#1B314F"/>
<path d="M14.5076 12.3332C14.2249 12.0253 14.3726 11.4504 14.8947 11.3518C14.7597 11.0583 14.5687 10.4691 14.5687 10.4691C14.5687 10.4691 16.084 12.7132 16.2164 12.7565C16.3514 12.7998 16.4838 12.3067 16.4838 12.3067C16.7665 13.3313 16.0076 13.4709 15.9185 13.1485C15.5034 13.0475 14.7903 12.6266 14.5076 12.3332Z" fill="#1B314F"/>
<path d="M15.8014 12.8791L15.0297 11.6308C15.0297 11.6308 14.584 11.8425 14.8082 12.1792C15.0883 12.5713 15.8014 12.8791 15.8014 12.8791Z" fill="#FFD923"/>
<path d="M6.2487 18.6615C6.4728 18.9429 6.72492 19.2363 7.02034 19.5177C5.10523 16.0373 6.93121 12.8527 7.00506 12.7276C6.87009 12.8551 6.73766 12.9946 6.61796 13.1197C5.14853 14.6615 4.97026 16.9778 6.2487 18.6615Z" fill="#D82122"/>
<path d="M4.46609 14.1852C5.13587 12.4871 6.08579 11.0415 8.17916 9.7378C10.1987 8.47502 12.3685 8.57364 12.4882 8.58807C12.5034 8.58807 12.5187 8.58807 12.5187 8.58807C12.4449 8.55921 12.371 8.54477 12.2972 8.53275C11.8362 8.39324 11.2428 8.28019 10.6469 8.21044C9.07051 7.99637 7.48137 8.50148 6.39648 9.58386C6.3812 9.59829 6.3812 9.59829 6.36592 9.61272C5.13332 10.8466 4.4941 12.3884 4.46609 14.1852Z" fill="#D82122"/>
<path d="M8.65528 7.23873C10.8684 6.84666 12.2945 7.04149 13.3208 7.4071C13.3514 7.29405 13.4558 7.07035 13.5449 6.88755C13.8531 7.23873 14.1816 7.65965 14.3879 7.92664C14.9533 8.29224 15.1901 8.64342 15.1901 8.64342C14.8641 7.5899 13.9117 6.80577 12.7529 6.60854C12.4269 6.55322 12.0704 6.52435 11.6833 6.52435C10.6595 6.53878 9.63575 6.77691 8.65528 7.23873Z" fill="#D82122"/>
<path d="M16.8404 9.93264C18.5772 9.87732 17.9991 7.96752 17.9686 7.85687C17.9686 7.8713 17.8514 9.35777 16.8404 9.93264Z" fill="#D82122"/>
<path d="M15.1316 6.49548C16.4686 7.25315 16.2012 9.06193 16.2012 9.06193C17.4797 7.22669 15.236 6.53878 15.1316 6.49548Z" fill="#D82122"/>
<path d="M17.3294 10.4378C17.2403 10.5075 17.1511 10.635 17.2555 10.8178C17.3141 10.9164 17.4032 10.902 17.5382 10.8467C17.7165 10.7625 18.7861 10.1732 19.7513 9.56946C18.6511 9.93506 17.5382 10.3271 17.36 10.4113C17.36 10.4113 17.3447 10.4257 17.3294 10.4378Z" fill="white"/>
</g>
<defs>
<clipPath id="clip0">
<rect width="18" height="16" fill="white" transform="matrix(-1 0 0 1 22 6)"/>
</clipPath>
</defs>
</svg>
