<svg width="26" height="26" viewBox="0 0 26 26" fill="none" xmlns="http://www.w3.org/2000/svg">
<path d="M18.5185 18.0245L14.2545 7.71549C14.014 7.18249 13.6565 6.92249 13.1853 6.92249H12.8083C12.337 6.92249 11.9795 7.18249 11.739 7.71549L9.88327 12.207H8.47927C8.06002 12.2102 7.71877 12.5482 7.71552 12.9707V12.9805C7.71877 13.3997 8.06002 13.741 8.47927 13.7442H9.23327L7.46202 18.0245C7.42952 18.1187 7.41002 18.2162 7.41002 18.317C7.41002 18.5575 7.48477 18.746 7.61802 18.8922C7.75127 19.0385 7.94302 19.11 8.18352 19.11C8.34277 19.1067 8.49552 19.058 8.62227 18.9637C8.75877 18.8695 8.85302 18.733 8.92777 18.577L10.8778 13.741H12.2298C12.649 13.7377 12.9903 13.3997 12.9935 12.9772V12.9577C12.9903 12.5385 12.649 12.1972 12.2298 12.194H11.5083L12.9968 8.48574L17.0528 18.5737C17.1275 18.7297 17.2218 18.8662 17.3583 18.9605C17.485 19.0547 17.641 19.1035 17.797 19.1067C18.0375 19.1067 18.226 19.0352 18.3625 18.889C18.499 18.7427 18.5705 18.5542 18.5705 18.3137C18.5738 18.2162 18.5575 18.1155 18.5185 18.0245Z" fill="white"/>
</svg>
