<svg width="15" height="14" viewBox="0 0 15 14" fill="none" xmlns="http://www.w3.org/2000/svg">
<path fill-rule="evenodd" clip-rule="evenodd" d="M7.86829 0.598626C8.04199 0.268702 7.64291 -0.130768 7.31599 0.0414287C7.05004 0.148474 6.98254 0.537338 7.18954 0.734081C7.38491 0.939081 7.76741 0.867566 7.86829 0.598626ZM4.22935 0.744156C4.2496 0.52552 3.9982 0.341732 3.7996 0.424308C3.52315 0.498702 3.49248 0.938475 3.76068 1.0434C3.9631 1.1562 4.25043 0.981505 4.22935 0.744156ZM11.0016 1.05007C10.6912 1.01219 10.6421 0.519308 10.9409 0.420065C11.1726 0.305899 11.3853 0.51999 11.4192 0.741884C11.3706 0.931354 11.2135 1.10484 11.0016 1.05007ZM5.35443 2.42939C5.40551 2.03984 4.93173 1.72393 4.5997 1.93605C4.28875 2.09666 4.246 2.57582 4.52815 2.78469C4.81998 3.0506 5.33718 2.82272 5.35443 2.42939ZM9.66829 2.16113C9.81642 1.77552 10.4166 1.76385 10.5852 2.13923C10.7519 2.43135 10.5469 2.7931 10.25 2.89242C9.8567 2.96658 9.48312 2.53711 9.66829 2.16113ZM7.50004 2.26954C7.18819 2.29211 6.88931 2.53908 6.89254 2.87052C6.87476 3.14136 7.06631 3.36257 7.29379 3.47537C7.31668 3.47676 7.33988 3.47862 7.36324 3.48049C7.49171 3.4908 7.62516 3.5015 7.74079 3.43605C8.03959 3.30257 8.18644 2.90211 8.02106 2.61128C7.93234 2.40045 7.70689 2.31143 7.50004 2.26954ZM1.66314 3.35348C1.96645 3.16514 2.37565 3.50886 2.26082 3.84166C2.1976 4.12954 1.8145 4.24666 1.59549 4.06287C1.36172 3.89067 1.39877 3.47666 1.66314 3.35348ZM13.5439 3.71075C13.5745 3.38257 13.1499 3.15105 12.8926 3.35287C12.6285 3.51666 12.6572 3.95386 12.9385 4.08158C13.194 4.23567 13.5611 4.00999 13.5439 3.71075ZM8.36314 3.9487C8.78779 3.79461 9.29217 3.97901 9.53419 4.36143C9.85347 4.82893 9.68359 5.5409 9.18814 5.80916C8.67477 6.12643 7.92514 5.85749 7.73554 5.2784C7.52029 4.75999 7.83386 4.1112 8.36314 3.9487ZM7.20296 4.44984C6.97564 3.96355 6.34226 3.7753 5.87163 3.99969C5.37003 4.22598 5.13926 4.89348 5.39913 5.38492C5.63088 5.8931 6.30648 6.10136 6.78536 5.82666C7.26364 5.58227 7.47049 4.92317 7.20296 4.44984ZM3.3769 4.86121C3.41268 4.55492 3.69873 4.3556 3.98733 4.33499C4.29828 4.37287 4.54668 4.61681 4.5805 4.93469C4.5601 5.24939 4.31935 5.55696 3.9892 5.55507C3.62598 5.58666 3.30752 5.22166 3.3769 4.86121ZM11.6197 4.93424C11.6362 4.50151 11.1184 4.18234 10.7455 4.40158C10.3452 4.59227 10.3151 5.22295 10.7008 5.44689C11.0721 5.71583 11.6452 5.39272 11.6197 4.93424ZM4.8577 6.01749C5.29383 5.89628 5.79251 6.10393 6.00641 6.50886C6.24071 6.91643 6.14493 7.48265 5.78103 7.78159C5.31431 8.22007 4.45353 8.04401 4.20513 7.4456C3.91968 6.89704 4.2664 6.16189 4.8577 6.01749ZM10.7334 6.44795C10.5054 6.0578 10.0074 5.89272 9.58339 6.01522C8.98767 6.17999 8.67222 6.94348 8.98572 7.48371C9.24432 8.00598 9.97227 8.18136 10.4422 7.84734C10.8909 7.55969 11.0347 6.89416 10.7334 6.44795ZM2.05262 6.52431C2.42935 6.38037 2.84695 6.8003 2.69432 7.17757C2.6011 7.52128 2.12155 7.64833 1.87382 7.39492C1.58394 7.15696 1.69127 6.62749 2.05262 6.52431ZM12.8015 6.45984C12.4814 6.47727 12.253 6.75651 12.2639 7.07181C12.3265 7.21886 12.4024 7.37234 12.5506 7.4484C12.8666 7.62446 13.3136 7.36977 13.29 6.99507C13.3104 6.71136 13.0595 6.50113 12.8015 6.45984ZM0.200265 6.70939C0.426916 6.60946 0.707267 6.80787 0.655517 7.06212C0.643367 7.34999 0.222615 7.46068 0.0680397 7.22015C-0.0685357 7.0531 0.0132146 6.79552 0.200265 6.70939ZM14.9699 6.85969C14.9067 6.67136 14.6506 6.58886 14.491 6.70363C14.2255 6.84674 14.3296 7.34204 14.6513 7.31242C14.8805 7.34719 15.0772 7.06537 14.9699 6.85969ZM6.08876 8.08553C6.68516 7.92886 7.32626 8.43121 7.33001 9.05151C7.36894 9.67833 6.73751 10.2342 6.12701 10.0894C5.65511 10.0126 5.28483 9.55348 5.30013 9.07181C5.29886 8.61113 5.64303 8.18295 6.08876 8.08553ZM9.70662 9.05931C9.71622 8.42469 9.05599 7.91333 8.45067 8.08424C8.09179 8.17431 7.78789 8.4731 7.70861 8.84053C7.55156 9.39189 7.96661 10.0161 8.52912 10.0896C9.12687 10.2117 9.73857 9.67454 9.70662 9.05931ZM3.89673 8.46606C4.3156 8.39386 4.7083 8.8659 4.53843 9.26765C4.41453 9.69575 3.79773 9.81189 3.52503 9.46219C3.20515 9.12636 3.44395 8.51242 3.89673 8.46606ZM11.6266 9.06272C11.6554 8.65325 11.1969 8.32689 10.8234 8.48492C10.3719 8.62984 10.2966 9.325 10.7103 9.56121C11.0756 9.82431 11.6416 9.51348 11.6266 9.06272ZM12.7594 10.4464C12.6132 10.1711 12.8788 9.80606 13.1815 9.85704C13.3239 9.85461 13.4258 9.9615 13.5179 10.0581L13.534 10.075L13.5375 10.1029C13.5571 10.2599 13.5795 10.44 13.453 10.5586C13.2709 10.7914 12.8584 10.725 12.7594 10.4464ZM2.28827 10.3613C2.35187 10.0272 1.94477 9.74348 1.66187 9.93371C1.39239 10.0724 1.38279 10.5058 1.64327 10.658C1.88597 10.8256 2.25445 10.6567 2.28827 10.3613ZM7.25089 10.5522C7.62124 10.3871 8.09306 10.7128 8.05796 11.1248C8.08541 11.5801 7.50184 11.8955 7.13974 11.622C6.73751 11.3873 6.80456 10.6966 7.25089 10.5522ZM5.37228 11.6407C5.40101 11.2841 4.97771 10.9945 4.66225 11.1622C4.44003 11.2461 4.34943 11.4937 4.34553 11.7161C4.4215 11.9201 4.576 12.1346 4.81293 12.1398C5.09898 12.183 5.38188 11.9335 5.37228 11.6407ZM9.90582 11.1673C10.2302 10.9648 10.6912 11.2557 10.6605 11.637C10.6689 12.0356 10.1478 12.2909 9.84582 12.0291C9.55339 11.8239 9.58909 11.3305 9.90582 11.1673ZM11.0775 12.9079C10.8432 12.9582 10.6734 13.2239 10.8177 13.4444C10.9658 13.7005 11.3981 13.6089 11.4256 13.3103C11.4652 13.0897 11.266 12.9466 11.0775 12.9079ZM3.57933 13.2529C3.63678 13.0781 3.77598 12.9044 3.97968 12.9498C4.2766 12.9711 4.36473 13.4232 4.10485 13.5625C3.87115 13.7217 3.60003 13.5037 3.57933 13.2529ZM7.67801 13.2064C7.45961 13.0691 7.12826 13.1948 7.07141 13.4534C6.96754 13.7146 7.21699 14.0304 7.49351 13.9977C7.64231 14.0015 7.75721 13.8945 7.84661 13.7874C7.86401 13.7152 7.88171 13.643 7.90151 13.5708L7.90029 13.5662C7.86352 13.4285 7.82072 13.2683 7.67801 13.2064Z" fill="#3CC8C8"/>
</svg>
