<svg width="26" height="26" viewBox="0 0 26 26" fill="none" xmlns="http://www.w3.org/2000/svg">
<path d="M13.6434 18.0771C17.7067 18.0771 21.0001 16.9031 21.0001 15.3301C21.0001 14.5093 20.1031 13.7698 18.6673 13.2489C17.5466 13.968 15.6662 14.3365 13.5341 14.3365C11.4529 14.3365 9.61305 13.8867 8.48222 13.1981C7.12777 13.7139 6.28664 14.4331 6.28664 15.2259C6.28664 16.8015 9.58001 18.0771 13.6434 18.0771Z" fill="white"/>
<path d="M13.6003 13.9834C16.6802 13.9834 19.1782 13.0177 19.1782 11.8259C19.1782 11.1652 18.4082 10.5731 17.2011 10.1792C16.3397 10.629 15.0487 10.9161 13.6003 10.9161C12.1518 10.9161 10.8609 10.629 9.99941 10.1792C8.78981 10.5756 8.02237 11.1652 8.02237 11.8259C8.01983 13.0177 10.5178 13.9834 13.6003 13.9834V13.9834Z" fill="white"/>
<path d="M13.6204 10.5577C16.0015 10.5577 17.9328 9.75972 17.9328 8.77883C17.9328 7.79793 16.0015 7 13.6204 7C11.2393 7 9.30802 7.79793 9.30802 8.77883C9.30802 9.75972 11.2393 10.5577 13.6204 10.5577V10.5577Z" fill="white"/>
</svg>
