<svg width="26" height="26" viewBox="0 0 26 26" fill="none" xmlns="http://www.w3.org/2000/svg">
<path fill-rule="evenodd" clip-rule="evenodd" d="M17.0386 12.7033C16.6633 12.3943 16.1748 12.2397 15.5729 12.2395C16.1986 11.6755 16.3532 10.9445 16.0368 10.0463C15.9245 9.72001 15.7641 9.45294 15.5553 9.24474C15.3463 9.03651 15.0977 8.88922 14.8085 8.80298C14.5196 8.7165 14.2175 8.67115 13.9027 8.66643C13.5879 8.66173 13.2347 8.68938 12.8434 8.74941L12.3671 6.83911L11.2487 7.11795L11.7118 8.97518C11.5181 9.02347 11.224 9.10215 10.8296 9.21125L10.3627 7.33886L9.24419 7.61774L9.72048 9.52804C9.56191 9.57296 9.32776 9.63408 9.01789 9.71134L7.4763 10.0876L7.78627 11.3308L8.59239 11.1298C8.96038 11.0381 9.2187 11.1562 9.3673 11.4841L9.90975 13.6598C9.95824 13.6477 9.99758 13.6406 10.0279 13.6384L9.91166 13.6674L10.6714 16.7147C10.697 16.982 10.5887 17.146 10.3466 17.2063L9.54054 17.4073L9.66125 18.8507L11.1138 18.4886C11.2058 18.4656 11.3392 18.4337 11.5142 18.3925C11.6891 18.3516 11.8201 18.3203 11.9073 18.2986L12.3892 20.2316L13.5079 19.9526L13.0316 18.0424C13.2362 17.9969 13.5322 17.9257 13.9196 17.8291L14.3939 19.7317L15.5123 19.4529L15.0304 17.5199C15.4225 17.4007 15.7653 17.2752 16.0587 17.1428C16.3523 17.0103 16.6248 16.8499 16.8759 16.6611C17.1271 16.4724 17.325 16.2659 17.4697 16.042C17.6145 15.8182 17.7145 15.5543 17.7701 15.2505C17.8253 14.9468 17.8253 14.6113 17.7696 14.244C17.6578 13.526 17.4139 13.0123 17.0386 12.7033ZM11.1915 10.5701L11.7718 12.8973C11.796 12.8912 11.8798 12.8718 12.0233 12.8386C12.1668 12.8055 12.2794 12.7775 12.3611 12.7544C12.4427 12.7314 12.5625 12.6961 12.7205 12.6487C12.8784 12.6013 13.0081 12.5542 13.1096 12.5074C13.211 12.4607 13.3287 12.4018 13.4627 12.3308C13.5966 12.2598 13.7025 12.1838 13.7799 12.1028C13.8575 12.0218 13.9302 11.9311 13.9977 11.831C14.0653 11.731 14.1065 11.6174 14.121 11.4903C14.1355 11.3632 14.1251 11.2288 14.0898 11.0873C14.0483 10.9206 13.9812 10.7803 13.8884 10.6666C13.7959 10.5528 13.6956 10.465 13.5876 10.4034C13.4797 10.3417 13.346 10.2999 13.1861 10.278C13.0265 10.2561 12.8828 10.2476 12.7555 10.2526C12.6282 10.2575 12.4743 10.2744 12.2938 10.3033C12.1132 10.3322 11.9712 10.3609 11.8677 10.3893C11.7643 10.4178 11.6342 10.4529 11.4774 10.4948C11.3208 10.5365 11.2255 10.5616 11.1915 10.5701ZM15.4304 15.3187C15.4816 15.2146 15.5156 15.0987 15.5327 14.9709C15.5498 14.8431 15.5407 14.7087 15.5054 14.5671C15.46 14.3851 15.3834 14.2324 15.2753 14.1091C15.1674 13.9856 15.049 13.8919 14.9197 13.8273C14.7905 13.7629 14.632 13.7206 14.4444 13.7003C14.2566 13.6799 14.0865 13.6728 13.9338 13.6786C13.7808 13.6845 13.596 13.7066 13.3793 13.7446C13.1624 13.7825 12.9934 13.8167 12.8724 13.8468C12.7513 13.877 12.5959 13.9183 12.4058 13.9711C12.2158 14.0239 12.1014 14.0551 12.0627 14.0647L12.7016 16.6271C12.7403 16.6174 12.8302 16.5963 12.9712 16.5637C13.1123 16.5311 13.2289 16.5035 13.3209 16.4806C13.4128 16.4577 13.5403 16.4218 13.703 16.3733C13.8657 16.3246 14.0048 16.2793 14.1202 16.2371C14.2358 16.1947 14.3684 16.139 14.5184 16.0694C14.668 15.9997 14.7936 15.931 14.8949 15.8627C14.9961 15.7945 15.098 15.7128 15.2002 15.6175C15.3024 15.5223 15.3791 15.4226 15.4304 15.3187Z" fill="#03A356"/>
</svg>
