<svg width="26" height="26" viewBox="0 0 26 26" fill="none" xmlns="http://www.w3.org/2000/svg">
<path fill-rule="evenodd" clip-rule="evenodd" d="M7.5101 17.3589C7.1214 17.121 6.8835 16.6985 6.8835 16.2435V13.7033C6.8835 13.4017 7.1292 13.1573 7.4308 13.1586C7.527 13.1586 7.6219 13.1846 7.7051 13.2327L13.4368 16.575C13.7722 16.77 13.9789 17.1288 13.9789 17.5175V20.1487C13.9802 20.5101 13.6877 20.8039 13.3263 20.8039C13.2054 20.8039 13.0858 20.7701 12.9831 20.7077L7.5101 17.3589ZM16.0537 12.5372C16.3891 12.7322 16.5945 13.0923 16.5958 13.4797V18.8201C16.5958 18.9774 16.5113 19.123 16.3735 19.1997L15.119 19.9056C15.1034 19.9147 15.0865 19.9212 15.0683 19.9264V16.9611C15.0683 16.5776 14.8668 16.2214 14.5366 16.0238L9.503 13.013V9.6655C9.503 9.3639 9.7487 9.1195 10.0503 9.1208C10.1465 9.1208 10.2414 9.1468 10.3246 9.1949L16.0537 12.5372ZM18.5627 8.593C18.8994 8.788 19.1061 9.1481 19.1061 9.5368V17.3368C19.1048 17.4967 19.0164 17.6436 18.876 17.7203L17.6865 18.3625V12.9324C17.6865 12.5489 17.485 12.194 17.1574 11.9964L12.012 8.9102V5.7356C12.012 5.6394 12.038 5.5445 12.0848 5.4613C12.2369 5.2013 12.571 5.1129 12.831 5.2637L18.5627 8.593Z" fill="#00D395"/>
</svg>
