<svg width="19" height="20" viewBox="0 0 19 20" fill="none" xmlns="http://www.w3.org/2000/svg">
<path opacity="0.4" d="M9.17542 4.87941C10.5228 4.87941 11.6151 3.78712 11.6151 2.43971C11.6151 1.09229 10.5228 0 9.17542 0C7.82801 0 6.73572 1.09229 6.73572 2.43971C6.73572 3.78712 7.82801 4.87941 9.17542 4.87941Z" fill="white"/>
<path opacity="0.9" d="M2.43971 8.20888C3.78712 8.20888 4.87941 7.11658 4.87941 5.76917C4.87941 4.42176 3.78712 3.32947 2.43971 3.32947C1.09229 3.32947 0 4.42176 0 5.76917C0 7.11658 1.09229 8.20888 2.43971 8.20888Z" fill="white"/>
<path opacity="0.9" d="M2.43971 16.5326C3.78712 16.5326 4.87941 15.4403 4.87941 14.0929C4.87941 12.7455 3.78712 11.6532 2.43971 11.6532C1.09229 11.6532 0 12.7455 0 14.0929C0 15.4403 1.09229 16.5326 2.43971 16.5326Z" fill="white"/>
<path opacity="0.4" d="M9.17542 19.8621C10.5228 19.8621 11.6151 18.7698 11.6151 17.4224C11.6151 16.075 10.5228 14.9827 9.17542 14.9827C7.82801 14.9827 6.73572 16.075 6.73572 17.4224C6.73572 18.7698 7.82801 19.8621 9.17542 19.8621Z" fill="white"/>
<path opacity="0.9" d="M15.7576 16.5326C17.105 16.5326 18.1973 15.4403 18.1973 14.0929C18.1973 12.7455 17.105 11.6532 15.7576 11.6532C14.4102 11.6532 13.3179 12.7455 13.3179 14.0929C13.3179 15.4403 14.4102 16.5326 15.7576 16.5326Z" fill="white"/>
<path opacity="0.9" d="M15.7576 8.20888C17.105 8.20888 18.1973 7.11658 18.1973 5.76917C18.1973 4.42176 17.105 3.32947 15.7576 3.32947C14.4102 3.32947 13.3179 4.42176 13.3179 5.76917C13.3179 7.11658 14.4102 8.20888 15.7576 8.20888Z" fill="white"/>
<path opacity="0.5" d="M9.17542 12.3996C10.5228 12.3996 11.6151 11.3073 11.6151 9.95985C11.6151 8.61243 10.5228 7.52014 9.17542 7.52014C7.82801 7.52014 6.73572 8.61243 6.73572 9.95985C6.73572 11.3073 7.82801 12.3996 9.17542 12.3996Z" fill="white"/>
</svg>
