<svg width="26" height="26" viewBox="0 0 26 26" fill="none" xmlns="http://www.w3.org/2000/svg">
<path d="M13.0671 6C10.2733 6.01175 8.01122 8.37938 8 11.3036C8 11.8892 8.09031 12.4709 8.26719 13.0263C8.39919 13.4044 8.79089 13.608 9.15855 13.4911C9.51392 13.3485 9.70256 12.9418 9.58927 12.5615C9.43911 12.1286 9.37231 11.6694 9.39208 11.2096C9.453 9.09756 11.1379 7.43692 13.1558 7.50068C15.1736 7.56444 16.7602 9.32801 16.6993 11.44C16.6421 13.4173 15.1544 15.0231 13.2675 15.1433C13.2675 15.1433 12.5562 15.1887 12.2024 15.234C12.072 15.2535 11.9427 15.2804 11.815 15.3145C11.7968 15.3341 11.7674 15.3341 11.7487 15.3151L11.7482 15.3145C11.7354 15.2972 11.7354 15.2726 11.7482 15.2552L11.8583 14.6265L12.5263 11.482C12.6064 11.0893 12.3676 10.7028 11.9924 10.6189C11.6173 10.535 11.248 10.7851 11.1679 11.1777C11.1679 11.1777 9.57912 18.8746 9.57912 18.9445C9.48827 19.3187 9.70416 19.6991 10.0617 19.7942C10.0654 19.7953 10.0697 19.7964 10.0734 19.797H10.1103C10.4673 19.8937 10.8317 19.6689 10.9236 19.2952C10.9252 19.2891 10.9268 19.2829 10.9279 19.2762C10.9268 19.2645 10.9268 19.2527 10.9279 19.2415C10.9477 19.1509 11.1481 18.1268 11.1481 18.1268C11.2998 17.3538 11.8952 16.7615 12.6401 16.6418C12.7935 16.6172 13.4379 16.5719 13.4379 16.5719C16.221 16.2816 18.2522 13.6846 17.9743 10.7716C17.721 8.11482 15.6182 6.06936 13.0671 6Z" fill="white"/>
<path d="M13.3744 18.2286C12.9175 18.129 12.4708 18.4361 12.3756 18.9138C12.3746 18.9182 12.374 18.9227 12.373 18.9272C12.2741 19.4021 12.5616 19.8713 13.0158 19.9748C13.0164 19.9748 13.0169 19.9748 13.0174 19.9754H13.041C13.4856 20.0878 13.9329 19.8014 14.0397 19.3366C14.0408 19.3333 14.0413 19.3293 14.0424 19.326V19.2773C14.121 18.7974 13.8281 18.3371 13.3744 18.2286Z" fill="#E6007A"/>
</svg>
