<svg width="9" height="12" viewBox="0 0 9 12" fill="none" xmlns="http://www.w3.org/2000/svg">
<path d="M6.34102 2.04197C5.58381 2.04197 4.94829 2.22452 4.43447 2.5896C4.12798 2.80595 3.85078 3.11244 3.60289 3.50907C3.35048 3.91923 3.20174 4.3091 3.15667 4.67869H7.76755L7.58501 5.58464H3.0485C3.04399 5.67929 3.04174 5.76944 3.04174 5.85507C3.04174 6.20213 3.04399 6.40946 3.0485 6.47707H7.40247L7.21316 7.38302H3.19048C3.37978 8.41517 3.83501 9.14759 4.55616 9.58028C5.07449 9.89128 5.63564 10.0468 6.2396 10.0468C7.08245 10.0468 7.74051 9.82593 8.21376 9.38422V10.7769C7.65036 11.0384 7.02837 11.1691 6.34778 11.1691C4.31052 11.1691 2.93357 10.3217 2.21692 8.62701C2.07269 8.28446 1.94874 7.8698 1.84507 7.38302H0.810669L0.999972 6.47707H1.70986C1.69634 6.28777 1.68958 6.08269 1.68958 5.86184C1.68958 5.77169 1.69183 5.67929 1.69634 5.58464H0.810669L0.999972 4.67869H1.78423C2.06367 3.20934 2.79159 2.15465 3.96797 1.51463C4.69363 1.11799 5.49366 0.919678 6.36806 0.919678C7.2064 0.919678 7.91178 1.10222 8.4842 1.4673L8.21376 2.72482C7.66388 2.26959 7.03964 2.04197 6.34102 2.04197Z" fill="white"/>
</svg>
