<svg width="18" height="18" viewBox="0 0 18 18" fill="none" xmlns="http://www.w3.org/2000/svg">
<path fill-rule="evenodd" clip-rule="evenodd" d="M12.6893 2.17002C11.5164 1.45696 10.1693 1.07923 8.78734 1.07923C7.51766 1.07923 6.26347 1.39914 5.16411 2.00814L4.63379 1.06381C5.89185 0.366167 7.32798 0 8.78347 0C10.3667 0 11.9151 0.431692 13.2583 1.24882L12.6893 2.17002Z" fill="#004651"/>
<path fill-rule="evenodd" clip-rule="evenodd" d="M16.7936 6.69799C16.5072 5.67273 16.0117 4.73996 15.3188 3.91898L16.0194 3.34082C16.7936 4.26202 17.3472 5.31041 17.6685 6.45517L16.7936 6.69799Z" fill="#00BFEC"/>
<path fill-rule="evenodd" clip-rule="evenodd" d="M14.9682 15.5717L14.2637 14.7469C15.9437 13.3362 16.9076 11.2779 16.9076 9.10022H17.9992C17.9992 11.594 16.896 13.9529 14.9682 15.5717Z" fill="#004651"/>
<path fill-rule="evenodd" clip-rule="evenodd" d="M8.68934 17.991C6.70353 17.991 4.76805 17.301 3.23901 16.0522L3.93579 15.2158C5.2674 16.3066 6.95901 16.9079 8.68934 16.9079C9.90095 16.9079 11.0584 16.6304 12.1229 16.0831L12.6261 17.0428C11.4222 17.6634 10.0597 17.991 8.68934 17.991Z" fill="#004651"/>
<path fill-rule="evenodd" clip-rule="evenodd" d="M1.39355 13.2716C0.48 11.8994 0 10.3037 0 8.65785C0 6.36449 0.917419 4.22145 2.58194 2.62573L3.2129 3.27712C1.73032 4.69939 0.909677 6.61117 0.909677 8.65785C0.909677 10.1264 1.33935 11.5525 2.15226 12.7743L1.39355 13.2716Z" fill="#00BFEC"/>
<path fill-rule="evenodd" clip-rule="evenodd" d="M3.10614 8.6949C3.10614 11.736 5.60679 14.2144 8.68033 14.2144C11.7539 14.2144 14.2545 11.7399 14.2545 8.6949C14.2545 5.65379 11.7539 3.17542 8.68033 3.17542C5.60679 3.17542 3.10614 5.64993 3.10614 8.6949ZM4.19775 8.6949C4.19775 6.24736 6.21066 4.25464 8.68033 4.25464C11.1539 4.25464 13.1629 6.24736 13.1629 8.6949C13.1629 11.1424 11.15 13.1352 8.68033 13.1352C6.20679 13.1352 4.19775 11.1424 4.19775 8.6949Z" fill="#004651"/>
</svg>
