<svg width="26" height="26" viewBox="0 0 26 26" fill="none" xmlns="http://www.w3.org/2000/svg">
<path d="M19.2275 17.4557V15.7971L16.3858 12.9302H14.6743L19.2275 17.4557Z" fill="white"/>
<path d="M7.00005 8.77188L7.00005 10.4321L9.84173 13.299H11.5532L7.00005 8.77188Z" fill="white"/>
<path d="M8.49271 7.00009H10.1513L13.0182 9.84178L15.8605 7.00009H17.5937L13.0198 11.5533L8.49271 7.00009Z" fill="white"/>
<path d="M8.77175 19.0882H10.4304L13.2972 16.2465L16.1396 19.0882H17.8743L13.2988 14.535L8.77175 19.0882Z" fill="white"/>
<path d="M13.112 13.8265C13.5518 13.8265 13.9083 13.4699 13.9083 13.0301C13.9083 12.5903 13.5518 12.2338 13.112 12.2338C12.6722 12.2338 12.3157 12.5903 12.3157 13.0301C12.3157 13.4699 12.6722 13.8265 13.112 13.8265Z" fill="#E6007A"/>
</svg>
