<svg width="26" height="26" viewBox="0 0 26 26" fill="none" xmlns="http://www.w3.org/2000/svg">
<path d="M11.4903 7.86837C11.3156 7.84206 11.3073 7.83329 11.3905 7.82451C11.5485 7.7982 11.9146 7.83329 12.1724 7.89469C12.7714 8.04381 13.3121 8.42978 13.886 9.10522L14.0358 9.28943L14.252 9.25434C15.1754 9.09645 16.1237 9.21925 16.914 9.60522C17.1302 9.71048 17.4713 9.92101 17.5129 9.97364C17.5295 9.99118 17.5545 10.1052 17.5711 10.2193C17.6293 10.6315 17.6044 10.9386 17.4796 11.1754C17.4131 11.307 17.4131 11.3421 17.4547 11.4561C17.4879 11.5438 17.5878 11.6052 17.6793 11.6052C17.8789 11.6052 18.0869 11.2719 18.1867 10.807L18.2283 10.6228L18.3031 10.7105C18.7274 11.2105 19.0601 11.9035 19.11 12.3947L19.1267 12.5263L19.0518 12.4122C18.927 12.2105 18.8106 12.0789 18.6525 11.9649C18.3697 11.7631 18.0702 11.7017 17.28 11.6579C16.5646 11.614 16.157 11.5526 15.7577 11.4122C15.0756 11.1754 14.7262 10.8684 13.9193 9.7368C13.5616 9.2368 13.337 8.96487 13.1124 8.7368C12.6216 8.2368 12.1308 7.97364 11.4903 7.86837Z" fill="#FF007A"/>
<path d="M17.6874 8.98249C17.7041 8.64916 17.7457 8.42986 17.8372 8.2281C17.8705 8.14916 17.9037 8.07898 17.912 8.07898C17.9204 8.07898 17.9037 8.14038 17.8788 8.21056C17.8122 8.40354 17.8039 8.67547 17.8455 8.98249C17.9037 9.37723 17.9287 9.42986 18.328 9.85968C18.511 10.0614 18.7273 10.3158 18.8104 10.4211L18.9519 10.6141L18.8104 10.4737C18.6358 10.2983 18.2365 9.96495 18.145 9.92109C18.0867 9.886 18.0784 9.886 18.0368 9.92986C18.0036 9.96495 17.9952 10.0176 17.9952 10.272C17.9869 10.6667 17.937 10.9123 17.8122 11.1667C17.7457 11.2983 17.7374 11.272 17.7956 11.1228C17.8372 11.0088 17.8455 10.9562 17.8455 10.579C17.8455 9.81582 17.7623 9.63161 17.2549 9.32459C17.1301 9.24565 16.9138 9.13161 16.789 9.07021C16.656 9.0088 16.5561 8.95617 16.5644 8.95617C16.5811 8.93863 17.0719 9.08775 17.2632 9.17547C17.5544 9.29828 17.6043 9.30705 17.6375 9.29828C17.6625 9.27196 17.6791 9.20179 17.6874 8.98249Z" fill="#FF007A"/>
<path d="M11.8313 10.2894C11.4819 9.78064 11.2573 8.99117 11.3072 8.40345L11.3239 8.21924L11.407 8.23678C11.5568 8.2631 11.8146 8.36836 11.9394 8.44731C12.2722 8.65784 12.4219 8.94731 12.5633 9.66661C12.6049 9.87713 12.6631 10.1227 12.6881 10.2017C12.7297 10.3333 12.8877 10.6403 13.0208 10.8333C13.1123 10.9736 13.0541 11.0438 12.8461 11.0263C12.53 10.9912 12.1058 10.6842 11.8313 10.2894Z" fill="#FF007A"/>
<path d="M17.263 14.1053C15.616 13.4035 15.0337 12.7982 15.0337 11.7719C15.0337 11.6228 15.042 11.5 15.042 11.5C15.0503 11.5 15.1086 11.5526 15.1834 11.614C15.5162 11.8947 15.8905 12.0175 16.9303 12.1754C17.5376 12.2719 17.8869 12.3421 18.203 12.4561C19.2096 12.807 19.8335 13.5263 19.9832 14.5C20.0248 14.7807 19.9998 15.3158 19.9333 15.5965C19.875 15.8158 19.7087 16.2193 19.6671 16.2281C19.6588 16.2281 19.6421 16.1842 19.6421 16.114C19.6255 15.7456 19.4508 15.3947 19.1597 15.1228C18.8103 14.807 18.3611 14.5702 17.263 14.1053Z" fill="#FF007A"/>
<path d="M16.0986 14.3948C16.082 14.2632 16.0404 14.0965 16.0154 14.0264L15.9738 13.8948L16.0487 13.9913C16.1568 14.1228 16.24 14.2807 16.3149 14.5C16.3731 14.6667 16.3731 14.7193 16.3731 14.9913C16.3731 15.2544 16.3648 15.3158 16.3149 15.465C16.2317 15.7018 16.1319 15.8685 15.9655 16.0527C15.6661 16.3772 15.2751 16.5527 14.7177 16.6316C14.6179 16.6404 14.3351 16.6667 14.0855 16.6843C13.4617 16.7193 13.0457 16.7895 12.6714 16.9299C12.6215 16.9474 12.5716 16.965 12.5633 16.9562C12.5466 16.9386 12.8045 16.7807 13.0125 16.6755C13.3036 16.5264 13.6031 16.4474 14.2602 16.3246C14.5847 16.272 14.9174 16.2018 15.0006 16.1667C15.8241 15.8948 16.2317 15.2193 16.0986 14.3948Z" fill="#FF007A"/>
<path d="M16.8556 15.807C16.6394 15.307 16.5895 14.8333 16.7059 14.3859C16.7226 14.3421 16.7392 14.2982 16.7558 14.2982C16.7725 14.2982 16.8224 14.3245 16.8723 14.3596C16.9721 14.4298 17.1801 14.5526 17.7125 14.8596C18.3862 15.2456 18.7689 15.5438 19.0351 15.8859C19.268 16.1842 19.4094 16.5263 19.476 16.9473C19.5176 17.1842 19.4926 17.7544 19.4344 17.9912C19.2514 18.7368 18.8354 19.3333 18.2282 19.6754C18.1367 19.7281 18.0618 19.7631 18.0535 19.7631C18.0452 19.7631 18.0785 19.6754 18.1284 19.5702C18.328 19.1228 18.353 18.693 18.2032 18.2105C18.1117 17.9123 17.9204 17.5526 17.5378 16.9473C17.0802 16.2456 16.9721 16.0614 16.8556 15.807Z" fill="#FF007A"/>
<path d="M10.6583 18.4912C11.2739 17.9473 12.0309 17.5613 12.7296 17.4385C13.0291 17.3859 13.5282 17.4034 13.8027 17.4824C14.2436 17.6052 14.6429 17.8684 14.8508 18.1929C15.0505 18.5087 15.142 18.7806 15.2335 19.3859C15.2668 19.6227 15.3084 19.8684 15.3167 19.921C15.3832 20.2368 15.5163 20.4824 15.6827 20.614C15.9406 20.8157 16.3898 20.8245 16.8306 20.6491C16.9055 20.6228 16.9721 20.5964 16.9721 20.6052C16.9887 20.6228 16.7641 20.7806 16.6144 20.8596C16.4064 20.9736 16.24 21.0087 16.0154 21.0087C15.6161 21.0087 15.2751 20.7894 15.0006 20.3508C14.9423 20.2631 14.8259 20.0087 14.7261 19.7719C14.4349 19.0613 14.2852 18.8508 13.9441 18.614C13.6447 18.4122 13.262 18.3684 12.9709 18.5175C12.5882 18.7105 12.4884 19.228 12.7546 19.5438C12.8627 19.6754 13.0624 19.7806 13.2287 19.807C13.5365 19.8508 13.8027 19.5964 13.8027 19.2719C13.8027 19.0613 13.7278 18.9385 13.5282 18.842C13.262 18.7192 12.9709 18.8596 12.9792 19.1315C12.9792 19.2456 13.0291 19.3157 13.1372 19.3684C13.2038 19.4034 13.2038 19.4034 13.1539 19.3947C12.9126 19.342 12.8544 19.0263 13.0457 18.8245C13.2787 18.5789 13.7694 18.6841 13.9358 19.0263C14.0024 19.1666 14.0107 19.4473 13.9524 19.6227C13.811 20.0087 13.4117 20.2105 13.0041 20.0964C12.7296 20.0175 12.6132 19.9385 12.2804 19.5789C11.6981 18.9473 11.4735 18.8245 10.6417 18.6929L10.4836 18.6666L10.6583 18.4912Z" fill="#FF007A"/>
<path fill-rule="evenodd" clip-rule="evenodd" d="M6.28247 4.37719C8.22067 6.85965 11.207 10.7193 11.3567 10.9298C11.4815 11.1053 11.4316 11.2719 11.2236 11.3947C11.1072 11.4649 10.8659 11.5351 10.7495 11.5351C10.6164 11.5351 10.4583 11.4649 10.3502 11.3509C10.2753 11.2719 9.95091 10.7719 9.21889 9.57018C8.66155 8.64912 8.1874 7.88596 8.17908 7.87719C8.1458 7.85965 8.1458 7.85965 9.16066 9.77193C9.80118 10.9737 10.0091 11.4035 10.0091 11.4561C10.0091 11.5702 9.97587 11.6316 9.84277 11.7895C9.61818 12.0526 9.51835 12.3509 9.44349 12.9737C9.3603 13.6667 9.1357 14.1579 8.49518 14.9912C8.12085 15.4825 8.06262 15.5702 7.97112 15.7719C7.85466 16.0175 7.82138 16.1579 7.80475 16.4737C7.78811 16.807 7.82138 17.0175 7.91289 17.3333C7.99607 17.614 8.08758 17.7982 8.31217 18.1579C8.5035 18.4737 8.61996 18.7105 8.61996 18.7982C8.61996 18.8684 8.6366 18.8684 8.93606 18.7982C9.65145 18.6228 10.2421 18.3246 10.5665 17.9561C10.7661 17.7281 10.816 17.6053 10.816 17.2895C10.816 17.0877 10.8077 17.0439 10.7578 16.9211C10.6746 16.7281 10.5166 16.5702 10.1755 16.3246C9.72632 16 9.53499 15.7368 9.48508 15.386C9.44349 15.0877 9.4934 14.886 9.74295 14.3333C10.0008 13.7632 10.0674 13.5263 10.109 12.9474C10.1339 12.5789 10.1755 12.4298 10.2753 12.3158C10.3835 12.193 10.475 12.1491 10.7329 12.114C11.1571 12.0526 11.4316 11.9386 11.6479 11.7193C11.8392 11.5351 11.9224 11.3509 11.9307 11.0789L11.939 10.8772L11.8309 10.7544C11.4399 10.2807 6.02459 4 5.99964 4C5.99132 4 6.12441 4.16667 6.28247 4.37719ZM8.83624 16.8509C8.92774 16.6842 8.87783 16.4737 8.7281 16.3684C8.58668 16.2719 8.3704 16.3158 8.3704 16.4474C8.3704 16.4825 8.38704 16.5175 8.43695 16.5351C8.51182 16.5789 8.52014 16.6228 8.46191 16.7193C8.40368 16.8158 8.40368 16.9035 8.47854 16.9649C8.595 17.0614 8.75305 17.0088 8.83624 16.8509Z" fill="#FF007A"/>
<path fill-rule="evenodd" clip-rule="evenodd" d="M12.2057 12.2369C12.006 12.2983 11.8147 12.5264 11.7565 12.7544C11.7232 12.8948 11.7398 13.1492 11.7981 13.2281C11.8896 13.3509 11.9727 13.386 12.2057 13.386C12.6632 13.386 13.0541 13.1755 13.0957 12.9211C13.1373 12.7106 12.9626 12.4211 12.7214 12.2895C12.5966 12.2194 12.3388 12.193 12.2057 12.2369ZM12.738 12.6755C12.8046 12.5702 12.7796 12.4562 12.6549 12.3772C12.4303 12.2281 12.0892 12.3509 12.0892 12.579C12.0892 12.693 12.2639 12.8158 12.4303 12.8158C12.5384 12.8158 12.6881 12.7457 12.738 12.6755Z" fill="#FF007A"/>
</svg>
