<svg width="8" height="13" viewBox="0 0 8 13" fill="none" xmlns="http://www.w3.org/2000/svg">
<path d="M3.30605 9.53293V6.70015C2.42264 6.44774 1.7736 6.06688 1.35893 5.55757C0.948777 5.04375 0.743699 4.42175 0.743699 3.69158C0.743699 2.9524 0.975821 2.33266 1.44006 1.83236C1.90881 1.32755 2.53081 1.03684 3.30605 0.960214V0.290894H4.28637V0.960214C5.00301 1.04585 5.57318 1.29149 5.99685 1.69714C6.42053 2.09829 6.69096 2.6369 6.80815 3.31298L5.09767 3.53609C4.994 3.00423 4.72357 2.64366 4.28637 2.45436V5.09783C5.3681 5.3908 6.10503 5.77166 6.49715 6.24041C6.88928 6.70466 7.08535 7.30186 7.08535 8.03203C7.08535 8.84783 6.83745 9.53518 6.34166 10.0941C5.85037 10.653 5.16527 10.9955 4.28637 11.1217V12.386H3.30605V11.1555C2.5263 11.0609 1.89304 10.7702 1.40626 10.2834C0.919481 9.7966 0.608483 9.10925 0.473267 8.22133L2.23784 8.03203C2.30996 8.39261 2.44517 8.7036 2.64349 8.96502C2.84181 9.22644 3.06266 9.41574 3.30605 9.53293ZM3.30605 2.43407C3.04012 2.52422 2.82828 2.67746 2.67053 2.89381C2.51278 3.11015 2.4339 3.34904 2.4339 3.61045C2.4339 3.84934 2.50602 4.07244 2.65025 4.27978C2.79448 4.4826 3.01308 4.64711 3.30605 4.77332V2.43407ZM4.28637 9.62758C4.62441 9.56448 4.89935 9.40898 5.11119 9.16109C5.32303 8.90868 5.42895 8.61346 5.42895 8.27542C5.42895 7.97344 5.3388 7.71427 5.15851 7.49792C4.98273 7.27707 4.69202 7.10805 4.28637 6.99086V9.62758Z" fill="white"/>
</svg>
