<svg width="26" height="26" viewBox="0 0 26 26" fill="none" xmlns="http://www.w3.org/2000/svg">
<g clip-path="url(#clip0)">
<path fill-rule="evenodd" clip-rule="evenodd" d="M7.93049 7.06385L5.01312 12.7874C5.00202 12.8087 4.9985 12.8328 5.00308 12.8561C5.00766 12.8793 5.0201 12.9007 5.03858 12.9169L12.9177 19.9688C12.9401 19.9888 12.9699 20 13.0009 20C13.0319 20 13.0617 19.9888 13.0841 19.9688L20.9632 12.9173C20.9816 12.9011 20.9941 12.8798 20.9987 12.8565C21.0032 12.8332 20.9997 12.8092 20.9886 12.7879L18.0713 7.06429C18.0618 7.04507 18.0467 7.02878 18.0276 7.01738C18.0086 7.00598 17.9864 6.99995 17.9638 7.00001H8.0389C8.01616 6.99974 7.99383 7.00563 7.97459 7.01696C7.95535 7.02829 7.94003 7.04457 7.93049 7.06385V7.06385V7.06385Z" fill="#50AF95"/>
<path fill-rule="evenodd" clip-rule="evenodd" d="M14.0122 13.3752C13.9556 13.3792 13.6634 13.3954 13.0115 13.3954C12.4929 13.3954 12.1248 13.3809 11.9956 13.3752C9.9918 13.2929 8.49612 12.9671 8.49612 12.577C8.49612 12.1869 9.9918 11.8615 11.9956 11.7779V13.0507C12.1267 13.0595 12.5019 13.0802 13.0204 13.0802C13.6426 13.0802 13.9542 13.056 14.0103 13.0512V11.7788C16.0099 11.862 17.5023 12.1878 17.5023 12.577C17.5023 12.9662 16.0104 13.292 14.0103 13.3748L14.0122 13.3752ZM14.0122 11.6471V10.5081H16.8027V8.77124H9.20507V10.5081H11.9952V11.6467C9.72736 11.744 8.02191 12.1636 8.02191 12.6664C8.02191 13.1691 9.72736 13.5883 11.9952 13.686V17.3359H14.0117V13.6847C16.2743 13.5874 17.9769 13.1683 17.9769 12.6659C17.9769 12.1636 16.2757 11.7444 14.0117 11.6467L14.0122 11.6471Z" fill="white"/>
</g>
<defs>
<clipPath id="clip0">
<rect width="16" height="13" fill="white" transform="translate(5 7)"/>
</clipPath>
</defs>
</svg>
