<svg width="12" height="12" viewBox="0 0 12 12" fill="none" xmlns="http://www.w3.org/2000/svg">
<path d="M7.57195 0.322845C6.75831 0.786045 6.27653 1.62251 6.27653 2.50457C6.27653 2.96777 6.46847 3.43457 6.70877 3.85103C6.90071 4.22303 6.99483 4.87229 6.32489 5.19749C5.84683 5.47469 5.22142 5.28989 4.93536 4.82549C4.64925 4.45349 4.31366 4.08149 3.88142 3.80423C3.06778 3.34103 2.10795 3.34103 1.29424 3.80423C0.480534 4.26743 0 5.10599 0 5.98829C0 6.87059 0.478057 7.70675 1.29405 8.17122C2.1077 8.63442 3.06753 8.63442 3.88123 8.17122C4.31347 7.93841 4.649 7.56881 4.88688 7.14995C5.07882 6.82475 5.60641 6.40595 6.27641 6.77795C6.75447 7.05515 6.89811 7.66121 6.66029 8.12442C6.42006 8.54322 6.27641 9.00768 6.27641 9.47088C6.27641 10.3541 6.75447 11.1893 7.57183 11.6526C8.38547 12.1158 9.3453 12.1158 10.159 11.6526C10.9727 11.1894 11.4545 10.3529 11.4545 9.47088C11.4545 8.58882 10.9753 7.75241 10.1591 7.28795C9.72689 7.05515 9.24759 6.96275 8.72124 6.96275C8.289 6.96275 7.7156 6.68555 7.7156 5.98829C7.7156 5.43029 8.14783 5.01383 8.72124 5.01383C9.1993 5.01383 9.72689 4.92143 10.1591 4.68863C10.9728 4.22543 11.4545 3.38897 11.4545 2.50697C11.4545 1.62497 10.9753 0.788505 10.1591 0.325245C9.77525 0.0924445 9.29713 4.43725e-05 8.86508 4.43725e-05C8.43531 -0.00235563 7.95354 0.0924445 7.57214 0.322845" fill="#1276A7"/>
</svg>
