<svg width="8" height="10" viewBox="0 0 8 10" fill="none" xmlns="http://www.w3.org/2000/svg">
<path d="M3.75284 6.01788H1.44064V10H0.135803V0.15625H3.39452C4.50329 0.15625 5.35515 0.408654 5.95011 0.913462C6.54956 1.41827 6.84929 2.15294 6.84929 3.11749C6.84929 3.73047 6.68253 4.26457 6.34899 4.7198C6.01997 5.17503 5.56023 5.51532 4.96979 5.74068L7.28199 9.91887V10H5.88926L3.75284 6.01788ZM1.44064 4.95643H3.43508C4.07961 4.95643 4.59118 4.78966 4.96979 4.45613C5.3529 4.1226 5.54446 3.67638 5.54446 3.11749C5.54446 2.50901 5.36191 2.04252 4.99683 1.718C4.63625 1.39348 4.11342 1.22897 3.42832 1.22446H1.44064V4.95643Z" fill="white"/>
</svg>
