<svg width="436" height="216" viewBox="0 0 436 216" fill="none" xmlns="http://www.w3.org/2000/svg">
<path style="mix-blend-mode:multiply" opacity="0.47" d="M181.962 151.101L127.826 174.359L273.199 192.093L327.371 168.996L181.962 151.101Z" fill="url(#paint0_linear_464_1811)"/>
<path style="mix-blend-mode:multiply" opacity="0.47" d="M435.024 169.806L337.254 159.713L269.785 191.975L435.023 208.989L435.024 169.806Z" fill="url(#paint1_linear_464_1811)"/>
<path style="mix-blend-mode:multiply" opacity="0.47" d="M69.5672 164.607L0.866943 199.021L145.252 215.203L219.859 181.146L69.5672 164.607Z" fill="url(#paint2_linear_464_1811)"/>
<path d="M216.155 180.55L161.767 203.992L20.989 188.601L21.0096 109.671L75.3466 86.3107V70.5393L92.5287 63.1794V47.4079L109.7 40.0574V24.286L164.01 0.974365L230.862 8.05651L230.816 23.6835L249.267 25.7387L249.244 41.3581L267.695 43.4132L267.672 59.0326L286.123 61.0878L285.956 76.5574L304.407 78.6126L304.312 94.3071L322.763 96.3623L322.884 112.131L341.335 114.187L341.372 129.968L408.253 137.288L408.266 168.129L336.756 199.226L269.898 192.141V176.369L287.123 168.942L286.821 164.998L197.411 155.603L197.669 162.714L216.12 164.769L216.155 180.55Z" fill="url(#paint3_linear_464_1811)"/>
<path d="M142.212 187.062L142.205 77.6719L159.388 70.2633V54.5388L176.558 47.1401V31.4168L193.738 24.0106V164.327L140.581 187.06" fill="url(#paint4_linear_464_1811)"/>
<path d="M304.944 167.37L176.509 153.33V31.9952L294.988 134.595L304.943 171.19" fill="url(#paint5_linear_464_1811)"/>
<path style="mix-blend-mode:overlay" opacity="0.3" d="M304.944 167.37L176.509 153.33V31.9952L294.988 134.595L304.943 171.19" fill="url(#paint6_linear_464_1811)"/>
<path d="M230.891 7.87152L176.557 31.2906V47.0861L230.898 23.6629L230.891 7.87152Z" fill="url(#paint7_linear_464_1811)"/>
<path d="M176.558 31.4133L230.862 8.05648L164.007 0.974915L109.703 24.3317L176.558 31.4133Z" fill="url(#paint8_linear_464_1811)"/>
<path d="M408.26 137.282L336.758 167.753V199.3L408.268 168.127L408.26 137.282Z" fill="url(#paint9_linear_464_1811)"/>
<path d="M354.08 160.382L408.252 137.286L341.371 129.962L287.234 153.22L354.08 160.382Z" fill="url(#paint10_linear_464_1811)"/>
<path d="M161.813 203.971L216.155 180.549L216.118 164.768L161.776 188.19L161.813 203.971Z" fill="url(#paint11_linear_464_1811)"/>
<path d="M161.776 188.19L216.118 164.768L197.667 162.712L143.325 186.135L161.776 188.19Z" fill="url(#paint12_linear_464_1811)"/>
<path d="M143.33 186.134L197.671 162.712L197.634 146.93L143.293 170.352L143.33 186.134Z" fill="url(#paint13_linear_464_1811)"/>
<path d="M143.293 170.352L197.634 146.93L179.183 144.875L124.841 168.298L143.293 170.352Z" fill="url(#paint14_linear_464_1811)"/>
<path style="mix-blend-mode:multiply" opacity="0.3" d="M143.293 170.352L197.634 146.93L179.183 144.875L124.841 168.298L143.293 170.352Z" fill="url(#paint15_linear_464_1811)"/>
<path d="M124.849 168.291L179.193 144.869L179.156 129.087L124.814 152.509L124.849 168.291Z" fill="url(#paint16_linear_464_1811)"/>
<path d="M124.812 152.509L179.153 129.087L160.702 127.032L106.341 150.451L124.812 152.509Z" fill="url(#paint17_linear_464_1811)"/>
<path style="mix-blend-mode:multiply" opacity="0.3" d="M124.812 152.509L179.153 129.087L160.702 127.032L106.361 150.454L124.812 152.509Z" fill="url(#paint18_linear_464_1811)"/>
<path d="M106.358 150.445L160.7 127.023L160.664 111.244L106.322 134.666L106.358 150.445Z" fill="url(#paint19_linear_464_1811)"/>
<path d="M106.323 134.667L160.664 111.244L142.213 109.189L87.8711 132.611L106.323 134.667Z" fill="url(#paint20_linear_464_1811)"/>
<path style="mix-blend-mode:multiply" opacity="0.3" d="M106.321 134.664L160.664 111.244L142.213 109.189L87.8711 132.611L106.321 134.664Z" fill="url(#paint21_linear_464_1811)"/>
<path d="M87.8693 132.609L142.212 109.189L142.206 93.3935L87.8716 116.813L87.8693 132.609Z" fill="url(#paint22_linear_464_1811)"/>
<path d="M87.8799 116.827L142.206 93.3935L75.35 86.3119L21.0466 109.671L87.8799 116.827Z" fill="url(#paint23_linear_464_1811)"/>
<path d="M21.0096 109.671L20.989 188.601L161.766 203.991L161.775 188.19L143.329 186.134L143.292 170.353L124.848 168.291L124.811 152.51L106.357 150.446L106.32 134.665L87.9087 132.61L87.8717 116.818L21.0096 109.671Z" fill="url(#paint24_linear_464_1811)"/>
<path style="mix-blend-mode:overlay" opacity="0.45" d="M21.0096 109.671L20.989 188.601L161.766 203.991L161.775 188.19L143.329 186.134L143.292 170.353L124.848 168.291L124.811 152.51L106.357 150.446L106.32 134.665L87.9087 132.61L87.8717 116.818L21.0096 109.671Z" fill="url(#paint25_linear_464_1811)"/>
<path d="M75.3465 86.3107L142.206 93.3934V77.6719L75.3459 70.5392L75.3465 86.3107Z" fill="url(#paint26_linear_464_1811)"/>
<path style="mix-blend-mode:overlay" opacity="0.27" d="M75.3465 86.3107L142.206 93.3934V77.6719L75.3459 70.5392L75.3465 86.3107Z" fill="url(#paint27_linear_464_1811)"/>
<path d="M92.5704 63.1118L159.387 70.2644L142.206 77.6719L75.3453 70.5392L92.5704 63.1118Z" fill="url(#paint28_linear_464_1811)"/>
<path style="mix-blend-mode:multiply" opacity="0.4" d="M92.5704 63.1118L159.387 70.2644L142.206 77.6719L75.3453 70.5392L92.5704 63.1118Z" fill="url(#paint29_linear_464_1811)"/>
<path d="M92.5276 63.1794L159.387 70.2645V54.5406L92.527 47.408L92.5276 63.1794Z" fill="url(#paint30_linear_464_1811)"/>
<path style="mix-blend-mode:overlay" opacity="0.27" d="M92.5276 63.1794L159.387 70.2645V54.5406L92.527 47.408L92.5276 63.1794Z" fill="url(#paint31_linear_464_1811)"/>
<path d="M109.751 39.9799L176.568 47.1325L159.387 54.5406L92.5264 47.4079L109.751 39.9799Z" fill="url(#paint32_linear_464_1811)"/>
<path style="mix-blend-mode:multiply" opacity="0.4" d="M109.751 39.9799L176.568 47.1325L159.387 54.5406L92.5264 47.4079L109.751 39.9799Z" fill="url(#paint33_linear_464_1811)"/>
<path d="M109.697 40.0568L176.556 47.1419V31.418L109.697 24.2859L109.697 40.0568Z" fill="url(#paint34_linear_464_1811)"/>
<path style="mix-blend-mode:overlay" opacity="0.27" d="M109.697 40.0568L176.556 47.1419V31.418L109.697 24.2859L109.697 40.0568Z" fill="url(#paint35_linear_464_1811)"/>
<path style="mix-blend-mode:multiply" opacity="0.3" d="M197.667 162.714L216.118 164.769L161.776 188.191L143.325 186.136L197.667 162.714Z" fill="url(#paint36_linear_464_1811)"/>
<path d="M194.961 64.9415L249.304 41.5195L249.267 25.738L194.924 49.1601L194.961 64.9415Z" fill="url(#paint37_linear_464_1811)"/>
<path d="M176.474 47.1055L194.925 49.1607L249.267 25.7387L230.816 23.6835L176.475 47.1055" fill="url(#paint38_linear_464_1811)"/>
<path style="mix-blend-mode:multiply" opacity="0.3" d="M230.816 23.684L176.474 47.106L194.925 49.1612L249.267 25.7392L230.816 23.684Z" fill="url(#paint39_linear_464_1811)"/>
<path d="M213.389 82.616L267.731 59.194L267.694 43.4126L213.352 66.8346L213.389 82.616Z" fill="url(#paint40_linear_464_1811)"/>
<path d="M194.902 64.78L213.353 66.8352L267.695 43.4132L249.244 41.358L194.903 64.7795" fill="url(#paint41_linear_464_1811)"/>
<path style="mix-blend-mode:multiply" opacity="0.3" d="M194.902 64.78L213.353 66.8352L267.695 43.4132L249.244 41.358L194.903 64.7795" fill="url(#paint42_linear_464_1811)"/>
<path d="M231.817 100.29L286.159 76.868L286.122 61.0866L231.78 84.5086L231.817 100.29Z" fill="url(#paint43_linear_464_1811)"/>
<path d="M213.33 82.454L231.781 84.5092L286.123 61.0872L267.672 59.032L213.33 82.454Z" fill="url(#paint44_linear_464_1811)"/>
<path style="mix-blend-mode:multiply" opacity="0.3" d="M213.33 82.454L231.781 84.5092L286.123 61.0872L267.672 59.032L213.33 82.454Z" fill="url(#paint45_linear_464_1811)"/>
<path d="M250.102 117.814L304.444 94.3917L304.407 78.6102L250.065 102.032L250.102 117.814Z" fill="url(#paint46_linear_464_1811)"/>
<path d="M231.614 99.9783L250.065 102.033L304.407 78.6114L285.956 76.5562L231.614 99.9783" fill="url(#paint47_linear_464_1811)"/>
<path style="mix-blend-mode:multiply" opacity="0.3" d="M231.614 99.9783L250.065 102.033L304.407 78.6114L285.956 76.5562L231.614 99.9783" fill="url(#paint48_linear_464_1811)"/>
<path d="M268.458 135.563L322.799 112.141L322.762 96.36L268.421 119.782L268.458 135.563Z" fill="url(#paint49_linear_464_1811)"/>
<path d="M249.97 117.727L268.421 119.783L322.762 96.3605L304.311 94.3054L249.969 117.727" fill="url(#paint50_linear_464_1811)"/>
<path style="mix-blend-mode:multiply" opacity="0.3" d="M249.97 117.727L268.421 119.783L322.762 96.3605L304.311 94.3054L249.969 117.727" fill="url(#paint51_linear_464_1811)"/>
<path d="M287.03 153.387L341.371 129.965L341.334 114.184L286.993 137.606L287.03 153.387Z" fill="url(#paint52_linear_464_1811)"/>
<path d="M268.545 135.554L286.996 137.609L341.337 114.187L322.886 112.132L268.545 135.554Z" fill="url(#paint53_linear_464_1811)"/>
<path style="mix-blend-mode:multiply" opacity="0.3" d="M268.545 135.554L286.996 137.609L341.337 114.187L322.886 112.132L268.545 135.554Z" fill="url(#paint54_linear_464_1811)"/>
<path d="M287.211 169.018L354.07 176.103V160.379L287.21 153.247L287.211 169.018Z" fill="url(#paint55_linear_464_1811)"/>
<path style="mix-blend-mode:overlay" opacity="0.27" d="M287.211 169.018L354.07 176.103V160.379L287.21 153.247L287.211 169.018Z" fill="url(#paint56_linear_464_1811)"/>
<path d="M269.898 192.141L336.757 199.226V183.502L269.898 176.369V192.141Z" fill="url(#paint57_linear_464_1811)"/>
<path style="mix-blend-mode:overlay" opacity="0.27" d="M269.898 192.141L336.757 199.226V183.502L269.898 176.369V192.141Z" fill="url(#paint58_linear_464_1811)"/>
<path d="M287.121 168.941L353.938 176.094L336.757 183.501L269.898 176.369L287.121 168.941Z" fill="url(#paint59_linear_464_1811)"/>
<path style="mix-blend-mode:multiply" opacity="0.4" d="M287.121 168.941L353.938 176.094L336.757 183.501L269.898 176.369L287.121 168.941Z" fill="url(#paint60_linear_464_1811)"/>
<defs>
<linearGradient id="paint0_linear_464_1811" x1="224.007" y1="199.389" x2="224.209" y2="161.898" gradientUnits="userSpaceOnUse">
<stop stop-color="white" stop-opacity="0"/>
<stop offset="0.107" stop-color="#F9F1F3" stop-opacity="0.145"/>
<stop offset="0.347" stop-color="#EED6DD" stop-opacity="0.447"/>
<stop offset="0.564" stop-color="#E4C1CA" stop-opacity="0.686"/>
<stop offset="0.753" stop-color="#DEB1BD" stop-opacity="0.855"/>
<stop offset="0.904" stop-color="#DAA8B5" stop-opacity="0.961"/>
<stop offset="1" stop-color="#D9A5B3"/>
</linearGradient>
<linearGradient id="paint1_linear_464_1811" x1="349.76" y1="220.273" x2="350.393" y2="166.486" gradientUnits="userSpaceOnUse">
<stop stop-color="white" stop-opacity="0"/>
<stop offset="0.107" stop-color="#F9F1F3" stop-opacity="0.145"/>
<stop offset="0.347" stop-color="#EED6DD" stop-opacity="0.447"/>
<stop offset="0.564" stop-color="#E4C1CA" stop-opacity="0.686"/>
<stop offset="0.753" stop-color="#DEB1BD" stop-opacity="0.855"/>
<stop offset="0.904" stop-color="#DAA8B5" stop-opacity="0.961"/>
<stop offset="1" stop-color="#D9A5B3"/>
</linearGradient>
<linearGradient id="paint2_linear_464_1811" x1="107.735" y1="209.638" x2="107.992" y2="173.075" gradientUnits="userSpaceOnUse">
<stop stop-color="white" stop-opacity="0"/>
<stop offset="0.035" stop-color="#F9F1F3" stop-opacity="0.145"/>
<stop offset="0.113" stop-color="#EED6DD" stop-opacity="0.447"/>
<stop offset="0.183" stop-color="#E4C1CA" stop-opacity="0.686"/>
<stop offset="0.245" stop-color="#DEB1BD" stop-opacity="0.855"/>
<stop offset="0.294" stop-color="#DAA8B5" stop-opacity="0.961"/>
<stop offset="0.325" stop-color="#D9A5B3"/>
<stop offset="1" stop-color="#D9A5B3"/>
</linearGradient>
<linearGradient id="paint3_linear_464_1811" x1="20.989" y1="102.483" x2="408.266" y2="102.483" gradientUnits="userSpaceOnUse">
<stop stop-color="#A89CFF"/>
<stop offset="1" stop-color="#8476E3"/>
</linearGradient>
<linearGradient id="paint4_linear_464_1811" x1="191.027" y1="131.298" x2="191.027" y2="14.5536" gradientUnits="userSpaceOnUse">
<stop stop-color="#342F52"/>
<stop offset="0.365" stop-color="#534B83"/>
<stop offset="1" stop-color="#6E63B0"/>
</linearGradient>
<linearGradient id="paint5_linear_464_1811" x1="226.213" y1="150.589" x2="252.485" y2="75.125" gradientUnits="userSpaceOnUse">
<stop stop-color="#A89CFF"/>
<stop offset="0.423" stop-color="#B9B0FF"/>
<stop offset="1" stop-color="#CFC9FF"/>
</linearGradient>
<linearGradient id="paint6_linear_464_1811" x1="230.451" y1="136.391" x2="256.725" y2="60.7862" gradientUnits="userSpaceOnUse">
<stop stop-color="white" stop-opacity="0"/>
<stop offset="0.99" stop-color="white"/>
</linearGradient>
<linearGradient id="paint7_linear_464_1811" x1="201.337" y1="21.7927" x2="204.198" y2="34.7933" gradientUnits="userSpaceOnUse">
<stop stop-color="#6E63B0"/>
<stop offset="1" stop-color="#524A82"/>
</linearGradient>
<linearGradient id="paint8_linear_464_1811" x1="178.279" y1="5.7233" x2="179.555" y2="27.7672" gradientUnits="userSpaceOnUse">
<stop stop-color="#8174CF"/>
<stop offset="1" stop-color="#9085D5"/>
</linearGradient>
<linearGradient id="paint9_linear_464_1811" x1="372.513" y1="271.364" x2="372.513" y2="140.321" gradientUnits="userSpaceOnUse">
<stop stop-color="#3C355D"/>
<stop offset="0.317" stop-color="#463F70"/>
<stop offset="1" stop-color="#60569B"/>
</linearGradient>
<linearGradient id="paint10_linear_464_1811" x1="0.906135" y1="134.798" x2="2.18247" y2="156.801" gradientUnits="userSpaceOnUse">
<stop stop-color="#8174CF"/>
<stop offset="1" stop-color="#9085D5"/>
</linearGradient>
<linearGradient id="paint11_linear_464_1811" x1="172.162" y1="177.509" x2="168.977" y2="191.828" gradientUnits="userSpaceOnUse">
<stop stop-color="#6E63B0"/>
<stop offset="1" stop-color="#524A82"/>
</linearGradient>
<linearGradient id="paint12_linear_464_1811" x1="142.088" y1="175.451" x2="214.881" y2="175.451" gradientUnits="userSpaceOnUse">
<stop stop-color="#8477D5"/>
<stop offset="1" stop-color="#9085D5"/>
</linearGradient>
<linearGradient id="paint13_linear_464_1811" x1="190.657" y1="159.671" x2="187.471" y2="173.991" gradientUnits="userSpaceOnUse">
<stop stop-color="#6E63B0"/>
<stop offset="1" stop-color="#524A82"/>
</linearGradient>
<linearGradient id="paint14_linear_464_1811" x1="160.582" y1="157.614" x2="233.376" y2="157.614" gradientUnits="userSpaceOnUse">
<stop stop-color="#8477D5"/>
<stop offset="1" stop-color="#9085D5"/>
</linearGradient>
<linearGradient id="paint15_linear_464_1811" x1="198.799" y1="153.257" x2="198.335" y2="162.14" gradientUnits="userSpaceOnUse">
<stop stop-color="#9085D5"/>
<stop offset="0.109" stop-color="#978DD7" stop-opacity="0.929"/>
<stop offset="0.318" stop-color="#ABA3DF" stop-opacity="0.749"/>
<stop offset="0.605" stop-color="#CCC7EB" stop-opacity="0.455"/>
<stop offset="0.956" stop-color="#F9F8FC" stop-opacity="0.051"/>
<stop offset="1" stop-color="white" stop-opacity="0"/>
</linearGradient>
<linearGradient id="paint16_linear_464_1811" x1="209.101" y1="141.828" x2="205.947" y2="156.137" gradientUnits="userSpaceOnUse">
<stop stop-color="#6E63B0"/>
<stop offset="1" stop-color="#524A82"/>
</linearGradient>
<linearGradient id="paint17_linear_464_1811" x1="179.081" y1="139.771" x2="251.893" y2="139.771" gradientUnits="userSpaceOnUse">
<stop stop-color="#8477D5"/>
<stop offset="1" stop-color="#9085D5"/>
</linearGradient>
<linearGradient id="paint18_linear_464_1811" x1="217.297" y1="135.414" x2="216.833" y2="144.297" gradientUnits="userSpaceOnUse">
<stop stop-color="#9085D5"/>
<stop offset="0.109" stop-color="#978DD7" stop-opacity="0.929"/>
<stop offset="0.318" stop-color="#ABA3DF" stop-opacity="0.749"/>
<stop offset="0.605" stop-color="#CCC7EB" stop-opacity="0.455"/>
<stop offset="0.956" stop-color="#F9F8FC" stop-opacity="0.051"/>
<stop offset="1" stop-color="white" stop-opacity="0"/>
</linearGradient>
<linearGradient id="paint19_linear_464_1811" x1="227.584" y1="123.985" x2="224.431" y2="138.292" gradientUnits="userSpaceOnUse">
<stop stop-color="#6E63B0"/>
<stop offset="1" stop-color="#524A82"/>
</linearGradient>
<linearGradient id="paint20_linear_464_1811" x1="197.569" y1="121.928" x2="270.362" y2="121.928" gradientUnits="userSpaceOnUse">
<stop stop-color="#8477D5"/>
<stop offset="1" stop-color="#9085D5"/>
</linearGradient>
<linearGradient id="paint21_linear_464_1811" x1="235.786" y1="117.57" x2="235.322" y2="126.452" gradientUnits="userSpaceOnUse">
<stop stop-color="#9085D5"/>
<stop offset="0.109" stop-color="#978DD7" stop-opacity="0.929"/>
<stop offset="0.318" stop-color="#ABA3DF" stop-opacity="0.749"/>
<stop offset="0.605" stop-color="#CCC7EB" stop-opacity="0.455"/>
<stop offset="0.956" stop-color="#F9F8FC" stop-opacity="0.051"/>
<stop offset="1" stop-color="white" stop-opacity="0"/>
</linearGradient>
<linearGradient id="paint22_linear_464_1811" x1="243.179" y1="141.119" x2="243.179" y2="24.2953" gradientUnits="userSpaceOnUse">
<stop stop-color="#524A82"/>
<stop offset="0.158" stop-color="#534B83"/>
<stop offset="1" stop-color="#6E63B0"/>
</linearGradient>
<linearGradient id="paint23_linear_464_1811" x1="266.878" y1="91.0417" x2="268.17" y2="113.125" gradientUnits="userSpaceOnUse">
<stop stop-color="#8174CF"/>
<stop offset="1" stop-color="#9085D5"/>
</linearGradient>
<linearGradient id="paint24_linear_464_1811" x1="266.802" y1="200.407" x2="266.802" y2="109.765" gradientUnits="userSpaceOnUse">
<stop stop-color="#A89CFF"/>
<stop offset="0.423" stop-color="#B9B0FF"/>
<stop offset="1" stop-color="#CFC9FF"/>
</linearGradient>
<linearGradient id="paint25_linear_464_1811" x1="91.3822" y1="143.061" x2="91.3822" y2="91.7502" gradientUnits="userSpaceOnUse">
<stop stop-color="white" stop-opacity="0"/>
<stop offset="0.99" stop-color="white"/>
</linearGradient>
<linearGradient id="paint26_linear_464_1811" x1="249.449" y1="93.3934" x2="249.449" y2="70.5392" gradientUnits="userSpaceOnUse">
<stop stop-color="#A89CFF"/>
<stop offset="0.423" stop-color="#B9B0FF"/>
<stop offset="1" stop-color="#CFC9FF"/>
</linearGradient>
<linearGradient id="paint27_linear_464_1811" x1="249.449" y1="93.3934" x2="249.449" y2="70.5392" gradientUnits="userSpaceOnUse">
<stop stop-color="white" stop-opacity="0"/>
<stop offset="0.99" stop-color="white"/>
</linearGradient>
<linearGradient id="paint28_linear_464_1811" x1="240.067" y1="65.3686" x2="240.108" y2="74.2126" gradientUnits="userSpaceOnUse">
<stop stop-color="#8174CF"/>
<stop offset="1" stop-color="#9085D5"/>
</linearGradient>
<linearGradient id="paint29_linear_464_1811" x1="240.235" y1="65.3395" x2="240.266" y2="74.2391" gradientUnits="userSpaceOnUse">
<stop stop-color="#9085D5"/>
<stop offset="0.109" stop-color="#978DD7" stop-opacity="0.929"/>
<stop offset="0.318" stop-color="#ABA3DF" stop-opacity="0.749"/>
<stop offset="0.605" stop-color="#CCC7EB" stop-opacity="0.455"/>
<stop offset="0.956" stop-color="#F9F8FC" stop-opacity="0.051"/>
<stop offset="1" stop-color="white" stop-opacity="0"/>
</linearGradient>
<linearGradient id="paint30_linear_464_1811" x1="232.264" y1="70.2645" x2="232.264" y2="47.408" gradientUnits="userSpaceOnUse">
<stop stop-color="#A89CFF"/>
<stop offset="0.423" stop-color="#B9B0FF"/>
<stop offset="1" stop-color="#CFC9FF"/>
</linearGradient>
<linearGradient id="paint31_linear_464_1811" x1="232.264" y1="70.2645" x2="232.264" y2="47.408" gradientUnits="userSpaceOnUse">
<stop stop-color="white" stop-opacity="0"/>
<stop offset="0.99" stop-color="white"/>
</linearGradient>
<linearGradient id="paint32_linear_464_1811" x1="222.707" y1="40.9992" x2="222.763" y2="53.5438" gradientUnits="userSpaceOnUse">
<stop stop-color="#8174CF"/>
<stop offset="1" stop-color="#9085D5"/>
</linearGradient>
<linearGradient id="paint33_linear_464_1811" x1="222.707" y1="40.9992" x2="222.763" y2="53.5438" gradientUnits="userSpaceOnUse">
<stop stop-color="#9085D5"/>
<stop offset="0.109" stop-color="#978DD7" stop-opacity="0.929"/>
<stop offset="0.318" stop-color="#ABA3DF" stop-opacity="0.749"/>
<stop offset="0.605" stop-color="#CCC7EB" stop-opacity="0.455"/>
<stop offset="0.956" stop-color="#F9F8FC" stop-opacity="0.051"/>
<stop offset="1" stop-color="white" stop-opacity="0"/>
</linearGradient>
<linearGradient id="paint34_linear_464_1811" x1="215.068" y1="47.1419" x2="215.068" y2="28.4457" gradientUnits="userSpaceOnUse">
<stop stop-color="#A89CFF"/>
<stop offset="0.423" stop-color="#B9B0FF"/>
<stop offset="1" stop-color="#CFC9FF"/>
</linearGradient>
<linearGradient id="paint35_linear_464_1811" x1="215.068" y1="47.1419" x2="215.068" y2="28.4457" gradientUnits="userSpaceOnUse">
<stop stop-color="white" stop-opacity="0"/>
<stop offset="0.99" stop-color="white"/>
</linearGradient>
<linearGradient id="paint36_linear_464_1811" x1="180.45" y1="170.968" x2="180.067" y2="177.968" gradientUnits="userSpaceOnUse">
<stop stop-color="#9085D5"/>
<stop offset="0.109" stop-color="#978DD7" stop-opacity="0.929"/>
<stop offset="0.318" stop-color="#ABA3DF" stop-opacity="0.749"/>
<stop offset="0.605" stop-color="#CCC7EB" stop-opacity="0.455"/>
<stop offset="0.956" stop-color="#F9F8FC" stop-opacity="0.051"/>
<stop offset="1" stop-color="white" stop-opacity="0"/>
</linearGradient>
<linearGradient id="paint37_linear_464_1811" x1="139.023" y1="38.4792" x2="135.837" y2="52.7982" gradientUnits="userSpaceOnUse">
<stop stop-color="#6E63B0"/>
<stop offset="1" stop-color="#524A82"/>
</linearGradient>
<linearGradient id="paint38_linear_464_1811" x1="108.922" y1="36.4221" x2="181.715" y2="36.4221" gradientUnits="userSpaceOnUse">
<stop stop-color="#8477D5"/>
<stop offset="1" stop-color="#9085D5"/>
</linearGradient>
<linearGradient id="paint39_linear_464_1811" x1="210.541" y1="30.945" x2="211.096" y2="41.568" gradientUnits="userSpaceOnUse">
<stop stop-color="#9085D5"/>
<stop offset="0.109" stop-color="#978DD7" stop-opacity="0.929"/>
<stop offset="0.318" stop-color="#ABA3DF" stop-opacity="0.749"/>
<stop offset="0.605" stop-color="#CCC7EB" stop-opacity="0.455"/>
<stop offset="0.956" stop-color="#F9F8FC" stop-opacity="0.051"/>
<stop offset="1" stop-color="white" stop-opacity="0"/>
</linearGradient>
<linearGradient id="paint40_linear_464_1811" x1="120.582" y1="56.1537" x2="117.429" y2="70.4623" gradientUnits="userSpaceOnUse">
<stop stop-color="#6E63B0"/>
<stop offset="1" stop-color="#524A82"/>
</linearGradient>
<linearGradient id="paint41_linear_464_1811" x1="90.5167" y1="54.0966" x2="163.31" y2="54.0966" gradientUnits="userSpaceOnUse">
<stop stop-color="#8477D5"/>
<stop offset="1" stop-color="#9085D5"/>
</linearGradient>
<linearGradient id="paint42_linear_464_1811" x1="128.733" y1="49.74" x2="128.269" y2="58.6228" gradientUnits="userSpaceOnUse">
<stop stop-color="#9085D5"/>
<stop offset="0.109" stop-color="#978DD7" stop-opacity="0.929"/>
<stop offset="0.318" stop-color="#ABA3DF" stop-opacity="0.749"/>
<stop offset="0.605" stop-color="#CCC7EB" stop-opacity="0.455"/>
<stop offset="0.956" stop-color="#F9F8FC" stop-opacity="0.051"/>
<stop offset="1" stop-color="white" stop-opacity="0"/>
</linearGradient>
<linearGradient id="paint43_linear_464_1811" x1="102.142" y1="73.8277" x2="98.988" y2="88.1363" gradientUnits="userSpaceOnUse">
<stop stop-color="#6E63B0"/>
<stop offset="1" stop-color="#524A82"/>
</linearGradient>
<linearGradient id="paint44_linear_464_1811" x1="72.1125" y1="71.7706" x2="144.905" y2="71.7706" gradientUnits="userSpaceOnUse">
<stop stop-color="#8477D5"/>
<stop offset="1" stop-color="#9085D5"/>
</linearGradient>
<linearGradient id="paint45_linear_464_1811" x1="110.329" y1="67.414" x2="109.865" y2="76.2967" gradientUnits="userSpaceOnUse">
<stop stop-color="#9085D5"/>
<stop offset="0.109" stop-color="#978DD7" stop-opacity="0.929"/>
<stop offset="0.318" stop-color="#ABA3DF" stop-opacity="0.749"/>
<stop offset="0.605" stop-color="#CCC7EB" stop-opacity="0.455"/>
<stop offset="0.956" stop-color="#F9F8FC" stop-opacity="0.051"/>
<stop offset="1" stop-color="white" stop-opacity="0"/>
</linearGradient>
<linearGradient id="paint46_linear_464_1811" x1="83.8833" y1="91.3515" x2="80.6978" y2="105.671" gradientUnits="userSpaceOnUse">
<stop stop-color="#6E63B0"/>
<stop offset="1" stop-color="#524A82"/>
</linearGradient>
<linearGradient id="paint47_linear_464_1811" x1="53.7815" y1="89.2948" x2="126.574" y2="89.2948" gradientUnits="userSpaceOnUse">
<stop stop-color="#8477D5"/>
<stop offset="1" stop-color="#9085D5"/>
</linearGradient>
<linearGradient id="paint48_linear_464_1811" x1="92.0704" y1="84.9382" x2="91.6068" y2="93.821" gradientUnits="userSpaceOnUse">
<stop stop-color="#9085D5"/>
<stop offset="0.109" stop-color="#978DD7" stop-opacity="0.929"/>
<stop offset="0.318" stop-color="#ABA3DF" stop-opacity="0.749"/>
<stop offset="0.605" stop-color="#CCC7EB" stop-opacity="0.455"/>
<stop offset="0.956" stop-color="#F9F8FC" stop-opacity="0.051"/>
<stop offset="1" stop-color="white" stop-opacity="0"/>
</linearGradient>
<linearGradient id="paint49_linear_464_1811" x1="65.4789" y1="109.101" x2="62.3253" y2="123.41" gradientUnits="userSpaceOnUse">
<stop stop-color="#6E63B0"/>
<stop offset="1" stop-color="#524A82"/>
</linearGradient>
<linearGradient id="paint50_linear_464_1811" x1="35.4475" y1="107.044" x2="108.241" y2="107.044" gradientUnits="userSpaceOnUse">
<stop stop-color="#8477D5"/>
<stop offset="1" stop-color="#9085D5"/>
</linearGradient>
<linearGradient id="paint51_linear_464_1811" x1="73.6639" y1="102.687" x2="73.2003" y2="111.57" gradientUnits="userSpaceOnUse">
<stop stop-color="#9085D5"/>
<stop offset="0.109" stop-color="#978DD7" stop-opacity="0.929"/>
<stop offset="0.318" stop-color="#ABA3DF" stop-opacity="0.749"/>
<stop offset="0.605" stop-color="#CCC7EB" stop-opacity="0.455"/>
<stop offset="0.956" stop-color="#F9F8FC" stop-opacity="0.051"/>
<stop offset="1" stop-color="white" stop-opacity="0"/>
</linearGradient>
<linearGradient id="paint52_linear_464_1811" x1="46.9108" y1="126.925" x2="43.7571" y2="141.233" gradientUnits="userSpaceOnUse">
<stop stop-color="#6E63B0"/>
<stop offset="1" stop-color="#524A82"/>
</linearGradient>
<linearGradient id="paint53_linear_464_1811" x1="16.9009" y1="124.871" x2="89.6934" y2="124.871" gradientUnits="userSpaceOnUse">
<stop stop-color="#8477D5"/>
<stop offset="1" stop-color="#9085D5"/>
</linearGradient>
<linearGradient id="paint54_linear_464_1811" x1="55.1169" y1="120.514" x2="54.6533" y2="129.397" gradientUnits="userSpaceOnUse">
<stop stop-color="#9085D5"/>
<stop offset="0.109" stop-color="#978DD7" stop-opacity="0.929"/>
<stop offset="0.318" stop-color="#ABA3DF" stop-opacity="0.749"/>
<stop offset="0.605" stop-color="#CCC7EB" stop-opacity="0.455"/>
<stop offset="0.956" stop-color="#F9F8FC" stop-opacity="0.051"/>
<stop offset="1" stop-color="white" stop-opacity="0"/>
</linearGradient>
<linearGradient id="paint55_linear_464_1811" x1="37.5534" y1="176.103" x2="37.5534" y2="157.407" gradientUnits="userSpaceOnUse">
<stop stop-color="#A89CFF"/>
<stop offset="0.423" stop-color="#B9B0FF"/>
<stop offset="1" stop-color="#CFC9FF"/>
</linearGradient>
<linearGradient id="paint56_linear_464_1811" x1="37.5534" y1="176.103" x2="37.5534" y2="157.407" gradientUnits="userSpaceOnUse">
<stop stop-color="white" stop-opacity="0"/>
<stop offset="0.99" stop-color="white"/>
</linearGradient>
<linearGradient id="paint57_linear_464_1811" x1="54.8787" y1="199.226" x2="54.8787" y2="176.369" gradientUnits="userSpaceOnUse">
<stop stop-color="#A89CFF"/>
<stop offset="0.423" stop-color="#B9B0FF"/>
<stop offset="1" stop-color="#CFC9FF"/>
</linearGradient>
<linearGradient id="paint58_linear_464_1811" x1="54.8787" y1="199.226" x2="54.8787" y2="176.369" gradientUnits="userSpaceOnUse">
<stop stop-color="white" stop-opacity="0"/>
<stop offset="0.99" stop-color="white"/>
</linearGradient>
<linearGradient id="paint59_linear_464_1811" x1="45.3424" y1="169.961" x2="45.398" y2="182.505" gradientUnits="userSpaceOnUse">
<stop stop-color="#8174CF"/>
<stop offset="1" stop-color="#9085D5"/>
</linearGradient>
<linearGradient id="paint60_linear_464_1811" x1="45.3424" y1="169.961" x2="45.398" y2="182.505" gradientUnits="userSpaceOnUse">
<stop stop-color="#9085D5"/>
<stop offset="0.109" stop-color="#978DD7" stop-opacity="0.929"/>
<stop offset="0.318" stop-color="#ABA3DF" stop-opacity="0.749"/>
<stop offset="0.605" stop-color="#CCC7EB" stop-opacity="0.455"/>
<stop offset="0.956" stop-color="#F9F8FC" stop-opacity="0.051"/>
<stop offset="1" stop-color="white" stop-opacity="0"/>
</linearGradient>
</defs>
</svg>
