<svg width="302" height="266" viewBox="0 0 302 266" fill="none" xmlns="http://www.w3.org/2000/svg">
<path d="M42.9831 214.746C72.9112 143.109 -90.9129 81.706 145.783 29.2521C213.504 11.1063 263.753 45.3982 276.676 93.6286C289.6 141.859 245.177 195.668 177.456 213.814C109.735 231.96 39.4565 272.728 42.9831 214.746Z" fill="#87879F" fill-opacity="0.1"/>
<path opacity="0.18" d="M95.093 243.682C95.093 243.682 62.2593 249.013 60.0189 259.674C58.1646 268.327 193.131 264.773 198.693 262.61C205.801 259.829 210.746 253.416 211.75 245.845L95.093 243.682Z" fill="black"/>
<path d="M179.349 96.5331L128.758 89.0405L112.505 198.782L163.097 206.275L179.349 96.5331Z" fill="#E6007A"/>
<path d="M208.232 255.403H98.0645C93.9698 255.403 90.7251 252.081 90.7251 248.064V164.396C90.7251 160.301 94.0471 157.056 98.0645 157.056H208.232C212.326 157.056 215.571 160.378 215.571 164.396V248.064C215.571 252.081 212.249 255.403 208.232 255.403Z" fill="#E6007A"/>
<path opacity="0.72" d="M223.637 126.034L181.239 97.4341L119.201 189.403L161.599 218.003L223.637 126.034Z" fill="#F9FBFC"/>
<path d="M148.533 102.776L97.7627 108.923L111.098 219.053L161.868 212.906L148.533 102.776Z" fill="white"/>
<path opacity="0.18" d="M161.957 212.912L111.199 219.093L104.169 160.919L155.544 160.069L161.957 212.912Z" fill="#001C59"/>
<path d="M171.767 215.461L171.38 215.384L121.319 203.178L121.396 202.791L147.74 94.6328L148.126 94.7101L198.188 106.917L198.111 107.303L171.767 215.461ZM122.245 202.637L171.226 214.534L197.261 107.457L148.281 95.5599L122.245 202.637Z" fill="#00376E"/>
<path d="M158.171 171.425C156.857 171.425 155.544 171.271 154.23 170.962C145.269 168.799 139.783 159.76 141.947 150.798C143.028 146.472 145.655 142.763 149.518 140.446C153.304 138.128 157.861 137.433 162.188 138.514C171.15 140.678 176.635 149.716 174.472 158.678C172.618 166.249 165.742 171.425 158.171 171.425ZM158.171 138.746C155.312 138.746 152.454 139.519 149.904 141.064C146.273 143.304 143.724 146.781 142.719 150.953C141.715 155.124 142.41 159.373 144.573 163.005C146.814 166.636 150.29 169.185 154.385 170.189C162.961 172.275 171.536 167.022 173.622 158.446C174.626 154.275 173.931 150.026 171.768 146.394C169.527 142.763 166.051 140.214 161.956 139.21C160.72 138.901 159.407 138.746 158.171 138.746Z" fill="#00376E"/>
<path d="M131.131 205.187L130.358 205.032L131.363 200.86C129.122 200.088 127.732 197.847 128.118 195.453L123.482 194.294L123.637 193.521L128.967 194.834L128.89 195.221C128.658 196.302 128.813 197.384 129.354 198.311C129.895 199.238 130.822 199.933 131.903 200.165L132.29 200.242L131.131 205.187Z" fill="#00376E"/>
<path d="M195.871 116.574L191.004 115.415L191.081 115.029C191.622 112.866 190.231 110.625 188.068 110.085L187.682 110.007L188.995 104.677L189.768 104.831L188.609 109.467C190.849 110.239 192.24 112.48 191.854 114.875L196.025 115.879L195.871 116.574Z" fill="#00376E"/>
<path d="M150.751 105.526L145.421 104.212L145.575 103.44L150.21 104.599C150.597 103.517 151.292 102.59 152.296 101.972C153.301 101.354 154.46 101.122 155.618 101.354L156.623 97.1821L157.395 97.3366L156.237 102.204L155.85 102.127C154.769 101.895 153.687 102.049 152.76 102.59C151.833 103.131 151.138 104.058 150.906 105.139L150.751 105.526Z" fill="#00376E"/>
<path d="M163.345 213.299L162.573 213.144L163.886 207.813L164.272 207.89C165.354 208.122 166.436 207.968 167.362 207.427C168.29 206.886 168.985 205.959 169.217 204.878L169.294 204.491L174.161 205.65L174.006 206.423L169.835 205.418C169.062 207.659 166.822 209.049 164.427 208.663L163.345 213.299Z" fill="#00376E"/>
<path d="M199.966 263.67H89.7989C85.7042 263.67 82.4595 260.348 82.4595 256.33V172.739C82.4595 168.645 85.7815 165.4 89.7989 165.4H199.966C204.061 165.4 207.305 168.722 207.305 172.739V256.33C207.305 260.425 204.061 263.67 199.966 263.67Z" fill="white"/>
<path opacity="0.18" d="M225.614 222.182C225.614 225.427 222.987 228.054 219.82 228.054H164.272C161.028 228.054 158.401 225.427 158.401 222.182V202.328C158.401 202.328 159.482 221.951 167.131 222.337C183.2 223.11 225.614 222.182 225.614 222.182Z" fill="#001C59"/>
<path opacity="0.18" d="M207.305 256.33C207.305 260.424 203.983 263.669 199.966 263.669H89.7989C85.7042 263.669 82.4595 260.347 82.4595 256.33V172.739C82.4595 168.644 89.5671 250.999 101.233 254.63C112.898 258.338 207.305 256.33 207.305 256.33Z" fill="#001C59"/>
<path d="M219.742 228.362H164.195C160.796 228.362 157.937 225.581 157.937 222.105V202.25C157.937 198.851 160.718 195.992 164.195 195.992H219.742C223.141 195.992 226 198.773 226 202.25V222.105C226 225.581 223.141 228.362 219.742 228.362ZM164.195 196.842C161.182 196.842 158.71 199.314 158.71 202.327V222.182C158.71 225.195 161.182 227.667 164.195 227.667H219.742C222.755 227.667 225.227 225.195 225.227 222.182V202.327C225.227 199.314 222.755 196.842 219.742 196.842H164.195Z" fill="#00376E"/>
<path d="M172.462 216.928C175.407 216.928 177.793 214.542 177.793 211.598C177.793 208.654 175.407 206.267 172.462 206.267C169.518 206.267 167.132 208.654 167.132 211.598C167.132 214.542 169.518 216.928 172.462 216.928Z" fill="#E6007A"/>
</svg>
