<svg width="531" height="541" viewBox="0 0 531 541" fill="none" xmlns="http://www.w3.org/2000/svg">
<path opacity="0.45" d="M316.805 330.63L391.005 377.33L456.457 345.455L506.373 371.261L530.332 357.776L530.09 151.529L494.441 130.811L496.241 115.143L455.576 109.288L398.463 79.1997L373.142 90.3907V127.154L346.874 110.754L317.352 122.302V330.622L316.805 330.63Z" fill="url(#paint0_linear)"/>
<path opacity="0.45" d="M316.805 330.63L391.005 377.33V171.965L393.359 139.44L495.528 130.892L496.976 115.961L425.976 122.308L373.208 91.1677V126.716L346.458 109.351L317.358 122.307V330.629L316.805 330.63Z" fill="url(#paint1_linear)"/>
<path opacity="0.45" d="M456.461 345.458L506.377 371.264L505.977 163.514L456.464 136.864L456.461 345.458Z" fill="url(#paint2_linear)"/>
<path d="M346.654 110.094L316.805 123.006L391.005 169.706L456.457 137.831L506.373 163.637L530.332 150.151L481.604 124.674L497.619 114.883L473.155 100.715L455.115 108.988L397.761 79.1338L372.461 91.1259L425.945 123.001L393.03 139.701L346.654 110.094Z" fill="#E6007A"/>
<g opacity="0.2">
<path opacity="0.2" d="M346.654 110.093L316.806 123.001L346.383 141.617L346.654 110.093Z" fill="black"/>
<path opacity="0.2" d="M393.703 168.453L427.533 151.945L425.95 123.001L393.035 139.701L393.703 168.453Z" fill="black"/>
<path opacity="0.2" d="M397.766 79.1309L372.465 91.1229L397.719 106.175L397.766 79.1309Z" fill="black"/>
</g>
<g opacity="0.53">
<path opacity="0.43" d="M138.845 215.284V444.109L274.554 518.509L399.661 448.388V221.335L138.845 215.284Z" fill="url(#paint3_linear)"/>
<path opacity="0.45" d="M274.555 290.362V518.5L399.662 448.379V221.338L274.555 290.362Z" fill="url(#paint4_linear)"/>
<path opacity="0.45" d="M274.564 291.484L138.845 216.978V443.714L274.552 518.557L274.564 291.484Z" fill="url(#paint5_linear)"/>
</g>
<path d="M274.552 148.867L138.843 216.98L274.552 291.38L399.66 221.259L274.552 148.867Z" fill="#E6007A"/>
<path opacity="0.31" d="M274.552 148.867L138.843 216.98L165.069 231.357L274.552 291.378V148.867Z" fill="black"/>
<path d="M205.892 4.55298L244.504 275.408L259.21 283.083L274.62 291.488L230.501 3.27991L210.952 0L205.892 4.55298Z" fill="#282A36"/>
<path opacity="0.064" d="M266.565 286.909L274.528 291.467L230.458 2.43994L224.833 5.88794L266.565 286.909Z" fill="white"/>
<path opacity="0.435" d="M230.378 2.44897L224.86 4.95789L205.407 3.38989L211.076 0.147949" fill="black"/>
<path d="M164.252 52.901L215.078 30.8501C215.078 30.8501 218.307 29.35 219.333 33.176C220.359 37.002 218.581 37.7361 218.581 37.7361L166.348 60.984L164.252 52.901Z" fill="#282A36"/>
<path d="M169.027 96.1542L221.907 73.7392C221.907 73.7392 225.136 72.2392 226.162 76.0652C227.188 79.8912 225.41 80.6252 225.41 80.6252L171.122 104.237L169.027 96.1542Z" fill="#282A36"/>
<path d="M172.525 143.051L228.725 116.631C228.725 116.631 231.953 115.131 232.98 118.957C234.007 122.783 232.228 123.517 232.228 123.517L174.617 151.135L172.525 143.051Z" fill="#282A36"/>
<path d="M186.206 181.75L235.551 159.523C235.551 159.523 238.779 158.023 239.806 161.849C240.833 165.675 239.054 166.409 239.054 166.409L188.727 189.849L186.206 181.75Z" fill="#282A36"/>
<path d="M186.573 224.825L239.453 202.41C239.453 202.41 242.682 200.91 243.708 204.736C244.734 208.562 242.956 209.296 242.956 209.296L188.668 232.908L186.573 224.825Z" fill="#282A36"/>
<path d="M216.86 259.555L246.272 245.302C246.272 245.302 249.5 243.802 250.527 247.628C251.554 251.454 249.775 252.188 249.775 252.188L224.81 263.939L216.86 259.555Z" fill="#282A36"/>
<path d="M143.506 35.2531L170.471 234.759L200.211 250.884L199.037 242.945L168.115 33.8451L148.565 30.219L143.506 35.2531Z" fill="#282A36"/>
<path opacity="0.052" d="M191.976 246.708L200.319 250.589L168.157 32.689L162.447 36.439L191.976 246.708Z" fill="white"/>
<path opacity="0.409" d="M168.146 32.6311L162.414 35.2311L143.523 33.6561L148.606 30.2241" fill="black"/>
<path opacity="0.45" d="M0 493.418L74.2002 540.118L139.651 508.243L189.567 534.049L213.526 520.564L213.285 314.317L177.636 293.599L179.436 277.931L138.771 272.076L81.6582 241.988L56.3364 253.179V289.942L30.0684 273.542L0.546387 285.09V493.41L0 493.418Z" fill="url(#paint6_linear)"/>
<path opacity="0.45" d="M0 493.418L74.2002 540.118V334.753L76.5542 302.228L178.723 293.68L180.17 278.749L109.17 285.096L56.4033 253.956V289.504L29.6533 272.139L0.553223 285.095V493.417L0 493.418Z" fill="url(#paint7_linear)"/>
<path opacity="0.45" d="M139.656 508.246L189.572 534.052L189.172 326.302L139.659 299.652L139.656 508.246Z" fill="url(#paint8_linear)"/>
<path d="M29.8491 272.882L0 285.794L74.2002 332.494L139.651 300.619L189.567 326.425L213.526 312.939L164.799 287.462L180.814 277.671L156.35 263.503L138.31 271.776L80.9561 241.922L55.6562 253.914L109.14 285.789L76.2251 302.489L29.8491 272.882Z" fill="#E6007A"/>
<g opacity="0.2">
<path opacity="0.2" d="M29.8491 272.881L0.000976562 285.789L29.5781 304.405L29.8491 272.881Z" fill="black"/>
<path opacity="0.2" d="M76.8981 331.241L110.728 314.733L109.145 285.789L76.2302 302.489L76.8981 331.241Z" fill="white"/>
<path opacity="0.2" d="M80.9604 241.919L55.6601 253.911L80.914 268.963L80.9604 241.919Z" fill="black"/>
</g>
<defs>
<linearGradient id="paint0_linear" x1="423.568" y1="113.783" x2="437.271" y2="307.394" gradientUnits="userSpaceOnUse">
<stop stop-color="#E93B6A"/>
<stop offset="1" stop-color="#E93B6A" stop-opacity="0"/>
</linearGradient>
<linearGradient id="paint1_linear" x1="406.89" y1="91.1677" x2="378.535" y2="312.77" gradientUnits="userSpaceOnUse">
<stop/>
<stop offset="1" stop-opacity="0"/>
</linearGradient>
<linearGradient id="paint2_linear" x1="456.461" y1="136.864" x2="562.091" y2="181.852" gradientUnits="userSpaceOnUse">
<stop/>
<stop offset="1" stop-opacity="0"/>
</linearGradient>
<linearGradient id="paint3_linear" x1="283.598" y1="239.845" x2="286.066" y2="440.269" gradientUnits="userSpaceOnUse">
<stop stop-color="#E93B6A"/>
<stop offset="1" stop-color="#E93B6A" stop-opacity="0"/>
</linearGradient>
<linearGradient id="paint4_linear" x1="337.109" y1="255.809" x2="360.128" y2="446.987" gradientUnits="userSpaceOnUse">
<stop stop-color="#E93B6A"/>
<stop offset="1" stop-color="#E93B6A" stop-opacity="0"/>
</linearGradient>
<linearGradient id="paint5_linear" x1="138.845" y1="216.978" x2="298.543" y2="321.127" gradientUnits="userSpaceOnUse">
<stop/>
<stop offset="1" stop-opacity="0"/>
</linearGradient>
<linearGradient id="paint6_linear" x1="-6.44198e-07" y1="276.571" x2="163.063" y2="435.645" gradientUnits="userSpaceOnUse">
<stop stop-color="#E93B6A"/>
<stop offset="1" stop-color="#E93B6A" stop-opacity="0"/>
</linearGradient>
<linearGradient id="paint7_linear" x1="0" y1="253.956" x2="174.203" y2="473.316" gradientUnits="userSpaceOnUse">
<stop/>
<stop offset="1" stop-opacity="0"/>
</linearGradient>
<linearGradient id="paint8_linear" x1="139.656" y1="299.652" x2="245.286" y2="344.64" gradientUnits="userSpaceOnUse">
<stop/>
<stop offset="1" stop-opacity="0"/>
</linearGradient>
</defs>
</svg>
