<svg width="490" height="450" viewBox="0 0 490 450" fill="none" xmlns="http://www.w3.org/2000/svg">
<path d="M151.46 431.05C156.089 435.922 160.972 440.545 166.09 444.9H386.73C411.06 421.77 434.09 388.57 454.27 342.68C454.27 342.68 490.01 252.19 481.69 172.87C473.37 93.5503 421.27 30.8703 347.47 17.5203C273.67 4.17035 208.07 77.3803 125.7 102.76C43.3295 128.14 -17.0005 196.16 4.67954 287.4C26.3595 378.64 86.8996 362.94 151.46 431.05Z" fill="#8BA1BE" fill-opacity="0.2"/>
<path d="M359.23 144.35C362.44 145.75 370.29 145.57 370.29 145.57C370.29 145.57 368.6 140.43 368.46 140.12C366.73 136.52 361.29 130.57 356.85 131.12C356.118 131.24 355.419 131.514 354.799 131.922C354.179 132.33 353.652 132.864 353.252 133.49C352.852 134.115 352.588 134.818 352.478 135.552C352.367 136.286 352.412 137.035 352.61 137.75C353.34 140.87 356.49 143.15 359.23 144.35Z" fill="#C2C2C2"/>
<path d="M438.63 146.07C438.69 146.12 440.05 140.86 440.1 140.52C440.65 136.52 439.39 128.59 435.36 126.65C434.682 126.345 433.948 126.187 433.205 126.185C432.462 126.183 431.727 126.337 431.048 126.638C430.369 126.939 429.761 127.38 429.263 127.932C428.765 128.483 428.39 129.133 428.16 129.84C427.08 132.84 428.45 136.44 430.07 138.95C432 141.89 438.62 146.07 438.63 146.07Z" fill="#C2C2C2"/>
<path d="M462.06 117.63C457.61 117.15 452.33 123.24 450.7 126.89C450.56 127.21 448.93 132.39 449.01 132.39H449.11C448.27 133.39 447.38 134.39 446.42 135.53C444.69 137.66 442.74 140.09 440.8 142.88C438.676 145.86 436.729 148.962 434.97 152.17C432.972 155.754 431.299 159.508 429.97 163.39C429.964 163.437 429.964 163.484 429.97 163.53C429.97 162.22 429.97 158.53 429.9 158.27C429.38 154.27 426.06 146.96 421.66 146.15C420.924 146.034 420.172 146.074 419.453 146.269C418.734 146.465 418.065 146.81 417.488 147.282C416.912 147.754 416.443 148.343 416.11 149.01C415.778 149.676 415.59 150.406 415.56 151.15C415.3 154.3 417.56 157.45 419.81 159.44C422.32 161.68 429.28 163.85 429.81 164.02C428.561 168.001 427.575 172.06 426.86 176.17C426.44 178.56 426.08 180.98 425.76 183.42C425.76 182.29 425.76 181.27 425.7 181.13C425.18 177.13 421.86 169.82 417.47 169.01C416.734 168.894 415.981 168.934 415.262 169.129C414.542 169.324 413.872 169.669 413.295 170.141C412.718 170.613 412.248 171.202 411.914 171.869C411.581 172.536 411.392 173.265 411.36 174.01C411.1 177.16 413.36 180.31 415.61 182.3C417.86 184.29 423.77 186.3 425.34 186.78L424.98 189.59C424.45 194.07 423.93 198.59 423.29 202.94C423.07 204.48 422.79 205.99 422.52 207.5C422.52 206.5 422.52 205.65 422.46 205.5C421.95 201.5 418.63 194.19 414.23 193.38C413.494 193.264 412.742 193.304 412.023 193.499C411.304 193.695 410.635 194.04 410.058 194.512C409.482 194.984 409.013 195.573 408.68 196.24C408.348 196.906 408.16 197.636 408.13 198.38C407.87 201.52 410.13 204.67 412.38 206.66C414.63 208.65 419.96 210.45 421.82 211.05C421.49 212.59 421.17 214.14 420.82 215.62C420.54 216.62 420.33 217.62 419.99 218.62C419.65 219.62 419.35 220.62 419.04 221.56C418.37 223.41 417.69 225.32 416.98 227.1C416.51 228.35 416.03 229.52 415.55 230.71C415.79 229.18 416.2 226.17 416.21 225.91C416.161 222.395 415.211 218.952 413.45 215.91C413.462 215.519 413.438 215.127 413.38 214.74C413.288 214.003 413.041 213.293 412.656 212.658C412.272 212.022 411.757 211.475 411.147 211.051C410.537 210.628 409.844 210.337 409.114 210.199C408.384 210.061 407.633 210.079 406.91 210.25C402.59 211.4 399.84 218.99 399.64 222.98C399.64 223.21 399.78 225.78 399.91 227.4C399.69 226.46 399.49 225.54 399.25 224.58C398.8 222.67 398.25 220.77 397.75 218.73L396.86 215.73C396.58 214.73 396.16 213.73 395.81 212.73C394.96 210.4 393.98 208.07 392.94 205.73C394.61 205.33 400.53 203.82 402.94 201.99C405.35 200.16 407.81 197.21 407.79 194.05C407.811 193.308 407.675 192.569 407.391 191.883C407.107 191.197 406.683 190.578 406.144 190.066C405.605 189.555 404.965 189.163 404.265 188.916C403.565 188.668 402.82 188.571 402.08 188.63C397.63 189.11 393.77 196.2 392.96 200.11C392.96 200.35 392.65 203.22 392.54 204.8C391.9 203.41 391.27 202.02 390.54 200.63C388.54 196.63 386.41 192.63 384.3 188.63C383.65 187.41 383.02 186.19 382.38 184.96C382.98 184.83 390.06 183.19 392.72 181.14C395.08 179.33 397.59 176.36 397.57 173.2C397.591 172.458 397.455 171.719 397.171 171.033C396.888 170.347 396.463 169.728 395.924 169.216C395.385 168.705 394.745 168.313 394.045 168.066C393.345 167.818 392.6 167.721 391.86 167.78C387.41 168.26 383.55 175.35 382.74 179.26C382.68 179.55 382.31 183.69 382.27 184.74C380.87 182.05 379.5 179.35 378.27 176.63C376.573 172.972 375.117 169.208 373.91 165.36C374.19 165.29 381.58 163.61 384.31 161.52C386.67 159.71 389.18 156.74 389.16 153.58C389.181 152.837 389.045 152.097 388.76 151.41C388.476 150.723 388.05 150.104 387.511 149.592C386.971 149.081 386.329 148.689 385.628 148.442C384.927 148.195 384.181 148.099 383.44 148.16C379 148.64 375.14 155.73 374.33 159.64C374.28 159.89 373.99 163.04 373.89 164.54H373.64C372.524 160.636 371.761 156.64 371.36 152.6C371.11 150.38 371 148.24 370.93 146.16C372.34 145.99 378.77 145.16 381.43 143.52C384.09 141.88 386.81 139.3 387.13 136.16C387.23 135.425 387.174 134.677 386.966 133.964C386.758 133.252 386.402 132.592 385.922 132.026C385.442 131.46 384.848 131.001 384.18 130.68C383.511 130.358 382.782 130.181 382.04 130.16C377.57 130.16 372.96 136.77 371.73 140.57C371.66 140.78 371.21 142.95 370.91 144.57C370.91 143.63 370.86 142.66 370.86 141.76C370.86 138.38 371.08 135.28 371.3 132.54C371.43 130.98 371.58 129.54 371.74 128.26C373.03 127.37 378.2 123.72 379.79 121.11C381.38 118.5 382.62 114.89 381.46 111.95C381.211 111.25 380.817 110.609 380.304 110.071C379.791 109.533 379.171 109.108 378.484 108.825C377.796 108.542 377.057 108.407 376.314 108.429C375.57 108.45 374.84 108.628 374.17 108.95C370.17 110.95 369.17 118.95 369.81 122.95C369.87 123.29 371.37 128.51 371.44 128.47L371.51 128.41C371.34 129.68 371.17 131.03 371.01 132.51C370.74 135.25 370.45 138.35 370.37 141.75C370.25 145.419 370.34 149.092 370.64 152.75C370.941 156.835 371.61 160.885 372.64 164.85C372.64 164.85 372.64 164.94 372.64 164.99C371.94 163.88 369.87 160.86 369.64 160.64C367.03 157.64 360.21 153.32 356.09 155.07C355.414 155.378 354.81 155.826 354.318 156.383C353.826 156.941 353.458 157.596 353.236 158.305C353.014 159.015 352.944 159.763 353.031 160.501C353.118 161.24 353.36 161.951 353.74 162.59C355.26 165.36 358.91 166.72 361.86 167.16C365.19 167.64 372.19 165.61 372.75 165.44C373.899 169.452 375.319 173.381 377 177.2C378 179.43 379 181.65 380.07 183.86C379.43 182.92 378.85 182.09 378.76 181.98C376.15 178.98 369.32 174.66 365.21 176.41C364.534 176.718 363.93 177.166 363.438 177.723C362.946 178.281 362.578 178.936 362.356 179.645C362.134 180.355 362.064 181.103 362.151 181.841C362.238 182.58 362.48 183.291 362.86 183.93C364.38 186.7 368.02 188.07 370.97 188.5C373.92 188.93 379.97 187.32 381.56 186.87C381.98 187.72 382.39 188.56 382.81 189.4C384.81 193.4 386.88 197.47 388.81 201.47C389.47 202.88 390.07 204.3 390.68 205.71C390.11 204.88 389.62 204.18 389.54 204.09C386.93 201.09 380.1 196.77 375.99 198.52C375.314 198.827 374.71 199.274 374.219 199.83C373.727 200.387 373.358 201.041 373.136 201.75C372.915 202.458 372.845 203.206 372.932 203.944C373.018 204.681 373.26 205.392 373.64 206.03C375.16 208.8 378.8 210.17 381.75 210.6C384.7 211.03 390.17 209.6 392.06 209.05C392.63 210.52 393.22 211.99 393.71 213.43C394.03 214.43 394.4 215.37 394.66 216.38C394.92 217.39 395.21 218.38 395.49 219.38C395.95 221.29 396.43 223.26 396.83 225.13C397.12 226.44 397.37 227.68 397.63 228.94C396.98 227.52 395.63 224.78 395.53 224.57C393.4 221.19 387.31 215.9 382.97 217.01C382.256 217.213 381.592 217.563 381.023 218.04C380.453 218.516 379.991 219.107 379.665 219.774C379.34 220.441 379.159 221.17 379.134 221.912C379.108 222.654 379.24 223.392 379.52 224.08C380.6 227.08 383.99 228.95 386.84 229.83C389.99 230.83 396.94 229.91 397.84 229.83C398.25 231.91 398.64 233.94 398.97 235.83C399.55 239.09 399.97 242.09 400.39 244.76H403.28C402.82 241.96 402.28 238.76 401.58 235.34C401.16 233.23 400.68 230.99 400.16 228.68C402.249 227.839 404.289 226.88 406.27 225.81C408.56 228.29 414.43 231.19 415.19 231.56C414.39 233.56 413.59 235.42 412.81 237.2C411.61 239.96 410.46 242.49 409.39 244.76H412.48C413.37 242.76 414.3 240.58 415.25 238.23C416.07 236.23 416.91 234.1 417.75 231.89C418.59 232.07 425.47 233.47 428.68 232.74C431.59 232.08 435.11 230.44 436.41 227.56C436.741 226.895 436.927 226.167 436.957 225.425C436.987 224.682 436.86 223.942 436.585 223.252C436.309 222.562 435.891 221.938 435.358 221.421C434.824 220.903 434.188 220.504 433.49 220.25C429.25 218.82 422.78 223.64 420.41 226.85C420.27 227.04 418.98 229.27 418.19 230.69C418.53 229.78 418.87 228.91 419.19 227.97C419.87 226.13 420.49 224.27 421.19 222.27C421.48 221.27 421.78 220.27 422.07 219.27C422.36 218.27 422.6 217.21 422.87 216.17C423.45 213.75 423.87 211.27 424.33 208.76C425.94 209.35 431.71 211.36 434.7 211.15C437.69 210.94 441.41 209.84 443.13 207.15C443.558 206.541 443.853 205.85 443.995 205.119C444.138 204.389 444.125 203.637 443.957 202.912C443.789 202.187 443.47 201.506 443.02 200.913C442.571 200.32 442.002 199.828 441.35 199.47C437.35 197.47 430.25 201.2 427.42 204.02C427.25 204.2 425.42 206.45 424.48 207.7C424.71 206.19 424.96 204.7 425.15 203.15C425.7 198.71 426.15 194.21 426.56 189.72C426.69 188.34 426.84 186.97 426.98 185.6C427.56 185.81 434.36 188.35 437.71 188.11C440.71 187.9 444.42 186.81 446.14 184.11C446.568 183.502 446.863 182.811 447.005 182.082C447.147 181.352 447.134 180.601 446.966 179.877C446.798 179.153 446.479 178.472 446.03 177.88C445.581 177.288 445.012 176.797 444.36 176.44C440.36 174.39 433.26 178.17 430.43 180.99C430.22 181.2 427.63 184.44 427.01 185.3C427.33 182.3 427.67 179.3 428.14 176.3C428.74 172.312 429.599 168.367 430.71 164.49C430.98 164.59 438.07 167.27 441.5 167.02C444.5 166.82 448.21 165.72 449.93 163.08C450.358 162.471 450.653 161.779 450.795 161.049C450.938 160.319 450.925 159.567 450.757 158.842C450.589 158.117 450.27 157.436 449.82 156.843C449.371 156.25 448.802 155.758 448.15 155.4C444.15 153.4 437.05 157.13 434.22 159.95C434.04 160.13 432.06 162.6 431.15 163.8L430.92 163.68C432.15 159.809 433.719 156.054 435.61 152.46C436.61 150.46 437.71 148.63 438.81 146.86C440.08 147.49 445.91 150.32 449.02 150.45C452.13 150.58 455.83 149.89 457.83 147.45C458.321 146.893 458.689 146.238 458.911 145.529C459.132 144.82 459.201 144.072 459.115 143.335C459.028 142.597 458.787 141.886 458.407 141.248C458.027 140.609 457.517 140.058 456.91 139.63C453.18 137.16 445.69 140.13 442.56 142.63C442.39 142.76 440.82 144.33 439.69 145.49C440.2 144.7 440.69 143.87 441.2 143.12C443.07 140.3 444.96 137.84 446.65 135.67C447.65 134.44 448.52 133.35 449.38 132.34C450.95 132.34 457.27 132.12 460.04 130.83C462.81 129.54 465.83 127.19 466.48 124.1C466.652 123.382 466.671 122.637 466.537 121.911C466.403 121.185 466.119 120.495 465.703 119.886C465.287 119.277 464.748 118.761 464.12 118.373C463.493 117.984 462.791 117.731 462.06 117.63Z" fill="#C2C2C2"/>
<path d="M15.2597 216.89C18.4697 218.29 26.3197 218.11 26.3197 218.11C26.3197 218.11 24.6297 212.98 24.4897 212.66C22.7597 209.06 17.3197 203.11 12.8797 203.71C12.1473 203.83 11.4484 204.104 10.8285 204.512C10.2086 204.92 9.68159 205.454 9.28169 206.08C8.88179 206.705 8.6179 207.408 8.5073 208.142C8.3967 208.876 8.44179 209.625 8.63969 210.34C9.36969 213.41 12.5197 215.69 15.2597 216.89Z" fill="#C2C2C2"/>
<path d="M94.6597 218.62C94.7197 218.62 96.0797 213.4 96.1297 213.06C96.6797 209.06 95.4197 201.14 91.3897 199.19C90.7121 198.885 89.9779 198.727 89.235 198.725C88.4921 198.723 87.7571 198.877 87.0779 199.178C86.3986 199.479 85.7904 199.92 85.2928 200.472C84.7952 201.023 84.4193 201.673 84.1897 202.38C83.1097 205.38 84.4797 208.99 86.0997 211.49C87.9997 214.43 94.6497 218.61 94.6597 218.62Z" fill="#C2C2C2"/>
<path d="M118.09 190.17C113.64 189.69 108.36 195.78 106.73 199.43C106.59 199.75 104.96 204.93 105.04 204.93H105.14C104.3 205.88 103.41 206.93 102.45 208.07C100.72 210.21 98.7701 212.64 96.8301 215.42C94.7091 218.402 92.7631 221.504 91.0001 224.71C89.0024 228.294 87.329 232.048 86.0001 235.93C85.9943 235.977 85.9943 236.024 86.0001 236.07C86.0001 234.76 86.0001 231.07 85.9301 230.81C85.4101 226.81 82.0901 219.5 77.6901 218.69C76.9545 218.575 76.203 218.617 75.4847 218.813C74.7664 219.009 74.0975 219.354 73.5217 219.826C72.946 220.298 72.4763 220.886 72.1434 221.552C71.8106 222.218 71.622 222.946 71.5901 223.69C71.3301 226.83 73.5901 229.98 75.8401 231.97C78.3501 234.21 85.3101 236.38 85.8401 236.55C84.592 240.531 83.6066 244.59 82.8901 248.7C82.4701 251.09 82.1101 253.52 81.7901 255.95C81.7901 254.82 81.7901 253.8 81.7301 253.66C81.2101 249.66 77.8901 242.35 73.5001 241.54C72.764 241.425 72.012 241.467 71.2932 241.663C70.5743 241.859 69.9048 242.203 69.3283 242.675C68.7517 243.147 68.2811 243.735 67.9472 244.401C67.6132 245.067 67.4234 245.796 67.3901 246.54C67.1301 249.68 69.3901 252.83 71.6401 254.82C73.8901 256.81 79.8001 258.82 81.3701 259.31L81.0101 262.11C80.4801 266.6 80.0101 271.11 79.3201 275.46C79.1001 277 78.8201 278.51 78.5501 280.03C78.5501 279.03 78.5501 278.17 78.4901 278.03C77.9801 274.03 74.6601 266.72 70.2601 265.91C69.5245 265.795 68.773 265.837 68.0547 266.033C67.3364 266.229 66.6675 266.574 66.0917 267.046C65.516 267.518 65.0463 268.106 64.7134 268.772C64.3806 269.438 64.192 270.166 64.1601 270.91C63.9001 274.05 66.1601 277.2 68.4101 279.19C70.6601 281.18 75.9901 282.98 77.8501 283.58C77.5201 285.13 77.2001 286.67 76.8501 288.15C76.5701 289.15 76.3601 290.15 76.0201 291.15C75.6801 292.15 75.3801 293.15 75.0701 294.09C74.4001 295.94 73.7201 297.85 73.0101 299.63C72.5401 300.88 72.0101 302.06 71.5801 303.24C71.8201 301.71 72.2301 298.7 72.2401 298.44C72.1927 294.925 71.2422 291.482 69.4801 288.44C69.492 288.045 69.4686 287.651 69.4101 287.26C69.3163 286.524 69.0688 285.815 68.6836 285.18C68.2985 284.545 67.7842 283.999 67.1742 283.575C66.5643 283.152 65.8721 282.862 65.1427 282.723C64.4133 282.584 63.6629 282.6 62.9401 282.77C58.6201 283.93 55.8701 291.51 55.6701 295.5C55.6701 295.73 55.8101 298.3 55.9401 299.92C55.7201 298.98 55.5201 298.06 55.2801 297.1C54.8301 295.19 54.2801 293.29 53.7801 291.25L52.8901 288.3C52.6101 287.3 52.1901 286.3 51.8901 285.3C51.0401 282.97 50.0601 280.64 49.0201 278.3C50.6901 277.9 56.6101 276.39 59.0201 274.56C61.4301 272.73 63.8901 269.78 63.8701 266.62C63.8907 265.878 63.7548 265.139 63.4712 264.453C63.1876 263.767 62.7626 263.148 62.224 262.636C61.6854 262.125 61.0452 261.733 60.345 261.486C59.6448 261.238 58.9004 261.141 58.1601 261.2C53.7101 261.69 49.8501 268.77 49.0401 272.68C49.0401 272.92 48.7301 275.79 48.6201 277.38C47.9801 275.98 47.3501 274.59 46.6701 273.21C44.6701 269.21 42.5401 265.21 40.4301 261.21C39.7801 259.98 39.1501 258.76 38.5101 257.54C39.1101 257.4 46.1901 255.76 48.8501 253.72C51.2101 251.9 53.7201 248.93 53.7001 245.77C53.7207 245.028 53.5848 244.289 53.3012 243.603C53.0176 242.917 52.5926 242.298 52.054 241.786C51.5154 241.275 50.8752 240.883 50.175 240.636C49.4748 240.388 48.7304 240.291 47.9901 240.35C43.5401 240.84 39.6801 247.92 38.8701 251.83C38.8101 252.13 38.4401 256.26 38.4001 257.31C37.0001 254.62 35.6301 251.92 34.4001 249.2C32.7013 245.543 31.2449 241.778 30.0401 237.93C30.3201 237.87 37.7101 236.19 40.4401 234.09C42.8001 232.28 45.3101 229.31 45.2901 226.15C45.3108 225.407 45.1747 224.667 44.8905 223.98C44.6063 223.293 44.1804 222.674 43.6407 222.162C43.101 221.651 42.4595 221.259 41.7581 221.012C41.0567 220.765 40.3111 220.669 39.5701 220.73C35.1301 221.21 31.2701 228.3 30.4601 232.21C30.4601 232.47 30.1201 235.62 30.0201 237.12H29.7701C28.6536 233.216 27.8905 229.22 27.4901 225.18C27.2401 222.96 27.1301 220.82 27.0601 218.74C28.4701 218.57 34.9001 217.74 37.5601 216.1C40.2201 214.46 42.9401 211.88 43.2601 208.74C43.36 208.005 43.3041 207.257 43.096 206.544C42.8879 205.832 42.5323 205.172 42.0522 204.606C41.5722 204.04 40.9785 203.581 40.3096 203.26C39.6408 202.938 38.9118 202.761 38.1701 202.74C33.7001 202.74 29.0901 209.35 27.8601 213.15C27.7901 213.36 27.3401 215.53 27.0401 217.15C27.0401 216.21 27.0401 215.24 27.0401 214.34C27.0401 210.96 27.2601 207.86 27.4801 205.12C27.6101 203.56 27.7601 202.12 27.9201 200.85C29.2101 199.96 34.3801 196.3 35.9201 193.69C37.4601 191.08 38.7501 187.47 37.5901 184.54C37.3409 183.84 36.9471 183.199 36.4343 182.661C35.9215 182.123 35.3012 181.698 34.6137 181.415C33.9261 181.132 33.1868 180.997 32.4436 181.019C31.7005 181.04 30.9701 181.218 30.3001 181.54C26.3001 183.6 25.3001 191.54 25.9401 195.54C26.0001 195.88 27.5001 201.11 27.5701 201.06L27.6401 201.01C27.4701 202.27 27.3001 203.62 27.1401 205.1C26.8701 207.85 26.5801 210.95 26.5001 214.34C26.3799 218.009 26.47 221.682 26.7701 225.34C27.0709 229.425 27.7403 233.475 28.7701 237.44C28.7701 237.49 28.7701 237.53 28.7701 237.58C28.0701 236.47 26.0001 233.45 25.7701 233.23C23.1601 230.23 16.3401 225.92 12.2201 227.66C11.5437 227.968 10.94 228.416 10.4482 228.973C9.95636 229.531 9.58756 230.186 9.36586 230.895C9.14406 231.605 9.07436 232.353 9.16126 233.091C9.24816 233.83 9.48966 234.541 9.87006 235.18C11.3901 237.95 15.0401 239.32 17.9901 239.75C21.3201 240.23 28.3201 238.2 28.8801 238.04C30.031 242.048 31.4509 245.973 33.1301 249.79C34.1301 252.02 35.1301 254.24 36.2001 256.45C35.5601 255.52 34.9801 254.68 34.8901 254.58C32.2801 251.58 25.4501 247.26 21.3401 249C20.6811 249.311 20.0935 249.755 19.6141 250.304C19.1347 250.852 18.7738 251.494 18.5541 252.189C18.3344 252.884 18.2606 253.616 18.3374 254.341C18.4141 255.066 18.6397 255.767 19.0001 256.4C20.5201 259.17 24.1601 260.54 27.1101 260.97C30.0601 261.4 36.1101 259.79 37.7001 259.34L38.9501 261.88C40.9501 265.88 43.0201 269.94 44.9501 273.94C45.6101 275.36 46.2101 276.77 46.8201 278.18C46.2501 277.35 45.7601 276.66 45.6801 276.56C43.0701 273.56 36.2401 269.24 32.1301 270.99C31.4537 271.298 30.85 271.746 30.3582 272.303C29.8664 272.861 29.4976 273.516 29.2759 274.225C29.0541 274.935 28.9844 275.683 29.0713 276.421C29.1582 277.16 29.3997 277.871 29.7801 278.51C31.3001 281.27 34.9401 282.64 37.8901 283.07C40.8401 283.5 46.3101 282.07 48.2001 281.53C48.7701 282.99 49.3601 284.46 49.8501 285.91C50.1701 286.91 50.5401 287.84 50.8001 288.85C51.0601 289.86 51.3501 290.85 51.6301 291.85C52.0901 293.76 52.5701 295.73 52.9701 297.61C53.2601 298.91 53.5101 300.15 53.7701 301.41C53.1201 300 51.7701 297.26 51.6701 297.04C49.5401 293.66 43.4501 288.38 39.1101 289.48C38.3955 289.684 37.7319 290.036 37.1624 290.513C36.593 290.99 36.1304 291.582 35.805 292.25C35.4795 292.918 35.2984 293.647 35.2734 294.39C35.2484 295.132 35.3802 295.872 35.6601 296.56C36.7401 299.56 40.1301 301.43 42.9801 302.3C46.1301 303.3 53.0801 302.38 53.9801 302.3C54.3901 304.38 54.7801 306.41 55.1101 308.3C55.6901 311.56 56.1101 314.56 56.5301 317.23H59.4201C58.9601 314.43 58.4201 311.23 57.7201 307.82C57.3001 305.71 56.8201 303.46 56.3001 301.15C58.3928 300.318 60.4332 299.359 62.4101 298.28C64.7001 300.76 70.5701 303.66 71.3301 304.03C70.5301 306.03 69.7301 307.89 68.9501 309.67C67.7501 312.44 66.6001 314.96 65.5301 317.23H68.6201C69.5101 315.23 70.4401 313.05 71.3901 310.7C72.2101 308.7 73.0501 306.57 73.8901 304.36C74.7301 304.54 81.6101 305.94 84.8201 305.21C87.7301 304.56 91.2501 302.91 92.5501 300.03C92.8811 299.365 93.0671 298.637 93.0971 297.895C93.1271 297.152 93.0001 296.412 92.7251 295.722C92.4491 295.032 92.0311 294.408 91.4978 293.891C90.9646 293.373 90.3281 292.975 89.6301 292.72C85.3901 291.3 78.9201 296.11 76.5501 299.32C76.4101 299.51 75.1201 301.74 74.3301 303.16C74.6701 302.25 75.0101 301.38 75.3301 300.44C76.0101 298.6 76.6301 296.74 77.3301 294.74C77.6201 293.74 77.9201 292.74 78.2101 291.74C78.5001 290.74 78.7401 289.68 79.0101 288.64C79.5901 286.22 80.0101 283.74 80.4701 281.23C82.0801 281.82 87.8501 283.83 90.8401 283.62C93.8301 283.41 97.5501 282.32 99.2701 279.67C99.6981 279.062 99.9931 278.371 100.135 277.642C100.277 276.912 100.264 276.161 100.096 275.437C99.9281 274.713 99.6091 274.032 99.1601 273.44C98.7111 272.848 98.1421 272.357 97.4901 272C93.4901 269.95 86.3901 273.73 83.5601 276.54C83.3901 276.72 81.5601 278.97 80.6201 280.22C80.8501 278.71 81.1001 277.22 81.2901 275.67C81.8401 271.24 82.2901 266.73 82.7001 262.24C82.8301 260.86 82.9801 259.49 83.1201 258.12C83.7001 258.34 90.5001 260.87 93.8501 260.63C96.8501 260.43 100.56 259.33 102.28 256.69C102.708 256.082 103.003 255.39 103.145 254.659C103.288 253.929 103.275 253.177 103.107 252.452C102.939 251.727 102.62 251.046 102.17 250.453C101.721 249.86 101.152 249.368 100.5 249.01C96.5001 246.96 89.4001 250.74 86.5701 253.56C86.3601 253.77 83.7701 257.01 83.1501 257.87C83.4701 254.87 83.8101 251.87 84.2801 248.87C84.8813 244.882 85.7398 240.937 86.8501 237.06C87.1201 237.16 94.2101 239.84 97.6401 239.6C100.64 239.39 104.35 238.29 106.07 235.6C106.498 234.992 106.793 234.301 106.935 233.572C107.077 232.842 107.064 232.091 106.896 231.367C106.728 230.643 106.409 229.962 105.96 229.37C105.511 228.778 104.942 228.287 104.29 227.93C100.29 225.88 93.1901 229.65 90.3601 232.47C90.1801 232.66 88.2001 235.12 87.2901 236.32L87.0601 236.2C88.2878 232.332 89.8574 228.58 91.7501 224.99C92.7501 222.99 93.8501 221.15 94.9501 219.38C96.2201 220.01 102.05 222.85 105.16 222.97C108.27 223.09 111.97 222.41 113.97 219.97C114.461 219.413 114.829 218.758 115.051 218.049C115.272 217.34 115.341 216.592 115.255 215.855C115.168 215.117 114.927 214.406 114.547 213.768C114.167 213.129 113.657 212.578 113.05 212.15C109.32 209.68 101.83 212.65 98.7001 215.15C98.5301 215.29 96.9601 216.85 95.8301 218.01C96.3401 217.22 96.8301 216.39 97.3401 215.64C99.2101 212.82 101.1 210.36 102.79 208.19C103.79 206.97 104.66 205.88 105.52 204.87C107.09 204.87 113.41 204.65 116.18 203.35C118.95 202.05 121.97 199.71 122.62 196.63C122.79 195.905 122.805 195.152 122.663 194.421C122.522 193.689 122.228 192.996 121.801 192.386C121.373 191.776 120.821 191.264 120.182 190.882C119.543 190.5 118.83 190.257 118.09 190.17Z" fill="#C2C2C2"/>
<path d="M58.45 173.47H433.45C436.224 173.47 438.885 174.572 440.846 176.534C442.808 178.495 443.91 181.156 443.91 183.93V430.43H48V183.92C48.0026 181.149 49.1045 178.493 51.0637 176.534C53.0228 174.574 55.6793 173.473 58.45 173.47Z" fill="white" stroke="#263238" stroke-linecap="round" stroke-linejoin="round"/>
<path d="M169.489 353.57C169.649 353.471 169.833 353.419 170.021 353.419C170.209 353.419 170.394 353.471 170.554 353.57L170.83 353.727L171.113 353.868C171.284 353.946 171.43 354.069 171.535 354.225C171.64 354.38 171.699 354.562 171.707 354.749L171.749 356.063L176.023 355.929L175.981 354.619C175.976 354.433 176.023 354.249 176.117 354.087C176.21 353.926 176.346 353.793 176.509 353.704C176.693 353.6 176.892 353.489 177.049 353.367C177.203 353.258 177.383 353.195 177.571 353.183C177.758 353.172 177.945 353.213 178.11 353.302L179.259 353.918L181.282 350.149L180.133 349.529C179.968 349.439 179.831 349.305 179.738 349.142C179.644 348.979 179.598 348.794 179.604 348.606C179.608 348.394 179.6 348.182 179.581 347.97C179.564 347.783 179.599 347.594 179.682 347.425C179.765 347.257 179.893 347.114 180.052 347.013L181.17 346.319L178.915 342.685L177.792 343.382C177.632 343.479 177.449 343.53 177.262 343.53C177.075 343.53 176.892 343.479 176.732 343.382C176.64 343.328 176.552 343.275 176.456 343.225L176.176 343.083C176.005 343.005 175.858 342.881 175.753 342.725C175.647 342.569 175.587 342.387 175.579 342.198L175.54 340.885L171.266 341.019L171.304 342.325C171.311 342.513 171.264 342.699 171.17 342.862C171.076 343.026 170.938 343.159 170.772 343.248C170.585 343.35 170.403 343.462 170.228 343.585C170.074 343.693 169.893 343.756 169.706 343.769C169.518 343.781 169.33 343.741 169.164 343.654L168.015 343.033L166 346.81L167.149 347.43C167.316 347.516 167.456 347.647 167.553 347.808C167.651 347.969 167.702 348.154 167.701 348.342C167.687 348.555 167.687 348.768 167.701 348.981C167.718 349.168 167.684 349.357 167.6 349.525C167.517 349.694 167.389 349.835 167.229 349.935L166.119 350.64L168.375 354.274L169.489 353.57ZM170.558 346.81C170.885 346.199 171.386 345.699 171.997 345.373C172.609 345.047 173.303 344.909 173.993 344.978C174.683 345.046 175.336 345.317 175.872 345.757C176.407 346.197 176.8 346.786 177.001 347.45C177.202 348.113 177.201 348.821 177 349.484C176.798 350.147 176.404 350.735 175.869 351.175C175.333 351.614 174.679 351.885 173.989 351.952C173.299 352.02 172.605 351.882 171.994 351.555C171.175 351.116 170.563 350.369 170.294 349.48C170.025 348.59 170.12 347.63 170.558 346.81Z" fill="#EBEBEB"/>
<path d="M303.404 322.275C303.517 322.343 303.609 322.441 303.671 322.558C303.732 322.674 303.76 322.806 303.753 322.937C303.753 323.01 303.753 323.083 303.753 323.16C303.753 323.236 303.753 323.305 303.753 323.382C303.761 323.513 303.732 323.644 303.671 323.76C303.609 323.876 303.517 323.973 303.404 324.04L302.607 324.5L304.105 327.093L304.902 326.633C305.016 326.569 305.147 326.537 305.279 326.542C305.411 326.546 305.538 326.587 305.648 326.66C305.772 326.743 305.9 326.818 306.031 326.886C306.147 326.947 306.243 327.037 306.311 327.149C306.378 327.26 306.414 327.388 306.414 327.518V328.426H309.409V327.507C309.41 327.376 309.446 327.249 309.513 327.137C309.581 327.026 309.677 326.935 309.792 326.875C309.924 326.807 310.052 326.731 310.175 326.649C310.285 326.576 310.413 326.535 310.545 326.53C310.677 326.525 310.807 326.557 310.922 326.622L311.719 327.081L313.239 324.5L312.439 324.037C312.326 323.97 312.234 323.873 312.173 323.756C312.112 323.64 312.085 323.509 312.094 323.378C312.094 323.305 312.094 323.232 312.094 323.16C312.094 323.087 312.094 323.01 312.094 322.937C312.086 322.806 312.114 322.674 312.175 322.557C312.237 322.44 312.329 322.342 312.443 322.275L313.239 321.815L311.75 319.234L310.941 319.682C310.824 319.75 310.69 319.784 310.555 319.78C310.419 319.775 310.287 319.732 310.175 319.655C310.049 319.575 309.919 319.498 309.792 319.429C309.677 319.369 309.58 319.278 309.513 319.167C309.445 319.055 309.409 318.927 309.409 318.797V317.882H306.414V318.797C306.414 318.927 306.379 319.055 306.311 319.167C306.244 319.278 306.147 319.369 306.031 319.429C305.897 319.498 305.767 319.575 305.648 319.655C305.538 319.728 305.411 319.769 305.279 319.774C305.147 319.778 305.016 319.747 304.902 319.682L304.105 319.234L302.607 321.827L303.404 322.275ZM307.927 320.701C308.413 320.701 308.887 320.845 309.291 321.114C309.694 321.384 310.009 321.767 310.195 322.215C310.381 322.664 310.43 323.157 310.335 323.633C310.241 324.109 310.007 324.547 309.665 324.89C309.322 325.234 308.885 325.468 308.409 325.563C307.933 325.658 307.439 325.61 306.99 325.425C306.542 325.24 306.158 324.926 305.888 324.522C305.618 324.119 305.473 323.645 305.472 323.16C305.472 322.508 305.731 321.883 306.191 321.422C306.651 320.961 307.276 320.702 307.927 320.701Z" fill="#EBEBEB"/>
<path d="M298.884 379.388C298.884 381.696 299.568 383.952 300.85 385.871C302.132 387.79 303.955 389.286 306.087 390.169C308.219 391.052 310.565 391.284 312.829 390.834C315.093 390.384 317.172 389.273 318.804 387.641C320.436 386.009 321.548 383.93 321.999 381.667C322.45 379.403 322.219 377.057 321.336 374.924C320.454 372.792 318.959 370.969 317.04 369.686C315.121 368.404 312.865 367.719 310.558 367.718C309.025 367.717 307.507 368.019 306.09 368.605C304.674 369.191 303.387 370.051 302.303 371.134C301.219 372.218 300.359 373.505 299.772 374.921C299.186 376.337 298.884 377.855 298.884 379.388ZM305.1 379.388C305.099 378.309 305.418 377.254 306.017 376.357C306.615 375.46 307.467 374.76 308.463 374.347C309.459 373.933 310.556 373.824 311.614 374.034C312.672 374.244 313.644 374.762 314.407 375.525C315.171 376.287 315.691 377.258 315.902 378.316C316.113 379.374 316.006 380.471 315.594 381.467C315.182 382.464 314.483 383.317 313.587 383.916C312.69 384.516 311.636 384.837 310.558 384.838C309.841 384.838 309.132 384.698 308.47 384.424C307.808 384.15 307.207 383.749 306.7 383.243C306.193 382.737 305.791 382.136 305.516 381.474C305.242 380.813 305.1 380.104 305.1 379.388Z" fill="#EBEBEB"/>
<path d="M308.31 368.199H312.798L312.549 365.024H308.559L308.31 368.199Z" fill="#EBEBEB"/>
<path d="M316.85 369.713L320.025 372.888L322.097 370.463L319.27 367.641L316.85 369.713Z" fill="#EBEBEB"/>
<path d="M321.822 376.82V381.309L325.001 381.06V377.069L321.822 376.82Z" fill="#EBEBEB"/>
<path d="M320.308 385.366L317.137 388.537L319.557 390.609L322.38 387.787L320.308 385.366Z" fill="#EBEBEB"/>
<path d="M313.202 390.337H308.713L308.962 393.512H312.953L313.202 390.337Z" fill="#EBEBEB"/>
<path d="M304.659 388.825L301.484 385.65L299.412 388.075L302.235 390.897L304.659 388.825Z" fill="#EBEBEB"/>
<path d="M299.689 381.715V377.227L296.51 377.472V381.466L299.689 381.715Z" fill="#EBEBEB"/>
<path d="M301.197 373.171L304.372 370L301.952 367.928L299.129 370.75L301.197 373.171Z" fill="#EBEBEB"/>
<path d="M185.816 370.628C185.816 372.937 186.5 375.194 187.782 377.115C189.064 379.035 190.887 380.532 193.02 381.416C195.153 382.3 197.5 382.532 199.765 382.082C202.03 381.632 204.11 380.52 205.743 378.888C207.376 377.255 208.489 375.175 208.939 372.911C209.39 370.646 209.159 368.299 208.276 366.165C207.392 364.032 205.896 362.209 203.976 360.926C202.056 359.643 199.799 358.958 197.49 358.958C194.395 358.958 191.426 360.187 189.237 362.376C187.048 364.564 185.817 367.533 185.816 370.628ZM192.036 370.628C192.035 369.549 192.353 368.494 192.952 367.596C193.55 366.698 194.401 365.998 195.398 365.584C196.394 365.17 197.491 365.061 198.549 365.27C199.608 365.48 200.58 365.999 201.344 366.761C202.107 367.523 202.628 368.495 202.839 369.553C203.05 370.612 202.942 371.709 202.53 372.706C202.117 373.703 201.418 374.555 200.521 375.154C199.624 375.754 198.569 376.074 197.49 376.074C196.045 376.073 194.66 375.499 193.637 374.478C192.615 373.457 192.039 372.073 192.036 370.628Z" fill="#EBEBEB"/>
<path d="M195.246 359.442H199.731L199.486 356.263H195.491L195.246 359.442Z" fill="#EBEBEB"/>
<path d="M203.787 360.954L206.962 364.125L209.03 361.705L206.208 358.882L203.787 360.954Z" fill="#EBEBEB"/>
<path d="M208.757 368.062V372.55L211.936 372.301V368.31L208.757 368.062Z" fill="#EBEBEB"/>
<path d="M207.245 376.603L204.074 379.778L206.495 381.85L209.317 379.027L207.245 376.603Z" fill="#EBEBEB"/>
<path d="M200.135 381.574H195.646L195.895 384.753H199.886L200.135 381.574Z" fill="#EBEBEB"/>
<path d="M191.597 380.061L188.422 376.89L186.35 379.31L189.172 382.133L191.597 380.061Z" fill="#EBEBEB"/>
<path d="M186.624 372.953V368.464L183.445 368.713V372.704L186.624 372.953Z" fill="#EBEBEB"/>
<path d="M188.137 364.412L191.309 361.237L188.888 359.165L186.065 361.988L188.137 364.412Z" fill="#EBEBEB"/>
<path d="M278.792 337C278.791 339.384 279.497 341.715 280.821 343.698C282.145 345.68 284.027 347.226 286.23 348.138C288.432 349.051 290.856 349.29 293.194 348.826C295.532 348.361 297.68 347.214 299.366 345.528C301.052 343.843 302.201 341.695 302.666 339.357C303.131 337.019 302.893 334.595 301.981 332.393C301.069 330.19 299.524 328.307 297.542 326.983C295.559 325.658 293.229 324.951 290.845 324.951C287.649 324.951 284.584 326.221 282.324 328.48C280.063 330.74 278.793 333.804 278.792 337ZM285.215 337C285.214 335.887 285.544 334.798 286.162 333.871C286.78 332.945 287.659 332.223 288.688 331.796C289.716 331.369 290.849 331.257 291.941 331.474C293.033 331.691 294.037 332.227 294.825 333.014C295.612 333.801 296.149 334.804 296.366 335.897C296.584 336.989 296.473 338.121 296.047 339.15C295.621 340.179 294.899 341.059 293.973 341.677C293.047 342.296 291.959 342.626 290.845 342.626C290.105 342.628 289.372 342.484 288.688 342.202C288.004 341.92 287.382 341.505 286.858 340.983C286.334 340.46 285.918 339.84 285.634 339.156C285.35 338.473 285.204 337.74 285.203 337H285.215Z" fill="#C7C7C7"/>
<path d="M288.527 325.448H293.158L292.905 322.17H288.784L288.527 325.448Z" fill="#C7C7C7"/>
<path d="M297.344 327.013L300.622 330.288L302.759 327.787L299.845 324.872L297.344 327.013Z" fill="#C7C7C7"/>
<path d="M302.48 334.352V338.986L305.759 338.733V334.608L302.48 334.352Z" fill="#C7C7C7"/>
<path d="M300.918 343.171L297.644 346.449L300.141 348.586L303.055 345.672L300.918 343.171Z" fill="#C7C7C7"/>
<path d="M293.575 348.307H288.94L289.197 351.585H293.318L293.575 348.307Z" fill="#C7C7C7"/>
<path d="M284.755 346.744L281.481 343.466L279.344 345.967L282.258 348.881L284.755 346.744Z" fill="#C7C7C7"/>
<path d="M279.623 339.403V334.769L276.345 335.025V339.146L279.623 339.403Z" fill="#C7C7C7"/>
<path d="M281.186 330.582L284.461 327.307L281.963 325.166L279.049 328.081L281.186 330.582Z" fill="#C7C7C7"/>
<path d="M293.563 334.282L289.844 333.286L287.117 336.009L288.113 339.72L291.828 340.716L294.551 337.997L293.563 334.282ZM290.844 338.219C290.603 338.219 290.367 338.148 290.167 338.014C289.967 337.88 289.811 337.69 289.719 337.467C289.626 337.245 289.602 337 289.649 336.764C289.696 336.527 289.812 336.31 289.983 336.14C290.153 335.97 290.37 335.854 290.606 335.807C290.842 335.76 291.087 335.784 291.31 335.876C291.532 335.968 291.723 336.124 291.856 336.325C291.99 336.525 292.062 336.76 292.062 337.001C292.062 337.324 291.933 337.634 291.705 337.862C291.477 338.091 291.167 338.219 290.844 338.219Z" fill="#C7C7C7"/>
<path d="M251.117 365.192C251.117 367.562 251.821 369.879 253.138 371.849C254.456 373.82 256.328 375.355 258.518 376.261C260.708 377.168 263.118 377.404 265.442 376.941C267.767 376.478 269.902 375.336 271.577 373.659C273.253 371.983 274.393 369.847 274.855 367.522C275.317 365.197 275.079 362.788 274.171 360.598C273.263 358.409 271.726 356.538 269.755 355.222C267.784 353.905 265.467 353.203 263.097 353.204C259.92 353.209 256.874 354.474 254.628 356.721C252.383 358.969 251.12 362.015 251.117 365.192ZM253.667 365.192C253.667 363.325 254.22 361.5 255.256 359.947C256.293 358.395 257.767 357.184 259.492 356.47C261.217 355.755 263.115 355.568 264.946 355.932C266.777 356.297 268.459 357.196 269.779 358.516C271.099 359.837 271.997 361.519 272.361 363.35C272.724 365.182 272.537 367.079 271.821 368.804C271.106 370.528 269.895 372.002 268.342 373.038C266.789 374.074 264.964 374.627 263.097 374.625C260.597 374.623 258.2 373.628 256.433 371.859C254.666 370.09 253.674 367.692 253.675 365.192H253.667ZM251.117 365.192C251.117 367.562 251.821 369.879 253.138 371.849C254.456 373.82 256.328 375.355 258.518 376.261C260.708 377.168 263.118 377.404 265.442 376.941C267.767 376.478 269.902 375.336 271.577 373.659C273.253 371.983 274.393 369.847 274.855 367.522C275.317 365.197 275.079 362.788 274.171 360.598C273.263 358.409 271.726 356.538 269.755 355.222C267.784 353.905 265.467 353.203 263.097 353.204C259.92 353.209 256.874 354.474 254.628 356.721C252.383 358.969 251.12 362.015 251.117 365.192ZM253.667 365.192C253.667 363.325 254.22 361.5 255.256 359.947C256.293 358.395 257.767 357.184 259.492 356.47C261.217 355.755 263.115 355.568 264.946 355.932C266.777 356.297 268.459 357.196 269.779 358.516C271.099 359.837 271.997 361.519 272.361 363.35C272.724 365.182 272.537 367.079 271.821 368.804C271.106 370.528 269.895 372.002 268.342 373.038C266.789 374.074 264.964 374.627 263.097 374.625C260.597 374.623 258.2 373.628 256.433 371.859C254.666 370.09 253.674 367.692 253.675 365.192H253.667ZM242.897 365.192C242.901 369.187 244.089 373.091 246.311 376.411C248.533 379.73 251.69 382.317 255.382 383.843C259.073 385.369 263.135 385.767 267.052 384.986C270.97 384.204 274.568 382.279 277.392 379.453C280.215 376.627 282.138 373.028 282.916 369.11C283.695 365.191 283.294 361.13 281.765 357.44C280.236 353.749 277.647 350.595 274.326 348.375C271.004 346.156 267.099 344.97 263.104 344.97C260.45 344.97 257.821 345.493 255.369 346.509C252.917 347.526 250.689 349.016 248.813 350.894C246.937 352.772 245.45 355.002 244.436 357.455C243.422 359.908 242.902 362.537 242.905 365.192H242.897ZM249.968 365.192C249.967 362.593 250.737 360.053 252.18 357.892C253.624 355.731 255.675 354.046 258.076 353.052C260.477 352.057 263.119 351.797 265.668 352.304C268.216 352.811 270.558 354.063 272.395 355.9C274.232 357.738 275.483 360.08 275.989 362.629C276.496 365.177 276.235 367.819 275.239 370.22C274.244 372.62 272.559 374.672 270.398 376.114C268.236 377.557 265.695 378.326 263.097 378.325C259.616 378.319 256.279 376.933 253.818 374.471C251.357 372.01 249.973 368.673 249.968 365.192ZM251.117 365.192C251.117 367.562 251.821 369.879 253.138 371.849C254.456 373.82 256.328 375.355 258.518 376.261C260.708 377.168 263.118 377.404 265.442 376.941C267.767 376.478 269.902 375.336 271.577 373.659C273.253 371.983 274.393 369.847 274.855 367.522C275.317 365.197 275.079 362.788 274.171 360.598C273.263 358.409 271.726 356.538 269.755 355.222C267.784 353.905 265.467 353.203 263.097 353.204C259.92 353.209 256.874 354.474 254.628 356.721C252.383 358.969 251.12 362.015 251.117 365.192ZM253.667 365.192C253.667 363.325 254.22 361.5 255.256 359.947C256.293 358.395 257.767 357.184 259.492 356.47C261.217 355.755 263.115 355.568 264.946 355.932C266.777 356.297 268.459 357.196 269.779 358.516C271.099 359.837 271.997 361.519 272.361 363.35C272.724 365.182 272.537 367.079 271.821 368.804C271.106 370.528 269.895 372.002 268.342 373.038C266.789 374.074 264.964 374.627 263.097 374.625C260.597 374.623 258.2 373.628 256.433 371.859C254.666 370.09 253.674 367.692 253.675 365.192H253.667Z" fill="#E6007A"/>
<path d="M260.737 345.334H265.364L264.9 340.719H261.197L260.737 345.334Z" fill="#E6007A"/>
<path d="M270.975 346.81L274.981 349.119L276.888 344.891L273.682 343.041L270.975 346.81Z" fill="#E6007A"/>
<path d="M279.103 353.202L281.416 357.208L285.185 354.501L283.335 351.291L279.103 353.202Z" fill="#E6007A"/>
<path d="M282.947 362.804V367.43L287.566 366.967V363.263L282.947 362.804Z" fill="#E6007A"/>
<path d="M281.476 373.041L279.163 377.047L283.391 378.954L285.245 375.749L281.476 373.041Z" fill="#E6007A"/>
<path d="M275.085 381.167L271.079 383.48L273.787 387.249L276.993 385.399L275.085 381.167Z" fill="#E6007A"/>
<path d="M265.483 385.014H260.856L261.316 389.633H265.023L265.483 385.014Z" fill="#E6007A"/>
<path d="M255.245 383.543L251.239 381.229L249.328 385.458L252.538 387.311L255.245 383.543Z" fill="#E6007A"/>
<path d="M247.113 377.15L244.8 373.144L241.031 375.851L242.885 379.057L247.113 377.15Z" fill="#E6007A"/>
<path d="M243.269 367.547V362.921L238.654 363.38V367.084L243.269 367.547Z" fill="#E6007A"/>
<path d="M244.744 357.31L247.058 353.304L242.825 351.393L240.976 354.602L244.744 357.31Z" fill="#E6007A"/>
<path d="M251.136 349.181L255.142 346.867L252.434 343.099L249.225 344.952L251.136 349.181Z" fill="#E6007A"/>
<path d="M197.784 333.265C198.867 333.364 199.955 333.139 200.91 332.619C201.865 332.1 202.644 331.309 203.15 330.346C203.656 329.384 203.865 328.293 203.751 327.212C203.637 326.13 203.205 325.107 202.51 324.271C201.814 323.435 200.887 322.824 199.845 322.515C198.802 322.206 197.692 322.213 196.653 322.535C195.615 322.857 194.695 323.479 194.01 324.324C193.325 325.168 192.906 326.197 192.805 327.279C192.738 327.999 192.813 328.726 193.027 329.417C193.241 330.108 193.589 330.75 194.052 331.306C194.514 331.862 195.082 332.322 195.723 332.658C196.363 332.994 197.064 333.201 197.784 333.265ZM193.487 327.344C193.575 326.394 193.943 325.491 194.545 324.75C195.146 324.008 195.954 323.462 196.866 323.18C197.778 322.898 198.754 322.893 199.668 323.165C200.583 323.438 201.397 323.975 202.006 324.71C202.616 325.445 202.994 326.344 203.092 327.293C203.19 328.243 203.005 329.2 202.559 330.044C202.113 330.889 201.427 331.581 200.587 332.035C199.747 332.49 198.792 332.684 197.841 332.595C197.211 332.537 196.598 332.354 196.037 332.059C195.477 331.763 194.981 331.36 194.576 330.872C194.172 330.384 193.867 329.822 193.68 329.217C193.494 328.611 193.428 327.975 193.487 327.344ZM197.784 333.265C198.867 333.364 199.955 333.139 200.91 332.619C201.865 332.1 202.644 331.309 203.15 330.346C203.656 329.384 203.865 328.293 203.751 327.212C203.637 326.13 203.205 325.107 202.51 324.271C201.814 323.435 200.887 322.824 199.845 322.515C198.802 322.206 197.692 322.213 196.653 322.535C195.615 322.857 194.695 323.479 194.01 324.324C193.325 325.168 192.906 326.197 192.805 327.279C192.738 327.999 192.813 328.726 193.027 329.417C193.241 330.108 193.589 330.75 194.052 331.306C194.514 331.862 195.082 332.322 195.723 332.658C196.363 332.994 197.064 333.201 197.784 333.265ZM193.487 327.344C193.575 326.394 193.943 325.491 194.545 324.75C195.146 324.008 195.954 323.462 196.866 323.18C197.778 322.898 198.754 322.893 199.668 323.165C200.583 323.438 201.397 323.975 202.006 324.71C202.616 325.445 202.994 326.344 203.092 327.293C203.19 328.243 203.005 329.2 202.559 330.044C202.113 330.889 201.427 331.581 200.587 332.035C199.747 332.49 198.792 332.684 197.841 332.595C197.211 332.537 196.598 332.354 196.037 332.059C195.477 331.763 194.981 331.36 194.576 330.872C194.172 330.384 193.867 329.822 193.68 329.217C193.494 328.611 193.428 327.975 193.487 327.344ZM197.784 333.265C198.867 333.364 199.955 333.139 200.91 332.619C201.865 332.1 202.644 331.309 203.15 330.346C203.656 329.384 203.865 328.293 203.751 327.212C203.637 326.13 203.205 325.107 202.51 324.271C201.814 323.435 200.887 322.824 199.845 322.515C198.802 322.206 197.692 322.213 196.653 322.535C195.615 322.857 194.695 323.479 194.01 324.324C193.325 325.168 192.906 326.197 192.805 327.279C192.738 327.999 192.813 328.726 193.027 329.417C193.241 330.108 193.589 330.75 194.052 331.306C194.514 331.862 195.082 332.322 195.723 332.658C196.363 332.994 197.064 333.201 197.784 333.265ZM193.487 327.344C193.575 326.394 193.943 325.491 194.545 324.75C195.146 324.008 195.954 323.462 196.866 323.18C197.778 322.898 198.754 322.893 199.668 323.165C200.583 323.438 201.397 323.975 202.006 324.71C202.616 325.445 202.994 326.344 203.092 327.293C203.19 328.243 203.005 329.2 202.559 330.044C202.113 330.889 201.427 331.581 200.587 332.035C199.747 332.49 198.792 332.684 197.841 332.595C197.211 332.537 196.598 332.354 196.037 332.059C195.477 331.763 194.981 331.36 194.576 330.872C194.172 330.384 193.867 329.822 193.68 329.217C193.494 328.611 193.428 327.975 193.487 327.344ZM197.217 339.332C199.5 339.549 201.796 339.083 203.814 337.995C205.832 336.906 207.482 335.244 208.555 333.217C209.628 331.19 210.076 328.891 209.841 326.61C209.607 324.329 208.701 322.169 207.239 320.403C205.776 318.637 203.822 317.344 201.625 316.689C199.428 316.033 197.085 316.044 194.894 316.721C192.703 317.397 190.762 318.708 189.316 320.488C187.871 322.268 186.985 324.437 186.773 326.72C186.49 329.777 187.431 332.82 189.389 335.184C191.347 337.549 194.162 339.04 197.217 339.332ZM191.966 327.203C192.079 325.95 192.56 324.759 193.349 323.781C194.139 322.802 195.201 322.079 196.401 321.705C197.601 321.33 198.886 321.319 200.092 321.675C201.298 322.03 202.371 322.736 203.176 323.702C203.981 324.668 204.481 325.851 204.614 327.101C204.746 328.352 204.504 329.613 203.919 330.726C203.334 331.839 202.432 332.754 201.327 333.354C200.222 333.953 198.963 334.212 197.711 334.097C196.037 333.94 194.493 333.127 193.416 331.835C192.34 330.543 191.818 328.878 191.966 327.203ZM192.82 327.279C192.723 328.361 192.948 329.448 193.468 330.402C193.988 331.356 194.779 332.135 195.741 332.64C196.703 333.145 197.793 333.353 198.874 333.238C199.954 333.124 200.976 332.692 201.811 331.996C202.646 331.301 203.256 330.374 203.564 329.332C203.873 328.29 203.865 327.18 203.543 326.142C203.22 325.105 202.598 324.186 201.753 323.502C200.909 322.818 199.881 322.4 198.799 322.3C198.08 322.233 197.354 322.309 196.664 322.523C195.974 322.737 195.333 323.085 194.777 323.547C194.222 324.009 193.763 324.577 193.427 325.216C193.092 325.856 192.885 326.556 192.82 327.275V327.279ZM193.487 327.344C193.575 326.394 193.943 325.491 194.545 324.75C195.146 324.008 195.954 323.462 196.866 323.18C197.778 322.898 198.754 322.893 199.668 323.165C200.583 323.438 201.397 323.975 202.006 324.71C202.616 325.445 202.994 326.344 203.092 327.293C203.19 328.243 203.005 329.2 202.559 330.044C202.113 330.889 201.427 331.581 200.587 332.035C199.747 332.49 198.792 332.684 197.841 332.595C197.211 332.537 196.598 332.354 196.037 332.059C195.477 331.763 194.981 331.36 194.576 330.872C194.172 330.384 193.867 329.822 193.68 329.217C193.494 328.611 193.428 327.975 193.487 327.344ZM197.784 333.265C198.867 333.364 199.955 333.139 200.91 332.619C201.865 332.1 202.644 331.309 203.15 330.346C203.656 329.384 203.865 328.293 203.751 327.212C203.637 326.13 203.205 325.107 202.51 324.271C201.814 323.435 200.887 322.824 199.845 322.515C198.802 322.206 197.692 322.213 196.653 322.535C195.615 322.857 194.695 323.479 194.01 324.324C193.325 325.168 192.906 326.197 192.805 327.279C192.738 327.999 192.813 328.726 193.027 329.417C193.241 330.108 193.589 330.75 194.052 331.306C194.514 331.862 195.082 332.322 195.723 332.658C196.363 332.994 197.064 333.201 197.784 333.265ZM193.487 327.344C193.575 326.394 193.943 325.491 194.545 324.75C195.146 324.008 195.954 323.462 196.866 323.18C197.778 322.898 198.754 322.893 199.668 323.165C200.583 323.438 201.397 323.975 202.006 324.71C202.616 325.445 202.994 326.344 203.092 327.293C203.19 328.243 203.005 329.2 202.559 330.044C202.113 330.889 201.427 331.581 200.587 332.035C199.747 332.49 198.792 332.684 197.841 332.595C197.211 332.537 196.598 332.354 196.037 332.059C195.477 331.763 194.981 331.36 194.576 330.872C194.172 330.384 193.867 329.822 193.68 329.217C193.494 328.611 193.428 327.975 193.487 327.344ZM197.784 333.265C198.867 333.364 199.955 333.139 200.91 332.619C201.865 332.1 202.644 331.309 203.15 330.346C203.656 329.384 203.865 328.293 203.751 327.212C203.637 326.13 203.205 325.107 202.51 324.271C201.814 323.435 200.887 322.824 199.845 322.515C198.802 322.206 197.692 322.213 196.653 322.535C195.615 322.857 194.695 323.479 194.01 324.324C193.325 325.168 192.906 326.197 192.805 327.279C192.738 327.999 192.813 328.726 193.027 329.417C193.241 330.108 193.589 330.75 194.052 331.306C194.514 331.862 195.082 332.322 195.723 332.658C196.363 332.994 197.064 333.201 197.784 333.265ZM193.487 327.344C193.575 326.394 193.943 325.491 194.545 324.75C195.146 324.008 195.954 323.462 196.866 323.18C197.778 322.898 198.754 322.893 199.668 323.165C200.583 323.438 201.397 323.975 202.006 324.71C202.616 325.445 202.994 326.344 203.092 327.293C203.19 328.243 203.005 329.2 202.559 330.044C202.113 330.889 201.427 331.581 200.587 332.035C199.747 332.49 198.792 332.684 197.841 332.595C197.211 332.537 196.598 332.354 196.037 332.059C195.477 331.763 194.981 331.36 194.576 330.872C194.172 330.384 193.867 329.822 193.68 329.217C193.494 328.611 193.428 327.975 193.487 327.344Z" fill="#455A64"/>
<path d="M197.104 316.526L201.539 316.936L201.588 313.772L197.64 313.404L197.104 316.526Z" fill="#455A64"/>
<path d="M205.411 318.804L208.257 322.232L210.524 320.03L207.996 316.978L205.411 318.804Z" fill="#455A64"/>
<path d="M209.669 326.289L209.259 330.728L212.422 330.774L212.79 326.829L209.669 326.289Z" fill="#455A64"/>
<path d="M207.39 334.597L203.962 337.442L206.164 339.714L209.217 337.182L207.39 334.597Z" fill="#455A64"/>
<path d="M199.906 338.858L195.467 338.444L195.421 341.608L199.366 341.976L199.906 338.858Z" fill="#455A64"/>
<path d="M191.599 336.579L188.754 333.147L186.482 335.354L189.014 338.402L191.599 336.579Z" fill="#455A64"/>
<path d="M187.336 329.091L187.75 324.656L184.586 324.606L184.219 328.555L187.336 329.091Z" fill="#455A64"/>
<path d="M189.615 320.785L193.047 317.939L190.841 315.668L187.792 318.203L189.615 320.785Z" fill="#455A64"/>
<path d="M212.162 347.143C212.09 349.896 212.835 352.608 214.304 354.937C215.773 357.266 217.9 359.107 220.415 360.227C222.93 361.348 225.721 361.697 228.435 361.231C231.149 360.765 233.664 359.505 235.661 357.609C237.659 355.714 239.05 353.269 239.658 350.583C240.265 347.898 240.063 345.092 239.077 342.521C238.09 339.951 236.363 337.73 234.115 336.141C231.866 334.552 229.197 333.665 226.444 333.593C222.753 333.496 219.175 334.869 216.497 337.41C213.819 339.951 212.259 343.452 212.162 347.143ZM219.581 347.338C219.613 346.05 220.027 344.801 220.77 343.748C221.513 342.695 222.551 341.886 223.754 341.424C224.957 340.962 226.27 340.867 227.526 341.151C228.783 341.436 229.927 342.087 230.814 343.022C231.701 343.956 232.29 345.134 232.507 346.404C232.725 347.674 232.56 348.98 232.035 350.156C231.51 351.333 230.647 352.327 229.556 353.013C228.466 353.699 227.196 354.046 225.908 354.01C224.185 353.962 222.551 353.233 221.365 351.982C220.179 350.731 219.537 349.061 219.581 347.338Z" fill="#C7C7C7"/>
<path d="M223.756 334.098L229.106 334.239L228.911 330.444L224.15 330.317L223.756 334.098Z" fill="#C7C7C7"/>
<path d="M233.894 336.17L237.578 340.058L240.125 337.235L236.846 333.776L233.894 336.17Z" fill="#C7C7C7"/>
<path d="M239.596 344.807L239.458 350.157L243.254 349.962L243.376 345.201L239.596 344.807Z" fill="#C7C7C7"/>
<path d="M237.523 354.943L233.64 358.628L236.462 361.171L239.917 357.896L237.523 354.943Z" fill="#C7C7C7"/>
<path d="M228.891 360.648L223.541 360.506L223.736 364.301L228.497 364.428L228.891 360.648Z" fill="#C7C7C7"/>
<path d="M218.754 358.575L215.069 354.691L212.522 357.514L215.801 360.969L218.754 358.575Z" fill="#C7C7C7"/>
<path d="M213.05 349.941L213.191 344.591L209.392 344.786L209.27 349.547L213.05 349.941Z" fill="#C7C7C7"/>
<path d="M215.122 339.804L219.006 336.119L216.183 333.572L212.729 336.851L215.122 339.804Z" fill="#C7C7C7"/>
<path d="M229.776 344.099L225.215 342.747L221.768 346.026L222.878 350.648L227.44 352.004L230.887 348.729L229.776 344.099ZM226.283 348.883C225.985 348.874 225.696 348.778 225.453 348.605C225.209 348.433 225.023 348.192 224.916 347.913C224.81 347.635 224.788 347.331 224.854 347.04C224.92 346.749 225.071 346.484 225.287 346.279C225.504 346.074 225.776 345.938 226.07 345.887C226.364 345.837 226.666 345.874 226.939 345.995C227.211 346.117 227.442 346.316 227.601 346.568C227.761 346.82 227.842 347.114 227.834 347.412C227.83 347.611 227.786 347.806 227.706 347.988C227.625 348.17 227.509 348.334 227.365 348.47C227.221 348.607 227.051 348.714 226.865 348.785C226.68 348.856 226.482 348.889 226.283 348.883Z" fill="#C7C7C7"/>
<path d="M427.63 193.54H63.8701V399.11H427.63V193.54Z" stroke="#263238" stroke-linecap="round" stroke-linejoin="round"/>
<path d="M382.69 418.06H110.62V431.46H382.69V418.06Z" fill="#263238" stroke="#263238" stroke-linecap="round" stroke-linejoin="round"/>
<path d="M382.69 424.51H110.62V431.46H382.69V424.51Z" fill="white" stroke="#263238" stroke-linecap="round" stroke-linejoin="round"/>
<path d="M15.79 439.4C15.79 439.4 20.26 444.87 33.67 449.33H459.67C459.67 449.33 469.6 446.85 474.07 439.9L15.79 439.4Z" fill="#263238" stroke="#263238" stroke-linecap="round" stroke-linejoin="round"/>
<path d="M473.11 429.62H16.7796C15.7358 429.62 14.8896 430.466 14.8896 431.51V438.17C14.8896 439.214 15.7358 440.06 16.7796 440.06H473.11C474.154 440.06 475 439.214 475 438.17V431.51C475 430.466 474.154 429.62 473.11 429.62Z" fill="white" stroke="#263238" stroke-linecap="round" stroke-linejoin="round"/>
<path d="M249.14 181.24C249.142 180.551 248.94 179.877 248.558 179.304C248.177 178.73 247.634 178.283 246.999 178.018C246.363 177.753 245.663 177.683 244.987 177.816C244.312 177.949 243.69 178.279 243.203 178.766C242.715 179.252 242.383 179.872 242.248 180.547C242.113 181.223 242.181 181.923 242.444 182.559C242.707 183.196 243.153 183.74 243.726 184.123C244.298 184.506 244.971 184.71 245.66 184.71C246.581 184.71 247.465 184.345 248.117 183.694C248.77 183.044 249.137 182.161 249.14 181.24Z" fill="white" stroke="#263238" stroke-linecap="round" stroke-linejoin="round"/>
<path d="M2 449.33H489" stroke="#263238" stroke-linecap="round" stroke-linejoin="round"/>
<path d="M269 260V253.405L257.762 242H251L269 260Z" fill="#263238"/>
<path d="M221 225V231.595L232.234 243H239L221 225Z" fill="#263238"/>
<path d="M227 218H233.378L244.406 229.233L255.336 218H262L244.407 236L227 218Z" fill="#263238"/>
<path d="M228 266H234.559L245.903 254.767L257.145 266H264L245.904 248L228 266Z" fill="#263238"/>
<path d="M245 246C246.657 246 248 244.657 248 243C248 241.343 246.657 240 245 240C243.343 240 242 241.343 242 243C242 244.657 243.343 246 245 246Z" fill="#E6007A"/>
<path d="M325.52 286H166V295.51H325.52V286Z" fill="#E6007A"/>
<path d="M228.39 286H217.77L212.32 295.5H222.94L228.39 286Z" fill="#263238"/>
<path d="M325.521 295.5V286.92L320.601 295.5H325.521Z" fill="#263238"/>
<path d="M250.04 286H239.42L233.98 295.5H244.6L250.04 286Z" fill="#263238"/>
<path d="M206.73 286H196.11L190.66 295.5H201.29L206.73 286Z" fill="#263238"/>
<path d="M169.011 295.5H179.631L185.081 286H174.451L169.011 295.5Z" fill="#263238"/>
<path d="M315.01 286H304.39L298.95 295.5H309.57L315.01 286Z" fill="#263238"/>
<path d="M271.7 286H261.08L255.63 295.5H266.26L271.7 286Z" fill="#263238"/>
<path d="M293.36 286H282.73L277.29 295.5H287.91L293.36 286Z" fill="#263238"/>
<path d="M91.2399 338.75L63.9199 443.12H124.85L97.5299 338.75C97.3639 338.04 96.9629 337.408 96.3919 336.955C95.8209 336.502 95.1139 336.256 94.3849 336.256C93.6559 336.256 92.9489 336.502 92.3779 336.955C91.807 337.408 91.4059 338.04 91.2399 338.75Z" fill="#E6007A" stroke="#263238" stroke-linecap="round" stroke-linejoin="round"/>
<path d="M63.9199 443.12H113.56L88.7399 348.29L63.9199 443.12Z" fill="#263238" stroke="#263238" stroke-linecap="round" stroke-linejoin="round"/>
<path d="M131 440.83H55C52.7909 440.83 51 442.621 51 444.83V445.34C51 447.549 52.7909 449.34 55 449.34H131C133.209 449.34 135 447.549 135 445.34V444.83C135 442.621 133.209 440.83 131 440.83Z" fill="#E6007A" stroke="#263238" stroke-linecap="round" stroke-linejoin="round"/>
<path d="M104.99 440.83H55C52.7909 440.83 51 442.621 51 444.83V445.34C51 447.549 52.7909 449.34 55 449.34H104.99C107.199 449.34 108.99 447.549 108.99 445.34V444.83C108.99 442.621 107.199 440.83 104.99 440.83Z" fill="#263238" stroke="#263238" stroke-linecap="round" stroke-linejoin="round"/>
<path d="M74.8203 401.49H113.95L109.22 383.41H79.5503L74.8203 401.49Z" fill="white" stroke="#263238" stroke-linecap="round" stroke-linejoin="round"/>
<path d="M74.8203 401.49H102.67L97.9403 383.41H79.5503L74.8203 401.49Z" fill="#BABABA" stroke="#263238" stroke-linecap="round" stroke-linejoin="round"/>
<path d="M252.083 119.873C255.508 116.448 255.508 110.895 252.083 107.47C248.659 104.045 243.106 104.045 239.681 107.47C236.256 110.895 236.256 116.448 239.681 119.873C243.106 123.298 248.659 123.298 252.083 119.873Z" fill="white" stroke="#263238" stroke-linecap="round" stroke-linejoin="round"/>
<path d="M246.13 42.8401V1.87012" stroke="#263238" stroke-width="2" stroke-linecap="round" stroke-linejoin="round"/>
<path d="M246.13 69.8998V42.8398" stroke="#808080" stroke-width="2" stroke-miterlimit="10"/>
<path d="M232.54 69.9004L205.47 116.8H286.23L259.15 69.9004H232.54Z" fill="#E6007A" stroke="#263238" stroke-width="0.972732" stroke-miterlimit="10"/>
<path d="M235.26 69.9004L213.71 116.8H277.99L256.44 69.9004H235.26Z" fill="#263238" stroke="#263238" stroke-linecap="round" stroke-linejoin="round"/>
<path d="M171.69 173.47H58.2596C55.4881 173.47 52.8301 174.571 50.8703 176.531C48.9106 178.49 47.8096 181.148 47.8096 183.92V382L171.69 173.47Z" fill="#808080" stroke="#263238" stroke-miterlimit="10"/>
<path d="M319.8 173.47H433.23C436.002 173.47 438.66 174.571 440.619 176.531C442.579 178.49 443.68 181.148 443.68 183.92V382.61L319.8 173.47Z" fill="#808080" stroke="#263238" stroke-miterlimit="10"/>
<path d="M171.69 173.47L47.8096 382.03" stroke="#263238" stroke-linecap="round" stroke-linejoin="round"/>
<path d="M319.8 173.47L443.68 382.61" stroke="#263238" stroke-linecap="round" stroke-linejoin="round"/>
<path d="M63.8701 355.31V193.54H159.31" stroke="#263238" stroke-linecap="round" stroke-linejoin="round"/>
<path d="M331.91 193.54H427.62V356.13" stroke="#263238" stroke-linecap="round" stroke-linejoin="round"/>
<path d="M319.8 173.47L286.23 116.8H205.47L171.69 173.47" fill="white" fill-opacity="0.3"/>
<path d="M319.8 173.47L286.23 116.8H205.47L171.69 173.47" stroke="#263238" stroke-miterlimit="10"/>
</svg>
