<svg width="500" height="500" viewBox="0 0 500 500" fill="none" xmlns="http://www.w3.org/2000/svg">
<path d="M159.46 450.05C164.089 454.922 168.972 459.545 174.09 463.9H394.73C419.06 440.77 442.09 407.57 462.27 361.68C462.27 361.68 498.01 271.19 489.69 191.87C481.37 112.55 429.27 49.87 355.47 36.52C281.67 23.17 216.07 96.38 133.7 121.76C51.33 147.14 -9.00001 215.16 12.68 306.4C34.36 397.64 94.9 381.94 159.46 450.05Z" fill="#8BA1BE" fill-opacity="0.2"/>
<path d="M367.23 163.35C370.44 164.75 378.29 164.57 378.29 164.57C378.29 164.57 376.6 159.43 376.46 159.12C374.73 155.52 369.29 149.57 364.85 150.12C364.118 150.24 363.419 150.514 362.799 150.922C362.179 151.33 361.652 151.864 361.252 152.49C360.852 153.115 360.588 153.818 360.478 154.552C360.367 155.286 360.412 156.035 360.61 156.75C361.34 159.87 364.49 162.15 367.23 163.35Z" fill="#C2C2C2"/>
<path d="M446.63 165.07C446.69 165.12 448.05 159.86 448.1 159.52C448.65 155.52 447.39 147.59 443.36 145.65C442.682 145.345 441.948 145.187 441.205 145.185C440.462 145.183 439.727 145.337 439.048 145.638C438.369 145.939 437.761 146.38 437.263 146.932C436.765 147.483 436.39 148.133 436.16 148.84C435.08 151.84 436.45 155.44 438.07 157.95C440 160.89 446.62 165.07 446.63 165.07Z" fill="#C2C2C2"/>
<path d="M470.06 136.63C465.61 136.15 460.33 142.24 458.7 145.89C458.56 146.21 456.93 151.39 457.01 151.39H457.11C456.27 152.39 455.38 153.39 454.42 154.53C452.69 156.66 450.74 159.09 448.8 161.88C446.676 164.86 444.729 167.962 442.97 171.17C440.972 174.754 439.299 178.508 437.97 182.39C437.964 182.437 437.964 182.484 437.97 182.53C437.97 181.22 437.97 177.53 437.9 177.27C437.38 173.27 434.06 165.96 429.66 165.15C428.924 165.034 428.172 165.074 427.453 165.269C426.734 165.465 426.065 165.81 425.488 166.282C424.912 166.754 424.443 167.343 424.11 168.01C423.778 168.676 423.59 169.406 423.56 170.15C423.3 173.3 425.56 176.45 427.81 178.44C430.32 180.68 437.28 182.85 437.81 183.02C436.561 187.001 435.575 191.06 434.86 195.17C434.44 197.56 434.08 199.98 433.76 202.42C433.76 201.29 433.76 200.27 433.7 200.13C433.18 196.13 429.86 188.82 425.47 188.01C424.734 187.894 423.981 187.934 423.262 188.129C422.542 188.324 421.872 188.669 421.295 189.141C420.718 189.613 420.248 190.202 419.914 190.869C419.581 191.536 419.392 192.265 419.36 193.01C419.1 196.16 421.36 199.31 423.61 201.3C425.86 203.29 431.77 205.3 433.34 205.78L432.98 208.59C432.45 213.07 431.93 217.59 431.29 221.94C431.07 223.48 430.79 224.99 430.52 226.5C430.52 225.5 430.52 224.65 430.46 224.5C429.95 220.5 426.63 213.19 422.23 212.38C421.494 212.264 420.742 212.304 420.023 212.499C419.304 212.695 418.635 213.04 418.058 213.512C417.482 213.984 417.013 214.573 416.68 215.24C416.348 215.906 416.16 216.636 416.13 217.38C415.87 220.52 418.13 223.67 420.38 225.66C422.63 227.65 427.96 229.45 429.82 230.05C429.49 231.59 429.17 233.14 428.82 234.62C428.54 235.62 428.33 236.62 427.99 237.62C427.65 238.62 427.35 239.62 427.04 240.56C426.37 242.41 425.69 244.32 424.98 246.1C424.51 247.35 424.03 248.52 423.55 249.71C423.79 248.18 424.2 245.17 424.21 244.91C424.161 241.395 423.211 237.952 421.45 234.91C421.462 234.519 421.438 234.127 421.38 233.74C421.288 233.003 421.041 232.293 420.656 231.658C420.272 231.022 419.757 230.475 419.147 230.051C418.537 229.628 417.844 229.337 417.114 229.199C416.384 229.061 415.633 229.079 414.91 229.25C410.59 230.4 407.84 237.99 407.64 241.98C407.64 242.21 407.78 244.78 407.91 246.4C407.69 245.46 407.49 244.54 407.25 243.58C406.8 241.67 406.25 239.77 405.75 237.73L404.86 234.73C404.58 233.73 404.16 232.73 403.81 231.73C402.96 229.4 401.98 227.07 400.94 224.73C402.61 224.33 408.53 222.82 410.94 220.99C413.35 219.16 415.81 216.21 415.79 213.05C415.811 212.308 415.675 211.569 415.391 210.883C415.107 210.197 414.683 209.578 414.144 209.066C413.605 208.555 412.965 208.163 412.265 207.916C411.565 207.668 410.82 207.571 410.08 207.63C405.63 208.11 401.77 215.2 400.96 219.11C400.96 219.35 400.65 222.22 400.54 223.8C399.9 222.41 399.27 221.02 398.54 219.63C396.54 215.63 394.41 211.63 392.3 207.63C391.65 206.41 391.02 205.19 390.38 203.96C390.98 203.83 398.06 202.19 400.72 200.14C403.08 198.33 405.59 195.36 405.57 192.2C405.591 191.458 405.455 190.719 405.171 190.033C404.888 189.347 404.463 188.728 403.924 188.216C403.385 187.705 402.745 187.313 402.045 187.066C401.345 186.818 400.6 186.721 399.86 186.78C395.41 187.26 391.55 194.35 390.74 198.26C390.68 198.55 390.31 202.69 390.27 203.74C388.87 201.05 387.5 198.35 386.27 195.63C384.573 191.972 383.117 188.208 381.91 184.36C382.19 184.29 389.58 182.61 392.31 180.52C394.67 178.71 397.18 175.74 397.16 172.58C397.181 171.837 397.045 171.097 396.76 170.41C396.476 169.723 396.05 169.104 395.511 168.592C394.971 168.081 394.329 167.689 393.628 167.442C392.927 167.195 392.181 167.099 391.44 167.16C387 167.64 383.14 174.73 382.33 178.64C382.28 178.89 381.99 182.04 381.89 183.54H381.64C380.524 179.636 379.761 175.64 379.36 171.6C379.11 169.38 379 167.24 378.93 165.16C380.34 164.99 386.77 164.16 389.43 162.52C392.09 160.88 394.81 158.3 395.13 155.16C395.23 154.425 395.174 153.677 394.966 152.964C394.758 152.252 394.402 151.592 393.922 151.026C393.442 150.46 392.848 150.001 392.18 149.68C391.511 149.358 390.782 149.181 390.04 149.16C385.57 149.16 380.96 155.77 379.73 159.57C379.66 159.78 379.21 161.95 378.91 163.57C378.91 162.63 378.86 161.66 378.86 160.76C378.86 157.38 379.08 154.28 379.3 151.54C379.43 149.98 379.58 148.54 379.74 147.26C381.03 146.37 386.2 142.72 387.79 140.11C389.38 137.5 390.62 133.89 389.46 130.95C389.211 130.25 388.817 129.609 388.304 129.071C387.791 128.533 387.171 128.108 386.484 127.825C385.796 127.542 385.057 127.407 384.314 127.429C383.57 127.45 382.84 127.628 382.17 127.95C378.17 129.95 377.17 137.95 377.81 141.95C377.87 142.29 379.37 147.51 379.44 147.47L379.51 147.41C379.34 148.68 379.17 150.03 379.01 151.51C378.74 154.25 378.45 157.35 378.37 160.75C378.25 164.419 378.34 168.092 378.64 171.75C378.941 175.835 379.61 179.885 380.64 183.85C380.64 183.85 380.64 183.94 380.64 183.99C379.94 182.88 377.87 179.86 377.64 179.64C375.03 176.64 368.21 172.32 364.09 174.07C363.414 174.378 362.81 174.826 362.318 175.383C361.826 175.941 361.458 176.596 361.236 177.305C361.014 178.015 360.944 178.763 361.031 179.501C361.118 180.24 361.36 180.951 361.74 181.59C363.26 184.36 366.91 185.72 369.86 186.16C373.19 186.64 380.19 184.61 380.75 184.44C381.899 188.452 383.319 192.381 385 196.2C386 198.43 387 200.65 388.07 202.86C387.43 201.92 386.85 201.09 386.76 200.98C384.15 197.98 377.32 193.66 373.21 195.41C372.534 195.718 371.93 196.166 371.438 196.723C370.946 197.281 370.578 197.936 370.356 198.645C370.134 199.355 370.064 200.103 370.151 200.841C370.238 201.58 370.48 202.291 370.86 202.93C372.38 205.7 376.02 207.07 378.97 207.5C381.92 207.93 387.97 206.32 389.56 205.87C389.98 206.72 390.39 207.56 390.81 208.4C392.81 212.4 394.88 216.47 396.81 220.47C397.47 221.88 398.07 223.3 398.68 224.71C398.11 223.88 397.62 223.18 397.54 223.09C394.93 220.09 388.1 215.77 383.99 217.52C383.314 217.827 382.71 218.274 382.219 218.83C381.727 219.387 381.358 220.041 381.136 220.75C380.915 221.458 380.845 222.206 380.932 222.944C381.018 223.681 381.26 224.392 381.64 225.03C383.16 227.8 386.8 229.17 389.75 229.6C392.7 230.03 398.17 228.6 400.06 228.05C400.63 229.52 401.22 230.99 401.71 232.43C402.03 233.43 402.4 234.37 402.66 235.38C402.92 236.39 403.21 237.38 403.49 238.38C403.95 240.29 404.43 242.26 404.83 244.13C405.12 245.44 405.37 246.68 405.63 247.94C404.98 246.52 403.63 243.78 403.53 243.57C401.4 240.19 395.31 234.9 390.97 236.01C390.256 236.213 389.592 236.563 389.023 237.04C388.453 237.516 387.991 238.107 387.665 238.774C387.34 239.441 387.159 240.17 387.134 240.912C387.108 241.654 387.24 242.392 387.52 243.08C388.6 246.08 391.99 247.95 394.84 248.83C397.99 249.83 404.94 248.91 405.84 248.83C406.25 250.91 406.64 252.94 406.97 254.83C407.55 258.09 407.97 261.09 408.39 263.76H411.28C410.82 260.96 410.28 257.76 409.58 254.34C409.16 252.23 408.68 249.99 408.16 247.68C410.249 246.839 412.289 245.88 414.27 244.81C416.56 247.29 422.43 250.19 423.19 250.56C422.39 252.56 421.59 254.42 420.81 256.2C419.61 258.96 418.46 261.49 417.39 263.76H420.48C421.37 261.76 422.3 259.58 423.25 257.23C424.07 255.23 424.91 253.1 425.75 250.89C426.59 251.07 433.47 252.47 436.68 251.74C439.59 251.08 443.11 249.44 444.41 246.56C444.741 245.895 444.927 245.167 444.957 244.425C444.987 243.682 444.86 242.942 444.585 242.252C444.309 241.562 443.891 240.938 443.358 240.421C442.824 239.903 442.188 239.504 441.49 239.25C437.25 237.82 430.78 242.64 428.41 245.85C428.27 246.04 426.98 248.27 426.19 249.69C426.53 248.78 426.87 247.91 427.19 246.97C427.87 245.13 428.49 243.27 429.19 241.27C429.48 240.27 429.78 239.27 430.07 238.27C430.36 237.27 430.6 236.21 430.87 235.17C431.45 232.75 431.87 230.27 432.33 227.76C433.94 228.35 439.71 230.36 442.7 230.15C445.69 229.94 449.41 228.84 451.13 226.15C451.558 225.541 451.853 224.85 451.995 224.119C452.138 223.389 452.125 222.637 451.957 221.912C451.789 221.187 451.47 220.506 451.02 219.913C450.571 219.32 450.002 218.828 449.35 218.47C445.35 216.47 438.25 220.2 435.42 223.02C435.25 223.2 433.42 225.45 432.48 226.7C432.71 225.19 432.96 223.7 433.15 222.15C433.7 217.71 434.15 213.21 434.56 208.72C434.69 207.34 434.84 205.97 434.98 204.6C435.56 204.81 442.36 207.35 445.71 207.11C448.71 206.9 452.42 205.81 454.14 203.11C454.568 202.502 454.863 201.811 455.005 201.082C455.147 200.352 455.134 199.601 454.966 198.877C454.798 198.153 454.479 197.472 454.03 196.88C453.581 196.288 453.012 195.797 452.36 195.44C448.36 193.39 441.26 197.17 438.43 199.99C438.22 200.2 435.63 203.44 435.01 204.3C435.33 201.3 435.67 198.3 436.14 195.3C436.74 191.312 437.599 187.367 438.71 183.49C438.98 183.59 446.07 186.27 449.5 186.02C452.5 185.82 456.21 184.72 457.93 182.08C458.358 181.471 458.653 180.779 458.795 180.049C458.938 179.319 458.925 178.567 458.757 177.842C458.589 177.117 458.27 176.436 457.82 175.843C457.371 175.25 456.802 174.758 456.15 174.4C452.15 172.4 445.05 176.13 442.22 178.95C442.04 179.13 440.06 181.6 439.15 182.8L438.92 182.68C440.15 178.809 441.719 175.054 443.61 171.46C444.61 169.46 445.71 167.63 446.81 165.86C448.08 166.49 453.91 169.32 457.02 169.45C460.13 169.58 463.83 168.89 465.83 166.45C466.321 165.893 466.689 165.238 466.911 164.529C467.132 163.82 467.201 163.072 467.115 162.335C467.028 161.597 466.787 160.886 466.407 160.248C466.027 159.609 465.517 159.058 464.91 158.63C461.18 156.16 453.69 159.13 450.56 161.63C450.39 161.76 448.82 163.33 447.69 164.49C448.2 163.7 448.69 162.87 449.2 162.12C451.07 159.3 452.96 156.84 454.65 154.67C455.65 153.44 456.52 152.35 457.38 151.34C458.95 151.34 465.27 151.12 468.04 149.83C470.81 148.54 473.83 146.19 474.48 143.1C474.652 142.382 474.671 141.637 474.537 140.911C474.403 140.185 474.119 139.495 473.703 138.886C473.287 138.277 472.748 137.761 472.12 137.373C471.493 136.984 470.791 136.731 470.06 136.63Z" fill="#C2C2C2"/>
<path d="M23.26 235.89C26.47 237.29 34.32 237.11 34.32 237.11C34.32 237.11 32.63 231.98 32.49 231.66C30.76 228.06 25.32 222.11 20.88 222.71C20.1476 222.83 19.4487 223.104 18.8288 223.512C18.2089 223.92 17.6819 224.454 17.282 225.08C16.8821 225.705 16.6182 226.408 16.5076 227.142C16.397 227.876 16.4421 228.625 16.64 229.34C17.37 232.41 20.52 234.69 23.26 235.89Z" fill="#C2C2C2"/>
<path d="M102.66 237.62C102.72 237.62 104.08 232.4 104.13 232.06C104.68 228.06 103.42 220.14 99.39 218.19C98.7124 217.885 97.9782 217.727 97.2353 217.725C96.4924 217.723 95.7574 217.877 95.0782 218.178C94.3989 218.479 93.7907 218.92 93.2931 219.472C92.7955 220.023 92.4196 220.673 92.19 221.38C91.11 224.38 92.48 227.99 94.1 230.49C96 233.43 102.65 237.61 102.66 237.62Z" fill="#C2C2C2"/>
<path d="M126.09 209.17C121.64 208.69 116.36 214.78 114.73 218.43C114.59 218.75 112.96 223.93 113.04 223.93H113.14C112.3 224.88 111.41 225.93 110.45 227.07C108.72 229.21 106.77 231.64 104.83 234.42C102.709 237.402 100.763 240.504 99 243.71C97.0023 247.294 95.3289 251.048 94 254.93C93.9942 254.977 93.9942 255.024 94 255.07C94 253.76 94 250.07 93.93 249.81C93.41 245.81 90.09 238.5 85.69 237.69C84.9544 237.575 84.2029 237.617 83.4846 237.813C82.7663 238.009 82.0974 238.354 81.5216 238.826C80.9459 239.298 80.4762 239.886 80.1433 240.552C79.8105 241.218 79.6219 241.946 79.59 242.69C79.33 245.83 81.59 248.98 83.84 250.97C86.35 253.21 93.31 255.38 93.84 255.55C92.5919 259.531 91.6065 263.59 90.89 267.7C90.47 270.09 90.11 272.52 89.79 274.95C89.79 273.82 89.79 272.8 89.73 272.66C89.21 268.66 85.89 261.35 81.5 260.54C80.7639 260.425 80.0119 260.467 79.2931 260.663C78.5742 260.859 77.9047 261.203 77.3282 261.675C76.7516 262.147 76.281 262.735 75.9471 263.401C75.6131 264.067 75.4233 264.796 75.39 265.54C75.13 268.68 77.39 271.83 79.64 273.82C81.89 275.81 87.8 277.82 89.37 278.31L89.01 281.11C88.48 285.6 88.01 290.11 87.32 294.46C87.1 296 86.82 297.51 86.55 299.03C86.55 298.03 86.55 297.17 86.49 297.03C85.98 293.03 82.66 285.72 78.26 284.91C77.5244 284.795 76.7729 284.837 76.0546 285.033C75.3363 285.229 74.6674 285.574 74.0916 286.046C73.5159 286.518 73.0462 287.106 72.7133 287.772C72.3805 288.438 72.1919 289.166 72.16 289.91C71.9 293.05 74.16 296.2 76.41 298.19C78.66 300.18 83.99 301.98 85.85 302.58C85.52 304.13 85.2 305.67 84.85 307.15C84.57 308.15 84.36 309.15 84.02 310.15C83.68 311.15 83.38 312.15 83.07 313.09C82.4 314.94 81.72 316.85 81.01 318.63C80.54 319.88 80.01 321.06 79.58 322.24C79.82 320.71 80.23 317.7 80.24 317.44C80.1926 313.925 79.2421 310.482 77.48 307.44C77.4919 307.045 77.4685 306.651 77.41 306.26C77.3162 305.524 77.0687 304.815 76.6835 304.18C76.2984 303.545 75.7841 302.999 75.1741 302.575C74.5642 302.152 73.872 301.862 73.1426 301.723C72.4132 301.584 71.6628 301.6 70.94 301.77C66.62 302.93 63.87 310.51 63.67 314.5C63.67 314.73 63.81 317.3 63.94 318.92C63.72 317.98 63.52 317.06 63.28 316.1C62.83 314.19 62.28 312.29 61.78 310.25L60.89 307.3C60.61 306.3 60.19 305.3 59.89 304.3C59.04 301.97 58.06 299.64 57.02 297.3C58.69 296.9 64.61 295.39 67.02 293.56C69.43 291.73 71.89 288.78 71.87 285.62C71.8906 284.878 71.7547 284.139 71.4711 283.453C71.1875 282.767 70.7625 282.148 70.2239 281.636C69.6853 281.125 69.0451 280.733 68.3449 280.486C67.6447 280.238 66.9003 280.141 66.16 280.2C61.71 280.69 57.85 287.77 57.04 291.68C57.04 291.92 56.73 294.79 56.62 296.38C55.98 294.98 55.35 293.59 54.67 292.21C52.67 288.21 50.54 284.21 48.43 280.21C47.78 278.98 47.15 277.76 46.51 276.54C47.11 276.4 54.19 274.76 56.85 272.72C59.21 270.9 61.72 267.93 61.7 264.77C61.7206 264.028 61.5847 263.289 61.3011 262.603C61.0175 261.917 60.5925 261.298 60.0539 260.786C59.5153 260.275 58.8751 259.883 58.1749 259.636C57.4747 259.388 56.7303 259.291 55.99 259.35C51.54 259.84 47.68 266.92 46.87 270.83C46.81 271.13 46.44 275.26 46.4 276.31C45 273.62 43.63 270.92 42.4 268.2C40.7012 264.543 39.2448 260.778 38.04 256.93C38.32 256.87 45.71 255.19 48.44 253.09C50.8 251.28 53.31 248.31 53.29 245.15C53.3107 244.407 53.1746 243.667 52.8904 242.98C52.6062 242.293 52.1803 241.674 51.6406 241.162C51.1009 240.651 50.4594 240.259 49.758 240.012C49.0566 239.765 48.311 239.669 47.57 239.73C43.13 240.21 39.27 247.3 38.46 251.21C38.46 251.47 38.12 254.62 38.02 256.12H37.77C36.6535 252.216 35.8904 248.22 35.49 244.18C35.24 241.96 35.13 239.82 35.06 237.74C36.47 237.57 42.9 236.74 45.56 235.1C48.22 233.46 50.94 230.88 51.26 227.74C51.3599 227.005 51.304 226.257 51.0959 225.544C50.8878 224.832 50.5322 224.172 50.0521 223.606C49.5721 223.04 48.9784 222.581 48.3095 222.26C47.6407 221.938 46.9117 221.761 46.17 221.74C41.7 221.74 37.09 228.35 35.86 232.15C35.79 232.36 35.34 234.53 35.04 236.15C35.04 235.21 35.04 234.24 35.04 233.34C35.04 229.96 35.26 226.86 35.48 224.12C35.61 222.56 35.76 221.12 35.92 219.85C37.21 218.96 42.38 215.3 43.92 212.69C45.46 210.08 46.75 206.47 45.59 203.54C45.3408 202.84 44.947 202.199 44.4342 201.661C43.9214 201.123 43.3011 200.698 42.6136 200.415C41.926 200.132 41.1867 199.997 40.4435 200.019C39.7004 200.04 38.97 200.218 38.3 200.54C34.3 202.6 33.3 210.54 33.94 214.54C34 214.88 35.5 220.11 35.57 220.06L35.64 220.01C35.47 221.27 35.3 222.62 35.14 224.1C34.87 226.85 34.58 229.95 34.5 233.34C34.3798 237.009 34.4699 240.682 34.77 244.34C35.0708 248.425 35.7402 252.475 36.77 256.44C36.77 256.49 36.77 256.53 36.77 256.58C36.07 255.47 34 252.45 33.77 252.23C31.16 249.23 24.34 244.92 20.22 246.66C19.5436 246.968 18.9399 247.416 18.4481 247.973C17.9563 248.531 17.5875 249.186 17.3658 249.895C17.144 250.605 17.0743 251.353 17.1612 252.091C17.2481 252.83 17.4896 253.541 17.87 254.18C19.39 256.95 23.04 258.32 25.99 258.75C29.32 259.23 36.32 257.2 36.88 257.04C38.0309 261.048 39.4508 264.973 41.13 268.79C42.13 271.02 43.13 273.24 44.2 275.45C43.56 274.52 42.98 273.68 42.89 273.58C40.28 270.58 33.45 266.26 29.34 268C28.681 268.311 28.0934 268.755 27.614 269.304C27.1346 269.852 26.7737 270.494 26.554 271.189C26.3343 271.884 26.2605 272.616 26.3373 273.341C26.414 274.066 26.6396 274.767 27 275.4C28.52 278.17 32.16 279.54 35.11 279.97C38.06 280.4 44.11 278.79 45.7 278.34L46.95 280.88C48.95 284.88 51.02 288.94 52.95 292.94C53.61 294.36 54.21 295.77 54.82 297.18C54.25 296.35 53.76 295.66 53.68 295.56C51.07 292.56 44.24 288.24 40.13 289.99C39.4536 290.298 38.8499 290.746 38.3581 291.303C37.8663 291.861 37.4975 292.516 37.2758 293.225C37.054 293.935 36.9843 294.683 37.0712 295.421C37.1581 296.16 37.3996 296.871 37.78 297.51C39.3 300.27 42.94 301.64 45.89 302.07C48.84 302.5 54.31 301.07 56.2 300.53C56.77 301.99 57.36 303.46 57.85 304.91C58.17 305.91 58.54 306.84 58.8 307.85C59.06 308.86 59.35 309.85 59.63 310.85C60.09 312.76 60.57 314.73 60.97 316.61C61.26 317.91 61.51 319.15 61.77 320.41C61.12 319 59.77 316.26 59.67 316.04C57.54 312.66 51.45 307.38 47.11 308.48C46.3954 308.684 45.7318 309.036 45.1623 309.513C44.5929 309.99 44.1303 310.582 43.8049 311.25C43.4794 311.918 43.2983 312.647 43.2733 313.39C43.2483 314.132 43.3801 314.872 43.66 315.56C44.74 318.56 48.13 320.43 50.98 321.3C54.13 322.3 61.08 321.38 61.98 321.3C62.39 323.38 62.78 325.41 63.11 327.3C63.69 330.56 64.11 333.56 64.53 336.23H67.42C66.96 333.43 66.42 330.23 65.72 326.82C65.3 324.71 64.82 322.46 64.3 320.15C66.3927 319.318 68.4331 318.359 70.41 317.28C72.7 319.76 78.57 322.66 79.33 323.03C78.53 325.03 77.73 326.89 76.95 328.67C75.75 331.44 74.6 333.96 73.53 336.23H76.62C77.51 334.23 78.44 332.05 79.39 329.7C80.21 327.7 81.05 325.57 81.89 323.36C82.73 323.54 89.61 324.94 92.82 324.21C95.73 323.56 99.25 321.91 100.55 319.03C100.881 318.365 101.067 317.637 101.097 316.895C101.127 316.152 101 315.412 100.725 314.722C100.449 314.032 100.031 313.408 99.4977 312.891C98.9645 312.373 98.328 311.975 97.63 311.72C93.39 310.3 86.92 315.11 84.55 318.32C84.41 318.51 83.12 320.74 82.33 322.16C82.67 321.25 83.01 320.38 83.33 319.44C84.01 317.6 84.63 315.74 85.33 313.74C85.62 312.74 85.92 311.74 86.21 310.74C86.5 309.74 86.74 308.68 87.01 307.64C87.59 305.22 88.01 302.74 88.47 300.23C90.08 300.82 95.85 302.83 98.84 302.62C101.83 302.41 105.55 301.32 107.27 298.67C107.698 298.062 107.993 297.371 108.135 296.642C108.277 295.912 108.264 295.161 108.096 294.437C107.928 293.713 107.609 293.032 107.16 292.44C106.711 291.848 106.142 291.357 105.49 291C101.49 288.95 94.39 292.73 91.56 295.54C91.39 295.72 89.56 297.97 88.62 299.22C88.85 297.71 89.1 296.22 89.29 294.67C89.84 290.24 90.29 285.73 90.7 281.24C90.83 279.86 90.98 278.49 91.12 277.12C91.7 277.34 98.5 279.87 101.85 279.63C104.85 279.43 108.56 278.33 110.28 275.69C110.708 275.082 111.003 274.39 111.145 273.659C111.288 272.929 111.275 272.177 111.107 271.452C110.939 270.727 110.62 270.046 110.17 269.453C109.721 268.86 109.152 268.368 108.5 268.01C104.5 265.96 97.4 269.74 94.57 272.56C94.36 272.77 91.77 276.01 91.15 276.87C91.47 273.87 91.81 270.87 92.28 267.87C92.8812 263.882 93.7397 259.937 94.85 256.06C95.12 256.16 102.21 258.84 105.64 258.6C108.64 258.39 112.35 257.29 114.07 254.6C114.498 253.992 114.793 253.301 114.935 252.572C115.077 251.842 115.064 251.091 114.896 250.367C114.728 249.643 114.409 248.962 113.96 248.37C113.511 247.778 112.942 247.287 112.29 246.93C108.29 244.88 101.19 248.65 98.36 251.47C98.18 251.66 96.2 254.12 95.29 255.32L95.06 255.2C96.2877 251.332 97.8573 247.58 99.75 243.99C100.75 241.99 101.85 240.15 102.95 238.38C104.22 239.01 110.05 241.85 113.16 241.97C116.27 242.09 119.97 241.41 121.97 238.97C122.461 238.413 122.829 237.758 123.051 237.049C123.272 236.34 123.341 235.592 123.255 234.855C123.168 234.117 122.927 233.406 122.547 232.768C122.167 232.129 121.657 231.578 121.05 231.15C117.32 228.68 109.83 231.65 106.7 234.15C106.53 234.29 104.96 235.85 103.83 237.01C104.34 236.22 104.83 235.39 105.34 234.64C107.21 231.82 109.1 229.36 110.79 227.19C111.79 225.97 112.66 224.88 113.52 223.87C115.09 223.87 121.41 223.65 124.18 222.35C126.95 221.05 129.97 218.71 130.62 215.63C130.79 214.905 130.805 214.152 130.663 213.421C130.522 212.689 130.228 211.996 129.801 211.386C129.373 210.776 128.821 210.264 128.182 209.882C127.543 209.5 126.83 209.257 126.09 209.17Z" fill="#C2C2C2"/>
<path d="M66.26 192.47H441.26C444.034 192.47 446.695 193.572 448.656 195.534C450.618 197.495 451.72 200.156 451.72 202.93V449.43H55.81V202.92C55.8126 200.149 56.9145 197.493 58.8737 195.534C60.8328 193.574 63.4893 192.473 66.26 192.47Z" fill="white" stroke="#263238" stroke-linecap="round" stroke-linejoin="round"/>
<path d="M435.63 212.54H71.87V418.11H435.63V212.54Z" stroke="#263238" stroke-linecap="round" stroke-linejoin="round"/>
<path d="M390.69 437.06H118.62V450.46H390.69V437.06Z" fill="#263238" stroke="#263238" stroke-linecap="round" stroke-linejoin="round"/>
<path d="M390.69 443.51H118.62V450.46H390.69V443.51Z" fill="white" stroke="#263238" stroke-linecap="round" stroke-linejoin="round"/>
<path d="M23.79 458.4C23.79 458.4 28.26 463.87 41.67 468.33H467.67C467.67 468.33 477.6 465.85 482.07 458.9L23.79 458.4Z" fill="#263238" stroke="#263238" stroke-linecap="round" stroke-linejoin="round"/>
<path d="M481.11 448.62H24.78C23.7362 448.62 22.89 449.466 22.89 450.51V457.17C22.89 458.214 23.7362 459.06 24.78 459.06H481.11C482.154 459.06 483 458.214 483 457.17V450.51C483 449.466 482.154 448.62 481.11 448.62Z" fill="white" stroke="#263238" stroke-linecap="round" stroke-linejoin="round"/>
<path d="M257.14 200.24C257.142 199.551 256.94 198.877 256.558 198.304C256.177 197.73 255.634 197.283 254.999 197.018C254.363 196.753 253.663 196.683 252.987 196.816C252.312 196.949 251.69 197.279 251.203 197.766C250.715 198.252 250.383 198.872 250.248 199.547C250.113 200.223 250.181 200.923 250.444 201.559C250.707 202.196 251.153 202.74 251.726 203.123C252.298 203.506 252.971 203.71 253.66 203.71C254.581 203.71 255.465 203.345 256.117 202.694C256.77 202.044 257.137 201.161 257.14 200.24Z" fill="white" stroke="#263238" stroke-linecap="round" stroke-linejoin="round"/>
<path d="M10 468.33H497" stroke="#263238" stroke-linecap="round" stroke-linejoin="round"/>
<path d="M285.827 285.089V276.032L270.519 260.371H261.308L285.827 285.089Z" fill="#263238"/>
<path d="M219.981 237.673V246.729L235.283 262.391H244.5L219.981 237.673Z" fill="#263238"/>
<path d="M228.019 228H236.951L252.397 243.515L267.704 228H277.037L252.398 252.861L228.019 228Z" fill="#263238"/>
<path d="M229.523 294H238.454L253.899 278.485L269.206 294H278.54L253.901 269.139L229.523 294Z" fill="#263238"/>
<ellipse cx="253.027" cy="261.828" rx="4.16285" ry="4.22151" fill="#E6007A"/>
<path d="M226.33 326.59C226.33 328.59 227.12 329.76 228.91 329.76C230.7 329.76 231.45 328.57 231.45 326.59V309.78H233.75V326.47C233.75 329.8 232.21 332.03 228.81 332.03C225.41 332.03 223.91 329.8 223.91 326.47V309.78H226.33V326.59Z" fill="#263238"/>
<path d="M238.33 331.78H236.13V309.78H239.24L244.33 325.68V309.78H246.5V331.78H244L238.33 314V331.78Z" fill="#263238"/>
<path d="M254.17 309.78C257.59 309.78 259.17 311.86 259.17 315.25V326.34C259.17 329.7 257.6 331.78 254.17 331.78H249V309.78H254.17ZM254.17 329.54C255.93 329.54 256.78 328.45 256.78 326.43V315.12C256.78 313.12 255.93 312.01 254.14 312.01H251.5V329.54H254.17Z" fill="#263238"/>
<path d="M269.28 319.52V321.72H263.9V329.54H270.5V331.78H261.45V309.78H270.5V312H263.9V319.51L269.28 319.52Z" fill="#263238"/>
<path d="M277.66 309.78C281.12 309.78 282.56 311.54 282.56 314.78V316.57C282.56 318.99 281.71 320.5 279.83 321.1C281.83 321.69 282.59 323.33 282.59 325.68V329.11C282.523 330.013 282.674 330.918 283.03 331.75H280.55C280.205 330.901 280.064 329.983 280.14 329.07V325.62C280.14 323.14 278.98 322.35 276.94 322.35H275.21V331.75H272.76V309.75L277.66 309.78ZM277 320.15C279 320.15 280.11 319.52 280.11 317.15V315C280.11 313 279.39 312 277.57 312H275.18V320.14L277 320.15Z" fill="#263238"/>
<path d="M195.28 360V362H193V359.89C193 357.89 192.21 356.72 190.42 356.72C188.63 356.72 187.84 357.91 187.84 359.89V371.5C187.84 373.5 188.66 374.67 190.42 374.67C192.18 374.67 193 373.48 193 371.5V368.64H195.32V371.37C195.32 374.7 193.75 376.9 190.32 376.9C186.89 376.9 185.39 374.7 185.39 371.37V360C185.39 356.67 186.96 354.47 190.32 354.47C193.68 354.47 195.28 356.67 195.28 360Z" fill="#263238"/>
<path d="M197.32 360C197.32 356.64 198.99 354.47 202.32 354.47C205.65 354.47 207.38 356.64 207.38 360V371.37C207.38 374.7 205.71 376.9 202.32 376.9C198.93 376.9 197.32 374.7 197.32 371.37V360ZM199.74 371.5C199.74 373.5 200.59 374.67 202.35 374.67C204.11 374.67 204.96 373.51 204.96 371.5V359.87C204.96 357.87 204.14 356.7 202.35 356.7C200.56 356.7 199.74 357.89 199.74 359.87V371.5Z" fill="#263238"/>
<path d="M211.9 376.68H209.7V354.68H212.81L217.9 370.58V354.68H220.07V376.68H217.52L211.9 358.9V376.68Z" fill="#263238"/>
<path d="M232.1 360V360.59H229.77V359.87C229.77 357.87 229.02 356.73 227.26 356.73C225.5 356.73 224.75 357.89 224.75 359.84C224.75 364.77 232.13 365.24 232.13 371.43C232.13 374.76 230.53 376.93 227.13 376.93C223.73 376.93 222.2 374.76 222.2 371.43V370.18H224.5V371.56C224.5 373.56 225.31 374.7 227.07 374.7C228.83 374.7 229.65 373.54 229.65 371.56C229.65 366.66 222.3 366.19 222.3 360C222.3 356.6 223.87 354.5 227.17 354.5C230.47 354.5 232.1 356.64 232.1 360Z" fill="#263238"/>
<path d="M237.47 376.68V356.92H233.41V354.69H244V356.92H239.95V376.68H237.47Z" fill="#263238"/>
<path d="M250.57 354.69C254.02 354.69 255.47 356.45 255.47 359.69V361.49C255.47 363.9 254.62 365.41 252.74 366.01C254.74 366.61 255.5 368.24 255.5 370.6V374C255.426 374.903 255.577 375.81 255.94 376.64H253.46C253.109 375.796 252.969 374.88 253.05 373.97V370.51C253.05 368.03 251.89 367.25 249.84 367.25H248.12V376.64H245.67V354.64L250.57 354.69ZM249.94 365.06C251.89 365.06 253.05 364.43 253.05 362.06V359.95C253.05 357.95 252.33 356.95 250.5 356.95H248.12V365.09L249.94 365.06Z" fill="#263238"/>
<path d="M260.37 371.5C260.37 373.5 261.15 374.67 262.94 374.67C264.73 374.67 265.49 373.48 265.49 371.5V354.69H267.78V371.37C267.78 374.7 266.24 376.93 262.85 376.93C259.46 376.93 257.95 374.7 257.95 371.37V354.69H260.37V371.5Z" fill="#263238"/>
<path d="M279.91 360V362H277.58V359.89C277.58 357.89 276.8 356.72 275.01 356.72C273.22 356.72 272.43 357.91 272.43 359.89V371.5C272.43 373.5 273.25 374.67 275.01 374.67C276.77 374.67 277.58 373.48 277.58 371.5V368.64H279.91V371.37C279.91 374.7 278.34 376.9 274.91 376.9C271.48 376.9 269.98 374.7 269.98 371.37V360C269.98 356.67 271.55 354.47 274.91 354.47C278.27 354.47 279.91 356.67 279.91 360Z" fill="#263238"/>
<path d="M285.34 376.68V356.92H281.34V354.69H291.89V356.92H287.89V376.68H285.34Z" fill="#263238"/>
<path d="M296 354.69V376.69H293.55V354.69H296Z" fill="#263238"/>
<path d="M298.31 360C298.31 356.64 299.98 354.47 303.31 354.47C306.64 354.47 308.37 356.64 308.37 360V371.37C308.37 374.7 306.7 376.9 303.31 376.9C299.92 376.9 298.31 374.7 298.31 371.37V360ZM300.73 371.5C300.73 373.5 301.58 374.67 303.34 374.67C305.1 374.67 305.95 373.51 305.95 371.5V359.87C305.95 357.87 305.13 356.7 303.34 356.7C301.55 356.7 300.73 357.89 300.73 359.87V371.5Z" fill="#263238"/>
<path d="M312.89 376.68H310.69V354.68H313.8L318.89 370.58V354.68H321.06V376.68H318.51L312.89 358.9V376.68Z" fill="#263238"/>
<path d="M331.24 337.62H171.72V347.13H331.24V337.62Z" fill="#E6007A"/>
<path d="M234.11 337.62H223.49L218.04 347.12H228.66L234.11 337.62Z" fill="#263238"/>
<path d="M331.24 347.12V338.54L326.32 347.12H331.24Z" fill="#263238"/>
<path d="M255.76 337.62H245.14L239.7 347.12H250.32L255.76 337.62Z" fill="#263238"/>
<path d="M212.45 337.62H201.83L196.38 347.12H207.01L212.45 337.62Z" fill="#263238"/>
<path d="M174.73 347.12H185.35L190.8 337.62H180.17L174.73 347.12Z" fill="#263238"/>
<path d="M320.73 337.62H310.11L304.67 347.12H315.29L320.73 337.62Z" fill="#263238"/>
<path d="M277.42 337.62H266.8L261.35 347.12H271.98L277.42 337.62Z" fill="#263238"/>
<path d="M299.08 337.62H288.45L283.01 347.12H293.63L299.08 337.62Z" fill="#263238"/>
<path d="M99.24 357.75L71.92 462.12H132.85L105.53 357.75C105.364 357.04 104.963 356.408 104.392 355.955C103.821 355.502 103.114 355.256 102.385 355.256C101.656 355.256 100.949 355.502 100.378 355.955C99.8071 356.408 99.406 357.04 99.24 357.75Z" fill="#E6007A" stroke="#263238" stroke-linecap="round" stroke-linejoin="round"/>
<path d="M71.92 462.12H121.56L96.74 367.29L71.92 462.12Z" fill="#263238" stroke="#263238" stroke-linecap="round" stroke-linejoin="round"/>
<path d="M139 459.83H63C60.7909 459.83 59 461.621 59 463.83V464.34C59 466.549 60.7909 468.34 63 468.34H139C141.209 468.34 143 466.549 143 464.34V463.83C143 461.621 141.209 459.83 139 459.83Z" fill="#E6007A" stroke="#263238" stroke-linecap="round" stroke-linejoin="round"/>
<path d="M112.99 459.83H63C60.7909 459.83 59 461.621 59 463.83V464.34C59 466.549 60.7909 468.34 63 468.34H112.99C115.199 468.34 116.99 466.549 116.99 464.34V463.83C116.99 461.621 115.199 459.83 112.99 459.83Z" fill="#263238" stroke="#263238" stroke-linecap="round" stroke-linejoin="round"/>
<path d="M82.82 420.49H121.95L117.22 402.41H87.55L82.82 420.49Z" fill="white" stroke="#263238" stroke-linecap="round" stroke-linejoin="round"/>
<path d="M82.82 420.49H110.67L105.94 402.41H87.55L82.82 420.49Z" fill="#BABABA" stroke="#263238" stroke-linecap="round" stroke-linejoin="round"/>
<path d="M260.083 138.873C263.508 135.448 263.508 129.895 260.083 126.47C256.659 123.045 251.106 123.045 247.681 126.47C244.256 129.895 244.256 135.448 247.681 138.873C251.106 142.298 256.659 142.298 260.083 138.873Z" fill="white" stroke="#263238" stroke-linecap="round" stroke-linejoin="round"/>
<path d="M254.13 61.84V20.87" stroke="#263238" stroke-width="2" stroke-linecap="round" stroke-linejoin="round"/>
<path d="M254.13 88.9V61.84" stroke="#808080" stroke-width="2" stroke-miterlimit="10"/>
<path d="M240.54 88.9L213.47 135.8H294.23L267.15 88.9H240.54Z" fill="#E6007A" stroke="#263238" stroke-width="0.972732" stroke-miterlimit="10"/>
<path d="M243.26 88.9L221.71 135.8H285.99L264.44 88.9H243.26Z" fill="#263238" stroke="#263238" stroke-linecap="round" stroke-linejoin="round"/>
<path d="M179.69 192.47H66.26C63.4885 192.47 60.8305 193.571 58.8707 195.531C56.911 197.49 55.81 200.148 55.81 202.92V401L179.69 192.47Z" fill="#808080" stroke="#263238" stroke-miterlimit="10"/>
<path d="M327.8 192.47H441.23C444.002 192.47 446.66 193.571 448.619 195.531C450.579 197.49 451.68 200.148 451.68 202.92V401.61L327.8 192.47Z" fill="#808080" stroke="#263238" stroke-miterlimit="10"/>
<path d="M179.69 192.47L55.81 401.03" stroke="#263238" stroke-linecap="round" stroke-linejoin="round"/>
<path d="M327.8 192.47L451.68 401.61" stroke="#263238" stroke-linecap="round" stroke-linejoin="round"/>
<path d="M71.87 374.31V212.54H167.31" stroke="#263238" stroke-linecap="round" stroke-linejoin="round"/>
<path d="M339.91 212.54H435.62V375.13" stroke="#263238" stroke-linecap="round" stroke-linejoin="round"/>
<path d="M327.8 192.47L294.23 135.8H213.47L179.69 192.47" fill="white" fill-opacity="0.3"/>
<path d="M327.8 192.47L294.23 135.8H213.47L179.69 192.47" stroke="#263238" stroke-miterlimit="10"/>
</svg>
