<svg width="21" height="20" viewBox="0 0 21 20" fill="none" xmlns="http://www.w3.org/2000/svg">
<path id="Vector" d="M11.7334 1.4325L13.4934 4.9525C13.7334 5.4425 14.3734 5.9125 14.9134 6.0025L18.1034 6.5325C20.1434 6.8725 20.6234 8.3525 19.1534 9.8125L16.6734 12.2925C16.2534 12.7125 16.0234 13.5225 16.1534 14.1025L16.8634 17.1725C17.4234 19.6025 16.1334 20.5425 13.9834 19.2725L10.9934 17.5025C10.4534 17.1825 9.56336 17.1825 9.01336 17.5025L6.02336 19.2725C3.88336 20.5425 2.58336 19.5925 3.14336 17.1725L3.85336 14.1025C3.98336 13.5225 3.75336 12.7125 3.33336 12.2925L0.853357 9.8125C-0.606643 8.3525 -0.136642 6.8725 1.90336 6.5325L5.09336 6.0025C5.62336 5.9125 6.26336 5.4425 6.50336 4.9525L8.26336 1.4325C9.22336 -0.4775 10.7834 -0.4775 11.7334 1.4325Z" fill="#E6007A"/>
</svg>
