<svg width="231" height="231" viewBox="0 0 231 231" fill="none" xmlns="http://www.w3.org/2000/svg">
<path d="M216 0H15C6.71573 0 0 6.71573 0 15V216C0 224.284 6.71573 231 15 231H216C224.284 231 231 224.284 231 216V15C231 6.71573 224.284 0 216 0Z" fill="white"/>
<path d="M15 1H216C223.732 1 230 7.26801 230 15V216C230 223.732 223.732 230 216 230H15C7.26802 230 1 223.732 1 216V15C1 7.26802 7.26801 1 15 1Z" stroke="#8BA1BE" stroke-opacity="0.2" stroke-width="2"/>
<path d="M87.6208 15.9309H79.6553V23.8964H87.6208V15.9309Z" fill="black"/>
<path d="M151.345 15.9309H143.379V23.8964H151.345V15.9309Z" fill="black"/>
<path d="M87.6208 23.8962H79.6553V31.8618H87.6208V23.8962Z" fill="black"/>
<path d="M103.552 23.8962H95.5862V31.8618H103.552V23.8962Z" fill="black"/>
<path d="M111.517 23.8962H103.552V31.8618H111.517V23.8962Z" fill="black"/>
<path d="M151.345 23.8962H143.379V31.8618H151.345V23.8962Z" fill="black"/>
<path d="M95.5861 31.8621H87.6206V39.8276H95.5861V31.8621Z" fill="black"/>
<path d="M103.552 31.8621H95.5862V39.8276H103.552V31.8621Z" fill="black"/>
<path d="M111.517 31.8621H103.552V39.8276H111.517V31.8621Z" fill="black"/>
<path d="M119.482 31.8621H111.517V39.8276H119.482V31.8621Z" fill="black"/>
<path d="M127.448 31.8621H119.483V39.8276H127.448V31.8621Z" fill="black"/>
<path d="M151.345 31.8621H143.379V39.8276H151.345V31.8621Z" fill="black"/>
<path d="M87.6208 39.8276H79.6553V47.7931H87.6208V39.8276Z" fill="black"/>
<path d="M119.483 39.8276H111.517V47.7931H119.483V39.8276Z" fill="black"/>
<path d="M127.448 39.8276H119.483V47.7931H127.448V39.8276Z" fill="black"/>
<path d="M135.414 39.8276H127.448V47.7931H135.414V39.8276Z" fill="black"/>
<path d="M143.38 39.8276H135.414V47.7931H143.38V39.8276Z" fill="black"/>
<path d="M103.552 47.7927H95.5862V55.7583H103.552V47.7927Z" fill="black"/>
<path d="M111.517 47.793H103.552V55.7585H111.517V47.793Z" fill="black"/>
<path d="M135.414 47.793H127.448V55.7585H135.414V47.793Z" fill="black"/>
<path d="M143.38 47.793H135.414V55.7585H143.38V47.793Z" fill="black"/>
<path d="M151.345 47.793H143.379V55.7585H151.345V47.793Z" fill="black"/>
<path d="M95.5861 55.7585H87.6206V63.7241H95.5861V55.7585Z" fill="black"/>
<path d="M111.517 55.7585H103.552V63.7241H111.517V55.7585Z" fill="black"/>
<path d="M127.448 55.7585H119.483V63.7241H127.448V55.7585Z" fill="black"/>
<path d="M135.414 55.7585H127.448V63.7241H135.414V55.7585Z" fill="black"/>
<path d="M87.6208 63.7241H79.6553V71.6896H87.6208V63.7241Z" fill="black"/>
<path d="M103.552 63.7241H95.5862V71.6896H103.552V63.7241Z" fill="black"/>
<path d="M119.483 63.7241H111.517V71.6896H119.483V63.7241Z" fill="black"/>
<path d="M135.414 63.7241H127.448V71.6896H135.414V63.7241Z" fill="black"/>
<path d="M151.345 63.7241H143.379V71.6896H151.345V63.7241Z" fill="black"/>
<path d="M87.6208 71.6895H79.6553V79.655H87.6208V71.6895Z" fill="black"/>
<path d="M95.5863 71.6895H87.6208V79.655H95.5863V71.6895Z" fill="black"/>
<path d="M111.517 71.6895H103.552V79.655H111.517V71.6895Z" fill="black"/>
<path d="M119.483 71.6895H111.517V79.655H119.483V71.6895Z" fill="black"/>
<path d="M143.38 71.6895H135.414V79.655H143.38V71.6895Z" fill="black"/>
<path d="M23.8964 79.6553H15.9309V87.6208H23.8964V79.6553Z" fill="black"/>
<path d="M39.8276 79.6553H31.8621V87.6208H39.8276V79.6553Z" fill="black"/>
<path d="M47.7931 79.6553H39.8276V87.6208H47.7931V79.6553Z" fill="black"/>
<path d="M63.7241 79.6553H55.7585V87.6208H63.7241V79.6553Z" fill="black"/>
<path d="M71.6896 79.6553H63.7241V87.6208H71.6896V79.6553Z" fill="black"/>
<path d="M79.655 79.6553H71.6895V87.6208H79.655V79.6553Z" fill="black"/>
<path d="M95.5861 79.6553H87.6206V87.6208H95.5861V79.6553Z" fill="black"/>
<path d="M135.414 79.6553H127.448V87.6208H135.414V79.6553Z" fill="black"/>
<path d="M143.38 79.6553H135.414V87.6208H143.38V79.6553Z" fill="black"/>
<path d="M151.345 79.6553H143.379V87.6208H151.345V79.6553Z" fill="black"/>
<path d="M167.276 79.6553H159.31V87.6208H167.276V79.6553Z" fill="black"/>
<path d="M191.172 79.6553H183.207V87.6208H191.172V79.6553Z" fill="black"/>
<path d="M207.103 79.6553H199.138V87.6208H207.103V79.6553Z" fill="black"/>
<path d="M215.069 79.6553H207.103V87.6208H215.069V79.6553Z" fill="black"/>
<path d="M23.8967 87.6204H15.9312V95.5859H23.8967V87.6204Z" fill="black"/>
<path d="M55.7583 87.6204H47.7927V95.5859H55.7583V87.6204Z" fill="black"/>
<path d="M63.7243 87.6204H55.7588V95.5859H63.7243V87.6204Z" fill="black"/>
<path d="M79.6552 87.6204H71.6897V95.5859H79.6552V87.6204Z" fill="black"/>
<path d="M87.6213 87.6204H79.6558V95.5859H87.6213V87.6204Z" fill="black"/>
<path d="M95.5863 87.6204H87.6208V95.5859H95.5863V87.6204Z" fill="black"/>
<path d="M103.552 87.6204H95.5862V95.5859H103.552V87.6204Z" fill="black"/>
<path d="M127.448 87.6204H119.483V95.5859H127.448V87.6204Z" fill="black"/>
<path d="M135.414 87.6204H127.448V95.5859H135.414V87.6204Z" fill="black"/>
<path d="M151.345 87.6204H143.379V95.5859H151.345V87.6204Z" fill="black"/>
<path d="M159.31 87.6204H151.344V95.5859H159.31V87.6204Z" fill="black"/>
<path d="M175.242 87.6204H167.276V95.5859H175.242V87.6204Z" fill="black"/>
<path d="M207.103 87.6204H199.137V95.5859H207.103V87.6204Z" fill="black"/>
<path d="M39.8276 95.5857H31.8621V103.551H39.8276V95.5857Z" fill="black"/>
<path d="M47.7931 95.5857H39.8276V103.551H47.7931V95.5857Z" fill="black"/>
<path d="M63.7243 95.5857H55.7588V103.551H63.7243V95.5857Z" fill="black"/>
<path d="M71.6896 95.5857H63.7241V103.551H71.6896V95.5857Z" fill="black"/>
<path d="M119.482 95.5857H111.517V103.551H119.482V95.5857Z" fill="black"/>
<path d="M135.414 95.5857H127.448V103.551H135.414V95.5857Z" fill="black"/>
<path d="M175.242 95.5857H167.276V103.551H175.242V95.5857Z" fill="black"/>
<path d="M23.8962 103.552H15.9307V111.518H23.8962V103.552Z" fill="black"/>
<path d="M47.7931 103.552H39.8276V111.518H47.7931V103.552Z" fill="black"/>
<path d="M55.7585 103.552H47.793V111.518H55.7585V103.552Z" fill="black"/>
<path d="M63.7241 103.552H55.7585V111.518H63.7241V103.552Z" fill="black"/>
<path d="M87.6208 103.552H79.6553V111.518H87.6208V103.552Z" fill="black"/>
<path d="M95.5863 103.552H87.6208V111.518H95.5863V103.552Z" fill="black"/>
<path d="M103.552 103.552H95.5862V111.518H103.552V103.552Z" fill="black"/>
<path d="M127.448 103.552H119.483V111.518H127.448V103.552Z" fill="black"/>
<path d="M159.31 103.552H151.345V111.518H159.31V103.552Z" fill="black"/>
<path d="M167.276 103.552H159.31V111.518H167.276V103.552Z" fill="black"/>
<path d="M191.172 103.552H183.207V111.518H191.172V103.552Z" fill="black"/>
<path d="M199.138 103.552H191.172V111.518H199.138V103.552Z" fill="black"/>
<path d="M23.8967 111.517H15.9312V119.483H23.8967V111.517Z" fill="black"/>
<path d="M55.7583 111.517H47.7927V119.483H55.7583V111.517Z" fill="black"/>
<path d="M63.7243 111.517H55.7588V119.483H63.7243V111.517Z" fill="black"/>
<path d="M71.6896 111.517H63.7241V119.483H71.6896V111.517Z" fill="black"/>
<path d="M79.6552 111.517H71.6897V119.483H79.6552V111.517Z" fill="black"/>
<path d="M119.482 111.517H111.517V119.483H119.482V111.517Z" fill="black"/>
<path d="M127.448 111.517H119.483V119.483H127.448V111.517Z" fill="black"/>
<path d="M159.31 111.517H151.344V119.483H159.31V111.517Z" fill="black"/>
<path d="M167.276 111.517H159.31V119.483H167.276V111.517Z" fill="black"/>
<path d="M175.242 111.517H167.276V119.483H175.242V111.517Z" fill="black"/>
<path d="M183.207 111.517H175.241V119.483H183.207V111.517Z" fill="black"/>
<path d="M199.138 111.517H191.172V119.483H199.138V111.517Z" fill="black"/>
<path d="M207.103 111.517H199.138V119.483H207.103V111.517Z" fill="black"/>
<path d="M215.069 111.517H207.103V119.483H215.069V111.517Z" fill="black"/>
<path d="M31.8618 119.482H23.8962V127.448H31.8618V119.482Z" fill="black"/>
<path d="M79.6552 119.482H71.6897V127.448H79.6552V119.482Z" fill="black"/>
<path d="M95.5861 119.482H87.6206V127.448H95.5861V119.482Z" fill="black"/>
<path d="M111.517 119.482H103.552V127.448H111.517V119.482Z" fill="black"/>
<path d="M127.448 119.482H119.483V127.448H127.448V119.482Z" fill="black"/>
<path d="M135.414 119.482H127.448V127.448H135.414V119.482Z" fill="black"/>
<path d="M143.379 119.482H135.414V127.448H143.379V119.482Z" fill="black"/>
<path d="M151.345 119.482H143.379V127.448H151.345V119.482Z" fill="black"/>
<path d="M167.276 119.482H159.31V127.448H167.276V119.482Z" fill="black"/>
<path d="M175.242 119.482H167.276V127.448H175.242V119.482Z" fill="black"/>
<path d="M183.207 119.482H175.241V127.448H183.207V119.482Z" fill="black"/>
<path d="M215.069 119.482H207.103V127.448H215.069V119.482Z" fill="black"/>
<path d="M31.8618 127.448H23.8962V135.414H31.8618V127.448Z" fill="black"/>
<path d="M71.6894 127.448H63.7239V135.414H71.6894V127.448Z" fill="black"/>
<path d="M79.655 127.448H71.6895V135.414H79.655V127.448Z" fill="black"/>
<path d="M103.552 127.448H95.5862V135.414H103.552V127.448Z" fill="black"/>
<path d="M119.483 127.448H111.517V135.414H119.483V127.448Z" fill="black"/>
<path d="M135.414 127.448H127.448V135.414H135.414V127.448Z" fill="black"/>
<path d="M159.31 127.448H151.345V135.414H159.31V127.448Z" fill="black"/>
<path d="M183.207 127.448H175.241V135.414H183.207V127.448Z" fill="black"/>
<path d="M199.138 127.448H191.172V135.414H199.138V127.448Z" fill="black"/>
<path d="M207.103 127.448H199.137V135.414H207.103V127.448Z" fill="black"/>
<path d="M23.8967 135.414H15.9312V143.38H23.8967V135.414Z" fill="black"/>
<path d="M55.7583 135.414H47.7927V143.38H55.7583V135.414Z" fill="black"/>
<path d="M79.6552 135.414H71.6897V143.38H79.6552V135.414Z" fill="black"/>
<path d="M95.5861 135.414H87.6206V143.38H95.5861V135.414Z" fill="black"/>
<path d="M151.345 135.414H143.379V143.38H151.345V135.414Z" fill="black"/>
<path d="M159.31 135.414H151.344V143.38H159.31V135.414Z" fill="black"/>
<path d="M175.242 135.414H167.276V143.38H175.242V135.414Z" fill="black"/>
<path d="M183.207 135.414H175.241V143.38H183.207V135.414Z" fill="black"/>
<path d="M215.069 135.414H207.103V143.38H215.069V135.414Z" fill="black"/>
<path d="M47.7931 143.379H39.8276V151.345H47.7931V143.379Z" fill="black"/>
<path d="M55.7583 143.379H47.7927V151.345H55.7583V143.379Z" fill="black"/>
<path d="M71.6894 143.379H63.7239V151.345H71.6894V143.379Z" fill="black"/>
<path d="M87.6213 143.379H79.6558V151.345H87.6213V143.379Z" fill="black"/>
<path d="M103.552 143.379H95.5862V151.345H103.552V143.379Z" fill="black"/>
<path d="M111.517 143.379H103.552V151.345H111.517V143.379Z" fill="black"/>
<path d="M127.448 143.379H119.483V151.345H127.448V143.379Z" fill="black"/>
<path d="M143.379 143.379H135.414V151.345H143.379V143.379Z" fill="black"/>
<path d="M151.345 143.379H143.379V151.345H151.345V143.379Z" fill="black"/>
<path d="M159.31 143.379H151.344V151.345H159.31V143.379Z" fill="black"/>
<path d="M167.276 143.379H159.31V151.345H167.276V143.379Z" fill="black"/>
<path d="M175.242 143.379H167.276V151.345H175.242V143.379Z" fill="black"/>
<path d="M183.207 143.379H175.241V151.345H183.207V143.379Z" fill="black"/>
<path d="M191.172 143.379H183.207V151.345H191.172V143.379Z" fill="black"/>
<path d="M199.138 143.379H191.172V151.345H199.138V143.379Z" fill="black"/>
<path d="M207.103 143.379H199.137V151.345H207.103V143.379Z" fill="black"/>
<path d="M215.069 143.379H207.103V151.345H215.069V143.379Z" fill="black"/>
<path d="M87.6208 151.345H79.6553V159.31H87.6208V151.345Z" fill="black"/>
<path d="M103.552 151.345H95.5862V159.31H103.552V151.345Z" fill="black"/>
<path d="M111.517 151.345H103.552V159.31H111.517V151.345Z" fill="black"/>
<path d="M119.483 151.345H111.517V159.31H119.483V151.345Z" fill="black"/>
<path d="M127.448 151.345H119.483V159.31H127.448V151.345Z" fill="black"/>
<path d="M135.414 151.345H127.448V159.31H135.414V151.345Z" fill="black"/>
<path d="M151.345 151.345H143.379V159.31H151.345V151.345Z" fill="black"/>
<path d="M183.207 151.345H175.241V159.31H183.207V151.345Z" fill="black"/>
<path d="M199.138 151.345H191.172V159.31H199.138V151.345Z" fill="black"/>
<path d="M215.069 151.345H207.103V159.31H215.069V151.345Z" fill="black"/>
<path d="M87.6208 159.31H79.6553V167.276H87.6208V159.31Z" fill="black"/>
<path d="M95.5863 159.31H87.6208V167.276H95.5863V159.31Z" fill="black"/>
<path d="M119.483 159.31H111.517V167.276H119.483V159.31Z" fill="black"/>
<path d="M135.414 159.31H127.448V167.276H135.414V159.31Z" fill="black"/>
<path d="M151.345 159.31H143.379V167.276H151.345V159.31Z" fill="black"/>
<path d="M167.276 159.311H159.31V167.276H167.276V159.311Z" fill="black"/>
<path d="M183.207 159.31H175.241V167.276H183.207V159.31Z" fill="black"/>
<path d="M199.138 159.31H191.172V167.276H199.138V159.31Z" fill="black"/>
<path d="M207.103 159.311H199.137V167.276H207.103V159.311Z" fill="black"/>
<path d="M215.069 159.31H207.103V167.276H215.069V159.31Z" fill="black"/>
<path d="M87.6213 167.275H79.6558V175.241H87.6213V167.275Z" fill="black"/>
<path d="M95.5863 167.275H87.6208V175.241H95.5863V167.275Z" fill="black"/>
<path d="M111.517 167.275H103.552V175.241H111.517V167.275Z" fill="black"/>
<path d="M119.482 167.275H111.517V175.241H119.482V167.275Z" fill="black"/>
<path d="M135.414 167.275H127.448V175.241H135.414V167.275Z" fill="black"/>
<path d="M143.379 167.275H135.414V175.241H143.379V167.275Z" fill="black"/>
<path d="M151.345 167.275H143.379V175.241H151.345V167.275Z" fill="black"/>
<path d="M183.207 167.275H175.241V175.241H183.207V167.275Z" fill="black"/>
<path d="M207.103 167.275H199.137V175.241H207.103V167.275Z" fill="black"/>
<path d="M215.069 167.275H207.103V175.241H215.069V167.275Z" fill="black"/>
<path d="M95.5861 175.242H87.6206V183.207H95.5861V175.242Z" fill="black"/>
<path d="M135.414 175.242H127.448V183.207H135.414V175.242Z" fill="black"/>
<path d="M151.345 175.242H143.379V183.207H151.345V175.242Z" fill="black"/>
<path d="M159.31 175.242H151.345V183.207H159.31V175.242Z" fill="black"/>
<path d="M167.276 175.242H159.31V183.207H167.276V175.242Z" fill="black"/>
<path d="M175.242 175.242H167.276V183.207H175.242V175.242Z" fill="black"/>
<path d="M183.207 175.242H175.241V183.207H183.207V175.242Z" fill="black"/>
<path d="M191.172 175.242H183.207V183.207H191.172V175.242Z" fill="black"/>
<path d="M215.069 175.242H207.103V183.207H215.069V175.242Z" fill="black"/>
<path d="M87.6208 183.207H79.6553V191.172H87.6208V183.207Z" fill="black"/>
<path d="M95.5861 183.207H87.6206V191.172H95.5861V183.207Z" fill="black"/>
<path d="M111.517 183.207H103.552V191.172H111.517V183.207Z" fill="black"/>
<path d="M135.414 183.207H127.448V191.172H135.414V183.207Z" fill="black"/>
<path d="M143.38 183.207H135.414V191.172H143.38V183.207Z" fill="black"/>
<path d="M167.276 183.207H159.31V191.172H167.276V183.207Z" fill="black"/>
<path d="M183.207 183.207H175.241V191.172H183.207V183.207Z" fill="black"/>
<path d="M191.172 183.207H183.207V191.172H191.172V183.207Z" fill="black"/>
<path d="M199.138 183.207H191.172V191.172H199.138V183.207Z" fill="black"/>
<path d="M207.103 183.207H199.137V191.172H207.103V183.207Z" fill="black"/>
<path d="M215.069 183.207H207.103V191.172H215.069V183.207Z" fill="black"/>
<path d="M87.6213 191.173H79.6558V199.138H87.6213V191.173Z" fill="black"/>
<path d="M111.517 191.173H103.552V199.138H111.517V191.173Z" fill="black"/>
<path d="M119.482 191.173H111.517V199.138H119.482V191.173Z" fill="black"/>
<path d="M127.448 191.173H119.483V199.138H127.448V191.173Z" fill="black"/>
<path d="M135.414 191.173H127.448V199.138H135.414V191.173Z" fill="black"/>
<path d="M159.31 191.173H151.344V199.138H159.31V191.173Z" fill="black"/>
<path d="M167.276 191.173H159.31V199.138H167.276V191.173Z" fill="black"/>
<path d="M183.207 191.173H175.241V199.138H183.207V191.173Z" fill="black"/>
<path d="M199.138 191.173H191.172V199.138H199.138V191.173Z" fill="black"/>
<path d="M207.103 191.173H199.138V199.138H207.103V191.173Z" fill="black"/>
<path d="M127.448 199.139H119.483V207.104H127.448V199.139Z" fill="black"/>
<path d="M143.38 199.139H135.414V207.104H143.38V199.139Z" fill="black"/>
<path d="M159.31 199.139H151.345V207.104H159.31V199.139Z" fill="black"/>
<path d="M167.276 199.138H159.31V207.103H167.276V199.138Z" fill="black"/>
<path d="M183.207 199.139H175.241V207.104H183.207V199.139Z" fill="black"/>
<path d="M199.138 199.139H191.172V207.104H199.138V199.139Z" fill="black"/>
<path d="M87.6208 207.103H79.6553V215.069H87.6208V207.103Z" fill="black"/>
<path d="M103.552 207.103H95.5862V215.069H103.552V207.103Z" fill="black"/>
<path d="M119.483 207.103H111.517V215.069H119.483V207.103Z" fill="black"/>
<path d="M127.448 207.103H119.483V215.069H127.448V207.103Z" fill="black"/>
<path d="M135.414 207.103H127.448V215.069H135.414V207.103Z" fill="black"/>
<path d="M175.242 207.103H167.276V215.069H175.242V207.103Z" fill="black"/>
<path d="M183.207 207.103H175.241V215.069H183.207V207.103Z" fill="black"/>
<path d="M191.172 207.103H183.207V215.069H191.172V207.103Z" fill="black"/>
<path d="M199.138 207.103H191.172V215.069H199.138V207.103Z" fill="black"/>
<path d="M207.103 207.103H199.137V215.069H207.103V207.103Z" fill="black"/>
<path d="M215.069 207.103H207.103V215.069H215.069V207.103Z" fill="black"/>
<path d="M63.3257 15.9309H24.2947H15.9309V24.2947V63.3257V71.6895H24.2947H63.3257H71.6895V63.3257V24.2947V15.9309H63.3257ZM63.3257 63.3257H24.2947V24.2947H63.3257V63.3257Z" fill="black"/>
<path d="M206.705 15.9312H167.674H159.311V24.2949V63.326V71.6898H167.674H206.705H215.069V63.326V24.2949V15.9312H206.705ZM206.705 63.326H167.674V24.2949H206.705V63.326Z" fill="black"/>
<path d="M63.3255 159.31H24.2945H15.9307V167.674V206.705V215.069H24.2945H63.3255H71.6893V206.705V167.674V159.31H63.3255ZM63.3255 206.705H24.2945V167.674H63.3255V206.705Z" fill="black"/>
<path d="M55.7586 31.8621H31.8621V55.7586H55.7586V31.8621Z" fill="black"/>
<path d="M199.138 31.8621H175.241V55.7586H199.138V31.8621Z" fill="black"/>
<path d="M55.7586 175.242H31.8621V199.138H55.7586V175.242Z" fill="black"/>
</svg>
