<svg width="549" height="234" viewBox="0 0 549 234" fill="none" xmlns="http://www.w3.org/2000/svg">
<mask id="mask0_2817_21706" style="mask-type:alpha" maskUnits="userSpaceOnUse" x="0" y="0" width="549" height="234">
<rect width="549" height="234" rx="18" fill="#20242C"/>
</mask>
<g mask="url(#mask0_2817_21706)">
<rect width="549" height="234" rx="18" fill="#22252B" fill-opacity="0.5"/>
<path d="M400.25 221.237C400.25 221.237 400.25 221.163 400.25 221.039C400.25 220.914 400.25 220.708 400.25 220.481C400.25 219.975 400.25 219.263 400.25 218.36C400.25 216.497 400.206 213.811 400.177 210.436L400.302 210.561L359.491 210.642L359.697 210.436V215.917C359.697 217.715 359.697 219.49 359.697 221.229L359.498 221.024L388.584 221.112L397.168 221.171H399.487H400.096C400.167 221.16 400.238 221.16 400.309 221.171H400.125H399.538H397.264L388.723 221.229L359.498 221.317H359.293V221.119C359.293 219.38 359.293 217.605 359.293 215.807V210.326C359.711 209.908 359.41 210.209 359.506 210.121L400.316 210.201H400.448V210.326C400.448 213.738 400.39 216.438 400.375 218.324C400.375 219.219 400.375 219.916 400.375 220.422C400.375 220.635 400.375 220.811 400.375 220.95C400.352 221.053 400.31 221.15 400.25 221.237Z" fill="#E0E0E0"/>
<path d="M405.775 210.436C405.775 210.436 405.775 210.362 405.775 210.23C405.775 210.098 405.775 209.886 405.775 209.658C405.775 209.13 405.775 208.403 405.738 207.494C405.738 205.601 405.694 202.922 405.657 199.635L405.804 199.789L381.283 199.848L381.495 199.635V201.029C381.495 201.499 381.495 201.969 381.495 202.431V205.175C381.495 206.985 381.495 208.731 381.495 210.414L381.297 210.216L398.841 210.311L403.977 210.362H405.349H405.841C405.694 210.373 405.547 210.373 405.401 210.362H404.065L398.995 210.414L381.319 210.509H381.121V210.311C381.121 208.633 381.121 206.887 381.121 205.072V199.65C381.077 199.694 381.517 199.261 381.327 199.444L405.848 199.503H406.002V199.65C405.966 202.981 405.944 205.681 405.922 207.596C405.922 208.499 405.922 209.203 405.885 209.731C405.865 209.969 405.828 210.204 405.775 210.436Z" fill="#E0E0E0"/>
<path d="M271.23 34H233.215V44.0595H271.23V34Z" fill="#EBEBEB"/>
<path d="M485.23 113H447.215V123.06H485.23V113Z" fill="#EBEBEB"/>
<path d="M255.154 54.6549C255.154 54.6549 255.154 54.5888 255.154 54.4714C255.154 54.354 255.154 54.1632 255.154 53.9578C255.154 53.4809 255.154 52.8205 255.154 51.9767C255.154 50.2378 255.118 47.7431 255.088 44.5953L255.206 44.7127L217.191 44.7861C217.279 44.7054 217 44.9842 217.382 44.5953V54.6402L217.191 54.4494L244.28 54.5375L252.278 54.5888H254.443H255.008H255.206H255.03H254.487H252.366L244.412 54.6475L217.191 54.7356H217V44.61C217.382 44.2211 217.103 44.4999 217.191 44.4192L255.206 44.4926H255.33V44.61C255.33 47.7871 255.286 50.3038 255.272 52.0574C255.272 52.8939 255.272 53.5249 255.272 54.0092C255.272 54.2146 255.272 54.376 255.272 54.5081C255.24 54.5624 255.2 54.6119 255.154 54.6549Z" fill="#E0E0E0"/>
<path d="M469.154 133.655C469.154 133.655 469.154 133.589 469.154 133.471C469.154 133.354 469.154 133.163 469.154 132.958C469.154 132.481 469.154 131.821 469.154 130.977C469.154 129.238 469.118 126.743 469.088 123.595L469.206 123.713L431.191 123.786C431.279 123.705 431 123.984 431.382 123.595V133.64L431.191 133.449L458.28 133.537L466.278 133.589H468.443H469.008H469.206H469.03H468.487H466.366L458.412 133.648L431.191 133.736H431V123.61C431.382 123.221 431.103 123.5 431.191 123.419L469.206 123.493H469.33V123.61C469.33 126.787 469.286 129.304 469.272 131.057C469.272 131.894 469.272 132.525 469.272 133.009C469.272 133.215 469.272 133.376 469.272 133.508C469.24 133.562 469.2 133.612 469.154 133.655Z" fill="#E0E0E0"/>
<path d="M392.795 41.4416C392.795 41.4416 392.795 41.3755 392.795 41.2508C392.795 41.1261 392.795 40.9206 392.795 40.6932C392.795 40.1869 392.795 39.4752 392.795 38.5653C392.795 36.7016 392.758 34.0235 392.729 30.6483L392.854 30.773L351.985 30.8904C352.073 30.7951 351.772 31.0959 352.19 30.685V36.1513C352.19 37.9563 352.19 39.732 352.19 41.4636L351.985 41.2655L381.077 41.3535L389.662 41.4122H391.981H392.59H392.802C392.802 41.4122 392.744 41.4122 392.612 41.4122H392.032H389.757L381.217 41.4636L351.985 41.559H351.787V41.3535C351.787 39.6219 351.787 37.8463 351.787 36.0413V30.663L351.999 30.4502L392.81 30.5309H392.935V30.663C392.935 34.0749 392.883 36.775 392.869 38.6607C392.869 39.5559 392.869 40.2529 392.869 40.7519C392.869 40.972 392.869 41.1481 392.869 41.2875C392.869 41.4269 392.802 41.4489 392.795 41.4416Z" fill="#E0E0E0"/>
<path d="M173.009 116.811C173.009 116.811 173.009 116.745 173.009 116.62C173.009 116.495 173.009 116.29 173.009 116.062C173.009 115.556 173.009 114.844 173.009 113.934C173.009 112.071 172.972 109.393 172.942 106.017L173.067 106.142L132.198 106.26C132.286 106.164 131.985 106.465 132.404 106.054V111.52C132.404 113.325 132.404 115.101 132.404 116.833L132.198 116.635L161.291 116.723L169.875 116.781H172.194H172.803H173.016C173.016 116.781 172.957 116.781 172.825 116.781H172.245H169.971L161.43 116.833L132.198 116.928H132V116.723C132 114.991 132 113.215 132 111.41V106.032L132.213 105.819L173.023 105.9H173.148V106.032C173.148 109.444 173.097 112.144 173.082 114.03C173.082 114.925 173.082 115.622 173.082 116.121C173.082 116.341 173.082 116.517 173.082 116.657C173.082 116.796 173.016 116.818 173.009 116.811Z" fill="#E0E0E0"/>
<path d="M102.009 186.811C102.009 186.811 102.009 186.745 102.009 186.62C102.009 186.495 102.009 186.29 102.009 186.062C102.009 185.556 102.009 184.844 102.009 183.934C102.009 182.071 101.972 179.393 101.942 176.017L102.067 176.142L61.1981 176.26C61.2861 176.164 60.9853 176.465 61.4035 176.054V181.52C61.4035 183.325 61.4035 185.101 61.4035 186.833L61.1981 186.635L90.2907 186.723L98.8755 186.781H101.194H101.803H102.016C102.016 186.781 101.957 186.781 101.825 186.781H101.245H98.9709L90.4302 186.833L61.1981 186.928H61V186.723C61 184.991 61 183.215 61 181.41V176.032L61.2128 175.819L102.023 175.9H102.148V176.032C102.148 179.444 102.097 182.144 102.082 184.03C102.082 184.925 102.082 185.622 102.082 186.121C102.082 186.341 102.082 186.517 102.082 186.657C102.082 186.796 102.016 186.818 102.009 186.811Z" fill="#E0E0E0"/>
<path d="M76.0085 63.8107C76.0085 63.8107 76.0085 63.7447 76.0085 63.6199C76.0085 63.4952 76.0085 63.2898 76.0085 63.0623C76.0085 62.556 76.0085 61.8443 76.0085 60.9345C76.0085 59.0708 75.9718 56.3926 75.9425 53.0174L76.0672 53.1422L35.1981 53.2596C35.2861 53.1642 34.9853 53.465 35.4035 53.0541V58.5205C35.4035 60.3255 35.4035 62.1011 35.4035 63.8327L35.1981 63.6346L64.2907 63.7227L72.8755 63.7814H75.1941H75.8031H76.0159C76.0159 63.7814 75.9572 63.7814 75.8251 63.7814H75.2454H72.9709L64.4302 63.8327L35.1981 63.9281H35V63.7227C35 61.991 35 60.2154 35 58.4104V53.0321L35.2128 52.8193L76.0232 52.9H76.1479V53.0321C76.1479 56.444 76.0966 59.1441 76.0819 61.0298C76.0819 61.925 76.0819 62.6221 76.0819 63.121C76.0819 63.3411 76.0819 63.5172 76.0819 63.6566C76.0819 63.796 76.0159 63.818 76.0085 63.8107Z" fill="#E0E0E0"/>
<path d="M398.328 30.6484C398.328 30.6484 398.328 30.575 398.328 30.443C398.328 30.3109 398.328 30.0981 398.328 29.8706C398.328 29.335 398.328 28.616 398.291 27.6694C398.291 25.7764 398.247 23.0983 398.21 19.8111L398.357 19.9579L373.836 20.0166L374.041 19.8111V25.3655C374.041 27.1705 374.041 28.9241 374.041 30.6044L373.843 30.4063L391.387 30.5017L396.523 30.553H397.902H398.394C398.247 30.5636 398.1 30.5636 397.953 30.553H396.611L391.548 30.6117L373.872 30.7071H373.674V30.509C373.674 28.8287 373.674 27.0751 373.674 25.2701V19.8845C373.623 19.9285 374.063 19.4883 373.88 19.679L398.401 19.7377H398.555V19.8845C398.518 23.2083 398.489 25.9158 398.474 27.8309C398.474 28.726 398.474 29.4377 398.438 29.966C398.416 30.1957 398.379 30.4236 398.328 30.6484Z" fill="#E0E0E0"/>
<path d="M178.541 106.018C178.541 106.018 178.541 105.944 178.541 105.812C178.541 105.68 178.541 105.467 178.541 105.24C178.541 104.704 178.541 103.985 178.504 103.039C178.504 101.146 178.46 98.4674 178.424 95.1803L178.57 95.327L154.049 95.3857L154.254 95.1803V100.735C154.254 102.54 154.254 104.293 154.254 105.974L154.056 105.775L171.6 105.871L176.736 105.922H178.115H178.607C178.461 105.933 178.313 105.933 178.167 105.922H176.824L171.761 105.981L154.086 106.076H153.888V105.878C153.888 104.198 153.888 102.444 153.888 100.639V95.2536C153.836 95.2977 154.276 94.8574 154.093 95.0482L178.614 95.1069H178.769V95.2536C178.732 98.5775 178.702 101.285 178.688 103.2C178.688 104.095 178.688 104.807 178.651 105.335C178.63 105.565 178.593 105.793 178.541 106.018Z" fill="#E0E0E0"/>
<path d="M107.541 176.018C107.541 176.018 107.541 175.944 107.541 175.812C107.541 175.68 107.541 175.467 107.541 175.24C107.541 174.704 107.541 173.985 107.504 173.039C107.504 171.146 107.46 168.467 107.424 165.18L107.57 165.327L83.0489 165.386L83.2544 165.18V170.735C83.2544 172.54 83.2544 174.293 83.2544 175.974L83.0563 175.775L100.6 175.871L105.736 175.922H107.115H107.607C107.461 175.933 107.313 175.933 107.167 175.922H105.824L100.761 175.981L83.0856 176.076H82.8875V175.878C82.8875 174.198 82.8875 172.444 82.8875 170.639V165.254C82.8361 165.298 83.2764 164.857 83.0929 165.048L107.614 165.107H107.769V165.254C107.732 168.577 107.702 171.285 107.688 173.2C107.688 174.095 107.688 174.807 107.651 175.335C107.63 175.565 107.593 175.793 107.541 176.018Z" fill="#E0E0E0"/>
<path d="M81.5411 53.0175C81.5411 53.0175 81.5411 52.9442 81.5411 52.8121C81.5411 52.68 81.5411 52.4672 81.5411 52.2398C81.5411 51.7042 81.541 50.9851 81.5044 50.0386C81.5044 48.1455 81.4603 45.4674 81.4237 42.1803L81.5704 42.327L57.0489 42.3857L57.2544 42.1803V47.7346C57.2544 49.5396 57.2544 51.2933 57.2544 52.9735L57.0563 52.7754L74.5999 52.8708L79.7361 52.9222H81.1155H81.6071C81.4605 52.9327 81.3134 52.9327 81.1668 52.9222H79.8241L74.7613 52.9809L57.0856 53.0762H56.8875V52.8781C56.8875 51.1979 56.8875 49.4442 56.8875 47.6393V42.2536C56.8361 42.2977 57.2764 41.8574 57.0929 42.0482L81.6144 42.1069H81.7685V42.2536C81.7318 45.5775 81.7025 48.2849 81.6878 50.2C81.6878 51.0952 81.6878 51.8069 81.6511 52.3352C81.6295 52.5648 81.5927 52.7928 81.5411 53.0175Z" fill="#E0E0E0"/>
<path d="M341.734 258.055C339.386 261.401 334.837 260.257 332.731 258.246C330.626 256.236 329.73 253.249 328.916 250.432C327.06 243.982 325.189 237.225 326.568 230.658C326.9 228.667 327.774 226.807 329.092 225.279C329.762 224.528 330.617 223.966 331.573 223.649C332.528 223.332 333.55 223.272 334.536 223.474C336.826 224.076 338.256 226.321 339.284 228.464C342.321 234.774 343.913 241.682 343.943 248.686C343.943 251.943 343.569 255.363 341.742 258.055" fill="#EBEBEB"/>
<path d="M358.83 -37H357.83V76.47H358.83V-37Z" fill="#263238"/>
<path d="M401.87 118.45L398.37 126.15H318.27L314.78 118.45L348.88 94.8501H367.77L401.87 118.45Z" fill="#E6007A"/>
<path d="M370.14 72.1099L367.77 94.8499H348.88L346.51 72.1099H370.14Z" fill="#E6007A"/>
<path d="M401.87 118.45L398.36 126.15H318.27L314.78 118.45H401.87Z" fill="#E6007A"/>
<path opacity="0.1" d="M401.87 118.45L398.36 126.15H318.27L314.78 118.45H401.87Z" fill="black"/>
<path opacity="0.1" d="M348.88 94.8502L348.4 90.2402L368.46 88.2002L367.77 94.8502H348.88Z" fill="black"/>
<path opacity="0.2" d="M457.5 239C457.5 239 405.52 271.94 358.32 271.94C311.12 271.94 258 239 258 239L318.3 126.16H398.3L457.5 239Z" fill="#E6007A"/>
<path opacity="0.2" d="M428.109 243.404C428.109 243.404 392.413 266 360 266C327.587 266 291.109 243.404 291.109 243.404L330.908 126H385.845L428.109 243.404Z" fill="#E6007A"/>
<path d="M468.33 -73H467.33V40.47H468.33V-73Z" fill="#263238"/>
<path d="M511.37 82.4501L507.87 90.1501H427.77L424.28 82.4501L458.38 58.8501H477.27L511.37 82.4501Z" fill="#E6007A"/>
<path d="M479.64 36.1099L477.27 58.8499H458.38L456.01 36.1099H479.64Z" fill="#E6007A"/>
<path d="M511.37 82.4502L507.86 90.1502H427.77L424.28 82.4502H511.37Z" fill="#E6007A"/>
<path opacity="0.1" d="M511.37 82.4502L507.86 90.1502H427.77L424.28 82.4502H511.37Z" fill="black"/>
<path opacity="0.1" d="M458.38 58.8502L457.9 54.2402L477.96 52.2002L477.27 58.8502H458.38Z" fill="black"/>
<path opacity="0.2" d="M565.5 240C565.5 240 513.52 272.94 466.32 272.94C419.12 272.94 366 240 366 240L427.8 90.1602H507.8L565.5 240Z" fill="#E6007A"/>
<path opacity="0.2" d="M537.608 236.5C537.608 236.5 501.913 259.096 469.5 259.096C437.087 259.096 400.608 236.5 400.608 236.5L440.405 90H495.342L537.608 236.5Z" fill="#E6007A"/>
<rect width="549" height="234" rx="18" fill="url(#paint0_linear_2817_21706)"/>
<path d="M270.143 84.0425H174.902C173.334 84.0425 172.063 85.3134 172.063 86.8812V182.123C172.063 183.691 173.334 184.962 174.902 184.962H270.143C271.711 184.962 272.982 183.691 272.982 182.123V86.8812C272.982 85.3134 271.711 84.0425 270.143 84.0425Z" fill="#F5F5F5"/>
<path d="M270.143 184.961C270.476 184.936 270.803 184.864 271.115 184.748C271.58 184.565 271.987 184.261 272.295 183.868C272.603 183.475 272.799 183.007 272.865 182.512C272.914 179.877 272.865 175.95 272.865 170.904C272.865 160.803 272.817 146.211 272.788 128.178C272.788 119.156 272.788 109.27 272.788 98.6635V90.614C272.788 89.2627 272.788 87.824 272.788 86.5116C272.682 85.8634 272.339 85.2778 271.825 84.8696C271.31 84.4614 270.662 84.26 270.007 84.3048H252.518H174.911C174.52 84.3037 174.133 84.3905 173.78 84.5588C173.427 84.727 173.116 84.9724 172.87 85.2769C172.63 85.5865 172.461 85.9449 172.374 86.3268C172.314 86.7322 172.294 87.1425 172.316 87.5518V122.549C172.316 135.528 172.316 148.049 172.316 159.977C172.316 165.946 172.316 171.756 172.316 177.408V181.617C172.245 182.272 172.392 182.931 172.734 183.494C173.086 184.031 173.621 184.421 174.24 184.592C174.883 184.692 175.535 184.724 176.185 184.689H182.231H211.736L254.462 184.777L211.736 184.855H182.231H175.164C174.801 184.871 174.438 184.835 174.085 184.748C173.366 184.545 172.745 184.089 172.335 183.464C171.94 182.836 171.766 182.094 171.839 181.355C171.839 179.965 171.839 178.565 171.839 177.145C171.839 171.5 171.839 165.69 171.839 159.715C171.839 147.786 171.839 135.265 171.839 122.287C171.839 115.806 171.839 109.205 171.839 102.484V87.5615C171.82 87.1164 171.842 86.6704 171.907 86.2296C172.014 85.7745 172.216 85.3471 172.5 84.9755C172.792 84.608 173.163 84.3107 173.586 84.1054C174.008 83.9002 174.471 83.7922 174.94 83.7895H252.547H269.978C270.736 83.7493 271.483 83.9879 272.078 84.4603C272.682 84.9434 273.078 85.6389 273.186 86.4046C273.274 87.8531 273.186 89.1947 273.186 90.5752V98.6635C273.186 109.27 273.186 119.156 273.186 128.178C273.186 146.211 273.128 160.803 273.108 170.904C273.108 175.95 273.108 179.867 273.031 182.57C272.95 183.076 272.738 183.551 272.415 183.949C272.093 184.346 271.671 184.652 271.193 184.835C270.948 184.921 270.694 184.977 270.435 185L270.143 184.961Z" fill="#263238"/>
<path d="M217.034 100.472C217.007 99.9039 217.151 99.3404 217.447 98.8545C217.743 98.3685 218.177 97.9823 218.695 97.7457C219.212 97.5091 219.789 97.4329 220.35 97.527C220.911 97.621 221.431 97.881 221.843 98.2734C222.256 98.6658 222.541 99.1726 222.662 99.7285C222.783 100.284 222.736 100.864 222.525 101.392C222.314 101.921 221.949 102.374 221.478 102.693C221.007 103.013 220.451 103.184 219.882 103.185C219.515 103.204 219.147 103.149 218.801 103.021C218.456 102.894 218.14 102.697 217.873 102.443C217.606 102.189 217.394 101.883 217.25 101.544C217.106 101.205 217.032 100.841 217.034 100.472ZM221.73 100.472C221.731 100.104 221.624 99.7439 221.421 99.4371C221.217 99.1302 220.927 98.8907 220.588 98.749C220.248 98.6072 219.874 98.5697 219.513 98.641C219.152 98.7123 218.82 98.8894 218.56 99.1496C218.3 99.4099 218.122 99.7416 218.051 100.103C217.98 100.464 218.017 100.838 218.159 101.178C218.301 101.517 218.54 101.807 218.847 102.011C219.154 102.214 219.514 102.321 219.882 102.319C220.127 102.326 220.37 102.283 220.597 102.192C220.824 102.102 221.031 101.966 221.203 101.793C221.376 101.62 221.512 101.414 221.603 101.187C221.693 100.96 221.736 100.717 221.73 100.472Z" fill="#263238"/>
<path d="M228.467 97.8276V103.106H227.66L224.744 99.5289V103.106H223.771V97.8276H224.578L227.495 101.405V97.8276H228.467Z" fill="#263238"/>
<path d="M216.364 166.131C216.337 165.562 216.481 164.999 216.777 164.513C217.073 164.027 217.507 163.641 218.025 163.404C218.542 163.167 219.119 163.091 219.68 163.185C220.241 163.279 220.761 163.539 221.174 163.932C221.586 164.324 221.871 164.831 221.992 165.387C222.113 165.943 222.066 166.522 221.855 167.051C221.644 167.579 221.279 168.032 220.808 168.352C220.337 168.671 219.782 168.842 219.213 168.843C218.845 168.863 218.477 168.807 218.131 168.68C217.786 168.552 217.47 168.355 217.203 168.101C216.936 167.847 216.724 167.542 216.58 167.203C216.436 166.864 216.362 166.499 216.364 166.131ZM221.06 166.131C221.06 165.763 220.95 165.403 220.746 165.098C220.542 164.792 220.251 164.554 219.911 164.414C219.571 164.274 219.197 164.238 218.837 164.31C218.477 164.383 218.146 164.56 217.886 164.821C217.627 165.082 217.451 165.413 217.38 165.774C217.31 166.135 217.348 166.509 217.49 166.848C217.632 167.187 217.872 167.476 218.178 167.679C218.485 167.882 218.845 167.989 219.213 167.987C219.458 167.996 219.703 167.953 219.931 167.862C220.16 167.772 220.367 167.635 220.54 167.461C220.714 167.287 220.849 167.079 220.939 166.85C221.028 166.621 221.069 166.376 221.06 166.131Z" fill="#263238"/>
<path d="M224.073 164.313V165.927H226.62V166.753H224.073V168.775H223.101V163.525H226.99V164.342L224.073 164.313Z" fill="#263238"/>
<path d="M228.866 164.313V165.927H231.384V166.753H228.837V168.775H227.865V163.525H231.753V164.342L228.866 164.313Z" fill="#263238"/>
<path d="M234.776 110.922H212.63C211.449 110.922 210.492 111.88 210.492 113.061V155.253C210.492 156.434 211.449 157.391 212.63 157.391H234.776C235.957 157.391 236.915 156.434 236.915 155.253V113.061C236.915 111.88 235.957 110.922 234.776 110.922Z" fill="#E0E0E0"/>
<path d="M234.767 157.392C235.242 157.357 235.695 157.181 236.07 156.887C236.292 156.706 236.474 156.482 236.604 156.228C236.735 155.973 236.811 155.694 236.828 155.409C236.828 154.719 236.828 153.922 236.828 153.027C236.828 149.401 236.828 144.21 236.74 137.803C236.653 131.397 236.74 123.717 236.692 115.22V113.616C236.75 113.114 236.665 112.605 236.449 112.148C236.21 111.719 235.817 111.396 235.35 111.244C234.831 111.152 234.301 111.126 233.775 111.166H212.641C212.369 111.165 212.101 111.222 211.854 111.334C211.608 111.447 211.388 111.612 211.212 111.818C211.03 112.025 210.895 112.268 210.815 112.531C210.734 112.794 210.71 113.071 210.745 113.344V124.038C210.745 128.665 210.745 133.111 210.745 137.376C210.745 141.624 210.745 145.658 210.745 149.44C210.745 151.336 210.745 153.154 210.745 154.913C210.687 155.207 210.698 155.51 210.777 155.798C210.855 156.087 211 156.354 211.198 156.578C211.396 156.802 211.644 156.977 211.921 157.089C212.198 157.202 212.498 157.249 212.796 157.227H214.021L229.245 157.305L233.386 157.353H234.466C234.585 157.34 234.706 157.34 234.825 157.353C234.706 157.366 234.585 157.366 234.466 157.353H233.386L229.245 157.402L214.021 157.48H212.796C212.347 157.494 211.903 157.383 211.513 157.159C211.114 156.935 210.793 156.596 210.589 156.187C210.399 155.763 210.319 155.298 210.356 154.835C210.356 153.076 210.356 151.258 210.356 149.362C210.356 145.58 210.356 141.585 210.356 137.298C210.356 133.011 210.356 128.548 210.356 123.96C210.356 121.646 210.356 119.293 210.356 116.902V113.295C210.326 112.96 210.364 112.623 210.465 112.303C210.567 111.982 210.732 111.685 210.949 111.429C211.174 111.17 211.452 110.963 211.764 110.822C212.076 110.681 212.415 110.61 212.757 110.612H234.718C235.017 110.596 235.317 110.632 235.603 110.719C236.19 110.906 236.682 111.314 236.974 111.857C237.228 112.382 237.329 112.968 237.265 113.548V115.152C237.265 123.649 237.265 131.3 237.207 137.735C237.149 144.171 237.149 149.333 237.129 152.959C237.129 153.863 237.129 154.651 237.129 155.36C237.1 155.66 237.01 155.951 236.865 156.216C236.719 156.48 236.522 156.711 236.283 156.896C236.08 157.082 235.84 157.222 235.578 157.307C235.317 157.392 235.04 157.421 234.767 157.392Z" fill="#263238"/>
<path d="M234.076 154.679H213.33C212.578 154.679 211.855 154.38 211.323 153.847C210.791 153.315 210.492 152.593 210.492 151.84V134.157H236.915V151.86C236.91 152.609 236.608 153.326 236.077 153.854C235.545 154.383 234.826 154.679 234.076 154.679Z" fill="#F5F5F5"/>
<path d="M234.077 154.679C234.596 154.624 235.098 154.455 235.545 154.184C236.064 153.839 236.457 153.333 236.663 152.745C236.819 151.912 236.861 151.062 236.789 150.217C236.789 146.329 236.731 140.778 236.692 134.157L236.915 134.371H213.331H210.492L210.745 134.118C210.745 140.107 210.745 145.784 210.745 150.927C210.683 151.531 210.739 152.142 210.91 152.725C211.107 153.264 211.481 153.719 211.97 154.018C212.449 154.318 213.01 154.461 213.574 154.427H215.314H221.643L230.762 154.504L221.643 154.582H215.314H213.574C212.932 154.624 212.293 154.464 211.746 154.125C211.174 153.775 210.733 153.245 210.492 152.618C210.369 152.308 210.3 151.98 210.288 151.646V150.674C210.288 145.522 210.288 139.854 210.288 133.866V133.613H213.38H236.964H237.178V133.827C237.178 140.447 237.11 145.969 237.09 149.887C237.09 150.363 237.09 150.859 237.09 151.257C237.11 151.674 237.048 152.09 236.906 152.482C236.678 153.103 236.246 153.627 235.681 153.97C235.337 154.177 234.952 154.306 234.553 154.349C234.41 154.48 234.25 154.591 234.077 154.679Z" fill="#263238"/>
<path d="M223.703 119.682C224.589 119.682 225.307 118.964 225.307 118.078C225.307 117.192 224.589 116.474 223.703 116.474C222.817 116.474 222.099 117.192 222.099 118.078C222.099 118.964 222.817 119.682 223.703 119.682Z" fill="#E6007A"/>
<path d="M257.855 134.157C257.855 134.796 257.666 135.42 257.311 135.951C256.956 136.482 256.451 136.896 255.861 137.14C255.27 137.384 254.621 137.447 253.995 137.322C253.368 137.197 252.793 136.888 252.342 136.436C251.891 135.984 251.585 135.408 251.461 134.781C251.338 134.154 251.403 133.505 251.649 132.915C251.895 132.326 252.31 131.822 252.842 131.469C253.374 131.115 253.999 130.928 254.638 130.93C255.061 130.93 255.48 131.013 255.871 131.176C256.262 131.338 256.618 131.576 256.916 131.876C257.215 132.175 257.452 132.531 257.613 132.923C257.774 133.314 257.857 133.734 257.855 134.157Z" fill="#E0E0E0"/>
<path d="M257.855 134.157C257.855 134.157 257.807 133.865 257.661 133.389C257.453 132.725 257.038 132.146 256.475 131.736C256.027 131.411 255.497 131.215 254.945 131.172C254.393 131.129 253.839 131.239 253.346 131.49C252.852 131.742 252.438 132.125 252.148 132.597C251.859 133.07 251.705 133.613 251.705 134.167C251.705 134.721 251.859 135.264 252.148 135.736C252.438 136.209 252.852 136.592 253.346 136.843C253.839 137.095 254.393 137.205 254.945 137.161C255.497 137.118 256.027 136.923 256.475 136.597C257.038 136.185 257.454 135.602 257.661 134.935C257.807 134.458 257.816 134.176 257.855 134.176C257.932 134.44 257.932 134.72 257.855 134.983C257.705 135.732 257.296 136.403 256.699 136.879C256.248 137.235 255.715 137.471 255.15 137.566C254.584 137.661 254.003 137.612 253.461 137.423C252.789 137.187 252.206 136.748 251.794 136.166C251.382 135.585 251.16 134.889 251.16 134.176C251.16 133.464 251.382 132.768 251.794 132.187C252.206 131.605 252.789 131.166 253.461 130.929C253.995 130.741 254.567 130.689 255.126 130.779C255.685 130.869 256.212 131.098 256.66 131.445C257.254 131.923 257.663 132.593 257.816 133.34C257.905 133.604 257.918 133.886 257.855 134.157Z" fill="#263238"/>
<path d="M257 132.086C255.75 133.79 254.234 135.28 252.509 136.5C253.067 135.598 253.766 134.79 254.579 134.109C255.277 133.313 256.094 132.631 257 132.086Z" fill="#263238"/>
<path d="M256.766 136.432C255.905 135.815 255.119 135.101 254.423 134.302C253.606 133.625 252.878 132.848 252.255 131.989C253.214 132.466 254.069 133.127 254.773 133.933C255.598 134.624 256.275 135.474 256.766 136.432Z" fill="#263238"/>
<path d="M196.96 134.157C196.96 134.796 196.771 135.42 196.416 135.95C196.061 136.481 195.557 136.895 194.968 137.139C194.378 137.383 193.729 137.447 193.103 137.323C192.477 137.198 191.902 136.891 191.45 136.439C190.999 135.988 190.691 135.413 190.567 134.787C190.442 134.161 190.506 133.512 190.751 132.922C190.995 132.332 191.409 131.828 191.939 131.474C192.47 131.119 193.094 130.93 193.732 130.93C194.588 130.93 195.409 131.27 196.015 131.875C196.62 132.48 196.96 133.301 196.96 134.157Z" fill="#E0E0E0"/>
<path d="M196.96 134.157C196.881 133.905 196.816 133.649 196.765 133.389C196.554 132.727 196.139 132.149 195.579 131.737C195.13 131.407 194.599 131.209 194.044 131.163C193.489 131.118 192.932 131.227 192.435 131.479C191.938 131.731 191.521 132.115 191.23 132.59C190.938 133.064 190.784 133.61 190.784 134.167C190.784 134.724 190.938 135.27 191.23 135.744C191.521 136.219 191.938 136.603 192.435 136.855C192.932 137.107 193.489 137.216 194.044 137.171C194.599 137.125 195.13 136.927 195.579 136.597C196.14 136.182 196.555 135.6 196.765 134.935C196.815 134.679 196.88 134.425 196.96 134.177C197.032 134.441 197.032 134.72 196.96 134.984C196.814 135.734 196.403 136.406 195.803 136.879C195.353 137.236 194.82 137.473 194.254 137.568C193.688 137.663 193.107 137.613 192.566 137.424C191.893 137.188 191.31 136.748 190.898 136.167C190.486 135.585 190.265 134.89 190.265 134.177C190.265 133.464 190.486 132.769 190.898 132.187C191.31 131.605 191.893 131.166 192.566 130.93C193.106 130.736 193.687 130.683 194.254 130.777C194.82 130.871 195.353 131.107 195.803 131.464C196.4 131.94 196.81 132.612 196.96 133.36C197.028 133.621 197.028 133.896 196.96 134.157Z" fill="#263238"/>
<path d="M196.104 132.086C194.848 133.784 193.332 135.273 191.613 136.5C192.168 135.595 192.867 134.787 193.683 134.109C194.379 133.311 195.196 132.628 196.104 132.086Z" fill="#263238"/>
<path d="M195.871 136.432C194.244 135.077 192.732 133.591 191.35 131.989C192.312 132.464 193.171 133.125 193.878 133.933C194.695 134.631 195.372 135.479 195.871 136.432Z" fill="#263238"/>
<path d="M-20.0423 302.147L-18.4623 383.207H44.3177C44.3677 383.377 44.4077 383.537 44.4677 383.687C44.4777 383.527 44.4777 383.367 44.4677 383.207H51.8677C51.2077 317.587 49.5377 229.367 49.5377 229.367H-12.8623C-12.8623 229.367 -29.6223 263.627 -20.0423 302.147Z" fill="#37474F"/>
<path d="M-10.9223 229.367C-10.9223 229.367 -10.1123 271.587 9.07773 302.117C9.07773 302.117 13.2577 304.047 17.6877 306.277C19.6877 307.277 21.6877 308.277 23.3477 309.277L23.4077 309.447V309.587C23.4577 309.717 23.4977 309.887 23.5677 310.087C25.3077 315.587 35.5677 348.207 44.4677 379.397C44.8377 380.667 45.1877 381.927 45.5477 383.187H124.408C113.538 340.727 96.2477 282.887 82.5377 229.367H-10.9223Z" fill="#37474F"/>
<path d="M63.0738 126.863L63.0718 126.864C61.3443 127.053 59.3918 126.4 57.429 125.266C55.4548 124.125 53.4096 122.462 51.4746 120.536C47.6095 116.688 44.1191 111.725 42.4827 107.611L42.4819 107.609C42.4338 107.487 42.4266 107.358 42.4255 107.273C42.4242 107.174 42.4313 107.064 42.4434 106.947C42.4675 106.713 42.5157 106.416 42.5815 106.069C42.7136 105.373 42.9249 104.434 43.1867 103.316C43.3415 102.655 43.5144 101.93 43.6999 101.151C44.1441 99.2874 44.6612 97.1172 45.1791 94.7885C46.0579 90.7941 46.9439 86.3122 47.451 82.1856L47.5286 81.5543L48.1237 81.7787L73.3937 91.3087L73.8873 91.4949L73.675 91.9778L73.675 91.9778L73.6749 91.978L73.6745 91.9789L73.6727 91.9831L73.6652 92.0003L73.635 92.07C73.6084 92.1319 73.569 92.224 73.5185 92.3442C73.4174 92.5845 73.2718 92.9367 73.0943 93.3822C72.7393 94.2735 72.2573 95.5373 71.7506 97.0253C70.7356 100.005 69.6296 103.86 69.2349 107.415C69.1884 107.961 69.1886 108.509 69.2355 109.054L69.2362 109.062L69.2366 109.071C69.2422 109.177 69.2425 109.284 69.2377 109.391C69.2878 111.071 69.3743 115.172 68.6829 118.956C68.3363 120.854 67.7876 122.711 66.9132 124.15C66.0335 125.599 64.7932 126.668 63.0738 126.863Z" fill="white" stroke="#1C1C26"/>
<path d="M68.7076 109.127C68.7126 109.223 68.7126 109.32 68.7076 109.417C67.8038 109.428 66.9008 109.365 66.0075 109.227C50.7475 106.727 48.8575 89.0568 48.6875 82.5068L73.2275 91.7668C73.2275 91.7668 69.5875 100.157 68.7275 107.397C68.6762 107.972 68.6695 108.551 68.7076 109.127Z" fill="#263238"/>
<path d="M82.0476 40.8167C83.5976 40.7467 91.1876 51.5367 91.5976 56.9067C92.0076 62.2767 90.7876 73.0767 89.2276 73.3667C87.6676 73.6567 80.8576 40.8667 82.0476 40.8167Z" fill="#263238"/>
<path d="M46.8408 51.6797L46.8409 51.6796C49.3845 44.7475 55.6057 40.132 62.4792 38.3405C69.3493 36.5498 76.9625 37.5565 82.3286 41.9862L82.3297 41.9871C83.2888 42.7837 84.1796 44.0444 84.9943 45.6175C85.8128 47.1977 86.5718 49.1269 87.2529 51.2942C88.6152 55.6292 89.677 60.9537 90.2723 66.4239C90.8676 71.8941 90.9983 77.5276 90.4895 82.4799C89.9825 87.4155 88.8337 91.7436 86.8159 94.5441L86.8159 94.5442C82.7024 100.25 76.6232 102.664 70.4274 102.473C64.2433 102.282 57.9358 99.5003 53.295 94.8136L53.2942 94.8128C51.6401 93.1349 50.222 90.1522 49.0674 86.5591C47.9065 82.9465 46.9905 78.6467 46.3776 74.2686C45.7646 69.8897 45.4531 65.4197 45.5059 61.4645C45.5587 57.5216 45.9738 54.0453 46.8408 51.6797Z" fill="white" stroke="#1C1C26"/>
<path d="M73.1175 69.3666C73.1175 69.2966 72.9776 69.4666 72.9876 69.5466C73.2476 71.3666 73.2276 73.5466 71.6376 74.2866C71.5876 74.2866 71.6376 74.4066 71.6376 74.3866C73.6576 73.8466 73.6475 71.0166 73.1175 69.3666Z" fill="#263238"/>
<path d="M71.2776 67.5965C68.2776 67.6865 68.7076 73.5965 71.4576 73.5265C74.2076 73.4565 73.7576 67.5165 71.2776 67.5965Z" fill="#263238"/>
<path d="M83.4274 68.5968C83.4274 68.5268 83.5774 68.6768 83.5774 68.7468C83.6474 70.5868 84.0374 72.6868 85.7374 73.1868C85.7874 73.1868 85.7874 73.2868 85.7374 73.2868C83.6874 73.1368 83.1974 70.3668 83.4274 68.5968Z" fill="#263238"/>
<path d="M84.9375 66.5668C87.8775 66.1368 88.5075 72.0468 85.7875 72.4468C83.0675 72.8468 82.4775 66.9268 84.9375 66.5668Z" fill="#263238"/>
<path d="M68.7473 65.0469C69.511 64.7532 70.2587 64.4194 70.9873 64.0469C71.8256 63.8199 72.5644 63.3203 73.0873 62.6269C73.2093 62.3779 73.2451 62.0954 73.189 61.8239C73.1329 61.5523 72.988 61.3071 72.7773 61.1269C72.3104 60.8276 71.7716 60.6594 71.2174 60.6401C70.6632 60.6207 70.1139 60.7509 69.6273 61.0169C68.5543 61.4008 67.6629 62.1709 67.1273 63.1769C67.0093 63.4137 66.964 63.6802 66.9972 63.9427C67.0304 64.2052 67.1405 64.4521 67.3138 64.6521C67.4871 64.8521 67.7156 64.9963 67.9707 65.0665C68.2259 65.1368 68.4961 65.13 68.7473 65.0469Z" fill="#263238"/>
<path d="M87.0274 63.4266C86.2203 63.3171 85.4193 63.1669 84.6274 62.9766C83.7607 62.9308 82.9324 62.6044 82.2674 62.0466C82.0979 61.8276 82.006 61.5585 82.006 61.2816C82.006 61.0047 82.0979 60.7356 82.2674 60.5166C82.6599 60.1226 83.1505 59.8407 83.6885 59.7001C84.2265 59.5594 84.7924 59.5651 85.3274 59.7166C86.4544 59.8581 87.4882 60.4143 88.2274 61.2766C88.3872 61.4842 88.4826 61.7342 88.5018 61.9955C88.521 62.2568 88.4632 62.518 88.3355 62.7468C88.2078 62.9756 88.0158 63.1619 87.7833 63.2827C87.5508 63.4035 87.288 63.4535 87.0274 63.4266Z" fill="#263238"/>
<path d="M72.3174 86.1565C72.7774 86.5565 73.2574 87.1565 73.9274 87.1565C74.6128 87.098 75.2776 86.8934 75.8774 86.5565C75.9274 86.5565 75.9974 86.5565 75.9574 86.6465C75.7203 87.0257 75.385 87.3337 74.9872 87.5379C74.5893 87.7421 74.1437 87.8349 73.6974 87.8065C73.317 87.7303 72.9669 87.5451 72.69 87.2734C72.413 87.0018 72.221 86.6554 72.1374 86.2765C72.1074 86.1465 72.2474 86.0965 72.3174 86.1565Z" fill="#263238"/>
<path d="M73.8675 80.5265C74.383 81.22 75.0366 81.7992 75.787 82.2278C76.5373 82.6563 77.3683 82.9249 78.2275 83.0165C78.9793 83.1098 79.7407 83.093 80.4875 82.9665C80.6334 82.9562 80.7777 82.9294 80.9175 82.8865L81.3175 82.7965C81.4128 82.7708 81.4974 82.7151 81.5586 82.6377C81.6198 82.5603 81.6545 82.4652 81.6575 82.3665C81.6671 82.3069 81.6671 82.2461 81.6575 82.1865V82.0065C81.5975 80.5965 81.3175 78.4465 81.3175 78.4465C81.8475 78.6765 84.5675 79.6765 84.4675 78.9465C83.6875 72.8565 82.8175 66.0765 80.7475 60.1865C80.7339 60.1474 80.7066 60.1146 80.6705 60.0942C80.6344 60.0739 80.5922 60.0674 80.5517 60.076C80.5112 60.0846 80.4752 60.1076 80.4505 60.1409C80.4258 60.1741 80.4141 60.2152 80.4175 60.2565C80.9375 66.1365 82.4975 71.8865 83.1075 77.7865C82.1456 77.4146 81.1353 77.1822 80.1075 77.0965C79.9075 77.1665 80.7275 81.2265 80.7075 81.8665C80.7095 81.8898 80.7095 81.9132 80.7075 81.9365C78.3575 82.3965 76.5175 81.8065 74.0975 80.3665C73.8875 80.2465 73.7475 80.3665 73.8675 80.5265Z" fill="#263238"/>
<path d="M48.3377 73.4566C53.0977 73.9666 55.5477 68.7066 57.3377 61.2966C58.3377 56.9766 57.3877 48.2966 57.3877 48.2966C57.3877 48.2966 69.4877 54.2366 76.3877 53.7566C83.2877 53.2766 89.3877 47.4266 89.1277 41.9866C88.9377 37.3266 81.1977 31.1266 70.8677 30.4966C63.6777 30.0566 51.3877 35.6166 45.8677 43.2666C45.8677 43.2666 36.7177 47.4366 37.9377 54.2666C39.1577 61.0966 42.9177 72.8766 48.3377 73.4566Z" fill="#E6007A"/>
<path d="M48.6877 72.9167C54.9477 74.3667 58.4477 64.9167 58.6877 60.0267C58.9377 54.9067 57.0677 49.6767 56.2677 44.6567C58.2677 50.7667 60.4477 58.4867 58.2677 64.8067C56.8977 68.8067 53.8377 75.3267 48.5577 73.2667C48.4177 73.1867 48.4777 72.8667 48.6877 72.9167Z" fill="#263238"/>
<path d="M36.6176 52.2269C37.6176 48.0169 42.4676 43.9469 46.5276 43.0269C46.5276 43.0269 46.5776 43.0869 46.5276 43.0969C41.6676 44.7669 35.9776 50.2368 37.3776 55.6768C38.4876 60.0168 40.4676 65.7568 43.3776 69.2368C43.4476 69.3268 43.3176 69.4268 43.2376 69.3468C40.9576 66.9968 39.9976 63.9469 38.8376 60.9369C37.8276 58.3669 35.9576 55.1369 36.6176 52.2269Z" fill="#263238"/>
<path d="M44.9575 43.8967C50.7875 35.8367 63.2475 26.7867 73.6875 29.4867C62.5775 27.5767 52.3675 36.8667 45.3275 44.1967C45.1175 44.4567 44.7875 44.1267 44.9575 43.8967Z" fill="#263238"/>
<path d="M52.9973 73.8165C52.9973 73.8165 47.2274 64.9065 43.2074 66.9365C39.1874 68.9665 43.3073 81.7265 47.8773 83.6065C48.4468 83.8892 49.0676 84.0536 49.7023 84.09C50.337 84.1263 50.9726 84.0338 51.5706 83.8179C52.1686 83.6021 52.7167 83.2674 53.1819 82.8341C53.6471 82.4008 54.0197 81.8777 54.2773 81.2965L52.9973 73.8165Z" fill="white"/>
<path d="M52.9973 73.8165C52.9973 73.8165 47.2274 64.9065 43.2074 66.9365C39.1874 68.9665 43.3073 81.7265 47.8773 83.6065C48.4468 83.8892 49.0676 84.0536 49.7023 84.09C50.337 84.1263 50.9726 84.0338 51.5706 83.8179C52.1686 83.6021 52.7167 83.2674 53.1819 82.8341C53.6471 82.4008 54.0197 81.8777 54.2773 81.2965" stroke="#1C1C26"/>
<path d="M44.4773 70.5669C44.4073 70.5669 44.3873 70.6569 44.4773 70.6869C47.6773 72.1169 49.2773 75.1869 50.3673 78.3469C49.4473 77.1169 48.1573 76.4069 46.5073 77.5069C46.4173 77.5569 46.5073 77.6969 46.5873 77.6769C47.1647 77.5152 47.7781 77.5371 48.3425 77.7396C48.9069 77.942 49.3944 78.315 49.7373 78.8069C50.311 79.6272 50.7907 80.5094 51.1673 81.4369C51.3173 81.7269 51.8473 81.5969 51.7473 81.2569V81.1769C51.9173 77.0469 48.9073 71.1369 44.4773 70.5669Z" fill="#263238"/>
<path d="M-22.9126 252.417C-22.6526 252.747 97.6374 260.157 98.8074 258.987C100.437 257.337 89.8075 137.527 67.7275 113.617C62.2875 107.737 43.4674 101.007 37.4374 104.957C21.8174 115.177 12.6474 137.617 6.71745 150.667C2.32745 160.347 -3.20255 176.927 -8.28255 193.957C-16.6426 222.017 -23.8326 251.227 -22.9126 252.417Z" fill="#E6007A"/>
<g opacity="0.1">
<path d="M-18.1625 229.627L97.4575 235.957C97.3275 234.607 97.1875 233.207 97.0275 231.767L-17.0925 225.507C-17.4625 226.917 -17.8125 228.297 -18.1625 229.627Z" fill="black"/>
</g>
<path d="M52.8775 134.767C64.1775 164.297 87.8775 218.417 109.448 224.907C132.278 231.787 165.308 214.577 180.208 209.717C186.528 207.657 166.427 163.997 159.337 164.507C152.247 165.017 128.497 177.507 123.217 176.907C117.937 176.307 92.1075 140.397 73.1275 120.277C50.8375 96.6369 43.6875 110.777 52.8775 134.767Z" fill="white"/>
<path d="M221.07 143.527L221.07 143.527C221.725 145.125 221.165 146.614 220.111 147.868C219.065 149.113 217.476 150.206 215.862 151.104C214.24 152.006 212.552 152.733 211.274 153.233C211.044 153.323 210.827 153.406 210.625 153.481C212.591 154.179 214.338 155.407 215.666 157.042L215.674 157.051L215.681 157.062C217.168 159.095 216.608 161.661 215.803 163.574C215.393 164.55 214.899 165.405 214.509 166.015C214.392 166.197 214.284 166.358 214.19 166.495C216.502 167.611 218.462 169.348 219.849 171.518L219.854 171.525L219.858 171.533C221.066 173.583 220.616 176.306 219.957 178.39C219.62 179.453 219.215 180.394 218.895 181.069C218.734 181.407 218.595 181.679 218.494 181.868C218.493 181.869 218.493 181.871 218.492 181.873C220.169 184.143 221.014 186.925 220.877 189.751L220.876 189.761L220.875 189.772C220.516 193.744 217.619 197.035 214.122 199.716C210.798 202.264 206.827 204.339 203.69 205.978C203.514 206.07 203.34 206.16 203.169 206.25C201.503 207.122 198.622 208.031 195.223 208.919C191.81 209.81 187.826 210.693 183.924 211.502C180.356 212.242 176.85 212.922 173.905 213.493C173.629 213.547 173.357 213.599 173.092 213.651C169.978 214.255 167.62 214.719 166.629 214.983L166.214 215.094L166.042 214.701L146.542 170.201L146.388 169.848L146.689 169.609L147 170C146.689 169.609 146.689 169.609 146.689 169.608L146.69 169.608L146.694 169.605L146.708 169.593L146.766 169.547L146.991 169.369C147.188 169.213 147.479 168.984 147.851 168.691C148.596 168.106 149.669 167.266 150.982 166.25C153.609 164.217 157.196 161.477 161.04 158.646C164.883 155.815 168.986 152.892 172.644 150.494C176.286 148.106 179.531 146.208 181.641 145.465L181.644 145.464C185.138 144.253 194.01 141.601 202.451 140.298C206.668 139.647 210.811 139.326 214.132 139.705C217.414 140.08 220.1 141.164 221.07 143.527Z" fill="white" stroke="#1C1C26"/>
<path d="M208.788 153.437C200.788 154.247 193.068 156.977 185.618 159.687C185.601 159.693 185.586 159.703 185.574 159.715C185.561 159.728 185.551 159.742 185.544 159.759C185.537 159.775 185.533 159.792 185.533 159.81C185.533 159.828 185.536 159.845 185.543 159.862C185.549 159.878 185.559 159.893 185.571 159.906C185.584 159.918 185.598 159.928 185.615 159.935C185.631 159.942 185.648 159.946 185.666 159.946C185.684 159.946 185.701 159.943 185.718 159.937C193.098 157.157 201.398 156.287 208.868 153.807C208.913 153.792 208.952 153.762 208.976 153.721C208.999 153.68 209.007 153.631 208.997 153.585C208.987 153.538 208.96 153.497 208.921 153.47C208.882 153.443 208.835 153.431 208.788 153.437Z" fill="#263238"/>
<path d="M213.008 166.217C211.218 166.58 209.483 167.175 207.848 167.987C206.058 168.737 204.298 169.517 202.538 170.327C199.018 171.947 195.541 173.654 192.108 175.447C191.958 175.527 192.048 175.787 192.208 175.707C195.718 174.097 199.208 172.547 202.818 171.087C204.608 170.357 206.408 169.637 208.198 168.937C209.944 168.39 211.621 167.645 213.198 166.717C213.245 166.68 213.279 166.629 213.295 166.572C213.311 166.514 213.308 166.453 213.287 166.397C213.266 166.341 213.227 166.293 213.177 166.261C213.127 166.229 213.067 166.213 213.008 166.217Z" fill="#263238"/>
<path d="M217.768 181.977C216.198 182.127 214.608 183.137 213.208 183.817C211.618 184.587 210.028 185.357 208.438 186.107C205.248 187.617 202.058 189.107 198.808 190.517C198.648 190.587 198.748 190.837 198.908 190.767C202.208 189.367 205.528 188.017 208.818 186.587L213.648 184.457C215.008 183.837 216.788 183.227 217.848 182.137C217.908 182.077 217.848 181.977 217.768 181.977Z" fill="#263238"/>
<path d="M148.458 166.437L169.268 220.627C169.268 220.627 122.418 237.227 101.708 224.037C80.9976 210.847 56.6576 154.897 49.9876 130.327C43.3176 105.757 54.9876 99.3266 72.6376 118.397C90.2876 137.467 121.018 173.567 122.348 174.397C123.678 175.227 148.458 166.437 148.458 166.437Z" fill="#E6007A"/>
<g opacity="0.1">
<path d="M133.237 171.637L152.657 225.367C156.107 224.557 159.197 223.727 161.757 222.997L142.117 168.677C139.447 169.577 136.267 170.657 133.237 171.637Z" fill="black"/>
<path d="M123.897 174.367L143.048 227.367C144.458 227.117 145.848 226.857 147.208 226.587L127.958 173.327C126.308 173.757 124.897 174.137 123.897 174.367Z" fill="black"/>
</g>
<path d="M152.658 195.807C151.178 191.947 149.658 188.137 148.048 184.317C147.298 182.477 146.557 180.637 145.747 178.827C144.937 177.017 144.138 174.827 143.128 172.937C143.117 172.909 143.096 172.886 143.068 172.874C143.041 172.862 143.01 172.861 142.983 172.872C142.955 172.882 142.932 172.903 142.92 172.931C142.908 172.958 142.907 172.989 142.918 173.017C143.428 175.087 144.268 177.107 144.918 179.137C145.568 181.167 146.218 182.887 146.918 184.747C148.328 188.627 149.727 192.507 151.217 196.347C154.217 204.057 157.408 211.657 160.708 219.227C160.728 219.256 160.757 219.277 160.791 219.288C160.825 219.298 160.862 219.297 160.895 219.284C160.929 219.272 160.957 219.248 160.975 219.218C160.994 219.188 161.002 219.152 160.997 219.117C158.337 211.297 155.608 203.517 152.658 195.807Z" fill="#263238"/>
<path d="M95.6074 218.997C88.9474 211.137 79.4274 200.627 60.0174 155.887C57.0974 149.147 54.6974 142.197 52.0174 135.357C52.0174 135.297 51.8874 135.357 51.8974 135.357C52.9874 139.637 54.2674 143.867 55.6874 148.037L55.2474 147.227C54.3174 145.587 53.3174 143.977 52.3374 142.377C52.2774 142.277 52.1174 142.377 52.1674 142.477C53.0174 144.197 53.8474 145.937 54.7674 147.627C55.3574 148.707 55.8674 149.527 56.4974 150.567C57.1374 152.377 57.9974 154.277 58.7774 156.187C79.9374 207.937 94.5474 218.187 95.3374 219.077C95.4474 219.267 95.7274 219.147 95.6074 218.997Z" fill="#263238"/>
</g>
<defs>
<linearGradient id="paint0_linear_2817_21706" x1="244.177" y1="234" x2="353.017" y2="-21.576" gradientUnits="userSpaceOnUse">
<stop stop-opacity="0.88"/>
<stop offset="1" stop-opacity="0"/>
</linearGradient>
</defs>
</svg>
