<svg width="463" height="607" viewBox="0 0 463 607" fill="none" xmlns="http://www.w3.org/2000/svg">
<mask id="mask0_1074_6972" style="mask-type:alpha" maskUnits="userSpaceOnUse" x="0" y="0" width="463" height="607">
<path d="M0 26C0 11.6406 11.6406 0 26 0H437C451.359 0 463 11.6406 463 26V581C463 595.359 451.359 607 437 607H26C11.6406 607 0 595.359 0 581V26Z" fill="#8BA1BE"/>
</mask>
<g mask="url(#mask0_1074_6972)">
<path opacity="0.4" d="M34.4662 367.756C59.5912 337.741 93.5454 314.613 134.014 315.005C203.08 315.864 240.413 376.996 280.023 424.147C300.556 448.6 323.87 472.195 354.371 483.693C400.123 500.922 451.082 490.861 495.657 474.864C515.63 467.696 539.281 457.616 561.774 462.768C630.149 478.411 623.037 561.85 611.744 614.694C596.493 686.075 571.704 761.972 521.473 816.739C401.205 947.946 184.768 867.512 76.279 762.812C68.3084 755.103 60.6739 747.076 53.4873 738.546C34.8174 716.779 19.015 692.708 6.46658 666.923C-28.4769 594.217 -33.2929 505.85 -2.86662 430.718C6.26991 407.938 18.8619 386.701 34.4662 367.756V367.756Z" fill="white"/>
<path d="M39 606.955L107.354 516.789C107.354 516.789 140.138 515.189 161.138 515.765C182.594 516.353 215.947 519.875 215.947 519.875L233.875 606.955H39Z" fill="url(#paint0_linear_1074_6972)"/>
<path opacity="0.21" d="M39 607L107.354 516.79H122.208L80.2603 607H39Z" fill="#1C1C26"/>
<path d="M167.797 538.828C127.843 533.706 107.354 516.789 107.354 516.789C107.354 516.789 139.809 515.104 160.816 515.31C181.635 515.515 215.434 519.363 215.434 519.363C215.434 519.363 195.233 542.345 167.797 538.828Z" fill="white"/>
<path d="M260.964 335.971C261.228 338.759 259.94 344.166 259.94 344.166C230.284 373.933 219.986 394.083 186.691 421.001C160.242 442.384 146.929 457.601 123.174 481.444C123.174 481.444 119.076 484.518 115.49 480.932C111.718 477.16 114.466 473.249 114.466 473.249C114.466 473.249 151.073 443.604 170.811 421.001C186.672 402.838 210.88 389.032 226.132 361.07C235.353 344.166 258.403 329.312 258.403 329.312C258.403 329.312 260.676 332.924 260.964 335.971Z" fill="#333333"/>
<path d="M260.964 335.971C261.228 338.759 259.94 344.166 259.94 344.166C230.284 373.933 219.986 394.083 186.691 421.001C160.242 442.384 146.929 457.601 123.174 481.444C123.174 481.444 119.076 484.518 115.49 480.932C111.718 477.16 114.466 473.249 114.466 473.249C114.466 473.249 151.073 443.604 170.811 421.001C186.672 402.838 210.88 389.032 226.132 361.07C235.353 344.166 258.403 329.312 258.403 329.312C258.403 329.312 260.676 332.924 260.964 335.971Z" fill="url(#paint1_linear_1074_6972)"/>
<path opacity="0.4" d="M139.624 451.735L135.014 455.833L143.209 460.956L149.868 454.297L139.624 451.735Z" fill="black"/>
<mask id="mask1_1074_6972" style="mask-type:alpha" maskUnits="userSpaceOnUse" x="113" y="329" width="148" height="154">
<path d="M260.964 335.971C261.228 338.759 259.94 344.166 259.94 344.166C230.284 373.933 219.986 394.083 186.691 421.001C160.242 442.384 146.929 457.601 123.174 481.444C123.174 481.444 119.076 484.518 115.49 480.932C111.718 477.16 114.466 473.249 114.466 473.249C114.466 473.249 151.073 443.604 170.811 421.001C186.672 402.838 210.88 389.032 226.133 361.07C235.353 344.166 258.403 329.312 258.403 329.312C258.403 329.312 260.676 332.924 260.964 335.971Z" fill="url(#paint2_linear_1074_6972)"/>
</mask>
<g mask="url(#mask1_1074_6972)">
<path d="M263.071 346.157C255.228 343.079 238.618 341.378 234.92 359.198C230.297 381.473 236.697 393.904 226.337 405.454C215.977 417.004 191.371 397.965 179.571 426.407C170.13 449.161 171.164 468.595 172.861 475.468L204.479 473.849" stroke="#E6007A"/>
<path d="M215.944 376.95C214.92 378.657 212.974 383.609 213.383 389.755C213.793 395.902 210.481 400.512 208.773 402.049L220.555 410.757" stroke="#E6007A"/>
<path d="M148.843 436.881C149.867 438.588 151.814 443.54 151.404 449.687C150.994 455.833 154.306 460.444 156.014 461.98L144.232 470.688" stroke="#E6007A"/>
</g>
<path opacity="0.23" d="M131.428 523.391L150.38 528.058L178.553 524.984L186.236 516.789C186.236 516.789 140.3 515.334 117.591 516.358L131.428 523.391Z" fill="#1C1C26"/>
<path d="M152.942 488.104C135.731 479.498 140.99 465.395 145.771 459.419L144.564 458.212C140.691 454.339 134.423 454.302 130.505 458.129L115.549 472.737C115.549 472.737 112.42 471.694 109.914 469.663C106.71 467.067 105.305 459.419 105.305 459.419C105.305 459.419 103.533 466.705 104.792 470.688C106.127 474.91 110.427 480.42 110.427 480.42L154.479 524.985H178.554L211.336 490.665C206.043 492.714 183.164 496.812 183.164 496.812C183.164 496.812 174.456 498.861 152.942 488.104Z" fill="url(#paint3_linear_1074_6972)"/>
<mask id="mask2_1074_6972" style="mask-type:alpha" maskUnits="userSpaceOnUse" x="104" y="455" width="108" height="70">
<path d="M152.882 488.104C135.671 479.498 140.93 465.395 145.711 459.419L144.504 458.212C140.631 454.339 134.363 454.302 130.445 458.129L115.489 472.737C115.489 472.737 112.36 471.694 109.854 469.663C106.65 467.067 105.245 459.419 105.245 459.419C105.245 459.419 103.473 466.705 104.732 470.688C106.067 474.91 110.367 480.42 110.367 480.42L154.419 524.985H178.494L211.276 490.665C205.983 492.714 183.104 496.812 183.104 496.812C183.104 496.812 174.396 498.861 152.882 488.104Z" fill="url(#paint4_linear_1074_6972)"/>
</mask>
<g mask="url(#mask2_1074_6972)">
<path d="M150.191 465.682C150.191 473.157 142.863 472.026 135.388 472.026C127.914 472.026 113.396 473.157 113.396 465.682C113.396 458.208 129.182 452.148 136.657 452.148C144.132 452.148 150.191 458.208 150.191 465.682Z" fill="white"/>
<path d="M139.91 463.227L139.073 462.391L136.252 462.355L135.436 463.17L139.91 463.227Z" fill="#1C1C26"/>
<path d="M135.508 468.883L136.314 468.077L136.289 465.315L139.042 465.35L139.866 464.525L135.453 464.479L135.508 468.883Z" fill="#1C1C26"/>
<path d="M129.671 464.405L130.508 465.241L133.33 465.277L134.145 464.462L129.671 464.405Z" fill="#1C1C26"/>
<path d="M134.072 458.75L133.267 459.555L133.292 462.318L130.539 462.283L129.715 463.107L134.128 463.154L134.072 458.75Z" fill="#1C1C26"/>
<path d="M135.179 464.193C135.389 463.983 135.385 463.638 135.169 463.423C134.954 463.208 134.609 463.203 134.399 463.413C134.189 463.623 134.194 463.968 134.409 464.183C134.624 464.399 134.969 464.403 135.179 464.193Z" fill="#E6007A"/>
<path d="M205.799 480.389L214.921 489.23L169.276 536.874L160.561 526.6L205.799 480.389Z" fill="white"/>
<path d="M200.917 480.275L201.605 481.035L155.958 528.677L156.139 526.928L200.917 480.275Z" fill="white"/>
</g>
<path d="M129.38 497.997L130.917 496.973L146.284 512.34L144.235 513.364L129.38 497.997Z" fill="white"/>
</g>
<defs>
<linearGradient id="paint0_linear_1074_6972" x1="37.6902" y1="596.418" x2="162.233" y2="389.442" gradientUnits="userSpaceOnUse">
<stop offset="0.104167" stop-color="#E6007A"/>
<stop offset="0.963542" stop-color="white"/>
</linearGradient>
<linearGradient id="paint1_linear_1074_6972" x1="153.443" y1="502.948" x2="305.449" y2="426.188" gradientUnits="userSpaceOnUse">
<stop stop-color="#1C1C26"/>
<stop offset="1" stop-color="#2F313B"/>
</linearGradient>
<linearGradient id="paint2_linear_1074_6972" x1="153.443" y1="502.948" x2="305.449" y2="426.188" gradientUnits="userSpaceOnUse">
<stop stop-color="#1C1C26"/>
<stop offset="1" stop-color="#2F313B"/>
</linearGradient>
<linearGradient id="paint3_linear_1074_6972" x1="104.34" y1="516.474" x2="217.451" y2="389.556" gradientUnits="userSpaceOnUse">
<stop offset="0.104167" stop-color="#E6007A"/>
<stop offset="0.963542" stop-color="white"/>
</linearGradient>
<linearGradient id="paint4_linear_1074_6972" x1="104.28" y1="516.474" x2="217.391" y2="389.556" gradientUnits="userSpaceOnUse">
<stop offset="0.104167" stop-color="#E6007A"/>
<stop offset="0.963542" stop-color="white"/>
</linearGradient>
</defs>
</svg>
