<svg width="463" height="607" viewBox="0 0 463 607" fill="none" xmlns="http://www.w3.org/2000/svg">
<mask id="mask0_1074_6974" style="mask-type:alpha" maskUnits="userSpaceOnUse" x="0" y="0" width="463" height="607">
<path d="M0 26C0 11.6406 11.6406 0 26 0H437C451.359 0 463 11.6406 463 26V581C463 595.359 451.359 607 437 607H26C11.6406 607 0 595.359 0 581V26Z" fill="#8BA1BE"/>
</mask>
<g mask="url(#mask0_1074_6974)">
<mask id="mask1_1074_6974" style="mask-type:alpha" maskUnits="userSpaceOnUse" x="0" y="0" width="463" height="607">
<path d="M0 26C0 11.6406 11.6406 0 26 0H437C451.359 0 463 11.6406 463 26V581C463 595.359 451.359 607 437 607H26C11.6406 607 0 595.359 0 581V26Z" fill="#8BA1BE"/>
</mask>
<g mask="url(#mask1_1074_6974)">
<path opacity="0.7" d="M394.921 920.889C365.015 946.145 327.594 963.098 287.794 955.763C219.901 943.057 193.621 876.421 162.696 823.169C146.667 795.553 127.75 768.305 99.6771 751.74C57.5639 726.91 5.63384 728.071 -41.0265 736.176C-61.9337 739.808 -86.9637 745.677 -108.238 736.739C-172.911 709.587 -151.577 628.609 -131.377 578.489C-104.095 510.788 -66.6414 440.274 -7.75145 394.946C133.261 286.341 332.671 402.747 421.569 524.521C428.097 533.485 434.24 542.703 439.855 552.341C454.51 576.991 465.944 603.417 473.878 630.975C495.818 708.601 485.388 796.482 442.512 865.274C429.599 886.146 413.547 904.905 394.921 920.889Z" fill="white"/>
<path d="M35.2254 654.506C106.618 654.506 164.494 630.779 164.494 601.51C164.494 572.241 106.618 548.514 35.2254 548.514C-36.1674 548.514 -94.0427 572.241 -94.0427 601.51C-94.0427 630.779 -36.1674 654.506 35.2254 654.506Z" fill="#D0D0D0"/>
<path d="M35.2254 654.506C106.618 654.506 164.494 630.779 164.494 601.51C164.494 572.241 106.618 548.514 35.2254 548.514C-36.1674 548.514 -94.0427 572.241 -94.0427 601.51C-94.0427 630.779 -36.1674 654.506 35.2254 654.506Z" fill="#D0D0D0"/>
<path opacity="0.9" d="M35.2254 654.506C106.618 654.506 164.494 630.779 164.494 601.51C164.494 572.241 106.618 548.514 35.2254 548.514C-36.1674 548.514 -94.0427 572.241 -94.0427 601.51C-94.0427 630.779 -36.1674 654.506 35.2254 654.506Z" fill="white"/>
<path d="M-96.4179 574.124C-96.0166 559.163 -89.7914 544.949 -79.0676 534.509C-68.3438 524.069 -53.9685 518.228 -39.0021 518.228C-24.0357 518.228 -9.66041 524.069 1.06338 534.509C11.7872 544.949 18.0124 559.163 18.4137 574.124C18.4137 574.682 18.4137 575.177 18.4137 575.735C18.4137 576.293 18.4137 576.788 18.4137 577.325C17.7528 585.277 12.2178 593.084 1.60202 599.197C-20.8067 612.146 -57.2182 612.146 -79.6682 599.197C-90.16 593.001 -95.7777 585.277 -96.4179 577.325C-96.4179 576.788 -96.4179 576.293 -96.4179 575.735C-96.4179 575.177 -96.4592 574.682 -96.4179 574.124Z" fill="#D0D0D0"/>
<path opacity="0.8" d="M-96.4179 574.124C-96.0166 559.163 -89.7914 544.949 -79.0676 534.509C-68.3438 524.069 -53.9685 518.228 -39.0021 518.228C-24.0357 518.228 -9.66041 524.069 1.06338 534.509C11.7872 544.949 18.0124 559.163 18.4137 574.124C18.4137 574.682 18.4137 575.177 18.4137 575.735C18.4137 576.293 18.4137 576.788 18.4137 577.325C17.7528 585.277 12.2178 593.084 1.60202 599.197C-20.8067 612.146 -57.2182 612.146 -79.6682 599.197C-90.16 593.001 -95.7777 585.277 -96.4179 577.325C-96.4179 576.788 -96.4179 576.293 -96.4179 575.735C-96.4179 575.177 -96.4592 574.682 -96.4179 574.124Z" fill="white"/>
<g style="mix-blend-mode:lighten" opacity="0.3">
<path d="M-63.9709 523.998C-55.3397 519.827 -45.8013 517.885 -36.2265 518.348C-26.6517 518.812 -17.3455 521.666 -9.15725 526.65C-0.969021 531.635 5.8404 538.591 10.6494 546.883C15.4584 555.175 18.1138 564.54 18.3733 574.123C18.3733 574.68 18.3733 575.176 18.3733 575.734C18.3733 576.291 18.3733 576.787 18.3733 577.324C17.7124 585.275 12.1773 593.082 1.5616 599.196C-7.35114 604.072 -17.145 607.126 -27.2496 608.18C-12.3586 605.598 -2.71359 588.972 -7.2986 570.612C-12.5652 549.298 -34.1064 518.504 -63.9709 523.998Z" fill="white"/>
</g>
<path opacity="0.1" d="M-96.4172 577.325C-96.4172 576.788 -96.4172 576.292 -96.4172 575.735C-96.4172 575.177 -96.4172 574.681 -96.4172 574.124C-96.2066 566.237 -94.3657 558.478 -91.0103 551.338C-87.6549 544.197 -82.8577 537.828 -76.9206 532.631C-83.1166 539.054 -97.0368 563.219 -81.96 581.662C-72.0465 593.786 -24.9573 611.072 13.788 588.849C10.454 593.068 6.31126 596.579 1.60268 599.176C-20.806 612.126 -57.2175 612.126 -79.6675 599.176C-90.1593 593.083 -95.777 585.276 -96.4172 577.325Z" fill="#D0D0D0"/>
<g style="mix-blend-mode:lighten" opacity="0.5">
<path d="M-5.15139 555.04C-6.49384 558.097 -4.55243 561.897 -0.81421 563.55C2.92401 565.202 7.03399 564.045 8.37644 560.989C9.7189 557.932 7.77749 554.132 4.03926 552.5C0.301042 550.869 -3.80893 552.087 -5.15139 555.04Z" fill="white"/>
</g>
<path d="M139.958 586.535C139.695 573.779 134.444 561.634 125.33 552.705C116.215 543.777 103.965 538.776 91.2063 538.776C78.4476 538.776 66.1971 543.777 57.083 552.705C47.9688 561.634 42.7172 573.779 42.4546 586.535C42.4546 587.01 42.4546 587.443 42.4546 587.898C42.4546 588.352 42.4546 588.786 42.4546 589.261C42.9916 596.014 47.7625 602.644 56.7259 607.849C75.7474 618.836 106.665 618.836 125.728 607.849C134.65 602.665 139.4 596.035 139.958 589.261C139.958 588.786 139.958 588.373 139.958 587.898C139.958 587.423 139.999 587.01 139.958 586.535Z" fill="#D0D0D0"/>
<path opacity="0.8" d="M139.958 586.535C139.695 573.779 134.444 561.634 125.33 552.705C116.215 543.777 103.965 538.776 91.2063 538.776C78.4476 538.776 66.1971 543.777 57.083 552.705C47.9688 561.634 42.7172 573.779 42.4546 586.535C42.4546 587.01 42.4546 587.443 42.4546 587.898C42.4546 588.352 42.4546 588.786 42.4546 589.261C42.9916 596.014 47.7625 602.644 56.7259 607.849C75.7474 618.836 106.665 618.836 125.728 607.849C134.65 602.665 139.4 596.035 139.958 589.261C139.958 588.786 139.958 588.373 139.958 587.898C139.958 587.423 139.999 587.01 139.958 586.535Z" fill="white"/>
<g style="mix-blend-mode:lighten" opacity="0.3">
<path d="M112.366 543.969C105.038 540.42 96.9368 538.765 88.8041 539.155C80.6713 539.545 72.7662 541.968 65.8118 546.203C58.8573 550.437 53.0755 556.347 48.9951 563.393C44.9147 570.439 42.666 578.396 42.4546 586.535C42.4546 587.01 42.4546 587.444 42.4546 587.898C42.4546 588.352 42.4546 588.786 42.4546 589.261C42.9916 596.015 47.7625 602.644 56.7259 607.849C64.2893 611.99 72.6026 614.581 81.1793 615.47C68.5395 613.301 60.3402 599.175 64.2436 583.561C68.746 565.448 87.0448 539.301 112.366 543.969Z" fill="white"/>
</g>
<path opacity="0.1" d="M139.958 589.262C139.958 588.787 139.958 588.374 139.958 587.899C139.958 587.424 139.958 587.011 139.958 586.536C139.787 579.84 138.231 573.252 135.388 567.188C132.544 561.124 128.474 555.715 123.435 551.302C128.722 556.754 140.515 577.283 127.71 592.939C119.284 603.265 79.2993 617.929 46.3782 599.135C49.2032 602.717 52.7137 605.701 56.7048 607.912C75.7263 618.9 106.644 618.9 125.707 607.912C134.65 602.646 139.4 596.016 139.958 589.262Z" fill="#D0D0D0"/>
<g style="mix-blend-mode:lighten" opacity="0.5">
<path d="M90.6997 550.022C92.8889 555 88.6343 561.65 81.3438 564.872C74.0532 568.094 66.2463 566.689 64.0571 561.712C61.8679 556.735 66.1224 550.105 73.4336 546.862C80.7449 543.62 88.5311 545.127 90.6997 550.022Z" fill="white"/>
</g>
<g style="mix-blend-mode:lighten" opacity="0.5">
<path d="M62.4456 570.344C63.2245 571.413 63.6534 572.697 63.6732 574.019C63.693 575.342 63.3028 576.638 62.5562 577.729C61.8097 578.821 60.7434 579.655 59.5039 580.116C58.2644 580.577 56.9125 580.643 55.6339 580.305C54.3554 579.966 53.213 579.241 52.3637 578.227C51.5144 577.213 50.9998 575.961 50.8907 574.643C50.7816 573.325 51.0834 572.006 51.7545 570.866C52.4256 569.727 53.4332 568.823 54.6387 568.279C55.9535 567.542 57.5033 567.346 58.9603 567.731C60.4174 568.117 61.6672 569.054 62.4456 570.344Z" fill="white"/>
</g>
<path d="M189.525 594.9C189.226 586.549 185.698 578.64 179.685 572.838C173.672 567.036 165.641 563.794 157.285 563.794C148.929 563.794 140.899 567.036 134.886 572.838C128.872 578.64 125.345 586.549 125.046 594.9C124.991 595.505 124.991 596.113 125.046 596.717C125.397 601.178 128.557 605.557 134.484 608.985C147.062 616.255 167.529 616.255 180.107 608.985C186.014 605.557 189.153 601.178 189.525 596.717C189.525 596.408 189.525 596.119 189.525 595.809C189.525 595.499 189.546 595.21 189.525 594.9Z" fill="#D0D0D0"/>
<path opacity="0.9" d="M189.525 594.9C189.226 586.549 185.698 578.64 179.685 572.838C173.672 567.036 165.641 563.794 157.285 563.794C148.929 563.794 140.899 567.036 134.886 572.838C128.872 578.64 125.345 586.549 125.046 594.9C124.991 595.505 124.991 596.113 125.046 596.717C125.397 601.178 128.557 605.557 134.484 608.985C147.062 616.255 167.529 616.255 180.107 608.985C186.014 605.557 189.153 601.178 189.525 596.717C189.525 596.408 189.525 596.119 189.525 595.809C189.525 595.499 189.546 595.21 189.525 594.9Z" fill="white"/>
<g style="mix-blend-mode:lighten" opacity="0.5">
<path d="M171.288 566.772C166.443 564.427 161.087 563.334 155.71 563.592C150.334 563.849 145.107 565.45 140.508 568.247C135.91 571.045 132.085 574.95 129.384 579.606C126.683 584.262 125.191 589.521 125.046 594.902C124.991 595.507 124.991 596.115 125.046 596.72C125.397 601.181 128.557 605.559 134.484 608.988C139.482 611.736 144.981 613.45 150.656 614.027C142.291 612.581 136.88 603.246 139.462 592.94C142.436 581.002 154.538 563.674 171.288 566.772Z" fill="white"/>
</g>
<path opacity="0.1" d="M189.525 596.719C189.525 596.409 189.525 596.12 189.525 595.811C189.525 595.501 189.525 595.212 189.525 594.902C189.408 590.473 188.375 586.117 186.491 582.107C184.608 578.097 181.913 574.522 178.579 571.605C182.09 575.199 189.876 588.788 181.408 599.136C175.832 605.951 149.396 615.658 127.71 603.266C129.592 605.633 131.922 607.605 134.567 609.07C147.145 616.34 167.612 616.34 180.19 609.07C185.931 605.559 189.153 601.18 189.525 596.719Z" fill="#D0D0D0"/>
<g style="mix-blend-mode:lighten" opacity="0.5">
<path d="M157.018 570.819C158.463 574.103 155.696 578.502 150.822 580.629C145.948 582.757 140.846 581.827 139.401 578.564C137.955 575.301 140.722 570.881 145.596 568.754C150.471 566.627 155.51 567.515 157.018 570.819Z" fill="white"/>
</g>
<g style="mix-blend-mode:lighten" opacity="0.5">
<path d="M138.263 584.203C138.467 585.157 138.335 586.152 137.89 587.02C137.445 587.888 136.714 588.576 135.82 588.967C134.926 589.358 133.925 589.428 132.985 589.166C132.045 588.904 131.225 588.325 130.663 587.528C130.444 587.029 130.326 586.492 130.316 585.947C130.305 585.403 130.402 584.861 130.6 584.354C130.799 583.847 131.095 583.384 131.473 582.991C131.85 582.598 132.301 582.284 132.8 582.066C133.299 581.847 133.837 581.729 134.381 581.719C134.926 581.708 135.467 581.804 135.975 582.003C136.482 582.201 136.945 582.498 137.338 582.875C137.73 583.253 138.045 583.704 138.263 584.203Z" fill="white"/>
</g>
<path d="M263.547 600.437C263.299 588.981 258.573 578.078 250.383 570.064C242.193 562.05 231.19 557.562 219.732 557.562C208.273 557.562 197.27 562.05 189.08 570.064C180.89 578.078 176.165 588.981 175.916 600.437C175.896 600.843 175.896 601.249 175.916 601.655C175.895 602.061 175.895 602.468 175.916 602.874C176.412 608.946 180.687 614.894 188.742 619.562C205.843 629.454 233.621 629.454 250.701 619.562C258.715 614.894 262.99 608.946 263.485 602.874C263.506 602.468 263.506 602.061 263.485 601.655C263.527 601.25 263.547 600.844 263.547 600.437Z" fill="#D0D0D0"/>
<path opacity="0.7" d="M263.547 600.437C263.299 588.981 258.573 578.078 250.383 570.064C242.193 562.05 231.19 557.562 219.732 557.562C208.273 557.562 197.27 562.05 189.08 570.064C180.89 578.078 176.165 588.981 175.916 600.437C175.896 600.843 175.896 601.249 175.916 601.655C175.895 602.061 175.895 602.468 175.916 602.874C176.412 608.946 180.687 614.894 188.742 619.562C205.843 629.454 233.621 629.454 250.701 619.562C258.715 614.894 262.99 608.946 263.485 602.874C263.506 602.468 263.506 602.061 263.485 601.655C263.527 601.25 263.547 600.844 263.547 600.437Z" fill="white"/>
<g style="mix-blend-mode:lighten" opacity="0.3">
<path d="M238.764 562.187C232.177 558.998 224.897 557.511 217.587 557.862C210.278 558.213 203.173 560.39 196.922 564.194C190.671 567.998 185.473 573.309 181.804 579.64C178.134 585.971 176.11 593.121 175.916 600.436C175.896 600.842 175.896 601.249 175.916 601.655C175.895 602.061 175.895 602.467 175.916 602.873C176.412 608.945 180.687 614.894 188.742 619.561C195.537 623.29 203.008 625.628 210.717 626.439C199.337 624.477 191.984 611.796 195.475 597.772C199.564 581.477 216.004 557.973 238.764 562.187Z" fill="white"/>
</g>
<path opacity="0.1" d="M263.548 602.873C263.568 602.467 263.568 602.061 263.548 601.655C263.568 601.249 263.568 600.842 263.548 600.436C263.388 594.415 261.985 588.492 259.426 583.04C256.867 577.588 253.207 572.724 248.677 568.754C253.428 573.67 264.023 592.113 252.519 606.178C244.939 615.43 209.023 628.628 179.448 611.672C181.982 614.901 185.144 617.584 188.742 619.561C205.843 629.454 233.621 629.454 250.701 619.561C258.777 614.893 263.052 608.945 263.548 602.873Z" fill="#D0D0D0"/>
<g style="mix-blend-mode:lighten" opacity="0.5">
<path d="M219.287 567.68C221.352 572.162 217.49 578.131 210.86 581.043C204.231 583.955 197.312 582.675 195.35 578.193C193.388 573.711 197.147 567.763 203.756 564.851C210.365 561.939 217.325 563.219 219.287 567.68Z" fill="white"/>
</g>
<g style="mix-blend-mode:lighten" opacity="0.5">
<path d="M193.905 585.876C194.172 587.169 193.987 588.515 193.381 589.688C192.774 590.861 191.784 591.791 190.574 592.321C189.364 592.85 188.009 592.949 186.736 592.599C185.462 592.249 184.348 591.472 183.578 590.399C183.311 589.106 183.496 587.76 184.102 586.587C184.709 585.413 185.7 584.484 186.909 583.954C188.119 583.425 189.474 583.326 190.748 583.676C192.021 584.026 193.136 584.802 193.905 585.876Z" fill="white"/>
</g>
<path d="M314.725 613.035C314.725 605.952 311.911 599.16 306.903 594.152C301.895 589.144 295.103 586.33 288.02 586.33C280.938 586.33 274.145 589.144 269.137 594.152C264.129 599.16 261.316 605.952 261.316 613.035C261.295 613.282 261.295 613.531 261.316 613.778C261.296 614.026 261.296 614.274 261.316 614.522C261.605 618.219 264.207 621.854 269.123 624.683C279.552 630.714 296.488 630.714 306.918 624.683C311.813 621.854 314.415 618.219 314.725 614.522C314.725 614.253 314.725 614.026 314.725 613.778C314.725 613.53 314.745 613.283 314.725 613.035Z" fill="#D0D0D0"/>
<path opacity="0.5" d="M314.725 613.035C314.725 605.952 311.911 599.16 306.903 594.152C301.895 589.144 295.103 586.33 288.02 586.33C280.938 586.33 274.145 589.144 269.137 594.152C264.129 599.16 261.316 605.952 261.316 613.035C261.295 613.282 261.295 613.531 261.316 613.778C261.296 614.026 261.296 614.274 261.316 614.522C261.605 618.219 264.207 621.854 269.123 624.683C279.552 630.714 296.488 630.714 306.918 624.683C311.813 621.854 314.415 618.219 314.725 614.522C314.725 614.253 314.725 614.026 314.725 613.778C314.725 613.53 314.745 613.283 314.725 613.035Z" fill="white"/>
<g style="mix-blend-mode:lighten" opacity="0.5">
<path d="M299.524 589.718C295.51 587.777 291.073 586.873 286.619 587.088C282.166 587.303 277.837 588.631 274.029 590.95C270.22 593.269 267.054 596.505 264.819 600.363C262.583 604.221 261.351 608.578 261.233 613.035C261.212 613.283 261.212 613.531 261.233 613.779C261.213 614.026 261.213 614.275 261.233 614.522C261.522 618.219 264.124 621.854 269.04 624.684C273.184 626.948 277.743 628.353 282.444 628.814C275.504 627.637 271.022 619.892 273.17 611.342C275.711 601.469 285.727 587.198 299.524 589.718Z" fill="white"/>
</g>
<path opacity="0.2" d="M314.724 614.521C314.724 614.252 314.724 614.025 314.724 613.777C314.724 613.53 314.724 613.282 314.724 613.034C314.626 609.364 313.77 605.754 312.21 602.431C310.65 599.107 308.419 596.143 305.658 593.723C308.549 596.697 315.014 607.953 307.991 616.442C303.386 622.08 281.473 630.135 263.463 619.788C265.007 621.756 266.931 623.393 269.122 624.6C279.552 630.63 296.488 630.63 306.917 624.6C311.916 621.853 314.415 618.177 314.724 614.521Z" fill="#D0D0D0"/>
<g style="mix-blend-mode:lighten" opacity="0.5">
<path d="M287.731 593.063C288.929 595.789 286.636 599.424 282.609 601.2C278.582 602.976 274.348 602.191 273.15 599.465C271.952 596.739 274.244 593.104 278.272 591.349C282.299 589.593 286.554 590.336 287.731 593.063Z" fill="white"/>
</g>
<g style="mix-blend-mode:lighten" opacity="0.5">
<path d="M272.261 604.154C272.507 604.951 272.428 605.813 272.041 606.552C271.655 607.291 270.991 607.847 270.196 608.099C269.664 608.207 269.112 608.162 268.605 607.97C268.097 607.777 267.655 607.445 267.328 607.011C267.002 606.577 266.806 606.059 266.762 605.518C266.718 604.977 266.828 604.435 267.08 603.954C267.331 603.473 267.714 603.073 268.184 602.801C268.654 602.529 269.191 602.396 269.734 602.417C270.276 602.438 270.801 602.612 271.249 602.919C271.696 603.227 272.047 603.655 272.261 604.154Z" fill="white"/>
</g>
<path d="M273.851 633.109C273.624 623.507 269.649 614.375 262.778 607.664C255.907 600.954 246.683 597.197 237.078 597.197C227.474 597.197 218.25 600.954 211.378 607.664C204.507 614.375 200.533 623.507 200.305 633.109C200.305 633.46 200.305 633.77 200.305 634.121C200.305 634.472 200.305 634.802 200.305 635.153C200.718 640.234 204.312 645.232 211.066 649.156C225.42 657.417 248.737 657.417 263.132 649.156C269.845 645.232 273.459 640.234 273.851 635.153C273.872 634.809 273.872 634.465 273.851 634.121C273.872 633.784 273.872 633.446 273.851 633.109Z" fill="#D0D0D0"/>
<path opacity="0.6" d="M273.851 633.109C273.624 623.507 269.649 614.375 262.778 607.664C255.907 600.954 246.683 597.197 237.078 597.197C227.474 597.197 218.25 600.954 211.378 607.664C204.507 614.375 200.533 623.507 200.305 633.109C200.305 633.46 200.305 633.77 200.305 634.121C200.305 634.472 200.305 634.802 200.305 635.153C200.718 640.234 204.312 645.232 211.066 649.156C225.42 657.417 248.737 657.417 263.132 649.156C269.845 645.232 273.459 640.234 273.851 635.153C273.872 634.809 273.872 634.465 273.851 634.121C273.872 633.784 273.872 633.446 273.851 633.109Z" fill="white"/>
<g style="mix-blend-mode:lighten" opacity="0.5">
<path d="M253.034 600.994C247.51 598.333 241.408 597.098 235.283 597.401C229.159 597.704 223.209 599.535 217.974 602.729C212.74 605.922 208.388 610.375 205.316 615.682C202.245 620.989 200.551 626.98 200.389 633.11C200.389 633.461 200.389 633.771 200.389 634.122C200.389 634.473 200.389 634.803 200.389 635.155C200.802 640.235 204.396 645.233 211.15 649.157C216.862 652.278 223.139 654.23 229.614 654.899C220.072 653.267 213.897 642.61 216.829 630.838C220.154 617.186 233.951 597.524 253.034 600.994Z" fill="white"/>
</g>
<path opacity="0.1" d="M273.852 635.153C273.872 634.809 273.872 634.465 273.852 634.121C273.872 633.784 273.872 633.446 273.852 633.109C273.722 628.052 272.544 623.077 270.393 618.498C268.243 613.919 265.165 609.836 261.356 606.507C265.363 610.638 274.244 626.107 264.599 637.921C258.238 645.686 228.084 656.757 203.259 642.527C205.394 645.234 208.048 647.488 211.066 649.156C225.42 657.417 248.737 657.417 263.133 649.156C269.845 645.232 273.439 640.234 273.852 635.153Z" fill="#D0D0D0"/>
<g style="mix-blend-mode:lighten" opacity="0.3">
<path d="M236.697 605.62C238.349 609.358 235.189 614.377 229.634 616.814C224.078 619.251 218.254 618.198 216.602 614.439C214.949 610.68 218.13 605.682 223.686 603.245C229.241 600.808 235.066 601.861 236.697 605.62Z" fill="white"/>
</g>
<path d="M208.279 646.183C207.922 634.315 202.957 623.053 194.436 614.784C185.915 606.516 174.509 601.892 162.636 601.892C150.763 601.892 139.356 606.516 130.836 614.784C122.315 623.053 117.349 634.315 116.992 646.183C116.992 646.616 116.992 647.009 116.992 647.442C116.992 647.876 116.992 648.289 116.992 648.723C117.509 655.043 121.97 661.239 130.355 666.092C148.158 676.419 177.114 676.419 194.958 666.092C203.219 661.239 207.763 655.043 208.279 648.723C208.279 648.289 208.279 647.876 208.279 647.442C208.279 647.009 208.32 646.616 208.279 646.183Z" fill="#D0D0D0"/>
<path opacity="0.8" d="M208.279 646.183C207.922 634.315 202.957 623.053 194.436 614.784C185.915 606.516 174.509 601.892 162.636 601.892C150.763 601.892 139.356 606.516 130.836 614.784C122.315 623.053 117.349 634.315 116.992 646.183C116.992 646.616 116.992 647.009 116.992 647.442C116.992 647.876 116.992 648.289 116.992 648.723C117.509 655.043 121.97 661.239 130.355 666.092C148.158 676.419 177.114 676.419 194.958 666.092C203.219 661.239 207.763 655.043 208.279 648.723C208.279 648.289 208.279 647.876 208.279 647.442C208.279 647.009 208.32 646.616 208.279 646.183Z" fill="white"/>
<g style="mix-blend-mode:lighten" opacity="0.3">
<path d="M182.442 606.323C175.58 603.009 167.997 601.466 160.386 601.835C152.774 602.205 145.376 604.475 138.868 608.439C132.359 612.403 126.948 617.934 123.126 624.527C119.305 631.121 117.196 638.566 116.992 646.184C116.992 646.617 116.992 647.01 116.992 647.444C116.992 647.877 116.992 648.29 116.992 648.724C117.509 655.044 121.97 661.24 130.355 666.093C137.44 669.972 145.226 672.401 153.259 673.239C141.425 671.174 133.763 657.977 137.398 643.375C141.631 626.439 158.753 601.945 182.442 606.323Z" fill="white"/>
</g>
<g style="mix-blend-mode:lighten" opacity="0.3">
<path d="M162.181 611.981C164.246 616.628 160.281 622.865 153.403 625.881C146.526 628.896 139.277 627.595 137.232 622.927C135.187 618.259 139.111 612.064 146.009 609.027C152.908 605.991 160.136 607.417 162.181 611.981Z" fill="white"/>
</g>
<path d="M337.319 619.292C337.319 615.014 335.62 610.911 332.595 607.886C329.57 604.861 325.467 603.162 321.189 603.162C316.911 603.162 312.809 604.861 309.784 607.886C306.759 610.911 305.059 615.014 305.059 619.292C305.048 619.443 305.048 619.595 305.059 619.747C305.049 619.891 305.049 620.036 305.059 620.18C305.275 621.52 305.817 622.787 306.638 623.867C307.46 624.948 308.535 625.81 309.768 626.376C313.298 628.172 317.201 629.113 321.161 629.124C325.122 629.135 329.029 628.215 332.569 626.438C333.803 625.872 334.878 625.01 335.699 623.929C336.52 622.849 337.063 621.582 337.278 620.242C337.288 620.098 337.288 619.953 337.278 619.809C337.306 619.638 337.32 619.465 337.319 619.292Z" fill="#D0D0D0"/>
<path opacity="0.2" d="M337.319 619.292C337.319 615.014 335.62 610.911 332.595 607.886C329.57 604.861 325.467 603.162 321.189 603.162C316.911 603.162 312.809 604.861 309.784 607.886C306.759 610.911 305.059 615.014 305.059 619.292C305.048 619.443 305.048 619.595 305.059 619.747C305.049 619.891 305.049 620.036 305.059 620.18C305.275 621.52 305.817 622.787 306.638 623.867C307.46 624.948 308.535 625.81 309.768 626.376C313.298 628.172 317.201 629.113 321.161 629.124C325.122 629.135 329.029 628.215 332.569 626.438C333.803 625.872 334.878 625.01 335.699 623.929C336.52 622.849 337.063 621.582 337.278 620.242C337.288 620.098 337.288 619.953 337.278 619.809C337.306 619.638 337.32 619.465 337.319 619.292Z" fill="white"/>
<g style="mix-blend-mode:lighten" opacity="0.5">
<path d="M328.191 605.206C325.766 604.031 323.085 603.482 320.394 603.611C317.703 603.74 315.086 604.542 312.785 605.943C310.484 607.344 308.57 609.301 307.221 611.633C305.871 613.965 305.128 616.598 305.059 619.292C305.048 619.443 305.048 619.595 305.059 619.746C305.049 619.891 305.049 620.035 305.059 620.18C305.275 621.52 305.817 622.786 306.638 623.867C307.46 624.948 308.535 625.809 309.768 626.376C312.274 627.741 315.026 628.598 317.864 628.896C313.733 628.173 310.966 623.505 312.267 618.342C313.754 612.311 319.806 603.719 328.191 605.206Z" fill="white"/>
</g>
<g style="mix-blend-mode:lighten" opacity="0.3">
<path d="M321.024 607.231C321.747 608.862 320.363 611.072 317.926 612.146C315.489 613.22 312.928 612.745 312.205 611.093C311.483 609.441 312.866 607.251 315.303 606.178C317.74 605.104 320.301 605.579 321.024 607.231Z" fill="white"/>
</g>
<path d="M39.4296 528.669C35.7956 532.297 32.9965 536.673 31.2273 541.493C29.4581 546.313 28.7615 551.461 29.1858 556.578C29.5076 559.921 29.0939 563.294 27.9739 566.459C26.8538 569.625 25.0544 572.508 22.7021 574.904L-17.9866 615.593C-19.5064 617.113 -20.0492 619.629 -19.1807 622.807C-18.6592 624.643 -17.8498 626.386 -16.7826 627.968C-14.9449 630.754 -12.5612 633.137 -9.77583 634.975C-8.19706 636.032 -6.46206 636.835 -4.63423 637.354C-1.50585 638.173 1.06003 637.679 2.57981 636.159L43.3869 595.352C45.772 593.032 48.6361 591.261 51.7781 590.165C54.9201 589.069 58.264 588.673 61.575 589.007C66.7483 589.454 71.9567 588.753 76.8274 586.953C81.6982 585.153 86.111 582.299 89.7502 578.595C96.3668 571.926 100.063 562.902 100.026 553.508C99.9892 544.113 96.2218 535.118 89.5528 528.502C82.8838 521.885 73.8595 518.189 64.4651 518.226C55.0707 518.263 46.0758 522.03 39.4592 528.699L39.4296 528.669Z" fill="#D0D0D0"/>
<path opacity="0.5" d="M39.4296 528.669C35.7956 532.297 32.9965 536.673 31.2273 541.493C29.4581 546.313 28.7615 551.461 29.1858 556.578C29.5076 559.921 29.0939 563.294 27.9739 566.459C26.8538 569.625 25.0544 572.508 22.7021 574.904L-17.9866 615.593C-19.5064 617.113 -20.0492 619.629 -19.1807 622.807C-18.6592 624.643 -17.8498 626.386 -16.7826 627.968C-14.9449 630.754 -12.5612 633.137 -9.77583 634.975C-8.19706 636.032 -6.46206 636.835 -4.63423 637.354C-1.50585 638.173 1.06003 637.679 2.57981 636.159L43.3869 595.352C45.772 593.032 48.6361 591.261 51.7781 590.165C54.9201 589.069 58.264 588.673 61.575 589.007C66.7483 589.454 71.9567 588.753 76.8274 586.953C81.6982 585.153 86.111 582.299 89.7502 578.595C96.3668 571.926 100.063 562.902 100.026 553.508C99.9892 544.113 96.2218 535.118 89.5528 528.502C82.8838 521.885 73.8595 518.189 64.4651 518.226C55.0707 518.263 46.0758 522.03 39.4592 528.699L39.4296 528.669Z" fill="white"/>
<path d="M50.5031 539.741C48.2762 541.978 46.6185 544.717 45.6689 547.727C44.7193 550.737 44.5056 553.931 45.0457 557.041C45.4204 559.563 45.1888 562.138 44.3702 564.553C43.5516 566.968 42.1695 569.152 40.3384 570.927L-6.33079 617.596C-7.27434 618.518 -7.81599 619.775 -7.83816 621.095C-7.86033 622.414 -7.36125 623.689 -6.44923 624.642L-6.39988 624.691C-5.44724 625.608 -4.17108 626.11 -2.84944 626.09C-1.5278 626.07 -0.267741 625.528 0.656263 624.583L47.5129 577.726C49.2715 575.936 51.4312 574.59 53.8132 573.801C56.1952 573.012 58.7311 572.801 61.2107 573.187C64.4116 573.746 67.7013 573.506 70.7868 572.486C73.8723 571.467 76.6579 569.701 78.8955 567.344C82.5493 563.586 84.5604 558.53 84.4863 553.288C84.4123 548.047 82.2592 543.05 78.5007 539.396C74.7422 535.742 69.6861 533.731 64.4448 533.805C59.2035 533.879 54.2063 536.032 50.5525 539.791L50.5031 539.741Z" fill="#D0D0D0"/>
<path opacity="0.7" d="M50.5031 539.741C48.2762 541.978 46.6185 544.717 45.6689 547.727C44.7193 550.737 44.5056 553.931 45.0457 557.041C45.4204 559.563 45.1888 562.138 44.3702 564.553C43.5516 566.968 42.1695 569.152 40.3384 570.927L-6.33079 617.596C-7.27434 618.518 -7.81599 619.775 -7.83816 621.095C-7.86033 622.414 -7.36125 623.689 -6.44923 624.642L-6.39988 624.691C-5.44724 625.608 -4.17108 626.11 -2.84944 626.09C-1.5278 626.07 -0.267741 625.528 0.656263 624.583L47.5129 577.726C49.2715 575.936 51.4312 574.59 53.8132 573.801C56.1952 573.012 58.7311 572.801 61.2107 573.187C64.4116 573.746 67.7013 573.506 70.7868 572.486C73.8723 571.467 76.6579 569.701 78.8955 567.344C82.5493 563.586 84.5604 558.53 84.4863 553.288C84.4123 548.047 82.2592 543.05 78.5007 539.396C74.7422 535.742 69.6861 533.731 64.4448 533.805C59.2035 533.879 54.2063 536.032 50.5525 539.791L50.5031 539.741Z" fill="white"/>
<path opacity="0.7" d="M38.2359 559.055C34.6277 555.446 34.6278 549.597 38.2359 545.988C41.844 542.38 47.694 542.38 51.3021 545.988C54.9102 549.597 54.9102 555.446 51.3021 559.055C47.694 562.663 41.844 562.663 38.2359 559.055Z" fill="white"/>
<path opacity="0.7" d="M61.7632 543.522C62.5418 542.744 63.0727 541.752 63.2892 540.672C63.5056 539.593 63.3979 538.473 62.9796 537.455C62.5614 536.436 61.8512 535.564 60.9385 534.948C60.0258 534.332 58.9513 534 57.8501 533.993C56.749 533.986 55.6705 534.305 54.7502 534.909C53.8299 535.514 53.1089 536.377 52.678 537.391C52.2471 538.404 52.1256 539.522 52.3286 540.604C52.5316 541.687 53.0501 542.685 53.8189 543.473C54.3349 544.002 54.9508 544.423 55.6309 544.713C56.311 545.002 57.0417 545.153 57.7808 545.158C58.5198 545.162 59.2524 545.02 59.936 544.739C60.6196 544.459 61.2407 544.045 61.7632 543.522Z" fill="white"/>
<path opacity="0.7" d="M75.7474 544.775C76.1378 544.385 76.4036 543.887 76.5113 543.346C76.6191 542.804 76.5638 542.243 76.3525 541.733C76.1412 541.223 75.7835 540.787 75.3245 540.48C74.8655 540.174 74.3258 540.01 73.7737 540.01C73.2216 540.01 72.6819 540.174 72.2229 540.48C71.7639 540.787 71.4061 541.223 71.1948 541.733C70.9836 542.243 70.9283 542.804 71.036 543.346C71.1437 543.887 71.4095 544.385 71.7999 544.775C72.3234 545.299 73.0334 545.593 73.7737 545.593C74.514 545.593 75.2239 545.299 75.7474 544.775Z" fill="white"/>
<path opacity="0.7" d="M89.1685 562.933C90.2308 561.87 90.954 560.517 91.2467 559.043C91.5394 557.57 91.3885 556.043 90.813 554.655C90.2375 553.268 89.2633 552.082 88.0136 551.248C86.764 550.415 85.2951 549.97 83.7929 549.972C82.2907 549.973 80.8227 550.42 79.5746 551.256C78.3265 552.092 77.3545 553.28 76.7815 554.668C76.2086 556.057 76.0604 557.584 76.3559 559.057C76.6513 560.53 77.377 561.882 78.4412 562.942C79.1458 563.647 79.9823 564.206 80.903 564.587C81.8238 564.967 82.8105 565.163 83.8069 565.162C84.8033 565.161 85.7897 564.964 86.7097 564.581C87.6297 564.199 88.4653 563.638 89.1685 562.933Z" fill="white"/>
<path opacity="0.7" d="M80.3267 573.493C79.829 573.99 79.1949 574.329 78.5045 574.467C77.8141 574.604 77.0985 574.533 76.4482 574.264C75.7979 573.995 75.2421 573.539 74.851 572.953C74.46 572.368 74.2513 571.68 74.2513 570.976C74.2513 570.272 74.46 569.584 74.8511 568.999C75.2421 568.414 75.798 567.957 76.4483 567.688C77.0986 567.419 77.8141 567.348 78.5045 567.486C79.1948 567.623 79.829 567.962 80.3267 568.46C80.9942 569.127 81.3691 570.032 81.3691 570.976C81.3691 571.92 80.9941 572.825 80.3267 573.493Z" fill="white"/>
<path opacity="0.7" d="M61.5162 580.46C59.2598 578.203 59.2598 574.545 61.5162 572.288C63.7727 570.032 67.4311 570.032 69.6875 572.288C71.944 574.545 71.944 578.203 69.6876 580.46C67.4311 582.716 63.7727 582.716 61.5162 580.46Z" fill="white"/>
<path opacity="0.7" d="M53.7695 576.878C54.4351 576.212 54.8884 575.364 55.072 574.441C55.2556 573.518 55.1614 572.561 54.8012 571.691C54.441 570.822 53.831 570.079 53.0483 569.556C52.2657 569.033 51.3456 568.754 50.4043 568.754C49.463 568.754 48.5429 569.033 47.7602 569.556C46.9776 570.079 46.3676 570.822 46.0074 571.691C45.6472 572.561 45.5529 573.518 45.7366 574.441C45.9202 575.364 46.3735 576.212 47.0391 576.878C47.9316 577.77 49.1421 578.272 50.4043 578.272C51.6665 578.272 52.877 577.77 53.7695 576.878Z" fill="white"/>
<path opacity="0.7" d="M90.8467 572.605C91.1887 572.267 91.4226 571.835 91.5188 571.364C91.615 570.892 91.5691 570.403 91.387 569.958C91.2049 569.513 90.8947 569.132 90.4958 568.864C90.097 568.595 89.6273 568.451 89.1464 568.45C88.6655 568.448 88.1951 568.59 87.7946 568.856C87.3942 569.122 87.0819 569.501 86.8972 569.945C86.7125 570.389 86.6639 570.878 86.7573 571.35C86.8508 571.822 87.0822 572.255 87.4223 572.595C87.876 573.049 88.4908 573.304 89.1324 573.306C89.7741 573.308 90.3904 573.056 90.8467 572.605Z" fill="white"/>
<path opacity="0.7" d="M60.6282 528.195C61.0752 527.749 61.3796 527.179 61.5029 526.559C61.6262 525.939 61.5629 525.296 61.321 524.712C61.0791 524.128 60.6695 523.629 60.1439 523.278C59.6183 522.927 59.0004 522.74 58.3683 522.74C57.7361 522.74 57.1182 522.927 56.5926 523.278C56.067 523.629 55.6574 524.128 55.4155 524.712C55.1736 525.296 55.1103 525.939 55.2337 526.559C55.357 527.179 55.6614 527.749 56.1083 528.195C56.4051 528.492 56.7574 528.728 57.1452 528.888C57.533 529.049 57.9486 529.132 58.3683 529.132C58.788 529.132 59.2036 529.049 59.5914 528.888C59.9791 528.728 60.3315 528.492 60.6282 528.195Z" fill="white"/>
<path opacity="0.7" d="M47.2956 537.028C47.7493 536.578 48.0591 536.004 48.1858 535.377C48.3125 534.751 48.2502 534.102 48.007 533.511C47.7638 532.92 47.3506 532.415 46.8199 532.06C46.2891 531.704 45.6647 531.514 45.0258 531.514C44.387 531.514 43.7626 531.704 43.2318 532.06C42.701 532.415 42.2878 532.92 42.0446 533.511C41.8014 534.102 41.7392 534.751 41.8659 535.378C41.9925 536.004 42.3023 536.578 42.756 537.028C43.3598 537.626 44.1756 537.962 45.0258 537.962C45.876 537.962 46.6918 537.626 47.2956 537.028Z" fill="white"/>
<path opacity="0.7" d="M69.0164 562.421C69.4677 561.969 69.7749 561.394 69.8991 560.768C70.0233 560.142 69.9588 559.493 69.714 558.904C69.4691 558.315 69.0548 557.811 68.5235 557.458C67.9923 557.104 67.368 556.916 66.7298 556.917C66.0916 556.919 65.4681 557.109 64.9384 557.465C64.4087 557.821 63.9966 558.327 63.7542 558.917C63.5119 559.508 63.4503 560.157 63.5772 560.782C63.704 561.408 64.0137 561.981 64.467 562.431C64.7659 562.73 65.1209 562.967 65.5116 563.128C65.9023 563.289 66.321 563.372 66.7438 563.371C67.1665 563.37 67.5848 563.286 67.9749 563.122C68.3649 562.959 68.7188 562.721 69.0164 562.421Z" fill="white"/>
<path d="M281.313 277.767C281.596 278.037 281.789 278.389 281.865 278.774C281.73 281.05 281.444 283.315 281.007 285.553C279.921 290.902 278.026 301.699 272.885 309.978C272.306 310.901 271.617 311.75 270.832 312.505C226.087 362.677 189.81 395.185 135.551 447.963C133.676 449.838 130.114 450.104 125.614 447.775C122.19 446.007 119.354 443.281 117.452 439.93C114.985 435.489 115.034 431.926 116.87 430.012C167.299 373.543 198.534 336.19 246.93 289.511C247.643 288.692 248.459 287.969 249.358 287.359C257.43 281.892 268.148 279.583 273.447 278.29C275.689 277.772 277.964 277.409 280.257 277.204C280.661 277.27 281.032 277.468 281.313 277.767Z" fill="#E6007A"/>
<path d="M246.594 289.926C246.379 291.698 246.564 293.495 247.137 295.186C249.555 302.834 257.844 310.453 265.66 312.189C267.467 312.637 269.354 312.651 271.167 312.229C271.078 312.318 270.99 312.407 270.891 312.505L266.805 317.065C264.955 317.528 263.019 317.524 261.17 317.055C253.344 315.308 245.045 307.699 242.647 300.051C241.978 298.147 241.838 296.097 242.242 294.12C243.683 292.738 245.134 291.327 246.594 289.926Z" fill="#1C1C26"/>
<path d="M281.895 278.744C281.76 281.02 281.473 283.285 281.036 285.524C279.951 290.872 278.056 301.669 272.914 309.949C272.336 310.872 271.647 311.72 270.862 312.475C226.117 362.648 189.839 395.155 135.581 447.933C133.904 449.611 130.894 449.996 127.045 448.397C154.233 420.834 221.005 353.233 241.473 332.903C267.378 307.254 279.408 283.421 281.313 277.767C281.601 278.026 281.804 278.367 281.895 278.744Z" fill="#37474F"/>
<path d="M157.727 493.665C147.611 512.82 137.594 532.035 127.972 551.446C126.305 554.851 121.923 557.022 117.423 556.687C103.024 555.477 89.5597 549.064 79.5466 538.647C69.3099 528.402 63.0398 514.859 61.852 500.425C61.5362 495.925 63.6481 491.603 66.9837 489.984C86.2573 480.678 105.255 470.839 124.163 460.832L157.727 493.665Z" fill="#D0D0D0"/>
<path d="M90.9546 527.239C100.794 537.749 116.11 545.348 130.617 546.098L127.982 551.496C126.314 554.901 121.933 557.072 117.432 556.736C103.043 555.494 89.5889 549.086 79.5561 538.696C69.3294 528.424 63.0592 514.87 61.8517 500.425C61.5359 495.925 63.6479 491.603 66.9835 489.984C69.0855 488.968 70.1415 488.445 72.283 487.389C73.2304 502.508 80.7701 516.363 90.9546 527.239Z" fill="#A6A6A6"/>
<path d="M61.8519 500.425C63.0519 514.881 69.3309 528.446 79.5761 538.715C80.2767 539.416 80.9675 540.107 81.6386 540.778C82.3097 541.449 83.04 542.061 83.7209 542.643L84.8065 543.531L86.4842 544.873C86.8098 545.199 87.2243 545.436 87.6191 545.712L88.7737 546.531L90.6685 547.814L91.0238 548.031C91.7738 548.505 92.5337 548.949 93.2739 549.373C94.014 549.798 95.1193 550.39 96.0272 550.844L97.6358 551.604C98.3365 551.949 99.0076 552.206 99.7477 552.531C101.129 553.123 102.462 553.607 103.745 554.041L104.731 554.357C105.126 554.495 105.531 554.604 105.886 554.702C106.241 554.801 107.011 555.018 107.544 555.156L109.311 555.581L111.018 555.946C111.561 556.054 112.094 556.133 112.666 556.272C115.824 551.673 117.413 549.354 120.64 544.686C117.117 543.798 113.685 542.585 110.386 541.064C108.738 543.225 107.564 545.051 107.218 545.258C94.7048 552.403 69.4508 530.643 61.8519 500.425Z" fill="#1C1C26"/>
<path d="M253.641 310.63C255.544 308.56 257.695 306.734 260.046 305.193C281.106 291.534 307.357 286.857 321.163 284.379C324.177 283.814 327.253 283.645 330.311 283.876C331.308 284.062 332.225 284.546 332.942 285.262C333.658 285.979 334.142 286.896 334.328 287.893C334.621 290.947 334.448 294.029 333.815 297.031C330.745 310.719 326.67 337.098 313.011 358.158C311.47 360.509 309.643 362.66 307.574 364.563L150.089 515.317C145.263 520.143 135.996 520.548 124.509 514.33C115.778 509.586 108.608 502.416 103.864 493.685C97.6167 482.168 98.0608 472.941 102.887 468.115L253.641 310.63Z" fill="#D0D0D0"/>
<path opacity="0.5" d="M251.766 332.973C237.358 347.381 158.457 428.453 101.071 487.478C97.9817 478.902 98.9884 472.053 102.906 468.135L253.661 310.65C255.563 308.58 257.715 306.754 260.066 305.212C281.125 291.554 307.376 286.876 321.183 284.399C322.327 284.202 323.64 284.034 324.923 283.916C303.182 290.616 274.869 309.87 251.766 332.973Z" fill="white"/>
<path opacity="0.1" d="M103.863 493.685C97.6159 482.169 98.06 472.941 102.886 468.116L223.975 341.618C225.917 341.102 227.916 340.833 229.926 340.819C230.851 340.987 231.703 341.433 232.368 342.098C233.032 342.763 233.479 343.614 233.646 344.539C233.923 346.059 232.511 351.793 232.008 354.369C229.59 367.011 225.406 391.288 212.744 410.798C211.32 412.968 209.637 414.957 207.731 416.719L114.62 503.673C113.984 504.304 113.267 504.848 112.488 505.291C109.083 501.846 106.179 497.939 103.863 493.685Z" fill="black"/>
<path opacity="0.2" d="M330.281 283.906C331.277 284.092 332.194 284.575 332.911 285.292C333.628 286.009 334.111 286.926 334.297 287.923C334.591 290.977 334.418 294.058 333.784 297.061C330.715 310.749 326.639 337.128 312.981 358.188C311.44 360.539 309.613 362.69 307.543 364.593L150.058 515.347C145.805 519.601 138.107 520.41 128.495 516.304L218.301 426.499C269.421 375.379 302.53 339.368 312.981 324.417C323.432 309.466 334.159 285.08 330.281 283.906Z" fill="black"/>
<path d="M297.103 362.637C279.172 357.831 260.727 339.386 255.921 321.455C254.732 317.437 254.479 313.201 255.181 309.07C256.667 307.636 258.286 306.347 260.016 305.221C260.934 304.619 261.852 304.056 262.79 303.494C262.574 306.87 262.938 310.257 263.865 313.511C268.671 331.442 287.116 349.887 305.047 354.693C308.111 355.555 311.291 355.931 314.472 355.808C313.988 356.607 313.495 357.397 312.942 358.226C311.671 360.15 310.21 361.942 308.58 363.575C304.731 364.056 300.823 363.737 297.103 362.637Z" fill="#1C1C26"/>
<path d="M311.324 360.477C311.117 360.684 310.919 360.882 310.781 361.158C310.643 361.434 310.189 361.75 309.942 362.115C309.844 362.214 309.745 362.313 309.637 362.421L308.571 363.487C304.731 363.996 300.827 363.707 297.103 362.638C292.856 361.452 288.79 359.696 285.014 357.418C287.659 354.536 290.146 351.793 292.475 349.187C296.372 351.61 300.587 353.48 304.998 354.743C308.062 355.605 311.242 355.981 314.423 355.858C313.939 356.658 313.446 357.447 312.893 358.276C312.548 358.799 312.193 359.312 311.808 359.816C311.719 359.984 311.512 360.23 311.324 360.477Z" fill="#1C1C26"/>
<path d="M46.3783 479.147L54.9837 487.753C48.7763 496.408 39.1247 498.164 37.5457 496.585C35.9668 495.006 37.7629 485.394 46.3783 479.147Z" fill="#D0D0D0"/>
<path opacity="0.7" d="M46.3783 479.147L54.9837 487.753C48.7763 496.408 39.1247 498.164 37.5457 496.585C35.9668 495.006 37.7629 485.394 46.3783 479.147Z" fill="white"/>
<path d="M59.8096 465.854L65.5531 477.874L63.2932 481.536C62.7004 482.181 61.9508 482.661 61.1173 482.931C60.2839 483.201 59.3948 483.25 58.5365 483.075C57.815 482.965 57.1114 482.759 56.4443 482.463C54.1609 481.434 52.3324 479.605 51.3027 477.322C51.0185 476.666 50.8195 475.976 50.7106 475.269C50.5325 474.411 50.5808 473.521 50.8507 472.687C51.1206 471.853 51.6029 471.103 52.2501 470.512L59.8096 465.854Z" fill="#D0D0D0"/>
<path opacity="0.25" d="M59.8096 465.854L65.5531 477.874L63.2932 481.536C62.7004 482.181 61.9508 482.661 61.1173 482.931C60.2839 483.201 59.3948 483.25 58.5365 483.075C57.815 482.965 57.1114 482.759 56.4443 482.463C54.1609 481.434 52.3324 479.605 51.3027 477.322C51.0185 476.666 50.8195 475.976 50.7106 475.269C50.5325 474.411 50.5808 473.521 50.8507 472.687C51.1206 471.853 51.6029 471.103 52.2501 470.512L59.8096 465.854Z" fill="black"/>
<path d="M51.1741 471.213L49.6247 472.17C48.9777 472.822 48.5014 473.623 48.238 474.503C47.9747 475.382 47.9323 476.313 48.1148 477.213C48.2254 477.99 48.4446 478.748 48.7661 479.463C49.8847 481.938 51.867 483.921 54.3419 485.039C55.0706 485.367 55.8411 485.593 56.6315 485.71C57.533 485.89 58.4651 485.845 59.3448 485.578C60.2246 485.311 61.0248 484.831 61.6744 484.181L59.0099 488.464C58.3172 489.091 57.4781 489.535 56.5694 489.754C55.6607 489.973 54.7116 489.96 53.8091 489.717C52.9135 489.537 52.0468 489.235 51.2333 488.819C48.5556 487.464 46.3808 485.289 45.0259 482.612C44.6313 481.802 44.3395 480.947 44.1574 480.065C43.9142 479.163 43.9015 478.214 44.1205 477.305C44.3395 476.396 44.7831 475.557 45.4107 474.865L51.1741 471.213Z" fill="#D0D0D0"/>
<path opacity="0.25" d="M51.1741 471.213L49.6247 472.17C48.9777 472.822 48.5014 473.623 48.238 474.503C47.9747 475.382 47.9323 476.313 48.1148 477.213C48.2254 477.99 48.4446 478.748 48.7661 479.463C49.8847 481.938 51.867 483.921 54.3419 485.039C55.0706 485.367 55.8411 485.593 56.6315 485.71C57.533 485.89 58.4651 485.845 59.3448 485.578C60.2246 485.311 61.0248 484.831 61.6744 484.181L59.0099 488.464C58.3172 489.091 57.4781 489.535 56.5694 489.754C55.6607 489.973 54.7116 489.96 53.8091 489.717C52.9135 489.537 52.0468 489.235 51.2333 488.819C48.5556 487.464 46.3808 485.289 45.0259 482.612C44.6313 481.802 44.3395 480.947 44.1574 480.065C43.9142 479.163 43.9015 478.214 44.1205 477.305C44.3395 476.396 44.7831 475.557 45.4107 474.865L51.1741 471.213Z" fill="black"/>
<path d="M51.1934 471.194L51.5585 470.967L52.2789 470.523C51.6317 471.114 51.1495 471.864 50.8796 472.698C50.6096 473.532 50.5613 474.422 50.7394 475.28C50.8484 475.987 51.0474 476.677 51.3316 477.333C52.3612 479.616 54.1897 481.445 56.4731 482.474C57.1402 482.77 57.8438 482.976 58.5653 483.086C59.4236 483.261 60.3127 483.212 61.1462 482.942C61.9796 482.672 62.7292 482.192 63.322 481.547L61.6739 484.182C61.0243 484.832 60.2241 485.312 59.3443 485.579C58.4646 485.846 57.5326 485.891 56.631 485.711C55.8406 485.594 55.0702 485.368 54.3415 485.04C51.8666 483.922 49.8843 481.939 48.7657 479.464C48.4442 478.749 48.225 477.991 48.1144 477.214C47.9319 476.314 47.9743 475.383 48.2376 474.504C48.501 473.624 48.9773 472.823 49.6243 472.171L51.1934 471.194Z" fill="#E6007A"/>
<path opacity="0.15" d="M55.871 468.292L59.8086 465.854L65.5523 477.874L63.2923 481.536L62.6114 482.611L61.6443 484.17L59.7988 487.161C56.1868 480.667 54.7953 473.907 55.871 468.292Z" fill="black"/>
<path d="M76.8227 509.592L85.4283 518.198C79.2209 526.853 69.5692 528.609 67.9902 527.03C66.4112 525.451 68.158 515.79 76.8227 509.592Z" fill="#D0D0D0"/>
<path opacity="0.7" d="M76.8227 509.592L85.4283 518.198C79.2209 526.853 69.5692 528.609 67.9902 527.03C66.4112 525.451 68.158 515.79 76.8227 509.592Z" fill="white"/>
<path d="M81.1256 513.895L79.6454 512.415C77.771 512.938 76.1098 514.04 74.8985 515.563C73.1024 517.714 71.6813 521.563 72.5694 522.451C73.4576 523.34 77.2669 521.938 79.4479 520.112C80.971 518.901 82.0728 517.24 82.5961 515.366L81.1256 513.895Z" fill="white"/>
<path d="M90.2147 496.26L98.3564 504.402L93.7082 511.951C93.1198 512.6 92.3726 513.084 91.5402 513.355C90.7078 513.627 89.819 513.677 88.9613 513.501C88.2398 513.391 87.5362 513.185 86.8691 512.889C84.5857 511.859 82.7572 510.03 81.7275 507.747C81.4405 507.092 81.2414 506.402 81.1354 505.694C80.9574 504.836 81.0057 503.946 81.2756 503.112C81.5455 502.278 82.0277 501.529 82.675 500.938L90.2147 496.26Z" fill="#D0D0D0"/>
<path opacity="0.25" d="M90.2147 496.26L98.3564 504.402L93.7082 511.951C93.1198 512.6 92.3726 513.084 91.5402 513.355C90.7078 513.627 89.819 513.677 88.9613 513.501C88.2398 513.391 87.5362 513.185 86.8691 512.889C84.5857 511.859 82.7572 510.03 81.7275 507.747C81.4405 507.092 81.2414 506.402 81.1354 505.694C80.9574 504.836 81.0057 503.946 81.2756 503.112C81.5455 502.278 82.0277 501.529 82.675 500.938L90.2147 496.26Z" fill="black"/>
<path d="M81.9644 501.372L81.5993 501.599L80.0302 502.576C79.3832 503.228 78.9069 504.029 78.6435 504.908C78.3801 505.788 78.3377 506.719 78.5202 507.619C78.6308 508.396 78.8501 509.153 79.1715 509.869C80.2901 512.344 82.2725 514.326 84.7474 515.445C85.4772 515.77 86.2472 515.995 87.0369 516.116C87.9385 516.296 88.8705 516.251 89.7503 515.984C90.63 515.717 91.4302 515.237 92.0799 514.586L89.4153 518.869C88.7226 519.497 87.8835 519.941 86.9748 520.16C86.0661 520.379 85.117 520.366 84.2145 520.123C83.3189 519.943 82.4522 519.64 81.6387 519.225C78.961 517.87 76.7862 515.695 75.4313 513.017C75.034 512.209 74.7421 511.354 74.5629 510.471C74.3197 509.569 74.307 508.619 74.526 507.711C74.745 506.802 75.1886 505.963 75.8162 505.27L81.9644 501.372Z" fill="#D0D0D0"/>
<path opacity="0.25" d="M81.9644 501.372L81.5993 501.599L80.0302 502.576C79.3832 503.228 78.9069 504.029 78.6435 504.908C78.3801 505.788 78.3377 506.719 78.5202 507.619C78.6308 508.396 78.8501 509.153 79.1715 509.869C80.2901 512.344 82.2725 514.326 84.7474 515.445C85.4772 515.77 86.2472 515.995 87.0369 516.116C87.9385 516.296 88.8705 516.251 89.7503 515.984C90.63 515.717 91.4302 515.237 92.0799 514.586L89.4153 518.869C88.7226 519.497 87.8835 519.941 86.9748 520.16C86.0661 520.379 85.117 520.366 84.2145 520.123C83.3189 519.943 82.4522 519.64 81.6387 519.225C78.961 517.87 76.7862 515.695 75.4313 513.017C75.034 512.209 74.7421 511.354 74.5629 510.471C74.3197 509.569 74.307 508.619 74.526 507.711C74.745 506.802 75.1886 505.963 75.8162 505.27L81.9644 501.372Z" fill="black"/>
<path d="M81.5996 501.599L81.9648 501.372L82.6851 500.928C82.0379 501.519 81.5557 502.269 81.2858 503.103C81.0159 503.937 80.9676 504.826 81.1456 505.685C81.2516 506.392 81.4507 507.082 81.7378 507.737C82.7674 510.021 84.5959 511.849 86.8794 512.879C87.5464 513.175 88.2501 513.381 88.9715 513.491C89.8292 513.667 90.718 513.617 91.5504 513.346C92.3828 513.074 93.13 512.59 93.7184 511.942L92.0802 514.586C91.4306 515.237 90.6303 515.717 89.7506 515.984C88.8708 516.25 87.9388 516.296 87.0373 516.116C86.2476 515.995 85.4776 515.77 84.7477 515.445C82.2728 514.326 80.2905 512.344 79.1719 509.869C78.8505 509.153 78.6312 508.396 78.5206 507.619C78.3381 506.719 78.3805 505.788 78.6438 504.908C78.9072 504.029 79.3835 503.228 80.0305 502.576L81.5996 501.599Z" fill="#E6007A"/>
<path opacity="0.15" d="M98.3567 504.401L95.9487 508.309C90.3433 509.415 83.5832 508.023 77.0699 504.411L81.945 501.391L82.6654 500.947L90.1952 496.279L98.3567 504.401Z" fill="black"/>
<path d="M51.9345 495.539L62.4842 501.747L68.6916 512.296C65.5043 516.741 61.579 520.606 57.086 523.724C48.9542 529.665 37.0131 531.797 34.7235 529.507C32.434 527.218 34.5755 515.286 40.5165 507.155C43.6352 502.663 47.4965 498.734 51.9345 495.539Z" fill="#D0D0D0"/>
<path opacity="0.7" d="M51.9345 495.539L62.4842 501.747L68.6916 512.296C65.5043 516.741 61.579 520.606 57.086 523.724C48.9542 529.665 37.0131 531.797 34.7235 529.507C32.434 527.218 34.5755 515.286 40.5165 507.155C43.6352 502.663 47.4965 498.734 51.9345 495.539Z" fill="white"/>
<path d="M53.8192 499.458L65.2866 510.925C57.0561 522.432 44.1675 524.801 42.0556 522.689C39.9437 520.577 42.2826 507.718 53.8192 499.458Z" fill="#D0D0D0"/>
<path d="M59.5525 505.191L57.5787 503.217C55.063 503.909 52.8355 505.39 51.2233 507.441C48.7956 510.342 46.9303 515.425 48.1146 516.609C49.2988 517.793 54.3812 515.928 57.2826 513.5C59.3282 511.883 60.8073 509.657 61.5065 507.145L59.5327 505.171" fill="white"/>
<path d="M62.3356 487.191L67.2107 484.171L80.0401 497L77.0104 501.866C76.2225 502.727 75.2244 503.369 74.1137 503.729C73.0031 504.089 71.8181 504.154 70.6747 503.918C69.7103 503.776 68.7703 503.5 67.8818 503.099C64.8369 501.732 62.3997 499.295 61.0329 496.25C60.6498 495.376 60.3907 494.453 60.2631 493.507C60.032 492.365 60.1014 491.182 60.4647 490.075C60.828 488.968 61.4727 487.974 62.3356 487.191Z" fill="#D0D0D0"/>
<path d="M61.398 487.812L60.9243 488.108L58.8321 489.411C57.9634 490.275 57.3222 491.341 56.9657 492.514C56.6092 493.687 56.5486 494.929 56.7893 496.131C56.9558 497.178 57.2646 498.197 57.7071 499.161C59.1987 502.459 61.8404 505.1 65.1382 506.592C66.1092 507.028 67.1351 507.331 68.1877 507.49C69.3925 507.732 70.6384 507.672 71.8144 507.315C72.9904 506.959 74.06 506.317 74.928 505.447L71.3753 511.151C70.444 511.986 69.3181 512.573 68.1007 512.86C66.8833 513.146 65.6136 513.122 64.4079 512.79C63.2095 512.555 62.05 512.153 60.9638 511.595C57.3903 509.799 54.4906 506.899 52.6938 503.325C52.1627 502.248 51.7713 501.107 51.5293 499.931C51.197 498.725 51.1729 497.455 51.4591 496.238C51.7454 495.021 52.3328 493.895 53.1675 492.963L61.398 487.812Z" fill="#D0D0D0"/>
<path d="M60.905 488.089L61.3787 487.793L62.3359 487.191C61.4734 487.98 60.8314 488.98 60.4732 490.093C60.115 491.206 60.0529 492.392 60.2931 493.536C60.4207 494.482 60.6797 495.406 61.0629 496.28C62.4297 499.325 64.8669 501.762 67.9118 503.129C68.8003 503.53 69.7403 503.806 70.7047 503.948C71.8481 504.184 73.0331 504.119 74.1437 503.759C75.2543 503.399 76.2525 502.757 77.0404 501.895L74.8594 505.418C73.9913 506.288 72.9217 506.93 71.7457 507.286C70.5697 507.643 69.3239 507.703 68.119 507.461C67.0665 507.302 66.0406 507 65.0696 506.563C61.7718 505.072 59.1301 502.43 57.6384 499.132C57.1959 498.169 56.8872 497.149 56.7206 496.102C56.48 494.901 56.5406 493.658 56.8971 492.485C57.2535 491.313 57.8947 490.246 58.7635 489.382L60.905 488.089Z" fill="#E6007A"/>
<path opacity="0.15" d="M67.2796 496.991C64.6732 494.397 62.3901 491.498 60.4801 488.355L60.9045 488.089L61.3782 487.793L62.3355 487.191L67.2106 484.171L80.0399 497L77.0102 501.866L75.8456 503.741C72.733 501.838 69.8575 499.572 67.2796 496.991Z" fill="black"/>
<path d="M85.5959 458.187L62.8288 408.892C64.3276 407.302 65.9263 405.809 67.6151 404.422C68.0888 403.948 68.6415 403.593 69.1547 403.198C69.6678 402.803 70.1711 402.458 70.6745 402.132C71.1778 401.807 71.7403 401.461 72.2633 401.175C72.5396 401.017 72.8061 400.889 73.0824 400.751C73.3587 400.613 73.487 400.524 73.6943 400.435C76.9706 398.723 80.7685 398.297 84.3426 399.241L91.6159 401.205L92.4054 401.402C94.6595 402.077 96.7656 403.172 98.6128 404.629C102.531 407.75 106.821 410.376 111.383 412.445C113.223 412.624 115.079 412.524 116.89 412.149C125.771 410.294 138.196 399.645 143.703 393.685L125.13 414.231C134.012 412.258 146.229 401.777 151.756 395.816L93.6192 460.308L90.2244 452.966L90.0665 453.124L85.5959 458.187Z" fill="#D0D0D0"/>
<path d="M62.8292 408.893L85.5964 458.187L90.1064 453.164L90.2643 453.006L125.121 414.222L143.694 393.675C138.187 399.636 125.762 410.285 116.88 412.14C115.07 412.514 113.214 412.614 111.373 412.436C104.86 411.844 97.952 408.094 90.5406 402.459C89.7915 401.876 89.0035 401.345 88.182 400.87C86.9672 400.166 85.6715 399.613 84.3233 399.222C80.7492 398.278 76.9513 398.704 73.675 400.416C73.4677 400.505 73.2704 400.623 73.0631 400.732C72.8559 400.84 72.5203 400.998 72.244 401.156C71.721 401.442 71.1979 401.768 70.6551 402.113C70.1123 402.459 69.6485 402.804 69.1354 403.179C68.6222 403.554 68.109 403.969 67.5958 404.403C65.9132 405.797 64.3211 407.297 62.8292 408.893Z" fill="#D0D0D0"/>
<path opacity="0.35" d="M84.3524 399.25C85.7007 399.641 86.9963 400.195 88.2111 400.898C89.0326 401.373 89.8206 401.904 90.5697 402.487C98.0206 408.162 104.86 411.882 111.403 412.464C106.84 410.395 102.551 407.77 98.6325 404.648C96.7853 403.191 94.6791 402.096 92.425 401.421L91.6356 401.224L84.3524 399.25Z" fill="black"/>
<path d="M95.3456 447.351L73.6839 400.425C71.5023 401.51 69.4581 402.852 67.5949 404.422L90.1152 453.174L95.3456 447.351Z" fill="#E6007A"/>
<path d="M149.052 365.203C150.811 363.295 152.796 361.608 154.964 360.18C174.484 347.528 197.3 343.936 211.403 340.926C213.949 340.354 219.702 339.002 221.232 339.288C222.156 339.453 223.007 339.897 223.67 340.561C224.335 341.228 224.783 342.082 224.952 343.009C225.229 344.528 223.808 350.252 223.314 352.838C220.896 365.48 216.712 389.757 204.051 409.267C202.626 411.437 200.943 413.426 199.037 415.188L105.876 502.092C101.396 506.573 92.8202 506.958 82.1817 501.194C74.0912 496.795 67.4458 490.149 63.0463 482.059C57.2829 471.42 57.6481 462.844 62.1383 458.354L149.052 365.203Z" fill="#D0D0D0"/>
<path opacity="0.5" d="M149.052 365.203C150.811 363.295 152.796 361.608 154.964 360.18C174.484 347.528 197.3 343.936 211.403 340.926C213.949 340.354 219.702 339.002 221.232 339.288C222.156 339.453 223.007 339.897 223.67 340.561C224.335 341.228 224.783 342.082 224.952 343.009C225.229 344.528 223.808 350.252 223.314 352.838C220.896 365.48 216.712 389.757 204.051 409.267C202.626 411.437 200.943 413.426 199.037 415.188L105.876 502.092C101.396 506.573 92.8202 506.958 82.1817 501.194C74.0912 496.795 67.4458 490.149 63.0463 482.059C57.2829 471.42 57.6481 462.844 62.1383 458.354L149.052 365.203Z" fill="white"/>
<path d="M109.008 474.649L107.138 472.681L100.531 472.48L98.4997 474.41L109.008 474.649Z" fill="black"/>
<path d="M84.7035 478.127L86.5738 480.096L93.1804 480.296L95.2117 478.366L84.7035 478.127Z" fill="black"/>
<path d="M84.478 474.342L86.4465 472.472L93.055 472.611L93.2253 466.032L95.2823 464.078L94.9846 474.642L84.478 474.342Z" fill="black"/>
<path d="M98.4379 488.374L100.406 486.503L100.607 479.897L107.184 480.065L109.241 478.111L98.6771 477.866L98.4379 488.374Z" fill="black"/>
<path d="M97.6746 477.217C98.1734 476.743 98.1936 475.955 97.7198 475.456C97.246 474.957 96.4576 474.937 95.9588 475.411C95.46 475.884 95.4398 476.673 95.9136 477.172C96.3874 477.67 97.1759 477.691 97.6746 477.217Z" fill="#E6007A"/>
<path d="M161.114 418.368C161.26 418.215 161.44 418.098 161.639 418.028C161.839 417.958 162.052 417.936 162.262 417.964C162.474 417.995 162.676 418.075 162.853 418.196C163.029 418.318 163.176 418.478 163.281 418.665C163.536 419.087 163.633 419.585 163.557 420.072C163.498 420.546 163.277 420.984 162.931 421.314C162.79 421.465 162.615 421.581 162.421 421.653C162.227 421.725 162.019 421.751 161.813 421.729C161.602 421.695 161.402 421.61 161.23 421.483C161.058 421.356 160.919 421.19 160.825 420.998C160.566 420.588 160.458 420.102 160.518 419.621C160.556 419.144 160.768 418.698 161.114 418.368Z" fill="#E6007A"/>
<path d="M113.125 463.844L112.587 464.356C112.502 464.453 112.394 464.528 112.273 464.573C112.152 464.619 112.022 464.633 111.894 464.616C111.777 464.592 111.667 464.541 111.572 464.468C111.478 464.394 111.402 464.3 111.35 464.193C111.213 463.974 111.153 463.715 111.179 463.458C111.197 463.165 111.33 462.89 111.549 462.694L112.088 462.182L110.224 459.112C110.061 458.863 110.003 458.561 110.062 458.269C110.112 458.003 110.243 457.759 110.437 457.57C110.597 457.413 110.811 457.322 111.035 457.315C111.168 457.324 111.297 457.369 111.407 457.445C111.517 457.521 111.604 457.626 111.659 457.747L113.522 460.818L114.061 460.306C114.32 460.065 114.52 459.768 114.645 459.437C114.764 459.121 114.832 458.787 114.846 458.45C114.859 458.113 114.818 457.777 114.725 457.454C114.636 457.135 114.504 456.829 114.332 456.546C114.171 456.296 113.978 456.068 113.759 455.867C113.558 455.68 113.321 455.537 113.062 455.448C112.811 455.364 112.541 455.349 112.282 455.406C111.981 455.481 111.706 455.638 111.489 455.86L108.632 458.575C108.434 458.764 108.255 458.972 108.098 459.196C107.931 459.43 107.802 459.687 107.713 459.96C107.624 460.23 107.585 460.513 107.597 460.797C107.614 461.095 107.707 461.384 107.867 461.636C108.016 461.897 108.255 462.095 108.539 462.193C108.8 462.283 109.067 462.354 109.338 462.405C109.476 462.409 109.611 462.45 109.73 462.522C109.848 462.594 109.946 462.695 110.014 462.816C110.147 463.044 110.203 463.309 110.176 463.572C110.161 463.844 110.042 464.099 109.844 464.286C109.675 464.447 109.456 464.545 109.223 464.563C108.692 464.567 108.168 464.438 107.7 464.187C107.182 463.905 106.749 463.491 106.445 462.987C106.145 462.506 105.952 461.965 105.88 461.403C105.811 460.856 105.837 460.3 105.958 459.762C106.081 459.215 106.289 458.691 106.575 458.208C106.856 457.726 107.204 457.285 107.609 456.899L110.377 454.269C110.811 453.826 111.349 453.501 111.942 453.323C112.431 453.186 112.947 453.181 113.439 453.31C113.922 453.444 114.368 453.688 114.742 454.023C115.142 454.375 115.488 454.785 115.769 455.239C116.065 455.739 116.29 456.277 116.436 456.839C116.591 457.417 116.654 458.016 116.624 458.613C116.591 459.223 116.452 459.822 116.213 460.384C115.957 460.984 115.578 461.524 115.1 461.969L114.562 462.479L115.081 463.325C115.254 463.622 115.395 463.936 115.502 464.263C115.604 464.572 115.653 464.897 115.645 465.223C115.635 465.554 115.557 465.88 115.416 466.181C115.246 466.533 115.01 466.849 114.721 467.112C114.486 467.326 114.223 467.509 113.94 467.654C113.775 467.739 113.594 467.788 113.409 467.797C113.223 467.806 113.038 467.776 112.866 467.707C112.653 467.656 112.468 467.526 112.349 467.343C112.21 467.099 112.161 466.813 112.209 466.536C112.248 466.261 112.378 466.008 112.578 465.816C112.667 465.729 112.774 465.662 112.891 465.619C113.008 465.577 113.132 465.56 113.256 465.57C113.332 465.588 113.41 465.587 113.485 465.566C113.559 465.545 113.627 465.505 113.682 465.45C113.733 465.398 113.766 465.333 113.78 465.262C113.793 465.191 113.786 465.118 113.758 465.051C113.636 464.732 113.48 464.427 113.292 464.141L113.125 463.844ZM118.101 458.292C117.802 457.797 117.593 457.253 117.485 456.685C117.374 456.114 117.352 455.53 117.42 454.953C117.488 454.376 117.645 453.814 117.886 453.286C118.119 452.765 118.451 452.295 118.863 451.902C119.244 451.527 119.706 451.244 120.213 451.075C120.67 450.924 121.156 450.881 121.633 450.951C122.11 451.026 122.565 451.207 122.963 451.481C123.404 451.786 123.772 452.184 124.042 452.648C124.34 453.14 124.546 453.682 124.651 454.248C124.758 454.816 124.777 455.398 124.709 455.972C124.641 456.548 124.481 457.108 124.234 457.633C123.992 458.155 123.653 458.627 123.235 459.024C122.859 459.392 122.405 459.672 121.907 459.844C121.454 460 120.969 460.045 120.495 459.975C120.02 459.902 119.569 459.723 119.172 459.452C118.734 459.149 118.368 458.753 118.101 458.292ZM122.65 453.97C122.504 453.717 122.306 453.498 122.068 453.327C121.852 453.171 121.602 453.067 121.338 453.024C121.081 452.983 120.818 453.004 120.57 453.085C120.303 453.173 120.059 453.322 119.858 453.519C119.638 453.729 119.46 453.98 119.336 454.257C119.207 454.542 119.125 454.846 119.094 455.157C119.061 455.474 119.078 455.794 119.142 456.107C119.204 456.416 119.317 456.713 119.477 456.984C119.606 457.229 119.789 457.441 120.013 457.604C120.237 457.767 120.495 457.876 120.767 457.923C121.036 457.961 121.311 457.934 121.567 457.844C121.824 457.755 122.055 457.604 122.241 457.407C122.461 457.197 122.639 456.946 122.764 456.668C122.892 456.385 122.976 456.085 123.013 455.776C123.05 455.465 123.038 455.149 122.978 454.841C122.921 454.534 122.81 454.239 122.65 453.97ZM122.456 443.365C122.426 443.394 122.432 443.445 122.474 443.519L122.621 443.777L127.413 451.581C127.469 451.68 127.527 451.781 127.588 451.885C127.638 451.968 127.682 452.054 127.72 452.144C127.719 451.978 127.753 451.815 127.82 451.664C127.877 451.547 127.954 451.44 128.048 451.35C128.124 451.273 128.215 451.213 128.315 451.174C128.415 451.136 128.523 451.118 128.63 451.124C128.743 451.132 128.851 451.171 128.943 451.237C129.035 451.302 129.108 451.391 129.153 451.494C129.276 451.687 129.341 451.912 129.34 452.141C129.37 452.5 129.306 452.861 129.153 453.188C129.023 453.449 128.849 453.687 128.639 453.89C128.491 454.062 128.302 454.195 128.089 454.275C127.877 454.355 127.648 454.38 127.423 454.348C127.021 454.265 126.609 453.892 126.187 453.229L121.255 445.16C121.021 444.811 120.834 444.434 120.7 444.036C120.606 443.753 120.569 443.455 120.591 443.157C120.618 442.893 120.71 442.64 120.858 442.42C121.032 442.164 121.234 441.93 121.46 441.72L121.58 441.606C121.657 441.525 121.754 441.465 121.862 441.433C121.969 441.401 122.083 441.398 122.192 441.423C122.302 441.446 122.406 441.492 122.496 441.559C122.586 441.625 122.661 441.711 122.715 441.809C122.845 442.031 122.9 442.288 122.873 442.544C122.871 442.809 122.764 443.063 122.577 443.251L122.456 443.365ZM132.205 448.053C131.923 447.956 131.648 447.836 131.383 447.697C131.089 447.547 130.842 447.318 130.67 447.036C130.53 446.787 130.48 446.497 130.53 446.215C130.587 445.871 130.668 445.531 130.774 445.198C130.867 444.904 130.906 444.596 130.892 444.289C130.889 444.056 130.833 443.827 130.727 443.62C130.614 443.442 130.429 443.476 130.169 443.723C129.965 443.919 129.8 444.153 129.684 444.411C129.557 444.697 129.487 445.005 129.478 445.318C129.469 445.686 129.511 446.053 129.604 446.409C129.717 446.839 129.899 447.248 130.142 447.62L131.531 449.863C131.611 449.984 131.666 450.119 131.691 450.261C131.716 450.403 131.712 450.549 131.678 450.69C131.62 450.944 131.489 451.177 131.303 451.359C131.226 451.436 131.136 451.497 131.036 451.538C130.935 451.579 130.828 451.6 130.72 451.6C130.595 451.588 130.476 451.543 130.374 451.47C130.272 451.398 130.192 451.299 130.14 451.185L124.576 442.12C124.341 441.769 124.152 441.389 124.014 440.989C123.916 440.704 123.876 440.403 123.898 440.103C123.924 439.842 124.013 439.591 124.158 439.372C124.328 439.119 124.528 438.886 124.752 438.679L124.887 438.551C124.962 438.468 125.059 438.407 125.167 438.375C125.274 438.343 125.389 438.341 125.497 438.37C125.714 438.428 125.901 438.566 126.021 438.756C126.137 438.976 126.191 439.224 126.177 439.473C126.178 439.603 126.152 439.731 126.101 439.85C126.05 439.97 125.976 440.077 125.882 440.166L125.747 440.294C125.717 440.323 125.723 440.374 125.765 440.448C125.807 440.522 125.861 440.613 125.927 440.722L128.265 444.565C128.312 444.047 128.433 443.539 128.625 443.056C128.778 442.646 129.016 442.274 129.325 441.964C129.513 441.767 129.74 441.61 129.991 441.503C130.242 441.397 130.512 441.342 130.785 441.343C131.05 441.354 131.307 441.436 131.53 441.58C131.752 441.725 131.931 441.927 132.049 442.164C132.366 442.7 132.529 443.313 132.522 443.936C132.535 444.584 132.402 445.228 132.131 445.818C132.209 445.839 132.337 445.884 132.515 445.952C132.693 446.019 132.876 446.087 133.065 446.155C133.234 446.218 133.408 446.266 133.585 446.299C133.745 446.327 133.855 446.313 133.915 446.256C133.94 446.111 133.976 445.969 134.021 445.829C134.066 445.684 134.148 445.553 134.258 445.448C134.333 445.372 134.423 445.313 134.522 445.275C134.622 445.237 134.729 445.221 134.835 445.228C134.947 445.24 135.053 445.282 135.144 445.348C135.234 445.414 135.306 445.504 135.351 445.606C135.473 445.797 135.536 446.02 135.531 446.246C135.531 446.478 135.5 446.708 135.439 446.932C135.385 447.138 135.306 447.337 135.205 447.524C135.132 447.669 135.037 447.802 134.925 447.919C134.744 448.101 134.523 448.237 134.279 448.318C134.061 448.385 133.833 448.414 133.605 448.403C133.369 448.391 133.135 448.351 132.908 448.283C132.671 448.214 132.437 448.137 132.205 448.053ZM140.21 439.396C140.275 439.505 140.34 439.618 140.406 439.737C140.455 439.822 140.497 439.911 140.53 440.003L140.548 439.872C140.58 439.61 140.7 439.366 140.887 439.18C140.96 439.104 141.049 439.046 141.147 439.009C141.245 438.973 141.35 438.959 141.455 438.968C141.562 438.981 141.665 439.02 141.754 439.082C141.843 439.145 141.915 439.228 141.964 439.324C142.081 439.541 142.145 439.784 142.151 440.03C142.14 440.37 142.067 440.705 141.936 441.018C141.826 441.276 141.666 441.51 141.465 441.706C140.897 442.247 140.326 442.305 139.752 441.882C139.713 442.35 139.603 442.81 139.425 443.246C139.248 443.68 138.979 444.072 138.637 444.394C138.325 444.714 137.937 444.95 137.509 445.08C137.155 445.178 136.781 445.173 136.429 445.067C136.064 444.95 135.729 444.752 135.451 444.487C135.127 444.182 134.851 443.83 134.631 443.444C134.318 442.938 134.076 442.391 133.913 441.819C133.735 441.219 133.643 440.597 133.639 439.972C133.635 439.359 133.734 438.749 133.934 438.17C134.131 437.596 134.465 437.078 134.907 436.662C135.24 436.322 135.688 436.12 136.163 436.096C136.147 435.91 136.174 435.723 136.243 435.55C136.305 435.39 136.4 435.246 136.524 435.127C136.601 435.049 136.693 434.989 136.795 434.949C136.896 434.909 137.005 434.89 137.114 434.893C137.24 434.907 137.361 434.953 137.464 435.028C137.567 435.102 137.648 435.202 137.701 435.317L140.21 439.396ZM135.902 438.278C135.664 438.503 135.499 438.793 135.428 439.113C135.351 439.452 135.328 439.801 135.358 440.147C135.387 440.507 135.461 440.863 135.578 441.205C135.683 441.522 135.828 441.825 136.008 442.107C136.114 442.277 136.237 442.437 136.375 442.583C136.495 442.714 136.642 442.818 136.805 442.886C136.955 442.948 137.12 442.965 137.279 442.935C137.462 442.893 137.63 442.798 137.76 442.663C137.982 442.451 138.147 442.186 138.24 441.894C138.341 441.587 138.386 441.264 138.374 440.941C138.362 440.6 138.305 440.261 138.204 439.935C138.105 439.606 137.963 439.29 137.783 438.997C137.576 438.617 137.265 438.305 136.886 438.098C136.726 438.012 136.541 437.982 136.362 438.015C136.183 438.048 136.021 438.141 135.902 438.278ZM147.004 432.971C147.06 433.069 147.118 433.171 147.178 433.274C147.229 433.357 147.273 433.444 147.31 433.533C147.327 433.368 147.371 433.206 147.44 433.055C147.496 432.937 147.573 432.831 147.667 432.74C147.74 432.665 147.829 432.606 147.927 432.57C148.025 432.533 148.131 432.519 148.235 432.528C148.343 432.541 148.445 432.581 148.534 432.643C148.623 432.705 148.695 432.788 148.744 432.885C148.855 433.1 148.924 433.335 148.946 433.577C148.956 433.928 148.882 434.276 148.73 434.593C148.607 434.842 148.443 435.069 148.245 435.265C147.996 435.534 147.657 435.704 147.291 435.744C147.117 435.745 146.945 435.71 146.784 435.642C146.624 435.574 146.48 435.474 146.36 435.348C146.348 435.861 146.254 436.369 146.08 436.852C145.907 437.33 145.623 437.76 145.252 438.108C144.937 438.43 144.547 438.668 144.117 438.802C143.764 438.904 143.388 438.9 143.037 438.789C142.675 438.666 142.344 438.466 142.067 438.202C141.743 437.897 141.467 437.545 141.247 437.158C140.933 436.651 140.694 436.101 140.536 435.526C140.364 434.926 140.271 434.306 140.261 433.681C140.252 433.071 140.349 432.463 140.549 431.886C140.742 431.318 141.071 430.805 141.507 430.392C141.689 430.197 141.921 430.055 142.178 429.982C142.434 429.909 142.706 429.907 142.964 429.977L139.964 425.082C139.811 424.843 139.756 424.553 139.81 424.275C139.855 424.022 139.979 423.791 140.163 423.612C140.243 423.531 140.338 423.467 140.443 423.424C140.548 423.38 140.661 423.358 140.775 423.358C140.899 423.366 141.019 423.408 141.121 423.478C141.224 423.549 141.305 423.646 141.356 423.76L147.004 432.971ZM142.502 432.009C142.264 432.233 142.099 432.524 142.027 432.843C141.95 433.183 141.926 433.532 141.957 433.878C141.986 434.239 142.06 434.594 142.177 434.937C142.282 435.254 142.426 435.557 142.606 435.838C142.713 436.009 142.836 436.168 142.974 436.315C143.094 436.446 143.241 436.549 143.404 436.618C143.554 436.68 143.718 436.697 143.877 436.667C144.067 436.621 144.239 436.521 144.374 436.38C144.601 436.166 144.766 435.896 144.854 435.597C144.945 435.285 144.983 434.96 144.966 434.636C144.951 434.296 144.891 433.96 144.789 433.636C144.69 433.318 144.553 433.013 144.381 432.728C144.175 432.348 143.864 432.036 143.485 431.829C143.325 431.743 143.14 431.713 142.961 431.746C142.783 431.779 142.621 431.871 142.502 432.009ZM152.54 431.185C152.171 431.553 151.721 431.829 151.226 431.991C150.789 432.129 150.324 432.155 149.874 432.066C149.412 431.969 148.977 431.768 148.604 431.478C148.185 431.156 147.834 430.755 147.568 430.298C147.264 429.803 147.039 429.262 146.901 428.697C146.766 428.152 146.722 427.588 146.769 427.029C146.819 426.474 146.964 425.932 147.197 425.427C147.441 424.897 147.786 424.42 148.211 424.021C148.558 423.672 148.969 423.392 149.422 423.198C149.768 423.055 150.141 422.992 150.515 423.015C150.843 423.039 151.158 423.153 151.426 423.345C151.694 423.537 151.921 423.781 152.094 424.063C152.269 424.356 152.392 424.678 152.457 425.013C152.531 425.374 152.546 425.744 152.502 426.109C152.453 426.501 152.337 426.88 152.159 427.232C151.965 427.619 151.704 427.968 151.388 428.264C151.26 428.384 151.126 428.498 150.985 428.604C150.847 428.711 150.695 428.798 150.533 428.862C150.389 428.921 150.23 428.932 150.08 428.895C149.9 428.833 149.75 428.707 149.658 428.541C149.532 428.315 149.475 428.057 149.494 427.8C149.497 427.665 149.526 427.533 149.581 427.41C149.635 427.287 149.714 427.177 149.812 427.085C149.907 426.989 150.024 426.918 150.152 426.875C150.297 426.819 150.429 426.733 150.538 426.622C150.632 426.539 150.708 426.439 150.762 426.326C150.817 426.213 150.848 426.091 150.855 425.966C150.877 425.771 150.839 425.574 150.745 425.401C150.683 425.307 150.598 425.231 150.499 425.178C150.399 425.126 150.288 425.1 150.176 425.102C149.802 425.148 149.461 425.335 149.221 425.625C148.999 425.83 148.82 426.077 148.695 426.352C148.57 426.627 148.501 426.925 148.493 427.227C148.464 427.847 148.621 428.461 148.945 428.991C149.199 429.474 149.632 429.839 150.152 430.007C150.395 430.071 150.651 430.066 150.891 429.994C151.131 429.922 151.347 429.784 151.514 429.597C151.749 429.382 151.946 429.128 152.095 428.846C152.24 428.536 152.334 428.206 152.376 427.867C152.397 427.6 152.512 427.35 152.701 427.16C152.778 427.083 152.872 427.024 152.975 426.987C153.078 426.951 153.189 426.938 153.297 426.949C153.413 426.961 153.524 427.001 153.62 427.066C153.716 427.131 153.795 427.219 153.85 427.321C153.91 427.43 153.953 427.546 153.98 427.667C154.011 427.809 154.025 427.954 154.02 428.099C154.001 428.704 153.844 429.297 153.56 429.832C153.294 430.335 152.95 430.792 152.54 431.185ZM156.748 421.379L159.718 422.288C159.819 422.304 159.914 422.346 159.993 422.412C160.062 422.476 160.119 422.551 160.162 422.635C160.296 422.871 160.346 423.145 160.303 423.412C160.282 423.679 160.167 423.929 159.978 424.119C159.889 424.204 159.779 424.264 159.66 424.293C159.537 424.324 159.409 424.323 159.287 424.291L156.721 423.538L156.668 426.779C156.677 426.945 156.642 427.11 156.567 427.258C156.508 427.374 156.432 427.481 156.339 427.573C156.259 427.651 156.161 427.709 156.053 427.742C155.946 427.775 155.832 427.781 155.721 427.761C155.605 427.746 155.494 427.704 155.397 427.638C155.299 427.572 155.219 427.484 155.162 427.382C155.117 427.298 155.078 427.212 155.044 427.123C155.008 427.007 154.994 426.886 155.002 426.764L155.07 422.999L152.389 422.186C152.217 422.104 152.073 421.974 151.976 421.81C151.834 421.575 151.781 421.296 151.828 421.025C151.854 420.761 151.972 420.513 152.16 420.325C152.248 420.245 152.355 420.188 152.471 420.158C152.594 420.123 152.726 420.121 152.85 420.153L155.096 420.839L155.155 417.964C155.159 417.809 155.193 417.656 155.254 417.514C155.302 417.391 155.375 417.278 155.467 417.184C155.551 417.101 155.654 417.039 155.766 417.004C155.879 416.969 155.998 416.961 156.115 416.981C156.234 416.995 156.347 417.037 156.447 417.103C156.547 417.169 156.63 417.257 156.689 417.361C156.789 417.55 156.834 417.764 156.819 417.977L156.748 421.379Z" fill="black"/>
<path opacity="0.5" d="M62.1379 458.355L149.052 365.204C150.816 363.301 152.8 361.614 154.963 360.181C174.483 347.529 197.3 343.937 211.402 340.927L213.554 340.453C197.438 347.47 171.71 358.809 145.302 384.29C129.709 399.33 89.7407 441.489 59.5819 473.523C57.8746 466.842 58.9306 461.562 62.1379 458.355Z" fill="white"/>
<path d="M223.314 352.838C222.425 357.476 221.291 363.723 219.583 370.7C215.251 369.842 209.083 369.003 202.155 362.075C197.302 357.52 194.236 351.381 193.51 344.765C200.211 343.157 206.369 341.992 211.392 340.936C213.938 340.364 219.692 339.012 221.222 339.298C222.145 339.462 222.996 339.907 223.659 340.571C224.325 341.238 224.772 342.091 224.942 343.018C225.228 344.528 223.807 350.252 223.314 352.838Z" fill="#E6007A"/>
<path d="M213.554 340.453C208.156 342.792 201.662 345.654 194.448 349.335C194.053 347.756 193.757 346.197 193.51 344.766C198.721 343.503 203.606 342.565 207.859 341.667L211.402 340.927L212.853 340.601L213.554 340.453Z" fill="#FF2197"/>
<path d="M222.505 357.121L222.238 358.473L221.972 359.786C221.824 360.585 221.636 361.424 221.478 362.253L221.231 363.467L220.876 365.085C220.797 365.5 220.708 365.924 220.6 366.348L220.264 367.987C220.057 368.865 219.86 369.753 219.603 370.622C217.052 370.206 214.544 369.555 212.113 368.677C218.597 355.068 224.528 340.729 221.715 339.338C222.068 339.442 222.409 339.584 222.732 339.762L222.81 339.841C223.132 340.02 223.428 340.243 223.689 340.502C224.355 341.169 224.802 342.023 224.972 342.95C225.248 344.47 223.827 350.193 223.333 352.779L222.771 355.73L222.505 357.121Z" fill="#A10056"/>
<path d="M169.816 352.333C167.522 353.622 165.824 355.758 165.088 358.284C164.161 361.641 164.219 365.194 165.256 368.518C166.406 372.573 168.235 376.404 170.664 379.847C173.467 383.894 173.674 389.608 170.348 393.229L168.977 394.72C165.641 398.351 160.065 398.499 157.134 394.542C153.707 390.033 151.141 384.931 149.565 379.492C147.483 371.706 148.805 365.548 152.614 361.896C153.503 361.032 154.522 360.312 155.634 359.765C160.16 356.921 164.902 354.436 169.816 352.333Z" fill="#A10056"/>
<path d="M152.575 361.937C153.345 361.325 154.134 360.733 154.963 360.181C155.506 359.835 156.059 359.519 156.601 359.174C157.42 358.671 158.24 358.167 159.068 357.694L159.996 357.181C160.884 356.687 161.773 356.194 162.661 355.72C163.549 355.246 164.378 354.871 165.227 354.457C165.562 354.299 165.898 354.121 166.213 353.963C167.398 353.411 168.572 352.888 169.756 352.394C167.498 353.683 165.828 355.799 165.098 358.296C164.251 361.321 164.231 364.517 165.039 367.553C160.045 371.263 154.953 375.428 149.802 380.106L149.594 379.484C147.522 371.747 148.815 365.599 152.575 361.937Z" fill="#E6007A"/>
<path d="M47.2562 461.354C49.3089 459.301 77.2571 440.689 89.9483 441.557C90.5785 441.591 91.1868 441.801 91.7046 442.162C92.2224 442.523 92.6292 443.021 92.8793 443.6C93.3283 444.872 93.4638 446.233 93.274 447.567C92.0566 457.541 87.4509 466.794 80.2276 473.779L69.451 484.555L56.3255 478.733C51.4875 476.343 47.7884 472.141 46.0325 467.038C45.7118 466.07 45.658 465.032 45.8768 464.035C46.0956 463.039 46.5789 462.119 47.2759 461.374L47.2562 461.354Z" fill="#D0D0D0"/>
<path d="M52.7238 462.065C52.4301 461.158 52.3785 460.19 52.5741 459.257C52.7697 458.324 53.2057 457.458 53.8389 456.746C55.1317 455.907 56.5825 455.009 58.1417 454.081C57.4999 454.766 57.0548 455.612 56.8533 456.529C56.6518 457.446 56.7015 458.401 56.9969 459.292C58.6158 463.99 62.0241 467.86 66.4808 470.059L78.5601 475.427L75.185 478.802L62.6024 473.207C57.9726 470.936 54.4236 466.933 52.7238 462.065Z" fill="#E6007A"/>
<path opacity="0.25" d="M92.8498 443.571C93.3175 444.848 93.4633 446.221 93.2741 447.568C92.0529 457.545 87.444 466.801 80.2178 473.789L69.4511 484.556L56.3256 478.733C55.1207 478.172 53.9848 477.473 52.9406 476.651C65.0495 467.956 91.9616 448.189 92.8498 443.571Z" fill="black"/>
<path d="M59.8488 471.597C61.1712 470.63 62.5528 469.623 63.9542 468.577C64.7276 469.151 65.5576 469.643 66.4312 470.048L78.5105 475.417L75.1354 478.792L62.5528 473.196C61.5995 472.756 60.6934 472.221 59.8488 471.597Z" fill="#A10056"/>
<path d="M125.327 537.926L135.877 544.134L142.084 554.683C138.889 559.121 134.961 562.983 130.469 566.101C122.347 572.032 110.416 574.174 108.126 571.884C105.837 569.595 107.968 557.654 113.899 549.532C117.018 545.039 120.883 541.114 125.327 537.926Z" fill="#D0D0D0"/>
<path opacity="0.7" d="M125.327 537.926L135.877 544.134L142.084 554.683C138.889 559.121 134.961 562.983 130.469 566.101C122.347 572.032 110.416 574.174 108.126 571.884C105.837 569.595 107.968 557.654 113.899 549.532C117.018 545.039 120.883 541.114 125.327 537.926Z" fill="white"/>
<path d="M127.212 541.823L138.68 553.291C130.449 564.798 117.551 567.176 115.439 565.064C113.327 562.952 115.616 550.044 127.212 541.823Z" fill="#D0D0D0"/>
<path d="M132.947 547.558L130.973 545.584C128.462 546.286 126.237 547.765 124.618 549.808C122.18 552.719 120.315 557.802 121.499 558.986C122.683 560.17 127.766 558.305 130.677 555.867C132.726 554.253 134.206 552.026 134.901 549.512L132.927 547.538" fill="white"/>
<path d="M135.729 529.577L140.594 526.547L153.424 539.376L150.404 544.252C149.612 545.111 148.612 545.75 147.5 546.108C146.388 546.466 145.202 546.53 144.058 546.294C143.099 546.149 142.163 545.877 141.275 545.485C138.231 544.109 135.793 541.671 134.417 538.626C134.039 537.75 133.781 536.828 133.647 535.883C133.419 534.741 133.491 533.56 133.856 532.455C134.221 531.35 134.866 530.358 135.729 529.577Z" fill="#D0D0D0"/>
<path d="M134.762 530.169L134.288 530.465L132.196 531.768C131.331 532.634 130.693 533.701 130.34 534.874C129.987 536.046 129.93 537.288 130.173 538.488C130.341 539.537 130.646 540.559 131.081 541.528C132.573 544.826 135.214 547.467 138.512 548.959C139.481 549.401 140.508 549.703 141.562 549.857C142.764 550.102 144.009 550.044 145.183 549.69C146.358 549.335 147.426 548.694 148.292 547.824L144.749 553.538C143.818 554.373 142.692 554.96 141.475 555.246C140.257 555.533 138.988 555.509 137.782 555.176C136.586 554.933 135.428 554.532 134.338 553.982C130.765 552.177 127.864 549.275 126.058 545.702C125.527 544.629 125.139 543.491 124.903 542.317C124.568 541.112 124.543 539.842 124.829 538.624C125.116 537.406 125.705 536.28 126.541 535.35L134.762 530.169Z" fill="#D0D0D0"/>
<path d="M134.289 530.465L134.762 530.169L135.729 529.577C134.867 530.364 134.224 531.362 133.864 532.473C133.504 533.584 133.439 534.77 133.677 535.913C133.81 536.858 134.069 537.78 134.446 538.657C135.822 541.701 138.261 544.139 141.305 545.515C142.193 545.907 143.129 546.18 144.088 546.324C145.232 546.56 146.418 546.496 147.53 546.138C148.642 545.78 149.642 545.141 150.434 544.282L148.243 547.795C147.377 548.665 146.309 549.306 145.134 549.66C143.959 550.015 142.715 550.073 141.512 549.828C140.459 549.674 139.432 549.372 138.463 548.93C135.165 547.438 132.523 544.797 131.032 541.499C130.597 540.53 130.292 539.508 130.124 538.459C129.881 537.259 129.938 536.017 130.291 534.845C130.644 533.672 131.282 532.605 132.147 531.739L134.289 530.465Z" fill="#E6007A"/>
<path opacity="0.15" d="M138.947 541.064C136.223 538.341 133.183 533.564 133.864 530.732L134.289 530.465L134.762 530.169L135.729 529.577L140.595 526.547L153.424 539.377L150.404 544.252L149.24 546.127C146.694 547.232 141.641 543.758 138.947 541.064Z" fill="black"/>
<path d="M308.599 377.491C308.322 377.209 307.969 377.014 307.583 376.928C305.288 377.049 303.003 377.323 300.744 377.747C295.415 378.833 284.609 380.718 276.329 385.859C275.404 386.435 274.559 387.129 273.812 387.922C223.62 432.667 191.122 468.934 138.334 523.202C136.459 525.077 136.203 528.63 138.522 533.14C139.405 534.844 140.528 536.413 141.858 537.798C143.19 539.171 144.708 540.35 146.368 541.302C150.818 543.779 154.391 543.719 156.295 541.874C212.774 491.455 250.117 460.21 296.796 411.834C297.611 411.109 298.333 410.287 298.948 409.386C304.415 401.314 306.724 390.596 308.027 385.307C308.535 383.063 308.898 380.788 309.113 378.497C309.04 378.109 308.859 377.75 308.59 377.461L308.599 377.491Z" fill="#E6007A"/>
<path d="M138.255 532.556C136.242 528.332 136.548 524.927 138.334 523.2C191.122 468.932 223.62 432.665 273.812 387.92C274.558 387.127 275.404 386.434 276.328 385.857C284.608 380.716 295.415 378.831 300.744 377.745C303.003 377.321 305.287 377.047 307.583 376.926C295.355 381.91 278.954 394.522 252.249 419.905C233.449 437.757 172.648 498.262 138.255 532.556Z" fill="#C40068"/>
<path d="M269.174 398.263C268.555 396.297 268.507 394.196 269.036 392.204C270.516 390.862 272.016 389.52 273.536 388.158C273.199 389.974 273.297 391.844 273.822 393.615C275.924 401.382 283.819 409.277 291.586 411.379C293.314 411.876 295.131 411.98 296.905 411.685L296.747 411.843C295.247 413.343 293.787 414.803 292.366 416.362C290.548 416.698 288.677 416.593 286.908 416.056C279.201 413.974 271.237 406.01 269.174 398.263Z" fill="#1C1C26"/>
<path d="M278.895 421.623C277.954 421.418 276.977 421.44 276.046 421.685C275.115 421.93 274.255 422.393 273.536 423.034C272.293 424.278 272.668 425.659 274.385 426.133C275.326 426.335 276.302 426.313 277.233 426.068C278.164 425.823 279.024 425.361 279.744 424.722C280.957 423.468 280.592 422.077 278.895 421.623Z" fill="#D0D0D0"/>
<path d="M270.96 429.716C270.07 429.527 269.147 429.55 268.267 429.785C267.387 430.02 266.575 430.46 265.898 431.068C264.713 432.253 265.069 433.555 266.687 433.989C267.577 434.176 268.498 434.15 269.376 433.913C270.254 433.677 271.064 433.236 271.74 432.628C272.914 431.453 272.569 430.141 270.96 429.716Z" fill="#D0D0D0"/>
<path d="M262.848 437.63C262.004 437.459 261.132 437.486 260.299 437.709C259.467 437.932 258.698 438.344 258.052 438.913C256.937 440.028 257.272 441.272 258.822 441.657C259.663 441.835 260.534 441.812 261.364 441.589C262.194 441.366 262.96 440.949 263.598 440.374C264.694 439.278 264.368 438.045 262.848 437.63Z" fill="#D0D0D0"/>
<path d="M254.608 445.437C253.813 445.268 252.989 445.289 252.204 445.498C251.419 445.707 250.694 446.099 250.088 446.641C249.032 447.697 249.348 448.861 250.759 449.286C251.551 449.452 252.371 449.429 253.153 449.22C253.934 449.011 254.656 448.621 255.259 448.082C256.355 446.986 255.99 445.871 254.608 445.437Z" fill="#D0D0D0"/>
<path d="M246.278 453.154C245.533 452.999 244.762 453.021 244.027 453.218C243.291 453.415 242.613 453.782 242.045 454.289C241.058 455.276 241.354 456.381 242.696 456.736C243.441 456.894 244.213 456.874 244.949 456.677C245.685 456.479 246.363 456.111 246.93 455.601C247.916 454.614 247.65 453.539 246.278 453.154Z" fill="#D0D0D0"/>
<path d="M237.92 460.842C237.224 460.694 236.503 460.713 235.815 460.896C235.127 461.08 234.493 461.423 233.963 461.898C233.035 462.826 233.321 463.842 234.575 464.188C235.273 464.334 235.996 464.313 236.685 464.128C237.374 463.943 238.01 463.598 238.542 463.122C239.46 462.204 239.183 461.178 237.92 460.842Z" fill="#D0D0D0"/>
<path d="M229.58 468.528C228.933 468.389 228.262 468.404 227.622 468.574C226.982 468.744 226.392 469.063 225.899 469.505C225.031 470.374 225.287 471.321 226.472 471.637C227.118 471.774 227.788 471.756 228.426 471.584C229.064 471.413 229.652 471.093 230.143 470.65C231.001 469.792 230.755 468.834 229.58 468.528Z" fill="#D0D0D0"/>
<path d="M96.5503 498.432L104.238 562.786L112.291 564.917C122.998 554.762 128.831 542.16 131.012 524.88C131.949 517.528 132.857 510.718 133.864 504.422C135.167 495.324 137.169 486.34 139.854 477.549C144.078 464.641 154.243 452.325 160.223 446.483C160.406 446.271 160.603 446.073 160.815 445.891C161.013 445.693 161.2 445.506 161.378 445.328L157.351 443.946L96.5503 498.432Z" fill="#D0D0D0"/>
<path opacity="0.35" d="M134.071 475.615C128.643 487.497 125.406 503.425 122.959 522.748C120.768 540.038 114.955 552.621 104.238 562.786L112.291 564.917C122.998 554.762 128.831 542.16 131.012 524.88C131.949 517.528 132.857 510.718 133.864 504.422C135.167 495.324 137.169 486.34 139.854 477.549C144.078 464.641 154.243 452.325 160.223 446.483C160.406 446.271 160.603 446.073 160.815 445.891C161.013 445.693 161.2 445.506 161.378 445.328L157.351 443.946C151.667 449.236 139.992 462.667 134.071 475.615Z" fill="black"/>
<path d="M122.081 552.759C120.526 555.298 118.774 557.71 116.84 559.973L108.797 557.851L108.955 557.693C110.812 555.486 112.498 553.14 113.998 550.676L122.081 552.759Z" fill="#37474F"/>
<path d="M157.371 443.965C151.677 449.225 139.993 462.667 134.081 475.605C128.644 487.496 125.407 503.424 122.969 522.738C120.788 540.018 114.966 552.63 104.248 562.775L96.5604 498.421L157.371 443.965Z" fill="#D0D0D0"/>
<path d="M106.744 489.303L114.027 550.627C112.502 553.195 110.766 555.631 108.836 557.91L101.227 494.247L106.744 489.303Z" fill="#E6007A"/>
</g>
</g>
</svg>
