<svg width="365" height="142" viewBox="0 0 365 142" fill="none" xmlns="http://www.w3.org/2000/svg">
<g filter="url(#filter0_d_4005_52884)">
<path fill-rule="evenodd" clip-rule="evenodd" d="M49.3825 67.775H46.6382C45.3521 67.775 44.3054 66.7289 44.3047 65.4436C44.3047 64.1568 45.3514 63.1101 46.6382 63.1094H49.3825C49.6632 63.1094 49.891 63.3372 49.891 63.6178C49.891 63.8985 49.6632 64.1263 49.3825 64.1263H46.6382C45.9121 64.127 45.3216 64.7175 45.3216 65.4429C45.3216 66.1676 45.9128 66.7581 46.6382 66.7581H49.3825C49.6632 66.7581 49.891 66.9859 49.891 67.2666C49.891 67.5472 49.6632 67.775 49.3825 67.775Z" fill="#A8ADB7"/>
<path fill-rule="evenodd" clip-rule="evenodd" d="M46.9485 65.9095H46.737C46.4563 65.9095 46.2285 65.6817 46.2285 65.401C46.2285 65.1204 46.4563 64.8926 46.737 64.8926H46.9485C47.2292 64.8926 47.457 65.1204 47.457 65.401C47.457 65.6817 47.2292 65.9095 46.9485 65.9095Z" fill="#A8ADB7"/>
<mask id="mask0_4005_52884" style="mask-type:luminance" maskUnits="userSpaceOnUse" x="35" y="59" width="15" height="14">
<path fill-rule="evenodd" clip-rule="evenodd" d="M35.8994 59.0327H49.8913V72.031H35.8994V59.0327Z" fill="white"/>
</mask>
<g mask="url(#mask0_4005_52884)">
<path fill-rule="evenodd" clip-rule="evenodd" d="M39.9657 60.0496C38.2844 60.0496 36.9163 61.4177 36.9163 63.0991V67.9647C36.9163 69.646 38.2844 71.0141 39.9657 71.0141H45.8259C47.5072 71.0141 48.8747 69.646 48.8747 67.9647V63.0991C48.8747 61.4177 47.5072 60.0496 45.8259 60.0496H39.9657ZM45.8259 72.031H39.9657C37.7238 72.031 35.8994 70.2067 35.8994 67.9647V63.0991C35.8994 60.8564 37.7238 59.0327 39.9657 59.0327H45.8259C48.0679 59.0327 49.8916 60.8564 49.8916 63.0991V67.9647C49.8916 70.2067 48.0679 72.031 45.8259 72.031Z" fill="#A8ADB7"/>
</g>
<path fill-rule="evenodd" clip-rule="evenodd" d="M43.1423 63.1263H39.4821C39.2014 63.1263 38.9736 62.8985 38.9736 62.6178C38.9736 62.3372 39.2014 62.1094 39.4821 62.1094H43.1423C43.423 62.1094 43.6508 62.3372 43.6508 62.6178C43.6508 62.8985 43.423 63.1263 43.1423 63.1263Z" fill="#A8ADB7"/>
<path d="M66.4505 61.0926C69.2124 61.0926 70.9411 63.0374 70.9411 66.1302C70.9411 69.223 69.2124 71.1611 66.4505 71.1611C63.6885 71.1611 61.9598 69.223 61.9598 66.1302C61.9598 63.0374 63.6885 61.0926 66.4505 61.0926ZM66.4505 62.2136C64.4584 62.2136 63.2091 63.7262 63.2091 66.1302C63.2091 68.5275 64.4584 70.0401 66.4505 70.0401C68.4425 70.0401 69.6918 68.5275 69.6918 66.1302C69.6918 63.7262 68.4425 62.2136 66.4505 62.2136ZM78.1058 66.2788H76.9579C76.789 65.5157 76.1948 64.8877 75.1616 64.8877C73.9461 64.8877 73.1223 65.8939 73.1223 67.4875C73.1223 69.1217 73.9596 70.0874 75.1751 70.0874C76.134 70.0874 76.762 69.5809 76.9646 68.7368H78.1194C77.937 70.1347 76.762 71.1206 75.1684 71.1206C73.2235 71.1206 71.927 69.7497 71.927 67.4875C71.927 65.2726 73.2168 63.8545 75.1549 63.8545C76.9106 63.8545 77.9573 65.016 78.1058 66.2788ZM85.0343 66.2788H83.8863C83.7175 65.5157 83.1232 64.8877 82.09 64.8877C80.8745 64.8877 80.0507 65.8939 80.0507 67.4875C80.0507 69.1217 80.888 70.0874 82.1035 70.0874C83.0624 70.0874 83.6904 69.5809 83.893 68.7368H85.0478C84.8654 70.1347 83.6904 71.1206 82.0968 71.1206C80.152 71.1206 78.8554 69.7497 78.8554 67.4875C78.8554 65.2726 80.1452 63.8545 82.0833 63.8545C83.839 63.8545 84.8857 65.016 85.0343 66.2788ZM88.4444 70.1212C89.5519 70.1212 90.4028 69.3446 90.4028 68.3317V67.7577L88.5255 67.8725C87.5801 67.9332 87.0399 68.3519 87.0399 69.0137C87.0399 69.6822 87.6003 70.1212 88.4444 70.1212ZM88.1811 71.1206C86.7832 71.1206 85.8446 70.2765 85.8446 69.0137C85.8446 67.8117 86.7697 67.0554 88.3904 66.9608L90.4028 66.846V66.2585C90.4028 65.4009 89.8355 64.8877 88.8631 64.8877C87.9582 64.8877 87.391 65.3131 87.2424 66.0019H86.108C86.189 64.7864 87.2289 63.8545 88.8901 63.8545C90.5378 63.8545 91.5778 64.7459 91.5778 66.1437V70.999H90.4635V69.7903H90.4365C90.0179 70.5939 89.1265 71.1206 88.1811 71.1206ZM92.9486 65.9141C92.9486 64.7121 94.0223 63.8545 95.5687 63.8545C97.0205 63.8545 98.0875 64.7189 98.1415 65.9074H97.0205C96.9395 65.2321 96.3925 64.8134 95.5282 64.8134C94.6706 64.8134 94.1033 65.2389 94.1033 65.8534C94.1033 66.3396 94.4747 66.6637 95.2716 66.8663L96.3588 67.1296C97.7769 67.4875 98.2901 68.0008 98.2901 69.0339C98.2901 70.2562 97.1353 71.1206 95.4944 71.1206C93.9548 71.1206 92.8811 70.2832 92.7595 69.0407H93.9345C94.0628 69.77 94.6165 70.1617 95.5687 70.1617C96.5208 70.1617 97.1083 69.7565 97.1083 69.1217C97.1083 68.622 96.818 68.3519 96.0279 68.1426L94.7921 67.8252C93.5563 67.5078 92.9486 66.873 92.9486 65.9141ZM99.5731 70.999V63.9761H100.748V70.999H99.5731ZM100.161 62.7943C99.7622 62.7943 99.4313 62.4634 99.4313 62.065C99.4313 61.6598 99.7622 61.3357 100.161 61.3357C100.566 61.3357 100.897 61.6598 100.897 62.065C100.897 62.4634 100.566 62.7943 100.161 62.7943ZM105.245 71.1206C103.301 71.1206 101.991 69.7227 101.991 67.4875C101.991 65.2456 103.301 63.8545 105.245 63.8545C107.184 63.8545 108.494 65.2456 108.494 67.4875C108.494 69.7227 107.184 71.1206 105.245 71.1206ZM105.245 70.0874C106.488 70.0874 107.298 69.142 107.298 67.4875C107.298 65.8331 106.488 64.8877 105.245 64.8877C104.003 64.8877 103.186 65.8331 103.186 67.4875C103.186 69.142 104.003 70.0874 105.245 70.0874ZM109.682 70.999V63.9761H110.79V65.097H110.817C111.208 64.3407 111.958 63.8545 113.045 63.8545C114.585 63.8545 115.476 64.8472 115.476 66.4409V70.999H114.301V66.6502C114.301 65.5157 113.768 64.8945 112.687 64.8945C111.58 64.8945 110.857 65.6778 110.857 66.8663V70.999H109.682ZM119.291 70.1212C120.399 70.1212 121.25 69.3446 121.25 68.3317V67.7577L119.372 67.8725C118.427 67.9332 117.887 68.3519 117.887 69.0137C117.887 69.6822 118.447 70.1212 119.291 70.1212ZM119.028 71.1206C117.63 71.1206 116.692 70.2765 116.692 69.0137C116.692 67.8117 117.617 67.0554 119.237 66.9608L121.25 66.846V66.2585C121.25 65.4009 120.682 64.8877 119.71 64.8877C118.805 64.8877 118.238 65.3131 118.089 66.0019H116.955C117.036 64.7864 118.076 63.8545 119.737 63.8545C121.385 63.8545 122.425 64.7459 122.425 66.1437V70.999H121.311V69.7903H121.283C120.865 70.5939 119.973 71.1206 119.028 71.1206ZM123.978 70.999V61.2547H125.153V70.999H123.978ZM131.156 67.5956H126.726V66.5016H131.156V67.5956ZM138.503 66.2788H137.355C137.186 65.5157 136.592 64.8877 135.559 64.8877C134.343 64.8877 133.52 65.8939 133.52 67.4875C133.52 69.1217 134.357 70.0874 135.572 70.0874C136.531 70.0874 137.159 69.5809 137.362 68.7368H138.517C138.334 70.1347 137.159 71.1206 135.566 71.1206C133.621 71.1206 132.324 69.7497 132.324 67.4875C132.324 65.2726 133.614 63.8545 135.552 63.8545C137.308 63.8545 138.355 65.016 138.503 66.2788ZM139.658 70.999V61.2547H140.833V65.097H140.86C141.252 64.3137 142.021 63.8545 143.088 63.8545C144.628 63.8545 145.56 64.8945 145.56 66.4611V70.999H144.385V66.6772C144.385 65.563 143.824 64.8945 142.724 64.8945C141.556 64.8945 140.833 65.6913 140.833 66.9068V70.999H139.658ZM149.369 70.1212C150.476 70.1212 151.327 69.3446 151.327 68.3317V67.7577L149.45 67.8725C148.504 67.9332 147.964 68.3519 147.964 69.0137C147.964 69.6822 148.524 70.1212 149.369 70.1212ZM149.105 71.1206C147.707 71.1206 146.769 70.2765 146.769 69.0137C146.769 67.8117 147.694 67.0554 149.315 66.9608L151.327 66.846V66.2585C151.327 65.4009 150.76 64.8877 149.787 64.8877C148.882 64.8877 148.315 65.3131 148.167 66.0019H147.032C147.113 64.7864 148.153 63.8545 149.814 63.8545C151.462 63.8545 152.502 64.7459 152.502 66.1437V70.999H151.388V69.7903H151.361C150.942 70.5939 150.051 71.1206 149.105 71.1206ZM153.994 70.999V63.9761H155.102V65.097H155.129C155.46 64.3542 156.175 63.8545 157.121 63.8545C158.08 63.8545 158.789 64.3407 159.093 65.1916H159.12C159.511 64.3542 160.335 63.8545 161.321 63.8545C162.712 63.8545 163.61 64.7594 163.61 66.1505V70.999H162.435V66.4206C162.435 65.4617 161.902 64.8945 160.977 64.8945C160.045 64.8945 159.39 65.5832 159.39 66.5354V70.999H158.215V66.2923C158.215 65.4482 157.648 64.8945 156.776 64.8945C155.845 64.8945 155.169 65.6238 155.169 66.5962V70.999H153.994ZM168.02 71.1206C166.075 71.1206 164.765 69.7227 164.765 67.4875C164.765 65.2456 166.075 63.8545 168.02 63.8545C169.958 63.8545 171.268 65.2456 171.268 67.4875C171.268 69.7227 169.958 71.1206 168.02 71.1206ZM168.02 70.0874C169.262 70.0874 170.073 69.142 170.073 67.4875C170.073 65.8331 169.262 64.8877 168.02 64.8877C166.777 64.8877 165.96 65.8331 165.96 67.4875C165.96 69.142 166.777 70.0874 168.02 70.0874ZM172.517 70.999V63.9761H173.692V70.999H172.517ZM173.105 62.7943C172.706 62.7943 172.375 62.4634 172.375 62.065C172.375 61.6598 172.706 61.3357 173.105 61.3357C173.51 61.3357 173.841 61.6598 173.841 62.065C173.841 62.4634 173.51 62.7943 173.105 62.7943ZM175.158 65.9141C175.158 64.7121 176.231 63.8545 177.778 63.8545C179.23 63.8545 180.297 64.7189 180.351 65.9074H179.23C179.149 65.2321 178.602 64.8134 177.737 64.8134C176.88 64.8134 176.312 65.2389 176.312 65.8534C176.312 66.3396 176.684 66.6637 177.481 66.8663L178.568 67.1296C179.986 67.4875 180.499 68.0008 180.499 69.0339C180.499 70.2562 179.344 71.1206 177.703 71.1206C176.164 71.1206 175.09 70.2832 174.969 69.0407H176.144C176.272 69.77 176.826 70.1617 177.778 70.1617C178.73 70.1617 179.317 69.7565 179.317 69.1217C179.317 68.622 179.027 68.3519 178.237 68.1426L177.001 67.8252C175.765 67.5078 175.158 66.873 175.158 65.9141Z" fill="white"/>
<path d="M188.789 69.8848C188.06 69.8848 187.461 69.2862 187.461 68.5565C187.461 67.8268 188.06 67.2282 188.789 67.2282C189.519 67.2282 190.118 67.8268 190.118 68.5565C190.118 69.2862 189.519 69.8848 188.789 69.8848ZM197.984 71.1611C195.708 71.1611 194.392 69.2028 194.392 66.1235C194.392 63.0712 195.722 61.0926 197.984 61.0926C200.246 61.0926 201.563 63.0577 201.563 66.1167C201.563 69.196 200.253 71.1611 197.984 71.1611ZM197.984 70.1009C199.504 70.1009 200.341 68.5545 200.341 66.1235C200.341 63.7262 199.49 62.1596 197.984 62.1596C196.478 62.1596 195.614 63.7397 195.614 66.1167C195.614 68.5477 196.458 70.1009 197.984 70.1009ZM212.719 70.999H211.584V63.4899H211.537L208.431 70.9315H207.404L204.298 63.4899H204.251V70.999H203.116V61.2547H204.528L207.891 69.3851H207.945L211.308 61.2547H212.719V70.999ZM214.806 70.999V64.9417H213.826V63.9761H214.806V63.1927C214.806 61.8422 215.434 61.2007 216.73 61.2007C216.993 61.2007 217.277 61.2277 217.446 61.2547V62.2068C217.304 62.1866 217.108 62.1663 216.912 62.1663C216.278 62.1663 215.974 62.504 215.974 63.1995V63.9761H217.412V64.9417H215.981V70.999H214.806ZM218.688 70.999V61.2547H219.863V65.097H219.89C220.282 64.3137 221.052 63.8545 222.119 63.8545C223.658 63.8545 224.59 64.8945 224.59 66.4611V70.999H223.415V66.6772C223.415 65.563 222.855 64.8945 221.754 64.8945C220.586 64.8945 219.863 65.6913 219.863 66.9068V70.999H218.688ZM227.075 71.0666C226.643 71.0666 226.306 70.7289 226.306 70.2967C226.306 69.8645 226.643 69.5269 227.075 69.5269C227.508 69.5269 227.845 69.8645 227.845 70.2967C227.845 70.7289 227.508 71.0666 227.075 71.0666ZM230.587 71.0666C230.155 71.0666 229.817 70.7289 229.817 70.2967C229.817 69.8645 230.155 69.5269 230.587 69.5269C231.019 69.5269 231.357 69.8645 231.357 70.2967C231.357 70.7289 231.019 71.0666 230.587 71.0666ZM236.388 71.1611C233.626 71.1611 231.897 69.223 231.897 66.1302C231.897 63.0374 233.626 61.0926 236.388 61.0926C239.149 61.0926 240.878 63.0374 240.878 66.1302C240.878 68.0143 240.237 69.4729 239.109 70.3237L240.399 72.0997H239.035L238.13 70.8572C237.61 71.0598 237.029 71.1611 236.388 71.1611ZM236.388 70.0401C236.759 70.0401 237.103 69.9861 237.421 69.8848L236.205 68.2101H237.569L238.4 69.3446C239.183 68.6828 239.629 67.5618 239.629 66.1302C239.629 63.7262 238.38 62.2136 236.388 62.2136C234.395 62.2136 233.146 63.7262 233.146 66.1302C233.146 68.5275 234.395 70.0401 236.388 70.0401ZM245.335 71.1611C243.674 71.1611 242.398 70.1617 242.1 68.6355H243.336C243.593 69.5202 244.383 70.1009 245.349 70.1009C246.969 70.1009 247.901 68.6288 247.935 66.0424H247.928C247.921 66.0424 247.921 66.0424 247.915 66.0424C247.503 67.0081 246.436 67.6361 245.193 67.6361C243.336 67.6361 241.959 66.2653 241.959 64.415C241.959 62.4904 243.411 61.0859 245.409 61.0859C246.875 61.0859 248.036 61.8759 248.63 63.2738C248.955 64.0233 249.11 64.9012 249.11 65.9614C249.11 69.2433 247.719 71.1611 245.335 71.1611ZM245.403 66.5692C246.692 66.5692 247.651 65.6508 247.651 64.4083C247.651 63.159 246.679 62.1798 245.423 62.1798C244.174 62.1798 243.188 63.1522 243.188 64.3745C243.188 65.644 244.126 66.5692 245.403 66.5692ZM253.898 63.8545C255.687 63.8545 256.903 65.2861 256.903 67.4875C256.903 69.689 255.694 71.1206 253.925 71.1206C252.919 71.1206 252.108 70.6276 251.69 69.8578H251.662V73.3423H250.487V63.9761H251.602V65.1646H251.629C252.061 64.3745 252.878 63.8545 253.898 63.8545ZM253.668 70.0874C254.917 70.0874 255.701 69.0812 255.701 67.4875C255.701 65.9006 254.917 64.8877 253.668 64.8877C252.466 64.8877 251.656 65.9276 251.656 67.4875C251.656 69.0542 252.466 70.0874 253.668 70.0874ZM260.907 64.8742C259.806 64.8742 259.037 65.7183 258.962 66.8865H262.778C262.751 65.7116 262.015 64.8742 260.907 64.8742ZM262.751 68.9867H263.905C263.703 70.2157 262.514 71.1206 260.981 71.1206C258.969 71.1206 257.747 69.7227 257.747 67.5146C257.747 65.3334 258.989 63.8545 260.927 63.8545C262.825 63.8545 263.993 65.2321 263.993 67.3592V67.8049H258.956V67.8725C258.956 69.2163 259.746 70.1009 261.008 70.1009C261.9 70.1009 262.555 69.6485 262.751 68.9867Z" fill="#7B8290"/>
<rect x="15.043" y="41.499" width="309" height="50" rx="25" stroke="#8BA1BE" stroke-opacity="0.2" shape-rendering="crispEdges"/>
</g>
<path d="M306.545 55.9912L265.862 107.605L268.161 121.999L283.587 120.913L284.702 118.775L291.921 115.482L294.632 106.14L302.708 101.552L303.622 92.903L311.878 89.8755L313.24 81.9485L324.677 68.7691L306.545 55.9912Z" fill="#E6007A"/>
<path opacity="0.6" d="M298.183 66.625L316.7 77.448L312.417 85.5876C312.417 85.5876 307.705 86.0154 299.995 81.3034C296.51 79.1739 293.569 72.3083 293.569 72.3083L298.183 66.625Z" fill="white"/>
<path d="M327.627 43.3298C324.132 41.3799 322.878 36.9667 324.828 33.4719C326.778 29.9757 331.191 28.7236 334.686 30.6728C338.181 32.6221 339.434 37.0353 337.485 40.5307C335.535 44.0262 331.122 45.2783 327.627 43.3298ZM335.071 23.8028C320.606 15.7365 302.342 20.9224 294.275 35.3865C286.208 49.852 291.394 68.1156 305.859 76.1826C320.323 84.2496 338.588 79.0637 346.655 64.5989C354.722 50.1341 349.535 31.8698 335.071 23.8028Z" fill="#E6007A"/>
<defs>
<filter id="filter0_d_4005_52884" x="5.54297" y="35.999" width="328" height="69" filterUnits="userSpaceOnUse" color-interpolation-filters="sRGB">
<feFlood flood-opacity="0" result="BackgroundImageFix"/>
<feColorMatrix in="SourceAlpha" type="matrix" values="0 0 0 0 0 0 0 0 0 0 0 0 0 0 0 0 0 0 127 0" result="hardAlpha"/>
<feOffset dy="4"/>
<feGaussianBlur stdDeviation="4.5"/>
<feComposite in2="hardAlpha" operator="out"/>
<feColorMatrix type="matrix" values="0 0 0 0 0 0 0 0 0 0 0 0 0 0 0 0 0 0 0.25 0"/>
<feBlend mode="normal" in2="BackgroundImageFix" result="effect1_dropShadow_4005_52884"/>
<feBlend mode="normal" in="SourceGraphic" in2="effect1_dropShadow_4005_52884" result="shape"/>
</filter>
</defs>
</svg>
