<svg width="157" height="73" viewBox="0 0 157 73" fill="none" xmlns="http://www.w3.org/2000/svg">
<rect width="157" height="72.2032" rx="36.1016" fill="white"/>
<g opacity="0.2">
<path d="M48.9396 30.3296H37.3955" stroke="#292D32" stroke-width="1.67914" stroke-linecap="round" stroke-linejoin="round"/>
<path d="M66.2562 34.1201V38.0837C66.2562 39.1419 65.4097 40.0077 64.3322 40.0461H60.5611C58.4831 40.0461 56.5784 38.5262 56.4053 36.4482C56.2898 35.2361 56.7515 34.1009 57.5596 33.3121C58.2715 32.581 59.2528 32.1577 60.3302 32.1577H64.3322C65.4097 32.1962 66.2562 33.0619 66.2562 34.1201Z" stroke="#292D32" stroke-width="1.67914" stroke-linecap="round" stroke-linejoin="round"/>
<path d="M57.5592 33.3119C56.7511 34.1007 56.2894 35.2359 56.4048 36.448C56.578 38.526 58.4827 40.0459 60.5606 40.0459H64.3318V42.8358C64.3318 48.6079 60.4837 52.4559 54.7117 52.4559H37.3955C31.6234 52.4559 27.7754 48.6079 27.7754 42.8358V29.3677C27.7754 24.1343 30.9308 20.4787 35.837 19.863C36.3373 19.786 36.8568 19.7476 37.3955 19.7476H54.7117C55.2119 19.7476 55.6929 19.7668 56.1547 19.8437C61.1187 20.4209 64.3318 24.0958 64.3318 29.3677V32.1575H60.3298C59.2523 32.1575 58.2711 32.5807 57.5592 33.3119Z" stroke="#292D32" stroke-width="1.67914" stroke-linecap="round" stroke-linejoin="round"/>
</g>
<rect x="74.6523" y="9.23535" width="54.5722" height="53.7326" rx="26.8663" fill="white"/>
<path opacity="0.7" d="M97.1886 28.3838C96.3689 27.5641 95.0399 27.5641 94.2202 28.3838C93.4005 29.2035 93.4005 30.5325 94.2202 31.3521L98.9697 36.1016L94.2205 40.8508C93.4009 41.6705 93.4009 42.9995 94.2205 43.8192C95.0402 44.6388 96.3692 44.6388 97.1889 43.8192L101.938 39.07L106.687 43.8192C107.507 44.6388 108.836 44.6388 109.656 43.8192C110.475 42.9995 110.475 41.6705 109.656 40.8508L104.906 36.1016L109.656 31.3521C110.476 30.5325 110.476 29.2035 109.656 28.3838C108.836 27.5641 107.507 27.5641 106.688 28.3838L101.938 33.1333L97.1886 28.3838Z" fill="#A8ADB7"/>
<rect x="75.9117" y="10.4947" width="52.0535" height="51.2139" rx="25.607" stroke="#8BA1BE" stroke-opacity="0.15" stroke-width="2.51872" stroke-dasharray="7.56 5.88"/>
<rect x="0.419786" y="0.419786" width="156.16" height="71.3636" rx="35.6818" stroke="#8BA1BE" stroke-opacity="0.1" stroke-width="0.839572"/>
</svg>
