<svg width="12" height="14" viewBox="0 0 12 14" fill="none" xmlns="http://www.w3.org/2000/svg">
<path fill-rule="evenodd" clip-rule="evenodd" d="M0.410704 4.85353C0.736141 5.17897 1.26378 5.17897 1.58922 4.85353L3.49996 2.94279V12.831C3.49996 13.2912 3.87306 13.6643 4.33329 13.6643C4.79353 13.6643 5.16663 13.2912 5.16663 12.831V1.33331C5.16663 0.781028 4.71891 0.333313 4.16663 0.333313C3.90141 0.333313 3.64706 0.43867 3.45952 0.626206L0.410704 3.67502C0.0852667 4.00046 0.0852667 4.5281 0.410704 4.85353ZM11.5892 9.14408C11.2638 8.81864 10.7361 8.81864 10.4107 9.14408L8.49996 11.0548V5.33331C8.49996 4.87308 8.12686 4.49998 7.66663 4.49998C7.20639 4.49998 6.83329 4.87308 6.83329 5.33331V12.6643C6.83329 13.2166 7.28101 13.6643 7.83329 13.6643C8.09851 13.6643 8.35286 13.5589 8.5404 13.3714L11.5892 10.3226C11.9147 9.99716 11.9147 9.46952 11.5892 9.14408Z" fill="white"/>
</svg>
