<svg width="20" height="12" viewBox="0 0 20 12" fill="none" xmlns="http://www.w3.org/2000/svg">
<path d="M3.67349 7.77L0.431492 4.529L0.420492 4.518L0.410492 4.507L0.405492 4.501L0.394492 4.489L0.385492 4.477L0.375492 4.465L0.366492 4.45L0.358492 4.441L0.353492 4.429V4.422V4.416V4.41V4.403L0.323492 4.383C0.261403 4.26551 0.23952 4.1309 0.261192 3.99979C0.282863 3.86867 0.346896 3.74827 0.443492 3.657L3.67349 0.428003C3.78859 0.319346 3.94152 0.259858 4.09979 0.262181C4.25806 0.264504 4.40918 0.328456 4.52104 0.440445C4.63289 0.552433 4.69667 0.703629 4.69881 0.861899C4.70095 1.02017 4.64128 1.17303 4.53249 1.288L2.33249 3.488H12.2095C12.3707 3.488 12.5254 3.55206 12.6394 3.66608C12.7534 3.7801 12.8175 3.93475 12.8175 4.096C12.8175 4.25725 12.7534 4.4119 12.6394 4.52592C12.5254 4.63995 12.3707 4.704 12.2095 4.704H2.32849L4.52849 6.904C4.58489 6.96041 4.62964 7.02737 4.66016 7.10106C4.69069 7.17475 4.7064 7.25374 4.7064 7.3335C4.7064 7.41327 4.69069 7.49225 4.66016 7.56595C4.62964 7.63964 4.58489 7.7066 4.52849 7.763C4.47209 7.81941 4.40513 7.86415 4.33144 7.89467C4.25774 7.9252 4.17876 7.94091 4.09899 7.94091C4.01923 7.94091 3.94024 7.9252 3.86655 7.89467C3.79285 7.86415 3.72589 7.81941 3.66949 7.763L3.67349 7.77Z" fill="#24BA7B"/>
<path d="M15.8764 4.48L19.1184 7.721L19.1294 7.732L19.1394 7.743L19.1444 7.749L19.1554 7.761L19.1644 7.773L19.1744 7.785L19.1834 7.8L19.1914 7.809L19.1964 7.821V7.828V7.834V7.84V7.847L19.2264 7.867C19.2885 7.98449 19.3104 8.1191 19.2887 8.25021C19.2671 8.38133 19.203 8.50173 19.1064 8.593L15.8764 11.822C15.7613 11.9307 15.6084 11.9901 15.4501 11.9878C15.2919 11.9855 15.1407 11.9215 15.0289 11.8096C14.917 11.6976 14.8533 11.5464 14.8511 11.3881C14.849 11.2298 14.9086 11.077 15.0174 10.962L17.2174 8.762L7.34043 8.762C7.17918 8.762 7.02454 8.69794 6.91051 8.58392C6.79649 8.4699 6.73243 8.31525 6.73243 8.154C6.73243 7.99275 6.79649 7.8381 6.91051 7.72408C7.02454 7.61005 7.17918 7.546 7.34043 7.546L17.2214 7.546L15.0214 5.346C14.965 5.28959 14.9203 5.22263 14.8898 5.14894C14.8592 5.07525 14.8435 4.99626 14.8435 4.9165C14.8435 4.83673 14.8592 4.75775 14.8898 4.68405C14.9203 4.61036 14.965 4.5434 15.0214 4.487C15.0778 4.43059 15.1448 4.38585 15.2185 4.35533C15.2922 4.3248 15.3712 4.30909 15.4509 4.30909C15.5307 4.30909 15.6097 4.3248 15.6834 4.35533C15.7571 4.38585 15.824 4.43059 15.8804 4.487L15.8764 4.48Z" fill="#8BA1BE" fill-opacity="0.2"/>
</svg>
