<svg width="20" height="12" viewBox="0 0 20 12" fill="none" xmlns="http://www.w3.org/2000/svg">
<path d="M3.8494 7.76997L0.607395 4.52897L0.596395 4.51797L0.586395 4.50697L0.581395 4.50097L0.570395 4.48897L0.561395 4.47697L0.551395 4.46497L0.542395 4.44997L0.534395 4.44097L0.529395 4.42897V4.42197V4.41597V4.40997V4.40297L0.499395 4.38297C0.437306 4.26548 0.415423 4.13087 0.437095 3.99976C0.458767 3.86864 0.522799 3.74824 0.619395 3.65697L3.8494 0.427973C3.96449 0.319316 4.11743 0.259827 4.27569 0.262151C4.43396 0.264474 4.58508 0.328426 4.69694 0.440414C4.8088 0.552403 4.87257 0.703599 4.87471 0.861868C4.87685 1.02014 4.81719 1.173 4.7084 1.28797L2.5084 3.48797H12.3854C12.5466 3.48797 12.7013 3.55203 12.8153 3.66605C12.9293 3.78007 12.9934 3.93472 12.9934 4.09597C12.9934 4.25722 12.9293 4.41187 12.8153 4.52589C12.7013 4.63992 12.5466 4.70397 12.3854 4.70397H2.5044L4.7044 6.90397C4.7608 6.96038 4.80554 7.02734 4.83606 7.10103C4.86659 7.17472 4.8823 7.25371 4.8823 7.33347C4.8823 7.41324 4.86659 7.49222 4.83606 7.56592C4.80554 7.63961 4.7608 7.70657 4.7044 7.76297C4.64799 7.81938 4.58103 7.86412 4.50734 7.89464C4.43365 7.92517 4.35466 7.94088 4.2749 7.94088C4.19513 7.94088 4.11615 7.92517 4.04245 7.89464C3.96876 7.86412 3.9018 7.81938 3.8454 7.76297L3.8494 7.76997Z" fill="#8BA1BE" fill-opacity="0.2"/>
<path d="M16.0523 4.47997L19.2943 7.72097L19.3053 7.73197L19.3153 7.74297L19.3203 7.74897L19.3313 7.76097L19.3403 7.77297L19.3503 7.78497L19.3593 7.79997L19.3673 7.80897L19.3723 7.82097V7.82797V7.83397V7.83997V7.84697L19.4023 7.86697C19.4644 7.98446 19.4863 8.11907 19.4646 8.25018C19.443 8.3813 19.3789 8.5017 19.2823 8.59297L16.0523 11.822C15.9372 11.9306 15.7843 11.9901 15.626 11.9878C15.4678 11.9855 15.3167 11.9215 15.2048 11.8095C15.0929 11.6975 15.0292 11.5463 15.027 11.3881C15.0249 11.2298 15.0845 11.0769 15.1933 10.962L17.3933 8.76197L7.51634 8.76197C7.35509 8.76197 7.20044 8.69791 7.08642 8.58389C6.97239 8.46987 6.90834 8.31522 6.90834 8.15397C6.90834 7.99271 6.97239 7.83807 7.08642 7.72405C7.20044 7.61002 7.35509 7.54597 7.51634 7.54597L17.3973 7.54597L15.1973 5.34597C15.1409 5.28956 15.0962 5.2226 15.0657 5.14891C15.0351 5.07522 15.0194 4.99623 15.0194 4.91647C15.0194 4.8367 15.0351 4.75772 15.0657 4.68402C15.0962 4.61033 15.1409 4.54337 15.1973 4.48697C15.2537 4.43056 15.3207 4.38582 15.3944 4.3553C15.4681 4.32477 15.5471 4.30906 15.6268 4.30906C15.7066 4.30906 15.7856 4.32477 15.8593 4.3553C15.933 4.38582 15.9999 4.43056 16.0563 4.48697L16.0523 4.47997Z" fill="#E6007A"/>
</svg>
