<svg width="419" height="361" viewBox="0 0 419 361" fill="none" xmlns="http://www.w3.org/2000/svg">
<mask id="mask0_1041_20939" style="mask-type:alpha" maskUnits="userSpaceOnUse" x="0" y="0" width="419" height="361">
<path d="M0 26C0 11.6406 11.6406 0 26 0H393C407.359 0 419 11.6406 419 26V335C419 349.359 407.359 361 393 361H26C11.6406 361 0 349.359 0 335V26Z" fill="black"/>
</mask>
<g mask="url(#mask0_1041_20939)">
<g filter="url(#filter0_d_1041_20939)">
<path d="M514.911 -77.8033C539.756 -104.125 584 -86.5426 584 -50.347V397C584 419.091 566.091 437 544 437H121.759C86.677 437 68.5898 395.056 92.6704 369.544L514.911 -77.8033Z" fill="#8BA1BE" fill-opacity="0.2"/>
</g>
<path d="M394.043 292.447C400.462 297.967 404.871 305.032 406.712 312.749C408.552 320.466 407.742 328.488 404.382 335.801C401.023 343.114 395.266 349.389 387.84 353.833C380.413 358.276 371.651 360.688 362.661 360.763C353.671 360.839 344.858 358.574 337.336 354.257C329.814 349.939 323.921 343.761 320.402 336.506C316.884 329.251 315.898 321.244 317.57 313.497C319.242 305.75 323.496 298.613 329.794 292.987C333.971 289.25 338.947 286.272 344.437 284.223C349.927 282.174 355.824 281.093 361.791 281.043C367.757 280.993 373.677 281.974 379.21 283.931C384.744 285.888 389.784 288.782 394.043 292.447Z" fill="#E6007A"/>
<path opacity="0.3" d="M389.389 296.606C394.871 301.317 398.636 307.349 400.207 313.937C401.779 320.526 401.088 327.375 398.22 333.619C395.353 339.862 390.438 345.22 384.098 349.014C377.758 352.807 370.277 354.867 362.602 354.932C354.927 354.996 347.402 353.063 340.98 349.377C334.558 345.691 329.527 340.417 326.523 334.223C323.519 328.029 322.677 321.192 324.104 314.579C325.532 307.965 329.164 301.871 334.541 297.068C338.107 293.878 342.354 291.335 347.041 289.585C351.728 287.835 356.762 286.913 361.856 286.87C366.95 286.827 372.003 287.665 376.727 289.335C381.452 291.006 385.754 293.476 389.389 296.606V296.606Z" fill="white"/>
<path d="M369.592 286.027L354.306 295.862C353.966 296.083 353.678 296.361 353.46 296.679C353.241 296.997 353.097 297.35 353.034 297.717C352.972 298.085 352.992 298.459 353.095 298.82C353.198 299.18 353.38 299.519 353.633 299.817L403.737 359.577C403.987 359.877 404.302 360.132 404.663 360.326C405.025 360.52 405.427 360.649 405.846 360.706C406.265 360.763 406.693 360.748 407.105 360.659C407.517 360.571 407.905 360.413 408.247 360.193L423.533 350.332C423.808 350.155 424.046 349.938 424.236 349.69C424.643 349.211 424.862 348.63 424.862 348.033C424.862 347.436 424.643 346.855 424.236 346.377L374.131 286.617C373.722 286.145 373.156 285.795 372.511 285.616C371.867 285.437 371.174 285.437 370.53 285.616C370.19 285.698 369.871 285.837 369.592 286.027Z" fill="#E6007A"/>
<path opacity="0.2" d="M357.879 299.276L371.759 290.314C371.994 290.169 372.284 290.11 372.568 290.148C372.852 290.186 373.107 290.319 373.282 290.519C373.367 290.62 373.429 290.735 373.463 290.857C373.498 290.979 373.504 291.106 373.483 291.23C373.461 291.354 373.411 291.473 373.337 291.58C373.262 291.688 373.164 291.781 373.048 291.855L359.167 300.817L362.096 304.31L375.976 295.347C376.211 295.203 376.501 295.143 376.785 295.182C377.068 295.22 377.324 295.353 377.499 295.553C377.584 295.654 377.646 295.768 377.68 295.89C377.715 296.012 377.721 296.139 377.7 296.263C377.678 296.388 377.628 296.507 377.553 296.614C377.479 296.721 377.381 296.814 377.265 296.888L363.384 305.851L366.312 309.343L380.193 300.381C380.428 300.236 380.718 300.177 381.001 300.215C381.285 300.253 381.541 300.386 381.716 300.586C381.805 300.686 381.87 300.8 381.907 300.923C381.944 301.045 381.951 301.173 381.929 301.298C381.907 301.424 381.856 301.544 381.779 301.651C381.702 301.758 381.601 301.85 381.481 301.922L367.601 310.884L370.529 314.377L384.41 305.414C384.645 305.27 384.935 305.21 385.218 305.248C385.502 305.287 385.758 305.42 385.933 305.62C386.019 305.719 386.083 305.832 386.12 305.953C386.157 306.074 386.166 306.201 386.147 306.325C386.128 306.449 386.081 306.568 386.009 306.677C385.937 306.785 385.841 306.879 385.728 306.955L371.818 315.918L374.746 319.41L388.656 310.448C388.889 310.298 389.18 310.235 389.466 310.274C389.751 310.312 390.008 310.449 390.179 310.653C390.35 310.857 390.421 311.113 390.377 311.363C390.333 311.614 390.177 311.839 389.944 311.988L375.976 320.951L378.904 324.444L392.814 315.481C393.047 315.331 393.339 315.269 393.624 315.307C393.91 315.346 394.166 315.482 394.337 315.687C394.508 315.891 394.579 316.146 394.535 316.397C394.491 316.647 394.336 316.872 394.103 317.022L380.222 325.985L383.151 329.477L397.031 320.515C397.266 320.37 397.556 320.31 397.84 320.349C398.123 320.387 398.379 320.52 398.554 320.72C398.639 320.821 398.701 320.936 398.735 321.058C398.77 321.18 398.776 321.306 398.755 321.431C398.733 321.555 398.683 321.674 398.609 321.781C398.534 321.888 398.436 321.982 398.32 322.055L384.439 331.018L387.368 334.511L401.248 325.548C401.483 325.403 401.773 325.344 402.057 325.382C402.34 325.42 402.596 325.554 402.771 325.753C402.945 325.961 403.018 326.221 402.974 326.476C402.93 326.731 402.773 326.961 402.537 327.115L388.656 336.051L391.584 339.544L405.465 330.581C405.7 330.437 405.99 330.377 406.273 330.416C406.557 330.454 406.813 330.587 406.988 330.787C407.162 330.995 407.235 331.255 407.191 331.51C407.147 331.765 406.99 331.994 406.753 332.148L392.873 341.085L395.801 344.526L409.653 335.589C409.766 335.513 409.895 335.457 410.033 335.425C410.171 335.393 410.315 335.385 410.457 335.401C410.598 335.418 410.734 335.459 410.858 335.522C410.981 335.585 411.089 335.669 411.175 335.769C411.265 335.871 411.331 335.987 411.368 336.112C411.405 336.236 411.413 336.366 411.391 336.493C411.369 336.621 411.318 336.743 411.24 336.852C411.163 336.962 411.061 337.056 410.941 337.13L397.851 345.553C398.265 345.612 398.688 345.591 399.092 345.494C399.497 345.397 399.872 345.224 400.194 344.988L409.945 339.005C410.288 338.773 410.68 338.604 411.098 338.507C411.516 338.411 411.951 338.388 412.379 338.44C412.808 338.493 413.219 338.62 413.591 338.814C413.962 339.008 414.286 339.265 414.543 339.57L421.6 347.967C422.107 348.584 422.32 349.35 422.195 350.103C422.069 350.855 421.614 351.536 420.927 351.999L408.188 360.089C407.857 360.317 407.478 360.484 407.072 360.582C406.666 360.68 406.242 360.705 405.825 360.658C405.408 360.61 405.006 360.489 404.642 360.303C404.279 360.118 403.961 359.87 403.708 359.575L353.633 299.816C353.127 299.191 352.918 298.419 353.049 297.662C353.18 296.905 353.641 296.223 354.335 295.758L354.716 295.501L357.879 299.276Z" fill="black"/>
<path opacity="0.3" d="M370.499 285.614L424.235 349.687C424.641 349.209 424.861 348.628 424.861 348.031C424.861 347.434 424.641 346.853 424.235 346.375L374.13 286.615C373.719 286.138 373.148 285.785 372.497 285.605C371.846 285.426 371.148 285.429 370.499 285.614V285.614Z" fill="white"/>
<path d="M358.025 341.293V357.909C358.025 358.658 357.686 359.376 357.082 359.906C356.477 360.436 355.658 360.733 354.804 360.733H270.232C269.375 360.734 268.553 360.437 267.944 359.908C267.335 359.379 266.989 358.66 266.982 357.909V341.293C266.979 340.987 267.038 340.682 267.157 340.394C267.364 339.823 267.774 339.325 268.328 338.974C268.881 338.623 269.549 338.436 270.232 338.443H354.804C355.46 338.47 356.09 338.672 356.613 339.02C357.136 339.369 357.526 339.848 357.732 340.394C357.904 340.671 358.004 340.978 358.025 341.293V341.293Z" fill="#E6007A"/>
<path opacity="0.2" d="M352.783 357.418V342.292C352.783 342.04 352.669 341.798 352.466 341.62C352.262 341.442 351.987 341.342 351.7 341.342C351.412 341.342 351.137 341.442 350.933 341.62C350.73 341.798 350.616 342.04 350.616 342.292V357.418H345.667V342.292C345.624 342.064 345.491 341.856 345.289 341.706C345.088 341.556 344.833 341.474 344.569 341.474C344.305 341.474 344.05 341.556 343.849 341.706C343.647 341.856 343.513 342.064 343.471 342.292V357.418H338.551V342.292C338.508 342.064 338.375 341.856 338.173 341.706C337.972 341.556 337.717 341.474 337.453 341.474C337.189 341.474 336.934 341.556 336.732 341.706C336.531 341.856 336.397 342.064 336.355 342.292V357.418H331.406V342.292C331.406 342.04 331.292 341.798 331.088 341.62C330.885 341.442 330.61 341.342 330.322 341.342C330.035 341.342 329.759 341.442 329.556 341.62C329.353 341.798 329.239 342.04 329.239 342.292V357.418H324.29V342.292C324.247 342.064 324.113 341.856 323.912 341.706C323.711 341.556 323.456 341.474 323.192 341.474C322.928 341.474 322.672 341.556 322.471 341.706C322.27 341.856 322.136 342.064 322.094 342.292V357.418H317.174V342.292C317.131 342.064 316.997 341.856 316.796 341.706C316.595 341.556 316.34 341.474 316.076 341.474C315.812 341.474 315.556 341.556 315.355 341.706C315.154 341.856 315.02 342.064 314.978 342.292V357.418H310.029V342.292C310.029 342.04 309.915 341.798 309.711 341.62C309.508 341.442 309.232 341.342 308.945 341.342C308.658 341.342 308.382 341.442 308.179 341.62C307.976 341.798 307.862 342.04 307.862 342.292V357.418H302.913V342.292C302.87 342.064 302.736 341.856 302.535 341.706C302.334 341.556 302.078 341.474 301.814 341.474C301.551 341.474 301.295 341.556 301.094 341.706C300.893 341.856 300.759 342.064 300.716 342.292V357.418H295.797V342.292C295.754 342.064 295.62 341.856 295.419 341.706C295.218 341.556 294.962 341.474 294.699 341.474C294.435 341.474 294.179 341.556 293.978 341.706C293.777 341.856 293.643 342.064 293.6 342.292V357.418H288.651V342.318C288.651 342.066 288.537 341.824 288.334 341.646C288.131 341.468 287.855 341.368 287.568 341.368C287.281 341.368 287.005 341.468 286.802 341.646C286.599 341.824 286.484 342.066 286.484 342.318V356.571C286.194 356.31 285.967 356 285.816 355.66C285.666 355.321 285.594 354.958 285.606 354.593L285.313 344.141C285.329 343.765 285.258 343.39 285.105 343.038C284.951 342.687 284.719 342.366 284.421 342.095C284.123 341.824 283.765 341.609 283.37 341.462C282.975 341.315 282.55 341.239 282.121 341.239H270.203C269.337 341.246 268.509 341.546 267.891 342.078C267.274 342.61 266.916 343.331 266.894 344.09L267.099 357.906C267.083 358.276 267.152 358.644 267.303 358.989C267.453 359.335 267.681 359.65 267.974 359.916C268.266 360.182 268.617 360.394 269.005 360.538C269.393 360.683 269.81 360.757 270.232 360.757H354.774C355.647 360.744 356.48 360.434 357.098 359.892C357.715 359.351 358.068 358.62 358.083 357.855V357.444L352.783 357.418Z" fill="black"/>
<path opacity="0.3" d="M357.85 340.394H267.07C267.277 339.823 267.687 339.326 268.241 338.974C268.794 338.623 269.462 338.437 270.145 338.443H354.717C355.408 338.434 356.084 338.618 356.648 338.969C357.211 339.32 357.632 339.819 357.85 340.394V340.394Z" fill="white"/>
<path d="M357.79 319.001V335.616C357.782 336.363 357.44 337.078 356.838 337.606C356.235 338.135 355.42 338.434 354.568 338.441H269.967C269.113 338.441 268.294 338.143 267.69 337.614C267.086 337.084 266.746 336.365 266.746 335.616V319.001C266.742 318.703 266.802 318.406 266.922 318.128C267.113 317.573 267.499 317.086 268.025 316.735C268.551 316.385 269.19 316.189 269.85 316.176H354.451C355.107 316.204 355.738 316.405 356.261 316.753C356.783 317.102 357.173 317.581 357.38 318.128C357.596 318.385 357.737 318.685 357.79 319.001V319.001Z" fill="#E6007A"/>
<path opacity="0.2" d="M352.551 335.128V320.002C352.508 319.774 352.374 319.566 352.173 319.416C351.972 319.266 351.716 319.184 351.452 319.184C351.188 319.184 350.933 319.266 350.732 319.416C350.531 319.566 350.397 319.774 350.354 320.002V335.128H345.435V320.002C345.392 319.774 345.258 319.566 345.057 319.416C344.856 319.266 344.6 319.184 344.336 319.184C344.073 319.184 343.817 319.266 343.616 319.416C343.415 319.566 343.281 319.774 343.238 320.002V335.128H338.289V320.002C338.289 319.75 338.175 319.509 337.972 319.33C337.769 319.152 337.493 319.052 337.206 319.052C336.919 319.052 336.643 319.152 336.44 319.33C336.237 319.509 336.122 319.75 336.122 320.002V335.128H331.173V320.002C331.131 319.774 330.997 319.566 330.796 319.416C330.594 319.266 330.339 319.184 330.075 319.184C329.811 319.184 329.556 319.266 329.355 319.416C329.154 319.566 329.02 319.774 328.977 320.002V335.128H324.057V320.002C324.015 319.774 323.881 319.566 323.68 319.416C323.479 319.266 323.223 319.184 322.959 319.184C322.695 319.184 322.44 319.266 322.239 319.416C322.038 319.566 321.904 319.774 321.861 320.002V335.128H316.912V320.002C316.912 319.75 316.798 319.509 316.595 319.33C316.392 319.152 316.116 319.052 315.829 319.052C315.544 319.059 315.272 319.161 315.071 319.338C314.869 319.514 314.753 319.752 314.745 320.002V335.128H309.796V320.002C309.789 319.752 309.672 319.514 309.471 319.338C309.269 319.161 308.998 319.059 308.713 319.052C308.425 319.052 308.15 319.152 307.947 319.33C307.743 319.509 307.629 319.75 307.629 320.002V335.128H302.768V320.002C302.725 319.774 302.592 319.566 302.39 319.416C302.189 319.266 301.934 319.184 301.67 319.184C301.406 319.184 301.151 319.266 300.949 319.416C300.748 319.566 300.614 319.774 300.572 320.002V335.128H295.623V320.002C295.623 319.75 295.509 319.509 295.305 319.33C295.102 319.152 294.827 319.052 294.539 319.052C294.254 319.059 293.983 319.161 293.781 319.338C293.58 319.514 293.463 319.752 293.456 320.002V335.128H288.419V320.028C288.412 319.778 288.295 319.54 288.093 319.363C287.892 319.186 287.621 319.084 287.336 319.078C287.048 319.078 286.773 319.178 286.569 319.356C286.366 319.534 286.252 319.776 286.252 320.028V334.306C285.67 333.766 285.354 333.046 285.373 332.303L285.081 321.877C285.101 321.497 285.032 321.117 284.878 320.76C284.725 320.404 284.491 320.079 284.189 319.805C283.888 319.531 283.525 319.313 283.125 319.166C282.724 319.019 282.294 318.945 281.859 318.949H269.97C269.105 318.956 268.276 319.257 267.659 319.788C267.042 320.32 266.684 321.041 266.661 321.8L266.837 335.616C266.825 335.987 266.898 336.356 267.052 336.701C267.206 337.047 267.437 337.362 267.731 337.627C268.026 337.893 268.379 338.104 268.768 338.249C269.158 338.393 269.577 338.467 269.999 338.467H354.542C355.41 338.454 356.239 338.147 356.855 337.611C357.472 337.076 357.828 336.352 357.851 335.591V335.154L352.551 335.128Z" fill="black"/>
<path opacity="0.3" d="M357.614 318.128H266.834C267.025 317.574 267.411 317.086 267.937 316.736C268.463 316.385 269.102 316.19 269.762 316.177H354.363C355.074 316.145 355.777 316.319 356.364 316.671C356.951 317.024 357.39 317.536 357.614 318.128Z" fill="white"/>
<path d="M353.191 296.71V313.325C353.184 314.079 352.839 314.8 352.231 315.333C351.623 315.867 350.8 316.169 349.941 316.176H265.369C264.512 316.169 263.693 315.866 263.089 315.332C262.486 314.798 262.148 314.077 262.148 313.325V296.71C262.129 296.411 262.189 296.112 262.324 295.837C262.515 295.282 262.901 294.795 263.427 294.444C263.953 294.094 264.592 293.898 265.252 293.885H349.824C350.505 293.887 351.168 294.076 351.72 294.426C352.271 294.776 352.684 295.27 352.898 295.837C353.059 296.108 353.158 296.405 353.191 296.71V296.71Z" fill="#E6007A"/>
<path opacity="0.2" d="M347.953 312.838V297.738C347.979 297.598 347.97 297.456 347.927 297.319C347.884 297.183 347.807 297.056 347.703 296.949C347.598 296.841 347.468 296.754 347.322 296.695C347.176 296.635 347.016 296.604 346.855 296.604C346.693 296.604 346.534 296.635 346.388 296.695C346.241 296.754 346.111 296.841 346.007 296.949C345.902 297.056 345.826 297.183 345.783 297.319C345.739 297.456 345.731 297.598 345.757 297.738V312.838H340.837V297.738C340.837 297.486 340.723 297.244 340.52 297.066C340.316 296.888 340.041 296.788 339.754 296.788C339.466 296.788 339.191 296.888 338.987 297.066C338.784 297.244 338.67 297.486 338.67 297.738V312.838H333.721V297.738C333.747 297.598 333.738 297.456 333.695 297.319C333.652 297.183 333.575 297.056 333.471 296.949C333.367 296.841 333.237 296.754 333.09 296.695C332.944 296.635 332.784 296.604 332.623 296.604C332.462 296.604 332.302 296.635 332.156 296.695C332.009 296.754 331.879 296.841 331.775 296.949C331.67 297.056 331.594 297.183 331.551 297.319C331.507 297.456 331.499 297.598 331.525 297.738V312.838H326.605V297.738C326.631 297.598 326.622 297.456 326.579 297.319C326.536 297.183 326.459 297.056 326.355 296.949C326.25 296.841 326.121 296.754 325.974 296.695C325.828 296.635 325.668 296.604 325.507 296.604C325.346 296.604 325.186 296.635 325.04 296.695C324.893 296.754 324.763 296.841 324.659 296.949C324.554 297.056 324.478 297.183 324.435 297.319C324.392 297.456 324.383 297.598 324.409 297.738V312.838H319.46V297.738C319.46 297.486 319.346 297.244 319.142 297.066C318.939 296.888 318.664 296.788 318.376 296.788C318.089 296.788 317.813 296.888 317.61 297.066C317.407 297.244 317.293 297.486 317.293 297.738V312.838H312.344V297.738C312.37 297.598 312.361 297.456 312.318 297.319C312.275 297.183 312.198 297.056 312.094 296.949C311.989 296.841 311.859 296.754 311.713 296.695C311.566 296.635 311.407 296.604 311.246 296.604C311.084 296.604 310.925 296.635 310.778 296.695C310.632 296.754 310.502 296.841 310.398 296.949C310.293 297.056 310.217 297.183 310.174 297.319C310.13 297.456 310.121 297.598 310.148 297.738V312.838H305.228V297.738C305.254 297.598 305.245 297.456 305.202 297.319C305.159 297.183 305.082 297.056 304.978 296.949C304.873 296.841 304.743 296.754 304.597 296.695C304.45 296.635 304.291 296.604 304.13 296.604C303.968 296.604 303.809 296.635 303.662 296.695C303.516 296.754 303.386 296.841 303.282 296.949C303.177 297.056 303.101 297.183 303.057 297.319C303.014 297.456 303.005 297.598 303.032 297.738V312.838H298.083V297.738C298.083 297.486 297.968 297.244 297.765 297.066C297.562 296.888 297.286 296.788 296.999 296.788C296.712 296.788 296.436 296.888 296.233 297.066C296.03 297.244 295.916 297.486 295.916 297.738V312.838H291.054V297.738C291.081 297.598 291.072 297.456 291.029 297.319C290.985 297.183 290.909 297.056 290.804 296.949C290.7 296.841 290.57 296.754 290.424 296.695C290.277 296.635 290.118 296.604 289.956 296.604C289.795 296.604 289.636 296.635 289.489 296.695C289.343 296.754 289.213 296.841 289.108 296.949C289.004 297.056 288.927 297.183 288.884 297.319C288.841 297.456 288.832 297.598 288.858 297.738V312.838H283.939V297.738C283.965 297.598 283.956 297.456 283.913 297.319C283.869 297.183 283.793 297.056 283.688 296.949C283.584 296.841 283.454 296.754 283.308 296.695C283.161 296.635 283.002 296.604 282.84 296.604C282.679 296.604 282.52 296.635 282.373 296.695C282.227 296.754 282.097 296.841 281.992 296.949C281.888 297.056 281.811 297.183 281.768 297.319C281.725 297.456 281.716 297.598 281.742 297.738V311.991C281.168 311.446 280.854 310.729 280.864 309.988L280.6 299.561C280.612 299.183 280.537 298.806 280.381 298.453C280.225 298.1 279.99 297.778 279.69 297.505C279.39 297.232 279.031 297.015 278.634 296.865C278.238 296.716 277.811 296.637 277.379 296.634H265.49C264.624 296.64 263.796 296.941 263.178 297.473C262.561 298.005 262.203 298.726 262.181 299.484L262.356 313.301C262.345 313.671 262.418 314.04 262.571 314.386C262.725 314.731 262.956 315.046 263.251 315.312C263.546 315.578 263.898 315.789 264.288 315.933C264.678 316.077 265.096 316.151 265.519 316.151H349.915C350.783 316.138 351.612 315.832 352.228 315.296C352.845 314.76 353.202 314.036 353.224 313.275V312.838H347.953Z" fill="black"/>
<path opacity="0.3" d="M353.015 295.837H262.235C262.427 295.282 262.813 294.795 263.339 294.444C263.865 294.094 264.503 293.898 265.164 293.885H349.735C350.451 293.848 351.161 294.019 351.754 294.372C352.347 294.725 352.79 295.24 353.015 295.837Z" fill="white"/>
<path d="M352.928 274.419V291.034C352.928 291.786 352.59 292.507 351.987 293.041C351.383 293.575 350.564 293.878 349.707 293.885H265.135C264.709 293.885 264.286 293.811 263.892 293.668C263.497 293.524 263.139 293.315 262.837 293.05C262.535 292.785 262.296 292.471 262.132 292.125C261.969 291.779 261.885 291.408 261.885 291.034V274.419C261.881 274.12 261.94 273.824 262.061 273.545C262.256 272.993 262.643 272.508 263.168 272.158C263.693 271.808 264.33 271.611 264.989 271.594H349.619C350.276 271.618 350.909 271.818 351.432 272.167C351.956 272.516 352.345 272.997 352.548 273.545C352.753 273.805 352.884 274.105 352.928 274.419V274.419Z" fill="#E6007A"/>
<path opacity="0.2" d="M347.685 290.544V275.443C347.685 275.191 347.571 274.95 347.368 274.771C347.165 274.593 346.889 274.493 346.602 274.493C346.315 274.493 346.039 274.593 345.836 274.771C345.633 274.95 345.518 275.191 345.518 275.443V290.544H340.569V275.443C340.595 275.304 340.587 275.161 340.543 275.024C340.5 274.888 340.424 274.761 340.319 274.654C340.215 274.546 340.085 274.459 339.938 274.4C339.792 274.34 339.633 274.31 339.471 274.31C339.31 274.31 339.15 274.34 339.004 274.4C338.858 274.459 338.728 274.546 338.623 274.654C338.519 274.761 338.442 274.888 338.399 275.024C338.356 275.161 338.347 275.304 338.373 275.443V290.544H333.453V275.443C333.48 275.304 333.471 275.161 333.427 275.024C333.384 274.888 333.308 274.761 333.203 274.654C333.099 274.546 332.969 274.459 332.823 274.4C332.676 274.34 332.517 274.31 332.355 274.31C332.194 274.31 332.035 274.34 331.888 274.4C331.742 274.459 331.612 274.546 331.507 274.654C331.403 274.761 331.326 274.888 331.283 275.024C331.24 275.161 331.231 275.304 331.257 275.443V290.544H326.191V275.443C326.191 275.191 326.077 274.95 325.874 274.771C325.67 274.593 325.395 274.493 325.108 274.493C324.82 274.493 324.545 274.593 324.341 274.771C324.138 274.95 324.024 275.191 324.024 275.443V290.544H319.075V275.443C319.101 275.304 319.092 275.161 319.049 275.024C319.006 274.888 318.929 274.761 318.825 274.654C318.721 274.546 318.591 274.459 318.444 274.4C318.298 274.34 318.138 274.31 317.977 274.31C317.816 274.31 317.656 274.34 317.51 274.4C317.363 274.459 317.233 274.546 317.129 274.654C317.024 274.761 316.948 274.888 316.905 275.024C316.862 275.161 316.853 275.304 316.879 275.443V290.544H311.959V275.443C311.985 275.304 311.976 275.161 311.933 275.024C311.89 274.888 311.813 274.761 311.709 274.654C311.605 274.546 311.475 274.459 311.328 274.4C311.182 274.34 311.022 274.31 310.861 274.31C310.7 274.31 310.54 274.34 310.394 274.4C310.247 274.459 310.117 274.546 310.013 274.654C309.908 274.761 309.832 274.888 309.789 275.024C309.746 275.161 309.737 275.304 309.763 275.443V290.544H304.814V275.443C304.814 275.191 304.7 274.95 304.497 274.771C304.293 274.593 304.018 274.493 303.73 274.493C303.443 274.493 303.167 274.593 302.964 274.771C302.761 274.95 302.647 275.191 302.647 275.443V290.544H297.698V275.443C297.724 275.304 297.715 275.161 297.672 275.024C297.629 274.888 297.552 274.761 297.448 274.654C297.343 274.546 297.213 274.459 297.067 274.4C296.92 274.34 296.761 274.31 296.6 274.31C296.438 274.31 296.279 274.34 296.132 274.4C295.986 274.459 295.856 274.546 295.752 274.654C295.647 274.761 295.571 274.888 295.528 275.024C295.484 275.161 295.475 275.304 295.502 275.443V290.544H290.582V275.443C290.608 275.304 290.599 275.161 290.556 275.024C290.513 274.888 290.436 274.761 290.332 274.654C290.227 274.546 290.097 274.459 289.951 274.4C289.805 274.34 289.645 274.31 289.484 274.31C289.322 274.31 289.163 274.34 289.017 274.4C288.87 274.459 288.74 274.546 288.636 274.654C288.531 274.761 288.455 274.888 288.412 275.024C288.368 275.161 288.36 275.304 288.386 275.443V290.544H283.437V275.443C283.437 275.191 283.322 274.95 283.119 274.771C282.916 274.593 282.64 274.493 282.353 274.493C282.066 274.493 281.79 274.593 281.587 274.771C281.384 274.95 281.27 275.191 281.27 275.443V289.696C280.977 289.431 280.749 289.117 280.598 288.773C280.447 288.429 280.377 288.061 280.391 287.693L280.098 277.267C280.118 276.889 280.05 276.513 279.898 276.16C279.747 275.806 279.514 275.484 279.215 275.212C278.916 274.941 278.558 274.725 278.161 274.58C277.764 274.434 277.337 274.361 276.906 274.365H264.988C264.138 274.391 263.331 274.7 262.733 275.23C262.134 275.759 261.788 276.47 261.767 277.215L261.972 291.031C261.956 291.401 262.025 291.769 262.176 292.115C262.326 292.46 262.554 292.775 262.847 293.041C263.139 293.307 263.49 293.519 263.878 293.663C264.266 293.808 264.683 293.882 265.105 293.882H349.618C350.491 293.869 351.324 293.559 351.941 293.017C352.559 292.476 352.912 291.746 352.927 290.98V290.544H347.685Z" fill="black"/>
<path opacity="0.3" d="M352.754 273.546H261.975C262.17 272.994 262.557 272.508 263.082 272.159C263.607 271.809 264.244 271.611 264.903 271.594H349.621C350.313 271.581 350.992 271.764 351.556 272.116C352.12 272.467 352.541 272.969 352.754 273.546V273.546Z" fill="white"/>
<path d="M361.335 252.128V268.769C361.335 269.14 361.251 269.507 361.089 269.85C360.927 270.193 360.69 270.504 360.391 270.766C360.092 271.029 359.737 271.237 359.346 271.379C358.955 271.521 358.536 271.594 358.113 271.594H273.629C272.775 271.594 271.956 271.296 271.352 270.766C270.748 270.237 270.408 269.518 270.408 268.769V252.128C270.399 251.832 270.449 251.536 270.555 251.255C270.761 250.684 271.172 250.186 271.725 249.834C272.279 249.483 272.946 249.297 273.629 249.303H358.201C358.882 249.305 359.545 249.494 360.097 249.844C360.649 250.195 361.061 250.688 361.276 251.255C361.352 251.541 361.372 251.836 361.335 252.128Z" fill="#E6007A"/>
<path opacity="0.2" d="M356.179 268.28V253.154C356.183 253.029 356.158 252.904 356.105 252.787C356.052 252.67 355.973 252.564 355.871 252.475C355.77 252.386 355.649 252.316 355.515 252.269C355.382 252.223 355.239 252.201 355.096 252.204C354.809 252.204 354.533 252.304 354.33 252.483C354.127 252.661 354.012 252.902 354.012 253.154V268.28H349.063V253.154C349.063 252.902 348.949 252.661 348.746 252.483C348.543 252.304 348.267 252.204 347.98 252.204C347.837 252.201 347.694 252.223 347.561 252.269C347.427 252.316 347.306 252.386 347.205 252.475C347.103 252.564 347.024 252.67 346.971 252.787C346.918 252.904 346.892 253.029 346.897 253.154V268.28H341.948V253.154C341.905 252.926 341.771 252.718 341.57 252.569C341.369 252.419 341.113 252.336 340.849 252.336C340.585 252.336 340.33 252.419 340.129 252.569C339.928 252.718 339.794 252.926 339.751 253.154V268.28H334.802V253.154C334.806 253.029 334.781 252.904 334.728 252.787C334.675 252.67 334.595 252.564 334.494 252.475C334.392 252.386 334.271 252.316 334.138 252.269C334.005 252.223 333.862 252.201 333.719 252.204C333.431 252.204 333.156 252.304 332.953 252.483C332.749 252.661 332.635 252.902 332.635 253.154V268.28H327.686V253.154C327.686 252.902 327.572 252.661 327.369 252.483C327.166 252.304 326.89 252.204 326.603 252.204C326.459 252.201 326.317 252.223 326.183 252.269C326.05 252.316 325.929 252.386 325.828 252.475C325.726 252.564 325.647 252.67 325.594 252.787C325.541 252.904 325.515 253.029 325.519 253.154V268.28H320.57V253.154C320.528 252.926 320.394 252.718 320.193 252.569C319.991 252.419 319.736 252.336 319.472 252.336C319.208 252.336 318.953 252.419 318.752 252.569C318.551 252.718 318.417 252.926 318.374 253.154V268.28H313.425V253.154C313.429 253.029 313.404 252.904 313.351 252.787C313.298 252.67 313.218 252.564 313.117 252.475C313.015 252.386 312.894 252.316 312.761 252.269C312.628 252.223 312.485 252.201 312.342 252.204C312.054 252.204 311.779 252.304 311.575 252.483C311.372 252.661 311.258 252.902 311.258 253.154V268.28H306.309V253.154C306.309 253.03 306.281 252.906 306.227 252.791C306.172 252.676 306.092 252.571 305.992 252.483C305.891 252.394 305.772 252.324 305.64 252.277C305.509 252.229 305.368 252.204 305.226 252.204C305.082 252.201 304.939 252.223 304.806 252.269C304.673 252.316 304.552 252.386 304.45 252.475C304.349 252.564 304.269 252.67 304.216 252.787C304.163 252.904 304.138 253.029 304.142 253.154V268.28H299.193V253.154C299.15 252.926 299.017 252.718 298.815 252.569C298.614 252.419 298.359 252.336 298.095 252.336C297.831 252.336 297.576 252.419 297.375 252.569C297.173 252.718 297.04 252.926 296.997 253.154V268.28H292.048V253.18C292.052 253.054 292.027 252.929 291.974 252.812C291.921 252.695 291.841 252.589 291.74 252.5C291.638 252.411 291.517 252.342 291.384 252.295C291.251 252.249 291.108 252.226 290.964 252.23C290.822 252.23 290.681 252.255 290.55 252.302C290.418 252.35 290.299 252.42 290.198 252.508C290.098 252.596 290.018 252.701 289.963 252.816C289.909 252.932 289.881 253.055 289.881 253.18V267.433C289.309 266.898 288.994 266.189 289.002 265.456L288.739 255.003C288.751 254.626 288.676 254.25 288.519 253.899C288.363 253.547 288.127 253.227 287.827 252.956C287.527 252.685 287.168 252.47 286.771 252.324C286.374 252.177 285.948 252.101 285.518 252.102H273.482C272.617 252.108 271.788 252.409 271.171 252.941C270.553 253.472 270.196 254.194 270.173 254.952L270.378 268.768C270.362 269.138 270.431 269.506 270.582 269.852C270.732 270.197 270.961 270.512 271.253 270.778C271.546 271.044 271.896 271.256 272.284 271.4C272.672 271.545 273.09 271.619 273.511 271.619H358.054C358.927 271.606 359.76 271.296 360.377 270.754C360.994 270.213 361.348 269.483 361.363 268.717V268.306L356.179 268.28Z" fill="black"/>
<path opacity="0.3" d="M361.334 251.252H270.554C270.761 250.681 271.171 250.183 271.724 249.832C272.278 249.48 272.945 249.294 273.628 249.3H358.2C358.891 249.291 359.568 249.475 360.131 249.826C360.695 250.177 361.116 250.677 361.334 251.252Z" fill="white"/>
<path d="M356.823 229.862V246.478C356.815 247.225 356.473 247.94 355.871 248.468C355.268 248.996 354.454 249.296 353.602 249.303H269.001C268.578 249.303 268.159 249.23 267.768 249.088C267.377 248.946 267.022 248.738 266.723 248.475C266.424 248.213 266.187 247.902 266.025 247.559C265.863 247.216 265.779 246.849 265.779 246.478V229.862C265.776 229.556 265.836 229.252 265.955 228.963C266.15 228.411 266.537 227.926 267.063 227.576C267.588 227.226 268.224 227.029 268.883 227.012H353.485C354.139 227.043 354.768 227.246 355.29 227.594C355.812 227.942 356.203 228.419 356.413 228.963C356.626 229.232 356.767 229.539 356.823 229.862V229.862Z" fill="#E6007A"/>
<path opacity="0.2" d="M351.583 245.886V230.76C351.54 230.531 351.406 230.324 351.205 230.174C351.004 230.024 350.749 229.942 350.485 229.942C350.221 229.942 349.965 230.024 349.764 230.174C349.563 230.324 349.429 230.531 349.387 230.76V245.886H344.467V230.76C344.424 230.531 344.29 230.324 344.089 230.174C343.888 230.024 343.633 229.942 343.369 229.942C343.105 229.942 342.849 230.024 342.648 230.174C342.447 230.324 342.313 230.531 342.271 230.76V245.886H337.322V230.76C337.322 230.508 337.207 230.266 337.004 230.088C336.801 229.91 336.525 229.81 336.238 229.81C335.951 229.81 335.675 229.91 335.472 230.088C335.269 230.266 335.155 230.508 335.155 230.76V245.886H330.206V230.76C330.163 230.531 330.029 230.324 329.828 230.174C329.627 230.024 329.371 229.942 329.107 229.942C328.844 229.942 328.588 230.024 328.387 230.174C328.186 230.324 328.052 230.531 328.009 230.76V245.886H323.09V230.76C323.047 230.531 322.913 230.324 322.712 230.174C322.511 230.024 322.255 229.942 321.992 229.942C321.728 229.942 321.472 230.024 321.271 230.174C321.07 230.324 320.936 230.531 320.893 230.76V245.886H315.944V230.76C315.944 230.508 315.83 230.266 315.627 230.088C315.424 229.91 315.148 229.81 314.861 229.81C314.574 229.81 314.298 229.91 314.095 230.088C313.892 230.266 313.777 230.508 313.777 230.76V245.886H308.828V230.76C308.786 230.531 308.652 230.324 308.451 230.174C308.25 230.024 307.994 229.942 307.73 229.942C307.466 229.942 307.211 230.024 307.01 230.174C306.809 230.324 306.675 230.531 306.632 230.76V245.886H301.713V230.76C301.67 230.531 301.536 230.324 301.335 230.174C301.134 230.024 300.878 229.942 300.614 229.942C300.35 229.942 300.095 230.024 299.894 230.174C299.693 230.324 299.559 230.531 299.516 230.76V245.886H294.567V230.76C294.567 230.508 294.453 230.266 294.25 230.088C294.047 229.91 293.771 229.81 293.484 229.81C293.196 229.81 292.921 229.91 292.718 230.088C292.514 230.266 292.4 230.508 292.4 230.76V245.886H287.451V230.786C287.409 230.557 287.275 230.35 287.074 230.2C286.872 230.05 286.617 229.968 286.353 229.968C286.089 229.968 285.834 230.05 285.633 230.2C285.432 230.35 285.298 230.557 285.255 230.786V245.039C284.691 244.501 284.386 243.792 284.406 243.061L284.113 232.609C284.125 232.231 284.05 231.856 283.893 231.504C283.737 231.153 283.501 230.832 283.201 230.561C282.901 230.291 282.542 230.076 282.145 229.929C281.748 229.782 281.322 229.707 280.892 229.707H269.002C268.137 229.713 267.308 230.014 266.691 230.546C266.074 231.078 265.716 231.799 265.693 232.558L265.869 246.374C265.857 246.745 265.93 247.113 266.084 247.459C266.238 247.804 266.469 248.119 266.764 248.385C267.059 248.651 267.411 248.862 267.801 249.006C268.19 249.15 268.609 249.225 269.032 249.224H353.574C354.445 249.205 355.274 248.893 355.889 248.353C356.505 247.813 356.861 247.086 356.883 246.323V245.886H351.583Z" fill="black"/>
<path opacity="0.3" d="M356.646 228.963H265.866C266.061 228.411 266.449 227.926 266.974 227.576C267.499 227.226 268.135 227.028 268.795 227.012H353.396C354.105 226.984 354.806 227.16 355.392 227.512C355.978 227.864 356.418 228.373 356.646 228.963V228.963Z" fill="white"/>
<path d="M253.534 336.652V356.307C253.527 357.191 253.184 358.036 252.581 358.661C251.978 359.286 251.162 359.64 250.309 359.648H165.57C164.715 359.648 163.894 359.296 163.289 358.67C162.685 358.043 162.345 357.193 162.345 356.307V336.652C162.342 336.29 162.401 335.93 162.521 335.589C162.716 334.935 163.104 334.362 163.63 333.948C164.155 333.534 164.793 333.3 165.453 333.28H250.162C250.818 333.317 251.447 333.557 251.97 333.969C252.493 334.38 252.884 334.945 253.094 335.589C253.319 335.903 253.469 336.267 253.534 336.652V336.652Z" fill="#E6007A"/>
<path opacity="0.2" d="M247.754 356.051V340.925C247.711 340.697 247.577 340.489 247.376 340.339C247.175 340.189 246.92 340.107 246.656 340.107C246.392 340.107 246.136 340.189 245.935 340.339C245.734 340.489 245.6 340.697 245.558 340.925V356.051H240.638V340.925C240.595 340.697 240.461 340.489 240.26 340.339C240.059 340.189 239.804 340.107 239.54 340.107C239.276 340.107 239.02 340.189 238.819 340.339C238.618 340.489 238.484 340.697 238.442 340.925V356.051H233.493V340.925C233.493 340.673 233.378 340.431 233.175 340.253C232.972 340.075 232.696 339.975 232.409 339.975C232.122 339.975 231.846 340.075 231.643 340.253C231.44 340.431 231.326 340.673 231.326 340.925V356.051H226.377V340.925C226.334 340.697 226.2 340.489 225.999 340.339C225.798 340.189 225.542 340.107 225.278 340.107C225.014 340.107 224.759 340.189 224.558 340.339C224.357 340.489 224.223 340.697 224.18 340.925V356.051H219.261V340.925C219.218 340.697 219.084 340.489 218.883 340.339C218.682 340.189 218.426 340.107 218.162 340.107C217.899 340.107 217.643 340.189 217.442 340.339C217.241 340.489 217.107 340.697 217.064 340.925V356.051H212.115V340.925C212.115 340.673 212.001 340.431 211.798 340.253C211.595 340.075 211.319 339.975 211.032 339.975C210.745 339.975 210.469 340.075 210.266 340.253C210.063 340.431 209.948 340.673 209.948 340.925V356.051H204.999V340.925C204.992 340.675 204.875 340.437 204.674 340.26C204.472 340.084 204.201 339.981 203.916 339.975C203.629 339.975 203.353 340.075 203.15 340.253C202.947 340.431 202.832 340.673 202.832 340.925V356.051H197.883V340.925C197.841 340.697 197.707 340.489 197.506 340.339C197.305 340.189 197.049 340.107 196.785 340.107C196.521 340.107 196.266 340.189 196.065 340.339C195.864 340.489 195.73 340.697 195.687 340.925V356.051H190.738V340.925C190.738 340.673 190.624 340.431 190.421 340.253C190.218 340.075 189.942 339.975 189.655 339.975C189.37 339.981 189.098 340.084 188.897 340.26C188.695 340.437 188.579 340.675 188.571 340.925V356.051H183.622V340.951C183.615 340.701 183.498 340.463 183.297 340.286C183.095 340.109 182.824 340.007 182.539 340.001C182.251 340.001 181.976 340.101 181.773 340.279C181.569 340.457 181.455 340.699 181.455 340.951V355.204C181.165 354.942 180.938 354.633 180.787 354.293C180.636 353.953 180.565 353.591 180.577 353.226L180.284 342.774C180.3 342.396 180.228 342.019 180.073 341.665C179.918 341.312 179.682 340.99 179.381 340.719C179.08 340.447 178.719 340.233 178.321 340.087C177.922 339.942 177.494 339.868 177.063 339.872H165.261C164.396 339.879 163.567 340.179 162.95 340.711C162.333 341.243 161.975 341.964 161.952 342.723L162.128 356.539C162.116 356.91 162.189 357.279 162.343 357.624C162.497 357.97 162.728 358.284 163.022 358.55C163.317 358.816 163.67 359.027 164.06 359.171C164.449 359.316 164.868 359.39 165.291 359.39H249.833C250.704 359.37 251.532 359.058 252.148 358.518C252.764 357.978 253.12 357.251 253.142 356.488V356.077L247.754 356.051Z" fill="black"/>
<path opacity="0.3" d="M252.822 334.759H162.042C162.237 334.207 162.624 333.722 163.149 333.372C163.675 333.022 164.311 332.824 164.97 332.807H249.571C250.281 332.78 250.982 332.956 251.568 333.308C252.154 333.66 252.594 334.169 252.822 334.759V334.759Z" fill="white"/>
<path d="M244.008 313.369V329.985C244.008 330.355 243.924 330.723 243.762 331.066C243.6 331.408 243.363 331.72 243.064 331.982C242.765 332.244 242.41 332.452 242.019 332.594C241.628 332.736 241.209 332.809 240.786 332.809H156.215C155.358 332.809 154.535 332.513 153.926 331.984C153.318 331.455 152.972 330.736 152.964 329.985V313.369C152.96 313.071 153.02 312.775 153.14 312.496C153.347 311.925 153.757 311.427 154.31 311.076C154.864 310.724 155.531 310.538 156.215 310.544H240.786C241.444 310.565 242.079 310.763 242.603 311.113C243.128 311.462 243.516 311.945 243.715 312.496C243.889 312.763 243.99 313.062 244.008 313.369V313.369Z" fill="#E6007A"/>
<path opacity="0.2" d="M238.766 329.495V314.369C238.766 314.117 238.652 313.876 238.449 313.697C238.246 313.519 237.97 313.419 237.683 313.419C237.396 313.419 237.12 313.519 236.917 313.697C236.714 313.876 236.599 314.117 236.599 314.369V329.495H231.651V314.369C231.608 314.141 231.474 313.933 231.273 313.783C231.072 313.633 230.816 313.551 230.552 313.551C230.288 313.551 230.033 313.633 229.832 313.783C229.631 313.933 229.497 314.141 229.454 314.369V329.495H224.534V314.369C224.492 314.141 224.358 313.933 224.157 313.783C223.956 313.633 223.7 313.551 223.436 313.551C223.172 313.551 222.917 313.633 222.716 313.783C222.515 313.933 222.381 314.141 222.338 314.369V329.495H217.389V314.369C217.389 314.117 217.275 313.876 217.072 313.697C216.869 313.519 216.593 313.419 216.306 313.419C216.018 313.419 215.743 313.519 215.54 313.697C215.336 313.876 215.222 314.117 215.222 314.369V329.495H210.273V314.369C210.231 314.141 210.097 313.933 209.896 313.783C209.694 313.633 209.439 313.551 209.175 313.551C208.911 313.551 208.656 313.633 208.455 313.783C208.254 313.933 208.12 314.141 208.077 314.369V329.495H203.157V314.369C203.115 314.141 202.981 313.933 202.78 313.783C202.579 313.633 202.323 313.551 202.059 313.551C201.795 313.551 201.54 313.633 201.339 313.783C201.138 313.933 201.004 314.141 200.961 314.369V329.495H196.012V314.369C196.012 314.117 195.898 313.876 195.695 313.697C195.492 313.519 195.216 313.419 194.929 313.419C194.641 313.419 194.366 313.519 194.162 313.697C193.959 313.876 193.845 314.117 193.845 314.369V329.495H188.896V314.369C188.889 314.119 188.772 313.881 188.571 313.705C188.369 313.528 188.098 313.426 187.813 313.419C187.525 313.419 187.25 313.519 187.046 313.697C186.843 313.876 186.729 314.117 186.729 314.369V329.495H181.78V314.369C181.737 314.141 181.604 313.933 181.402 313.783C181.201 313.633 180.946 313.551 180.682 313.551C180.418 313.551 180.163 313.633 179.962 313.783C179.76 313.933 179.627 314.141 179.584 314.369V329.495H174.635V314.395C174.635 314.143 174.521 313.901 174.318 313.723C174.114 313.545 173.839 313.445 173.551 313.445C173.266 313.451 172.995 313.553 172.793 313.73C172.592 313.907 172.475 314.145 172.468 314.395V328.674C171.886 328.133 171.57 327.413 171.589 326.67L171.326 316.244C171.338 315.865 171.263 315.489 171.107 315.135C170.951 314.782 170.716 314.46 170.416 314.188C170.116 313.915 169.757 313.697 169.36 313.548C168.963 313.398 168.536 313.32 168.105 313.316H156.186C155.321 313.323 154.492 313.624 153.875 314.155C153.258 314.687 152.9 315.408 152.877 316.167L153.082 329.983C153.066 330.353 153.136 330.721 153.286 331.066C153.436 331.412 153.665 331.727 153.957 331.993C154.25 332.259 154.601 332.471 154.989 332.615C155.377 332.76 155.794 332.834 156.215 332.834H240.758C241.626 332.821 242.454 332.514 243.071 331.979C243.688 331.443 244.044 330.719 244.067 329.958V329.521L238.766 329.495Z" fill="black"/>
<path opacity="0.3" d="M243.83 312.493H153.05C153.257 311.922 153.667 311.424 154.221 311.073C154.774 310.721 155.441 310.535 156.125 310.541H240.696C241.39 310.524 242.07 310.705 242.636 311.057C243.201 311.409 243.62 311.913 243.83 312.493Z" fill="white"/>
<path d="M256.891 291.078V307.693C256.884 308.447 256.539 309.168 255.931 309.702C255.323 310.235 254.501 310.537 253.641 310.544H169.069C168.212 310.537 167.393 310.234 166.79 309.7C166.186 309.166 165.848 308.445 165.848 307.693V291.078C165.829 290.779 165.89 290.48 166.024 290.205C166.215 289.65 166.601 289.163 167.127 288.812C167.653 288.462 168.292 288.266 168.952 288.253H253.524C254.205 288.255 254.868 288.444 255.42 288.794C255.971 289.145 256.384 289.638 256.599 290.205C256.759 290.477 256.859 290.773 256.891 291.078V291.078Z" fill="#E6007A"/>
<path opacity="0.2" d="M251.652 307.205V292.104C251.678 291.965 251.669 291.822 251.626 291.685C251.583 291.549 251.507 291.423 251.402 291.315C251.298 291.207 251.168 291.12 251.021 291.061C250.875 291.001 250.715 290.971 250.554 290.971C250.393 290.971 250.233 291.001 250.087 291.061C249.94 291.12 249.81 291.207 249.706 291.315C249.601 291.423 249.525 291.549 249.482 291.685C249.439 291.822 249.43 291.965 249.456 292.104V307.205H244.507V292.104C244.507 291.852 244.393 291.611 244.19 291.432C243.986 291.254 243.711 291.154 243.423 291.154C243.136 291.154 242.86 291.254 242.657 291.432C242.454 291.611 242.34 291.852 242.34 292.104V307.205H237.391V292.104C237.417 291.965 237.408 291.822 237.365 291.685C237.322 291.549 237.245 291.423 237.141 291.315C237.036 291.207 236.906 291.12 236.76 291.061C236.614 291.001 236.454 290.971 236.293 290.971C236.131 290.971 235.972 291.001 235.826 291.061C235.679 291.12 235.549 291.207 235.445 291.315C235.34 291.423 235.264 291.549 235.221 291.685C235.177 291.822 235.169 291.965 235.195 292.104V307.205H230.275V292.104C230.301 291.965 230.292 291.822 230.249 291.685C230.206 291.549 230.129 291.423 230.025 291.315C229.92 291.207 229.79 291.12 229.644 291.061C229.498 291.001 229.338 290.971 229.177 290.971C229.015 290.971 228.856 291.001 228.71 291.061C228.563 291.12 228.433 291.207 228.329 291.315C228.224 291.423 228.148 291.549 228.105 291.685C228.061 291.822 228.053 291.965 228.079 292.104V307.205H223.13V292.104C223.134 291.977 223.108 291.851 223.056 291.733C223.003 291.615 222.924 291.507 222.823 291.416C222.722 291.325 222.601 291.253 222.468 291.203C222.334 291.154 222.191 291.128 222.046 291.128C221.756 291.135 221.481 291.241 221.278 291.423C221.076 291.606 220.963 291.85 220.963 292.104V307.205H216.014V292.104C216.014 291.85 215.901 291.606 215.698 291.423C215.496 291.241 215.22 291.135 214.93 291.128C214.785 291.128 214.642 291.154 214.509 291.203C214.375 291.253 214.254 291.325 214.153 291.416C214.052 291.507 213.973 291.615 213.921 291.733C213.868 291.851 213.843 291.977 213.847 292.104V307.205H208.898V292.104C208.924 291.965 208.915 291.822 208.872 291.685C208.829 291.549 208.752 291.423 208.648 291.315C208.543 291.207 208.413 291.12 208.267 291.061C208.12 291.001 207.961 290.971 207.8 290.971C207.638 290.971 207.479 291.001 207.332 291.061C207.186 291.12 207.056 291.207 206.951 291.315C206.847 291.423 206.771 291.549 206.727 291.685C206.684 291.822 206.675 291.965 206.701 292.104V307.205H201.752V292.104C201.756 291.977 201.731 291.851 201.679 291.733C201.626 291.615 201.547 291.507 201.446 291.416C201.345 291.325 201.224 291.253 201.091 291.203C200.957 291.154 200.814 291.128 200.669 291.128C200.379 291.135 200.103 291.241 199.901 291.423C199.699 291.606 199.585 291.85 199.585 292.104V307.205H194.549V292.104C194.549 291.85 194.436 291.606 194.233 291.423C194.031 291.241 193.755 291.135 193.465 291.128C193.32 291.128 193.177 291.154 193.044 291.203C192.91 291.253 192.789 291.325 192.688 291.416C192.587 291.507 192.508 291.615 192.456 291.733C192.403 291.851 192.378 291.977 192.382 292.104V307.205H187.521V292.104C187.547 291.965 187.538 291.822 187.495 291.685C187.451 291.549 187.375 291.423 187.271 291.315C187.166 291.207 187.036 291.12 186.89 291.061C186.743 291.001 186.584 290.971 186.422 290.971C186.261 290.971 186.102 291.001 185.955 291.061C185.809 291.12 185.679 291.207 185.574 291.315C185.47 291.423 185.393 291.549 185.35 291.685C185.307 291.822 185.298 291.965 185.324 292.104V306.357C185.039 306.089 184.817 305.774 184.671 305.43C184.525 305.086 184.458 304.721 184.475 304.354L184.182 293.928C184.194 293.549 184.119 293.172 183.963 292.819C183.807 292.466 183.572 292.144 183.272 291.871C182.972 291.599 182.613 291.381 182.216 291.232C181.82 291.082 181.393 291.003 180.961 291H169.072C168.206 291.006 167.378 291.307 166.76 291.839C166.143 292.371 165.785 293.092 165.763 293.851L165.938 307.667C165.927 308.038 166 308.407 166.153 308.752C166.307 309.097 166.538 309.412 166.833 309.678C167.128 309.944 167.481 310.155 167.87 310.299C168.26 310.443 168.678 310.518 169.101 310.517H253.643C254.511 310.504 255.34 310.198 255.957 309.662C256.573 309.126 256.93 308.402 256.952 307.641V307.205H251.652Z" fill="black"/>
<path opacity="0.3" d="M256.717 290.203H165.938C166.129 289.648 166.515 289.161 167.041 288.811C167.567 288.46 168.205 288.264 168.866 288.251H253.438C254.153 288.214 254.863 288.385 255.456 288.738C256.049 289.091 256.493 289.606 256.717 290.203V290.203Z" fill="white"/>
<path d="M252.265 268.785V285.401C252.265 286.152 251.927 286.874 251.324 287.407C250.72 287.941 249.901 288.245 249.044 288.251H164.472C163.61 288.251 162.783 287.951 162.174 287.416C161.564 286.882 161.222 286.157 161.222 285.401V268.785C161.218 268.487 161.277 268.191 161.398 267.912C161.6 267.339 162.01 266.839 162.564 266.487C163.118 266.135 163.788 265.95 164.472 265.96H249.044C249.701 265.985 250.334 266.185 250.857 266.534C251.381 266.883 251.77 267.364 251.972 267.912C252.147 268.179 252.248 268.478 252.265 268.785Z" fill="#E6007A"/>
<path opacity="0.2" d="M247.021 284.913V269.812C247.021 269.56 246.907 269.319 246.704 269.14C246.501 268.962 246.225 268.862 245.938 268.862C245.65 268.862 245.375 268.962 245.172 269.14C244.968 269.319 244.854 269.56 244.854 269.812V284.913H239.905V269.812C239.931 269.673 239.923 269.53 239.879 269.393C239.836 269.257 239.76 269.131 239.655 269.023C239.551 268.915 239.421 268.828 239.274 268.769C239.128 268.709 238.968 268.679 238.807 268.679C238.646 268.679 238.486 268.709 238.34 268.769C238.193 268.828 238.063 268.915 237.959 269.023C237.855 269.131 237.778 269.257 237.735 269.393C237.692 269.53 237.683 269.673 237.709 269.812V284.913H232.789V269.812C232.815 269.673 232.807 269.53 232.763 269.393C232.72 269.257 232.644 269.131 232.539 269.023C232.435 268.915 232.305 268.828 232.158 268.769C232.012 268.709 231.853 268.679 231.691 268.679C231.53 268.679 231.37 268.709 231.224 268.769C231.078 268.828 230.948 268.915 230.843 269.023C230.739 269.131 230.662 269.257 230.619 269.393C230.576 269.53 230.567 269.673 230.593 269.812V284.913H225.644V269.812C225.644 269.56 225.53 269.319 225.327 269.14C225.124 268.962 224.848 268.862 224.561 268.862C224.273 268.862 223.998 268.962 223.794 269.14C223.591 269.319 223.477 269.56 223.477 269.812V284.913H218.528V269.812C218.554 269.673 218.545 269.53 218.502 269.393C218.459 269.257 218.383 269.131 218.278 269.023C218.174 268.915 218.044 268.828 217.897 268.769C217.751 268.709 217.591 268.679 217.43 268.679C217.269 268.679 217.109 268.709 216.963 268.769C216.816 268.828 216.686 268.915 216.582 269.023C216.477 269.131 216.401 269.257 216.358 269.393C216.315 269.53 216.306 269.673 216.332 269.812V284.913H211.412V269.812C211.438 269.673 211.429 269.53 211.386 269.393C211.343 269.257 211.267 269.131 211.162 269.023C211.058 268.915 210.928 268.828 210.781 268.769C210.635 268.709 210.475 268.679 210.314 268.679C210.153 268.679 209.993 268.709 209.847 268.769C209.7 268.828 209.57 268.915 209.466 269.023C209.361 269.131 209.285 269.257 209.242 269.393C209.199 269.53 209.19 269.673 209.216 269.812V284.913H204.267V269.812C204.267 269.56 204.153 269.319 203.95 269.14C203.746 268.962 203.471 268.862 203.183 268.862C202.896 268.862 202.62 268.962 202.417 269.14C202.214 269.319 202.1 269.56 202.1 269.812V284.913H197.151V269.812C197.177 269.673 197.168 269.53 197.125 269.393C197.082 269.257 197.005 269.131 196.901 269.023C196.796 268.915 196.666 268.828 196.52 268.769C196.374 268.709 196.214 268.679 196.053 268.679C195.891 268.679 195.732 268.709 195.585 268.769C195.439 268.828 195.309 268.915 195.205 269.023C195.1 269.131 195.024 269.257 194.981 269.393C194.937 269.53 194.929 269.673 194.955 269.812V284.913H190.035V269.812C190.061 269.673 190.052 269.53 190.009 269.393C189.966 269.257 189.889 269.131 189.785 269.023C189.68 268.915 189.55 268.828 189.404 268.769C189.258 268.709 189.098 268.679 188.937 268.679C188.775 268.679 188.616 268.709 188.47 268.769C188.323 268.828 188.193 268.915 188.089 269.023C187.984 269.131 187.908 269.257 187.865 269.393C187.821 269.53 187.813 269.673 187.839 269.812V284.913H182.831V269.812C182.831 269.56 182.717 269.319 182.514 269.14C182.311 268.962 182.035 268.862 181.748 268.862C181.46 268.862 181.185 268.962 180.981 269.14C180.778 269.319 180.664 269.56 180.664 269.812V284.065C180.372 283.8 180.144 283.486 179.993 283.142C179.842 282.798 179.771 282.431 179.786 282.062L179.493 271.636C179.509 271.257 179.437 270.88 179.282 270.527C179.126 270.174 178.891 269.852 178.59 269.58C178.289 269.309 177.928 269.094 177.53 268.949C177.131 268.803 176.703 268.73 176.272 268.734H164.382C163.517 268.74 162.688 269.041 162.071 269.573C161.454 270.104 161.096 270.826 161.073 271.584L161.278 285.401C161.262 285.77 161.332 286.138 161.482 286.484C161.633 286.829 161.861 287.144 162.154 287.41C162.446 287.677 162.797 287.888 163.185 288.033C163.573 288.177 163.99 288.251 164.412 288.251H249.013C249.885 288.238 250.718 287.928 251.336 287.387C251.953 286.845 252.307 286.115 252.322 285.349V284.913H247.021Z" fill="black"/>
<path opacity="0.3" d="M252.087 267.912H161.308C161.51 267.339 161.92 266.839 162.474 266.487C163.028 266.135 163.698 265.95 164.382 265.961H248.954C249.646 265.947 250.325 266.13 250.889 266.482C251.453 266.833 251.874 267.335 252.087 267.912Z" fill="white"/>
<path d="M247.668 246.493V263.134C247.66 263.511 247.568 263.882 247.396 264.227C247.223 264.572 246.975 264.884 246.664 265.144C246.354 265.405 245.988 265.608 245.587 265.744C245.186 265.879 244.759 265.944 244.33 265.934H159.846C159.423 265.934 159.004 265.86 158.613 265.718C158.222 265.577 157.867 265.368 157.568 265.106C157.269 264.844 157.032 264.532 156.87 264.19C156.708 263.847 156.624 263.48 156.624 263.109V246.467C156.609 246.169 156.669 245.87 156.8 245.594C156.991 245.04 157.378 244.553 157.904 244.202C158.429 243.851 159.068 243.656 159.729 243.643H244.33C245.011 243.644 245.674 243.834 246.226 244.184C246.777 244.534 247.19 245.027 247.404 245.594C247.554 245.877 247.643 246.182 247.668 246.493Z" fill="#E6007A"/>
<path opacity="0.2" d="M242.427 262.648V247.522C242.384 247.293 242.25 247.086 242.049 246.936C241.848 246.786 241.592 246.704 241.328 246.704C241.065 246.704 240.809 246.786 240.608 246.936C240.407 247.086 240.273 247.293 240.23 247.522V262.648H235.281V247.522C235.285 247.396 235.26 247.271 235.207 247.154C235.154 247.037 235.074 246.931 234.973 246.842C234.872 246.753 234.75 246.683 234.617 246.637C234.484 246.59 234.341 246.568 234.198 246.571C233.911 246.571 233.635 246.672 233.432 246.85C233.229 247.028 233.114 247.27 233.114 247.522V262.648H228.165V247.522C228.165 247.27 228.051 247.028 227.848 246.85C227.645 246.672 227.369 246.571 227.082 246.571C226.938 246.568 226.796 246.59 226.663 246.637C226.529 246.683 226.408 246.753 226.307 246.842C226.205 246.931 226.126 247.037 226.073 247.154C226.02 247.271 225.994 247.396 225.998 247.522V262.648H221.049V247.522C221.007 247.293 220.873 247.086 220.672 246.936C220.471 246.786 220.215 246.704 219.951 246.704C219.687 246.704 219.432 246.786 219.231 246.936C219.03 247.086 218.896 247.293 218.853 247.522V262.648H213.904V247.522C213.908 247.396 213.883 247.271 213.83 247.154C213.777 247.037 213.697 246.931 213.596 246.842C213.494 246.753 213.373 246.683 213.24 246.637C213.107 246.59 212.964 246.568 212.821 246.571C212.533 246.571 212.258 246.672 212.054 246.85C211.851 247.028 211.737 247.27 211.737 247.522V262.648H206.788V247.522C206.788 247.27 206.674 247.028 206.471 246.85C206.268 246.672 205.992 246.571 205.705 246.571C205.561 246.568 205.419 246.59 205.285 246.637C205.152 246.683 205.031 246.753 204.93 246.842C204.828 246.931 204.748 247.037 204.695 247.154C204.642 247.271 204.617 247.396 204.621 247.522V262.648H199.672V247.522C199.63 247.293 199.496 247.086 199.295 246.936C199.093 246.786 198.838 246.704 198.574 246.704C198.31 246.704 198.055 246.786 197.854 246.936C197.652 247.086 197.519 247.293 197.476 247.522V262.648H192.527V247.522C192.531 247.396 192.506 247.271 192.453 247.154C192.4 247.037 192.32 246.931 192.219 246.842C192.117 246.753 191.996 246.683 191.863 246.637C191.73 246.59 191.587 246.568 191.443 246.571C191.156 246.571 190.881 246.672 190.677 246.85C190.474 247.028 190.36 247.27 190.36 247.522V262.648H185.411V247.522C185.411 247.27 185.297 247.028 185.094 246.85C184.89 246.672 184.615 246.571 184.328 246.571C184.184 246.568 184.041 246.59 183.908 246.637C183.775 246.683 183.654 246.753 183.552 246.842C183.451 246.931 183.371 247.037 183.318 247.154C183.265 247.271 183.24 247.396 183.244 247.522V262.648H178.295V247.547C178.252 247.319 178.118 247.111 177.917 246.961C177.716 246.811 177.461 246.729 177.197 246.729C176.933 246.729 176.678 246.811 176.476 246.961C176.275 247.111 176.141 247.319 176.099 247.547V261.8C175.814 261.537 175.592 261.226 175.446 260.887C175.301 260.547 175.234 260.185 175.25 259.823L174.957 249.371C174.968 248.993 174.894 248.618 174.737 248.266C174.581 247.914 174.345 247.594 174.045 247.323C173.745 247.053 173.385 246.838 172.989 246.691C172.592 246.544 172.166 246.469 171.735 246.469H159.846C158.979 246.469 158.146 246.767 157.527 247.3C156.908 247.834 156.552 248.559 156.537 249.319L156.713 263.136C156.701 263.506 156.774 263.875 156.928 264.221C157.082 264.566 157.313 264.881 157.608 265.147C157.902 265.413 158.255 265.624 158.645 265.768C159.034 265.912 159.453 265.986 159.876 265.986H244.33C245.201 265.967 246.029 265.655 246.645 265.115C247.261 264.575 247.617 263.848 247.639 263.084V262.673L242.427 262.648Z" fill="black"/>
<path opacity="0.3" d="M247.491 245.621H156.711C156.902 245.066 157.288 244.579 157.814 244.228C158.34 243.878 158.979 243.682 159.639 243.669H244.328C245.024 243.654 245.707 243.836 246.276 244.187C246.846 244.539 247.271 245.041 247.491 245.621Z" fill="white"/>
<path d="M145.805 340.938V357.554C145.797 358.305 145.451 359.024 144.842 359.553C144.234 360.082 143.411 360.379 142.554 360.379H57.9826C57.1283 360.379 56.3089 360.081 55.7048 359.551C55.1007 359.022 54.7613 358.303 54.7613 357.554V340.938C54.7453 340.631 54.8053 340.325 54.9371 340.04C55.1322 339.487 55.5194 339.002 56.0444 338.652C56.5695 338.302 57.2062 338.105 57.8655 338.088H142.437C143.092 338.119 143.721 338.322 144.243 338.67C144.765 339.018 145.156 339.495 145.366 340.04C145.576 340.312 145.725 340.617 145.805 340.938Z" fill="#E6007A"/>
<path opacity="0.2" d="M140.564 357.066V341.94C140.522 341.711 140.388 341.504 140.187 341.354C139.985 341.204 139.73 341.122 139.466 341.122C139.202 341.122 138.947 341.204 138.746 341.354C138.545 341.504 138.411 341.711 138.368 341.94V357.066H133.419V341.94C133.419 341.688 133.305 341.446 133.102 341.268C132.898 341.09 132.623 340.989 132.336 340.989C132.048 340.989 131.773 341.09 131.569 341.268C131.366 341.446 131.252 341.688 131.252 341.94V357.066H126.303V341.94C126.26 341.711 126.127 341.504 125.925 341.354C125.724 341.204 125.469 341.122 125.205 341.122C124.941 341.122 124.686 341.204 124.484 341.354C124.283 341.504 124.149 341.711 124.107 341.94V357.066H119.187V341.94C119.144 341.711 119.011 341.504 118.809 341.354C118.608 341.204 118.353 341.122 118.089 341.122C117.825 341.122 117.57 341.204 117.369 341.354C117.167 341.504 117.033 341.711 116.991 341.94V357.066H112.042V341.94C112.042 341.688 111.928 341.446 111.724 341.268C111.521 341.09 111.246 340.989 110.958 340.989C110.671 340.989 110.395 341.09 110.192 341.268C109.989 341.446 109.875 341.688 109.875 341.94V357.066H104.926V341.94C104.883 341.711 104.749 341.504 104.548 341.354C104.347 341.204 104.092 341.122 103.828 341.122C103.564 341.122 103.308 341.204 103.107 341.354C102.906 341.504 102.772 341.711 102.73 341.94V357.066H97.8099V341.94C97.7672 341.711 97.6334 341.504 97.4322 341.354C97.2311 341.204 96.9757 341.122 96.7118 341.122C96.4478 341.122 96.1925 341.204 95.9913 341.354C95.7901 341.504 95.6563 341.711 95.6136 341.94V357.066H90.6647V341.94C90.6647 341.688 90.5505 341.446 90.3473 341.268C90.1441 341.09 89.8685 340.989 89.5811 340.989C89.2938 340.989 89.0182 341.09 88.815 341.268C88.6118 341.446 88.4976 341.688 88.4976 341.94V357.066H83.5487V341.94C83.506 341.711 83.3721 341.504 83.171 341.354C82.9698 341.204 82.7145 341.122 82.4505 341.122C82.1866 341.122 81.9312 341.204 81.7301 341.354C81.5289 341.504 81.3951 341.711 81.3524 341.94V357.066H76.4327V341.965C76.39 341.737 76.2562 341.529 76.055 341.379C75.8538 341.23 75.5985 341.147 75.3346 341.147C75.0706 341.147 74.8153 341.23 74.6141 341.379C74.413 341.529 74.2791 341.737 74.2364 341.965V356.218C73.6643 355.683 73.3496 354.974 73.3579 354.241L73.0944 343.789C73.1061 343.411 73.0314 343.036 72.8748 342.684C72.7182 342.332 72.4828 342.012 72.1825 341.741C71.8822 341.471 71.5231 341.256 71.1264 341.109C70.7298 340.962 70.3036 340.887 69.8731 340.887H57.9839C57.1186 340.893 56.29 341.194 55.6726 341.726C55.0553 342.257 54.6975 342.979 54.6748 343.737L54.8505 357.554C54.8388 357.924 54.9119 358.293 55.0656 358.639C55.2192 358.984 55.4503 359.299 55.7452 359.565C56.0401 359.831 56.3927 360.042 56.7822 360.186C57.1718 360.33 57.5903 360.404 58.0132 360.404H142.526C143.402 360.391 144.238 360.082 144.86 359.541C145.482 359.001 145.842 358.27 145.865 357.502V357.091L140.564 357.066Z" fill="black"/>
<path opacity="0.3" d="M145.629 340.04H54.8486C55.0438 339.487 55.431 339.002 55.956 338.652C56.4811 338.302 57.1178 338.105 57.777 338.088H142.349C143.063 338.055 143.771 338.228 144.363 338.58C144.955 338.933 145.399 339.445 145.629 340.04V340.04Z" fill="white"/>
<path d="M272.661 218.434C281.914 197.972 270.499 174.806 247.166 166.692C223.833 158.578 197.417 168.588 188.165 189.05C178.913 209.513 190.327 232.678 213.66 240.792C236.993 248.906 263.409 238.896 272.661 218.434Z" fill="#E6007A"/>
<path opacity="0.3" d="M248.801 233.702C267.658 224.805 274.721 204.187 264.576 187.649C254.43 171.112 230.919 164.919 212.062 173.816C193.205 182.712 186.142 203.331 196.287 219.868C206.432 236.405 229.943 242.599 248.801 233.702Z" fill="white"/>
<path d="M298.632 353.18C319.717 341.293 325.821 316.668 312.267 298.178C298.713 279.687 270.632 274.334 249.548 286.221C228.463 298.107 222.359 322.733 235.913 341.223C249.468 359.713 277.548 365.066 298.632 353.18Z" fill="#E6007A"/>
<path opacity="0.3" d="M307.422 340.906C302.902 346.345 296.644 350.486 289.439 352.805C282.235 355.125 274.408 355.519 266.948 353.937C259.489 352.356 252.731 348.869 247.531 343.92C242.331 338.97 238.921 332.779 237.733 326.13C236.545 319.481 237.633 312.672 240.858 306.565C244.082 300.457 249.3 295.326 255.851 291.819C262.401 288.313 269.991 286.588 277.659 286.865C285.327 287.141 292.729 289.405 298.93 293.371C307.243 298.687 312.808 306.682 314.4 315.596C315.993 324.51 313.483 333.614 307.422 340.906V340.906Z" fill="white"/>
</g>
<defs>
<filter id="filter0_d_1041_20939" x="-81.3203" y="-90.4277" width="828.32" height="895.428" filterUnits="userSpaceOnUse" color-interpolation-filters="sRGB">
<feFlood flood-opacity="0" result="BackgroundImageFix"/>
<feColorMatrix in="SourceAlpha" type="matrix" values="0 0 0 0 0 0 0 0 0 0 0 0 0 0 0 0 0 0 127 0" result="hardAlpha"/>
<feOffset dy="205"/>
<feGaussianBlur stdDeviation="81.5"/>
<feColorMatrix type="matrix" values="0 0 0 0 0.670588 0 0 0 0 0.752941 0 0 0 0 0.890196 0 0 0 0.78 0"/>
<feBlend mode="normal" in2="BackgroundImageFix" result="effect1_dropShadow_1041_20939"/>
<feBlend mode="normal" in="SourceGraphic" in2="effect1_dropShadow_1041_20939" result="shape"/>
</filter>
</defs>
</svg>
