<svg width="101" height="31" viewBox="0 0 101 31" fill="none" xmlns="http://www.w3.org/2000/svg">
<path d="M1 30.3255L5.02079 14.3991L6.72963 28.1877L7.13171 21.7744L8.1369 16.7506L8.84054 18.0333L9.34314 14.3991L9.84574 15.7886L12.6603 5.84799H13.0624L13.565 2L13.9671 2.42755L14.7712 2.21378L15.2738 7.23754L15.7764 5.31355L16.1785 6.7031L16.8821 6.59621L17.3847 9.26843L18.4904 10.1235L18.993 8.52021L19.9982 10.658H20.8024L21.4055 13.6509L22.2097 14.506L23.2149 16.8575L23.7175 16.7506L24.3206 18.8884L24.7227 18.4608L25.4263 20.1711H25.7279L26.7331 21.4537L27.2357 21.1331L27.8388 21.8813L28.4419 21.2399L28.9445 22.7364L29.5476 20.5986L30.4523 19.8504L31.1559 19.6366L31.357 19.4228L32.0606 19.8504L32.4627 18.4608L33.1663 17.8195L34.6741 14.3991H35.4783L35.7798 11.4062L36.785 12.3682L37.3882 6.06177L38.3934 4.03088L38.896 6.06177L39.5996 5.63421L40.5043 6.06177L41.1074 8.41332L41.61 8.09265L42.9167 7.6651L45.2287 10.4442L45.9323 8.84087L46.5355 10.4442L47.0381 10.0166L47.4401 11.9406L48.0433 11.4062L49.35 14.9335L50.5563 17.0713L51.5615 15.8955L52.3656 16.7506L53.3708 15.8955H53.9739L54.4765 13.7577L54.8786 13.3302L55.3812 15.2542L55.9843 15.8955H56.5874L57.5926 17.0713L58.5978 18.9953L59.603 18.1402H60.3067L61.0103 16.2162L61.5129 18.1402L62.6186 21.0262L63.3223 21.8813L64.3275 18.6746L64.8301 21.0262L65.5337 19.2091L66.1368 15.7886L67.0415 17.4988L67.4436 14.2922C67.5441 14.6485 67.7652 15.3825 67.8457 15.468C67.9261 15.5535 68.2142 14.506 68.3483 13.9715L68.7503 15.468L69.2529 16.2162H70.1576L71.1628 17.9264L72.7711 18.8884L73.1732 21.5606L73.4748 21.0262H74.48L74.7815 21.6675L75.2841 20.278L75.7867 21.1331L76.3898 20.278L76.993 20.8124L77.395 19.4228L78.1992 20.7055L78.4002 17.9264L79.4054 17.8195L80.6117 16.0024L81.1143 12.2613L81.9184 13.8646C82.0525 13.9715 82.3205 14.2067 82.3205 14.2922C82.3205 14.3777 82.5886 13.6152 82.7226 13.2233C82.8901 13.4727 83.2252 13.9929 83.2252 14.0784L84.1299 14.506L85.3361 16.7506L86.2408 17.9264L87.246 19.2091L87.8491 17.6057L88.6533 18.4608H88.8543L89.5579 17.4988L90.3621 17.0713L91.0657 15.7886C91.3003 16.3943 91.7694 17.6271 91.7694 17.7126C91.7694 17.7981 92.6405 16.8219 93.0761 16.3231L93.6792 17.9264L94.4834 16.6437L94.986 17.392L95.8907 16.8575L96.8959 13.8646L98.1021 13.4371L100.414 10.9786" stroke="#0CA564"/>
</svg>
