<svg width="21" height="20" viewBox="0 0 21 20" fill="none" xmlns="http://www.w3.org/2000/svg">
<path id="Vector" d="M11.7356 1.4325L13.4956 4.9525C13.7356 5.4425 14.3756 5.9125 14.9156 6.0025L18.1056 6.5325C20.1456 6.8725 20.6256 8.3525 19.1556 9.8125L16.6756 12.2925C16.2556 12.7125 16.0256 13.5225 16.1556 14.1025L16.8656 17.1725C17.4256 19.6025 16.1356 20.5425 13.9856 19.2725L10.9956 17.5025C10.4556 17.1825 9.56556 17.1825 9.01556 17.5025L6.02556 19.2725C3.88556 20.5425 2.58555 19.5925 3.14555 17.1725L3.85555 14.1025C3.98555 13.5225 3.75555 12.7125 3.33555 12.2925L0.855555 9.8125C-0.604445 8.3525 -0.134445 6.8725 1.90556 6.5325L5.09555 6.0025C5.62555 5.9125 6.26555 5.4425 6.50555 4.9525L8.26556 1.4325C9.22556 -0.4775 10.7856 -0.4775 11.7356 1.4325Z" fill="#8BA1BE" fill-opacity="0.2"/>
</svg>
