<svg width="926" height="481" viewBox="0 0 926 481" fill="none" xmlns="http://www.w3.org/2000/svg">
<mask id="mask0_2802_22576" style="mask-type:alpha" maskUnits="userSpaceOnUse" x="25" y="0" width="902" height="478">
<rect x="25.749" y="0.975586" width="900.252" height="476.334" rx="31.4066" fill="#20242C"/>
</mask>
<g mask="url(#mask0_2802_22576)">
<path d="M299.903 283.389H149.096V194.887H151.439V281.046H299.903V283.389Z" fill="#E6007A"/>
<path d="M500.832 151.561H498.488V68.4955H58.2051V66.1523H500.832V151.561Z" fill="#E6007A"/>
<path d="M183.657 109.407H113.76C109.952 109.376 106.311 107.842 103.629 105.138C100.948 102.435 99.4432 98.7809 99.4433 94.973V84.6396L75.1914 68.2373L76.5036 66.2925L101.786 83.3743V94.973C101.786 98.1797 103.06 101.255 105.328 103.522C107.595 105.79 110.671 107.064 113.877 107.064H183.774C186.981 107.064 190.056 105.79 192.324 103.522C194.591 101.255 195.865 98.1797 195.865 94.973V81.8746L216.954 66.3862L218.336 68.2842L198.185 83.0462V94.973C198.185 96.8764 197.808 98.761 197.077 100.518C196.346 102.276 195.274 103.871 193.924 105.213C192.574 106.554 190.972 107.615 189.21 108.335C187.448 109.055 185.561 109.419 183.657 109.407Z" fill="#E6007A"/>
<path d="M232.724 195.707L216.322 179.305V121.475C216.316 118.276 215.042 115.211 212.781 112.949C210.519 110.687 207.453 109.414 204.255 109.408H171.146V107.064H204.325C208.145 107.071 211.807 108.591 214.508 111.292C217.209 113.993 218.729 117.655 218.735 121.475V178.414L234.364 194.067L232.724 195.707Z" fill="#E6007A"/>
<path d="M557.347 196.479L543.288 182.42V164.753C543.288 161.556 542.02 158.491 539.762 156.228C537.504 153.966 534.44 152.692 531.244 152.685H425.145C421.948 152.692 418.885 153.966 416.627 156.228C414.369 158.491 413.101 161.556 413.101 164.753V182.42L399.862 195.659L398.198 194.019L410.758 181.46V164.753C410.764 160.937 412.281 157.279 414.977 154.578C417.673 151.878 421.329 150.355 425.145 150.342H531.291C535.109 150.348 538.768 151.869 541.465 154.571C544.163 157.273 545.678 160.935 545.678 164.753V181.46L559.011 194.792L557.347 196.479Z" fill="#E6007A"/>
<path d="M325.514 241.446H237.223C233.409 241.44 229.753 239.922 227.057 237.226C224.36 234.529 222.842 230.873 222.836 227.059V211.618L206.926 195.708L208.589 194.067L225.179 210.657V227.059C225.179 230.254 226.448 233.317 228.707 235.576C230.965 237.834 234.029 239.103 237.223 239.103H325.514C328.71 239.103 331.776 237.835 334.039 235.577C336.301 233.319 337.575 230.256 337.581 227.059V211.477L354.171 194.887L355.811 196.528L339.925 212.438V227.106C339.9 230.914 338.372 234.558 335.672 237.244C332.973 239.93 329.322 241.44 325.514 241.446Z" fill="#E6007A"/>
<path d="M739.648 241.446H651.333C647.52 241.44 643.864 239.922 641.167 237.226C638.47 234.529 636.953 230.873 636.946 227.059V211.618L621.036 195.708L622.7 194.067L639.29 210.657V227.059C639.296 230.252 640.567 233.312 642.824 235.569C645.081 237.826 648.141 239.097 651.333 239.103H739.648C742.84 239.097 745.9 237.826 748.157 235.569C750.415 233.312 751.686 230.252 751.692 227.059V211.477L768.282 194.887L769.945 196.528L754.035 212.438V227.106C754.016 230.912 752.493 234.556 749.798 237.242C747.102 239.929 743.454 241.44 739.648 241.446Z" fill="#E6007A"/>
<path d="M71.3256 67.3244C71.3302 69.9346 70.5605 72.4874 69.1137 74.6599C67.667 76.8325 65.6083 78.527 63.1982 79.529C60.788 80.5311 58.1348 80.7957 55.5742 80.2893C53.0137 79.7829 50.6609 78.5284 48.8136 76.6844C46.9663 74.8404 45.7075 72.4898 45.1966 69.9301C44.6857 67.3705 44.9456 64.7168 45.9434 62.3049C46.9411 59.893 48.632 57.8313 50.8019 56.3807C52.9719 54.9301 55.5233 54.1558 58.1335 54.1558C61.6282 54.1558 64.9801 55.5424 67.4534 58.0113C69.9268 60.4803 71.3194 63.8297 71.3256 67.3244Z" fill="#E6007A"/>
<path d="M265.739 80.5155C273.025 80.5155 278.931 74.6092 278.931 67.3234C278.931 60.0376 273.025 54.1313 265.739 54.1313C258.453 54.1313 252.547 60.0376 252.547 67.3234C252.547 74.6092 258.453 80.5155 265.739 80.5155Z" fill="#E6007A"/>
<path d="M265.739 209.109C273.025 209.109 278.931 203.203 278.931 195.917C278.931 188.631 273.025 182.725 265.739 182.725C258.453 182.725 252.547 188.631 252.547 195.917C252.547 203.203 258.453 209.109 265.739 209.109Z" fill="white"/>
<path d="M265.809 210.281C262.968 210.281 260.191 209.439 257.829 207.86C255.467 206.282 253.626 204.039 252.539 201.414C251.452 198.79 251.167 195.901 251.721 193.115C252.276 190.329 253.644 187.77 255.652 185.761C257.661 183.752 260.22 182.384 263.007 181.83C265.793 181.275 268.681 181.56 271.306 182.647C273.93 183.734 276.174 185.575 277.752 187.937C279.33 190.299 280.173 193.077 280.173 195.917C280.166 199.725 278.651 203.375 275.959 206.067C273.266 208.76 269.617 210.275 265.809 210.281ZM265.809 183.897C263.432 183.897 261.108 184.602 259.131 185.923C257.154 187.244 255.613 189.121 254.703 191.317C253.794 193.514 253.556 195.931 254.019 198.262C254.483 200.594 255.628 202.736 257.309 204.417C258.99 206.098 261.132 207.243 263.464 207.707C265.796 208.171 268.213 207.933 270.409 207.023C272.606 206.113 274.483 204.572 275.804 202.596C277.125 200.619 277.83 198.295 277.83 195.917C277.83 192.729 276.563 189.672 274.309 187.418C272.054 185.163 268.997 183.897 265.809 183.897Z" fill="#E6007A"/>
<path d="M391.871 195.917C391.871 198.526 391.097 201.077 389.647 203.246C388.198 205.416 386.137 207.107 383.727 208.105C381.316 209.104 378.664 209.365 376.105 208.856C373.546 208.347 371.195 207.09 369.35 205.245C367.505 203.4 366.249 201.05 365.74 198.491C365.231 195.932 365.492 193.279 366.491 190.869C367.489 188.458 369.18 186.398 371.349 184.948C373.519 183.499 376.069 182.725 378.678 182.725C382.177 182.725 385.533 184.115 388.007 186.589C390.481 189.063 391.871 192.418 391.871 195.917Z" fill="white"/>
<path d="M378.68 210.281C375.839 210.281 373.062 209.439 370.7 207.86C368.338 206.282 366.497 204.039 365.41 201.414C364.323 198.79 364.038 195.901 364.592 193.115C365.147 190.329 366.515 187.77 368.523 185.761C370.532 183.752 373.092 182.384 375.878 181.83C378.664 181.275 381.552 181.56 384.177 182.647C386.801 183.734 389.045 185.575 390.623 187.937C392.201 190.299 393.044 193.077 393.044 195.917C393.038 199.725 391.522 203.375 388.83 206.067C386.138 208.76 382.488 210.275 378.68 210.281ZM378.68 183.897C376.303 183.897 373.979 184.602 372.002 185.923C370.025 187.244 368.484 189.121 367.575 191.317C366.665 193.514 366.427 195.931 366.891 198.262C367.354 200.594 368.499 202.736 370.18 204.417C371.861 206.098 374.003 207.243 376.335 207.707C378.667 208.171 381.084 207.933 383.28 207.023C385.477 206.113 387.354 204.572 388.675 202.596C389.996 200.619 390.701 198.295 390.701 195.917C390.701 192.729 389.434 189.672 387.18 187.418C384.926 185.163 381.868 183.897 378.68 183.897Z" fill="#E6007A"/>
<path d="M278.931 240.274C278.931 242.883 278.157 245.433 276.708 247.603C275.258 249.772 273.198 251.463 270.787 252.462C268.377 253.46 265.724 253.721 263.165 253.212C260.606 252.703 258.256 251.447 256.411 249.602C254.566 247.757 253.309 245.406 252.8 242.847C252.291 240.288 252.553 237.636 253.551 235.225C254.55 232.815 256.24 230.754 258.41 229.305C260.579 227.855 263.13 227.082 265.739 227.082C269.238 227.082 272.593 228.471 275.067 230.945C277.541 233.419 278.931 236.775 278.931 240.274Z" fill="#E6007A"/>
<path opacity="0.2" d="M278.931 240.274C278.931 242.883 278.157 245.433 276.708 247.603C275.258 249.772 273.198 251.463 270.787 252.462C268.377 253.46 265.724 253.721 263.165 253.212C260.606 252.703 258.256 251.447 256.411 249.602C254.566 247.757 253.309 245.406 252.8 242.847C252.291 240.288 252.553 237.636 253.551 235.225C254.55 232.815 256.24 230.754 258.41 229.305C260.579 227.855 263.13 227.082 265.739 227.082C269.238 227.082 272.593 228.471 275.067 230.945C277.541 233.419 278.931 236.775 278.931 240.274Z" fill="black"/>
<path d="M311.033 240.274C311.033 242.883 310.259 245.433 308.809 247.603C307.36 249.772 305.299 251.463 302.889 252.462C300.478 253.46 297.826 253.721 295.267 253.212C292.708 252.703 290.357 251.447 288.512 249.602C286.667 247.757 285.411 245.406 284.902 242.847C284.393 240.288 284.654 237.636 285.653 235.225C286.651 232.815 288.342 230.754 290.511 229.305C292.681 227.855 295.231 227.082 297.841 227.082C301.339 227.082 304.695 228.471 307.169 230.945C309.643 233.419 311.033 236.775 311.033 240.274Z" fill="#E6007A"/>
<path opacity="0.2" d="M311.033 240.274C311.033 242.883 310.259 245.433 308.809 247.603C307.36 249.772 305.299 251.463 302.889 252.462C300.478 253.46 297.826 253.721 295.267 253.212C292.708 252.703 290.357 251.447 288.512 249.602C286.667 247.757 285.411 245.406 284.902 242.847C284.393 240.288 284.654 237.636 285.653 235.225C286.651 232.815 288.342 230.754 290.511 229.305C292.681 227.855 295.231 227.082 297.841 227.082C301.339 227.082 304.695 228.471 307.169 230.945C309.643 233.419 311.033 236.775 311.033 240.274Z" fill="black"/>
<path d="M693.346 240.274C693.346 242.883 692.572 245.433 691.123 247.603C689.673 249.772 687.613 251.463 685.202 252.462C682.792 253.46 680.139 253.721 677.58 253.212C675.021 252.703 672.671 251.447 670.826 249.602C668.981 247.757 667.724 245.406 667.215 242.847C666.706 240.288 666.968 237.636 667.966 235.225C668.965 232.815 670.655 230.754 672.825 229.305C674.994 227.855 677.545 227.082 680.154 227.082C683.653 227.082 687.008 228.471 689.482 230.945C691.956 233.419 693.346 236.775 693.346 240.274Z" fill="#E6007A"/>
<path d="M725.305 240.274C725.305 242.883 724.531 245.433 723.082 247.603C721.632 249.772 719.572 251.463 717.161 252.462C714.751 253.46 712.098 253.721 709.539 253.212C706.98 252.703 704.63 251.447 702.785 249.602C700.94 247.757 699.683 245.406 699.174 242.847C698.665 240.288 698.927 237.636 699.925 235.225C700.924 232.815 702.614 230.754 704.784 229.305C706.953 227.855 709.504 227.082 712.113 227.082C715.612 227.082 718.967 228.471 721.441 230.945C723.915 233.419 725.305 236.775 725.305 240.274Z" fill="#E6007A"/>
<path d="M499.658 80.5155C506.944 80.5155 512.85 74.6092 512.85 67.3234C512.85 60.0376 506.944 54.1313 499.658 54.1313C492.372 54.1313 486.466 60.0376 486.466 67.3234C486.466 74.6092 492.372 80.5155 499.658 80.5155Z" fill="#E6007A"/>
<path d="M150.268 122.646C157.554 122.646 163.46 116.74 163.46 109.454C163.46 102.168 157.554 96.2617 150.268 96.2617C142.982 96.2617 137.076 102.168 137.076 109.454C137.076 116.74 142.982 122.646 150.268 122.646Z" fill="#E6007A"/>
<path d="M150.268 208.079C157.554 208.079 163.46 202.172 163.46 194.886C163.46 187.601 157.554 181.694 150.268 181.694C142.982 181.694 137.076 187.601 137.076 194.886C137.076 202.172 142.982 208.079 150.268 208.079Z" fill="white"/>
<path d="M150.266 209.249C147.424 209.254 144.645 208.416 142.28 206.84C139.914 205.265 138.07 203.023 136.979 200.399C135.888 197.774 135.6 194.886 136.152 192.098C136.704 189.31 138.07 186.748 140.078 184.737C142.086 182.726 144.645 181.356 147.432 180.8C150.219 180.244 153.108 180.527 155.734 181.613C158.36 182.7 160.605 184.541 162.184 186.903C163.763 189.266 164.606 192.044 164.606 194.886C164.6 198.689 163.088 202.336 160.401 205.027C157.713 207.719 154.07 209.237 150.266 209.249ZM150.266 182.865C147.888 182.86 145.561 183.562 143.581 184.88C141.602 186.198 140.057 188.073 139.144 190.269C138.23 192.465 137.989 194.883 138.45 197.216C138.911 199.55 140.054 201.694 141.735 203.377C143.415 205.061 145.557 206.208 147.889 206.673C150.221 207.139 152.639 206.902 154.837 205.993C157.035 205.084 158.914 203.544 160.236 201.566C161.558 199.589 162.263 197.264 162.263 194.886C162.263 191.702 161 188.648 158.751 186.394C156.501 184.141 153.45 182.871 150.266 182.865Z" fill="#E6007A"/>
<path d="M150.268 295.409C157.554 295.409 163.46 289.502 163.46 282.217C163.46 274.931 157.554 269.024 150.268 269.024C142.982 269.024 137.076 274.931 137.076 282.217C137.076 289.502 142.982 295.409 150.268 295.409Z" fill="#E6007A"/>
<path opacity="0.2" d="M150.268 295.409C157.554 295.409 163.46 289.502 163.46 282.217C163.46 274.931 157.554 269.024 150.268 269.024C142.982 269.024 137.076 274.931 137.076 282.217C137.076 289.502 142.982 295.409 150.268 295.409Z" fill="black"/>
<path d="M206.551 295.409C213.837 295.409 219.744 289.502 219.744 282.217C219.744 274.931 213.837 269.024 206.551 269.024C199.266 269.024 193.359 274.931 193.359 282.217C193.359 289.502 199.266 295.409 206.551 295.409Z" fill="#E6007A"/>
<path opacity="0.2" d="M206.551 295.409C213.837 295.409 219.744 289.502 219.744 282.217C219.744 274.931 213.837 269.024 206.551 269.024C199.266 269.024 193.359 274.931 193.359 282.217C193.359 289.502 199.266 295.409 206.551 295.409Z" fill="black"/>
<path d="M297.841 295.409C305.126 295.409 311.033 289.502 311.033 282.217C311.033 274.931 305.126 269.024 297.841 269.024C290.555 269.024 284.648 274.931 284.648 282.217C284.648 289.502 290.555 295.409 297.841 295.409Z" fill="#E6007A"/>
<path opacity="0.2" d="M297.841 295.409C305.126 295.409 311.033 289.502 311.033 282.217C311.033 274.931 305.126 269.024 297.841 269.024C290.555 269.024 284.648 274.931 284.648 282.217C284.648 289.502 290.555 295.409 297.841 295.409Z" fill="black"/>
<path d="M193.359 194.886C193.359 197.496 192.585 200.046 191.136 202.216C189.686 204.385 187.626 206.076 185.215 207.074C182.805 208.073 180.152 208.334 177.593 207.825C175.034 207.316 172.683 206.06 170.839 204.215C168.994 202.37 167.737 200.019 167.228 197.46C166.719 194.901 166.98 192.249 167.979 189.838C168.977 187.428 170.668 185.367 172.838 183.918C175.007 182.468 177.558 181.694 180.167 181.694C183.665 181.694 187.021 183.084 189.495 185.558C191.969 188.032 193.359 191.388 193.359 194.886Z" fill="white"/>
<path d="M180.167 209.249C177.327 209.249 174.549 208.407 172.187 206.829C169.825 205.25 167.984 203.007 166.897 200.382C165.81 197.758 165.525 194.87 166.08 192.083C166.634 189.297 168.002 186.738 170.011 184.729C172.02 182.72 174.579 181.352 177.365 180.798C180.151 180.244 183.04 180.528 185.664 181.615C188.289 182.703 190.532 184.544 192.11 186.906C193.689 189.268 194.531 192.045 194.531 194.886C194.525 198.693 193.01 202.343 190.317 205.035C187.625 207.728 183.975 209.243 180.167 209.249ZM180.167 182.865C177.79 182.865 175.466 183.57 173.489 184.891C171.512 186.212 169.972 188.089 169.062 190.286C168.152 192.482 167.914 194.899 168.378 197.231C168.842 199.562 169.987 201.704 171.668 203.385C173.349 205.067 175.491 206.211 177.822 206.675C180.154 207.139 182.571 206.901 184.767 205.991C186.964 205.081 188.841 203.541 190.162 201.564C191.483 199.587 192.188 197.263 192.188 194.886C192.188 191.698 190.921 188.64 188.667 186.386C186.413 184.132 183.355 182.865 180.167 182.865Z" fill="#E6007A"/>
<path d="M478.547 151.561C478.547 154.17 477.774 156.721 476.324 158.89C474.874 161.06 472.814 162.751 470.404 163.749C467.993 164.748 465.341 165.009 462.782 164.5C460.223 163.991 457.872 162.734 456.027 160.889C454.182 159.045 452.926 156.694 452.417 154.135C451.908 151.576 452.169 148.923 453.167 146.513C454.166 144.102 455.857 142.042 458.026 140.592C460.195 139.143 462.746 138.369 465.355 138.369C468.854 138.369 472.209 139.759 474.683 142.233C477.157 144.707 478.547 148.062 478.547 151.561Z" fill="#E6007A"/>
<path opacity="0.4" d="M478.547 151.561C478.547 154.17 477.774 156.721 476.324 158.89C474.874 161.06 472.814 162.751 470.404 163.749C467.993 164.748 465.341 165.009 462.782 164.5C460.223 163.991 457.872 162.734 456.027 160.889C454.182 159.045 452.926 156.694 452.417 154.135C451.908 151.576 452.169 148.923 453.167 146.513C454.166 144.102 455.857 142.042 458.026 140.592C460.195 139.143 462.746 138.369 465.355 138.369C468.854 138.369 472.209 139.759 474.683 142.233C477.157 144.707 478.547 148.062 478.547 151.561Z" fill="black"/>
<path d="M597.628 208.079C604.913 208.079 610.82 202.172 610.82 194.886C610.82 187.601 604.913 181.694 597.628 181.694C590.342 181.694 584.436 187.601 584.436 194.886C584.436 202.172 590.342 208.079 597.628 208.079Z" fill="white"/>
<path d="M597.626 209.249C594.785 209.249 592.008 208.407 589.646 206.829C587.284 205.25 585.443 203.007 584.356 200.382C583.269 197.758 582.984 194.87 583.539 192.083C584.093 189.297 585.461 186.738 587.47 184.729C589.479 182.72 592.038 181.352 594.824 180.798C597.61 180.244 600.499 180.528 603.123 181.615C605.748 182.703 607.991 184.544 609.569 186.906C611.148 189.268 611.99 192.045 611.99 194.886C611.984 198.693 610.469 202.343 607.776 205.035C605.084 207.728 601.434 209.243 597.626 209.249ZM597.626 182.865C595.249 182.865 592.925 183.57 590.948 184.891C588.971 186.212 587.431 188.089 586.521 190.286C585.611 192.482 585.373 194.899 585.837 197.231C586.301 199.562 587.446 201.704 589.127 203.385C590.808 205.067 592.95 206.211 595.281 206.675C597.613 207.139 600.03 206.901 602.226 205.991C604.423 205.081 606.3 203.541 607.621 201.564C608.942 199.587 609.647 197.263 609.647 194.886C609.647 191.698 608.38 188.64 606.126 186.386C603.872 184.132 600.814 182.865 597.626 182.865Z" fill="#E6007A"/>
<path d="M680.154 208.079C687.44 208.079 693.346 202.172 693.346 194.886C693.346 187.601 687.44 181.694 680.154 181.694C672.868 181.694 666.962 187.601 666.962 194.886C666.962 202.172 672.868 208.079 680.154 208.079Z" fill="white"/>
<path d="M680.153 209.249C677.312 209.249 674.535 208.407 672.173 206.829C669.811 205.25 667.97 203.007 666.882 200.382C665.795 197.758 665.511 194.87 666.065 192.083C666.619 189.297 667.987 186.738 669.996 184.729C672.005 182.72 674.564 181.352 677.351 180.798C680.137 180.244 683.025 180.528 685.649 181.615C688.274 182.703 690.517 184.544 692.096 186.906C693.674 189.268 694.516 192.045 694.516 194.886C694.51 198.693 692.995 202.343 690.303 205.035C687.61 207.728 683.96 209.243 680.153 209.249ZM680.153 182.865C677.775 182.865 675.451 183.57 673.475 184.891C671.498 186.212 669.957 188.089 669.047 190.286C668.137 192.482 667.899 194.899 668.363 197.231C668.827 199.562 669.972 201.704 671.653 203.385C673.334 205.067 675.476 206.211 677.808 206.675C680.139 207.139 682.556 206.901 684.753 205.991C686.949 205.081 688.827 203.541 690.147 201.564C691.468 199.587 692.173 197.263 692.173 194.886C692.173 191.698 690.907 188.64 688.653 186.386C686.398 184.132 683.341 182.865 680.153 182.865Z" fill="#E6007A"/>
<path d="M712.113 208.079C719.399 208.079 725.305 202.172 725.305 194.886C725.305 187.601 719.399 181.694 712.113 181.694C704.827 181.694 698.921 187.601 698.921 194.886C698.921 202.172 704.827 208.079 712.113 208.079Z" fill="white"/>
<path d="M712.114 209.249C709.273 209.249 706.496 208.407 704.134 206.829C701.772 205.25 699.931 203.007 698.843 200.382C697.756 197.758 697.472 194.87 698.026 192.083C698.58 189.297 699.948 186.738 701.957 184.729C703.966 182.72 706.525 181.352 709.311 180.798C712.098 180.244 714.986 180.528 717.61 181.615C720.235 182.703 722.478 184.544 724.057 186.906C725.635 189.268 726.477 192.045 726.477 194.886C726.471 198.693 724.956 202.343 722.263 205.035C719.571 207.728 715.921 209.243 712.114 209.249ZM712.114 182.865C709.736 182.865 707.412 183.57 705.435 184.891C703.459 186.212 701.918 188.089 701.008 190.286C700.098 192.482 699.86 194.899 700.324 197.231C700.788 199.562 701.933 201.704 703.614 203.385C705.295 205.067 707.437 206.211 709.769 206.675C712.1 207.139 714.517 206.901 716.714 205.991C718.91 205.081 720.788 203.541 722.108 201.564C723.429 199.587 724.134 197.263 724.134 194.886C724.134 191.698 722.868 188.64 720.613 186.386C718.359 184.132 715.302 182.865 712.114 182.865Z" fill="#E6007A"/>
<path d="M791.034 208.079C798.32 208.079 804.226 202.172 804.226 194.886C804.226 187.601 798.32 181.694 791.034 181.694C783.748 181.694 777.842 187.601 777.842 194.886C777.842 202.172 783.748 208.079 791.034 208.079Z" fill="white"/>
<path d="M791.033 209.249C788.191 209.254 785.411 208.416 783.046 206.84C780.681 205.265 778.836 203.023 777.746 200.399C776.655 197.774 776.367 194.886 776.919 192.098C777.47 189.31 778.836 186.748 780.844 184.737C782.852 182.726 785.411 181.356 788.198 180.8C790.985 180.244 793.875 180.527 796.501 181.613C799.127 182.7 801.371 184.541 802.951 186.903C804.53 189.266 805.373 192.044 805.373 194.886C805.367 198.689 803.855 202.336 801.167 205.027C798.48 207.719 794.836 209.237 791.033 209.249ZM791.033 182.865C788.654 182.86 786.328 183.562 784.348 184.88C782.368 186.198 780.824 188.073 779.91 190.269C778.997 192.465 778.756 194.883 779.217 197.216C779.678 199.55 780.821 201.694 782.501 203.377C784.181 205.061 786.323 206.208 788.655 206.673C790.988 207.139 793.406 206.902 795.604 205.993C797.802 205.084 799.68 203.544 801.002 201.566C802.324 199.589 803.03 197.264 803.03 194.886C803.03 191.702 801.767 188.648 799.517 186.394C797.268 184.141 794.217 182.871 791.033 182.865Z" fill="#E6007A"/>
<path d="M512.827 151.561C512.827 154.171 512.052 156.723 510.602 158.893C509.151 161.063 507.089 162.754 504.677 163.751C502.266 164.749 499.612 165.009 497.052 164.498C494.493 163.987 492.142 162.728 490.298 160.881C488.454 159.034 487.199 156.681 486.693 154.121C486.187 151.56 486.451 148.907 487.453 146.497C488.455 144.086 490.15 142.028 492.322 140.581C494.495 139.134 497.048 138.365 499.658 138.369C503.153 138.375 506.502 139.768 508.971 142.241C511.44 144.715 512.827 148.067 512.827 151.561Z" fill="#E6007A"/>
<path opacity="0.4" d="M512.827 151.561C512.827 154.171 512.052 156.723 510.602 158.893C509.151 161.063 507.089 162.754 504.677 163.751C502.266 164.749 499.612 165.009 497.052 164.498C494.493 163.987 492.142 162.728 490.298 160.881C488.454 159.034 487.199 156.681 486.693 154.121C486.187 151.56 486.451 148.907 487.453 146.497C488.455 144.086 490.15 142.028 492.322 140.581C494.495 139.134 497.048 138.365 499.658 138.369C503.153 138.375 506.502 139.768 508.971 142.241C511.44 144.715 512.827 148.067 512.827 151.561Z" fill="black"/>
<path d="M61.1565 12.8689V29.4586C61.1596 29.6647 61.1221 29.8695 61.046 30.0611C60.97 30.2528 60.8569 30.4276 60.7133 30.5756C60.5697 30.7235 60.3983 30.8417 60.209 30.9235C60.0197 31.0052 59.8162 31.0489 59.61 31.0519C59.406 31.0551 59.2035 31.0172 59.0145 30.9406C58.8254 30.864 58.6537 30.7502 58.5094 30.606C58.3652 30.4617 58.2514 30.29 58.1748 30.101C58.0982 29.9119 58.0603 29.7094 58.0635 29.5054V15.6807L56.9388 16.3133C56.7078 16.4618 56.44 16.5429 56.1655 16.5476C55.8244 16.5465 55.4928 16.4344 55.2211 16.2281C54.9494 16.0217 54.7523 15.7325 54.6596 15.4042C54.5669 15.0758 54.5838 14.7263 54.7075 14.4083C54.8312 14.0904 55.0552 13.8214 55.3454 13.6421L58.7899 11.6035C58.7899 11.6035 58.7899 11.6035 58.9305 11.6035H59.0945H59.8443C59.8443 11.6035 59.8443 11.6035 60.0083 11.6035H60.1255C60.1255 11.6035 60.1255 11.6035 60.2895 11.6035C60.2997 11.6498 60.2997 11.6978 60.2895 11.7441C60.2895 11.7441 60.2895 11.8613 60.2895 11.8847C60.2855 11.9315 60.2855 11.9785 60.2895 12.0253C60.2644 12.0934 60.2644 12.1681 60.2895 12.2362L61.1565 12.8689Z" fill="#263238"/>
<path d="M271.973 29.4584C271.976 29.6624 271.938 29.8649 271.861 30.054C271.785 30.243 271.671 30.4148 271.527 30.559C271.382 30.7033 271.211 30.8171 271.022 30.8937C270.833 30.9703 270.63 31.0081 270.426 31.0049H260.421C260.11 31.0015 259.807 30.9059 259.551 30.7302C259.294 30.5546 259.096 30.3067 258.98 30.0181C258.865 29.7296 258.838 29.4132 258.902 29.1092C258.967 28.8051 259.12 28.5271 259.343 28.3103L267.661 20.7652C268.044 20.4294 268.349 20.0145 268.555 19.5492C268.761 19.084 268.864 18.5795 268.856 18.0706C268.828 17.2039 268.496 16.3746 267.919 15.7274C267.582 15.3462 267.167 15.0422 266.702 14.8359C266.237 14.6297 265.733 14.5261 265.224 14.5324C264.356 14.5526 263.524 14.8854 262.881 15.4697L261.991 16.2429C261.851 16.3911 261.682 16.5092 261.494 16.5898C261.307 16.6705 261.105 16.7121 260.901 16.7121C260.697 16.7121 260.495 16.6705 260.308 16.5898C260.121 16.5092 259.952 16.3911 259.812 16.2429C259.666 16.099 259.55 15.9276 259.471 15.7385C259.392 15.5494 259.351 15.3466 259.351 15.1416C259.351 14.9367 259.392 14.7338 259.471 14.5447C259.55 14.3556 259.666 14.1842 259.812 14.0403L260.679 13.2436C261.335 12.6499 262.102 12.1916 262.936 11.895C263.769 11.5983 264.654 11.4691 265.537 11.5148C266.421 11.5606 267.287 11.7802 268.086 12.1613C268.885 12.5424 269.6 13.0775 270.192 13.7357C271.332 14.9645 271.96 16.5818 271.949 18.258C271.945 19.1989 271.745 20.1287 271.362 20.9881C270.979 21.8474 270.421 22.6174 269.723 23.249L264.404 28.0759H270.496C270.867 28.0908 271.221 28.2386 271.492 28.4924C271.763 28.7463 271.934 29.0892 271.973 29.4584Z" fill="#263238"/>
<path d="M503.548 19.0548C504.203 19.6959 504.723 20.4615 505.077 21.3066C505.431 22.1517 505.612 23.0591 505.61 23.9754C505.591 25.3485 505.17 26.686 504.399 27.8226C503.629 28.9591 502.542 29.8451 501.273 30.371C500.005 30.8968 498.61 31.0396 497.261 30.7817C495.912 30.5237 494.669 29.8764 493.683 28.9195C493.373 28.6088 493.198 28.1874 493.198 27.7479C493.198 27.3085 493.373 26.8871 493.683 26.5763C493.994 26.2656 494.416 26.0911 494.855 26.0911C495.295 26.0911 495.716 26.2656 496.027 26.5763C496.377 26.9275 496.793 27.2056 497.252 27.3947C497.71 27.5837 498.202 27.6799 498.698 27.6776C499.706 27.6781 500.674 27.2826 501.393 26.5763C502.071 25.8981 502.458 24.9816 502.47 24.0223C502.478 23.5235 502.382 23.0285 502.188 22.5688C501.994 22.109 501.708 21.6944 501.346 21.3511C500.997 20.9967 500.581 20.715 500.122 20.5219C499.664 20.3289 499.172 20.2285 498.674 20.2264C498.456 20.2394 498.237 20.1993 498.037 20.1095C497.837 20.0197 497.662 19.883 497.526 19.7108C497.364 19.5616 497.235 19.3805 497.147 19.1788C497.058 18.9772 497.013 18.7594 497.013 18.5393C497.013 18.3191 497.058 18.1013 497.147 17.8997C497.235 17.698 497.364 17.5169 497.526 17.3677L500.408 14.4387H495.863C495.639 14.466 495.412 14.4455 495.196 14.3784C494.981 14.3114 494.782 14.1995 494.614 14.05C494.445 13.9005 494.309 13.7168 494.217 13.5112C494.124 13.3055 494.076 13.0826 494.076 12.857C494.076 12.6315 494.124 12.4086 494.217 12.2029C494.309 11.9973 494.445 11.8136 494.614 11.6641C494.782 11.5146 494.981 11.4026 495.196 11.3356C495.412 11.2686 495.639 11.2481 495.863 11.2754H504.134C504.344 11.2691 504.553 11.3051 504.749 11.3812C504.945 11.4573 505.124 11.5719 505.275 11.7183C505.425 11.8647 505.545 12.0399 505.627 12.2335C505.709 12.4271 505.751 12.6351 505.751 12.8453C505.746 13.1092 505.673 13.3673 505.54 13.5951C505.468 13.742 505.373 13.8764 505.259 13.9935L501.721 17.6488C502.405 18.0099 503.024 18.4854 503.548 19.0548Z" fill="#263238"/>
<path d="M53.0029 38.8071H63.4067L58.2048 45.04L53.0029 38.8071Z" fill="#263238"/>
<path d="M260.536 38.8071H270.94L265.738 45.04L260.536 38.8071Z" fill="#263238"/>
<path d="M494.457 38.8071H504.837L499.659 45.04L494.457 38.8071Z" fill="#263238"/>
<path d="M401.176 282.218H362.607V304.525H401.176V282.218Z" fill="#E6007A"/>
<path d="M528.433 282.218H489.864V304.525H528.433V282.218Z" fill="white"/>
<path d="M529.581 305.696H488.692V281.046H529.581V305.696ZM491.036 303.353H527.238V283.389H491.036V303.353Z" fill="#E6007A"/>
<path d="M655.667 282.218H617.099V304.525H655.667V282.218Z" fill="#E6007A"/>
<path opacity="0.4" d="M655.667 282.218H617.099V304.525H655.667V282.218Z" fill="black"/>
<path d="M782.926 282.218H744.357V304.525H782.926V282.218Z" fill="#E6007A"/>
<path opacity="0.2" d="M782.926 282.218H744.357V304.525H782.926V282.218Z" fill="black"/>
<path d="M455.163 283.481H412.892V285.825H455.163V283.481Z" fill="#C7C7C7"/>
<path d="M440.026 291.027H412.892V293.37H440.026V291.027Z" fill="#C7C7C7"/>
<path d="M581.762 283.481H539.491V285.825H581.762V283.481Z" fill="#C7C7C7"/>
<path d="M560.627 291.027H539.491V293.37H560.627V291.027Z" fill="#C7C7C7"/>
<path d="M687.206 283.481H666.07V285.825H687.206V283.481Z" fill="#C7C7C7"/>
<path d="M699.531 291.027H666.07V293.37H699.531V291.027Z" fill="#C7C7C7"/>
<path d="M823.016 283.481H792.648V285.825H823.016V283.481Z" fill="#C7C7C7"/>
<path d="M834.919 291.027H792.648V293.37H834.919V291.027Z" fill="#C7C7C7"/>
<path d="M420.517 98.9541H864.296C866.281 98.9541 868.184 99.794 869.588 101.289C870.991 102.784 871.779 104.812 871.779 106.926V129.227H413.034V106.926C413.034 104.812 413.823 102.784 415.226 101.289C416.629 99.794 418.533 98.9541 420.517 98.9541Z" fill="#E6007A" stroke="#263238" stroke-width="1.84257" stroke-linecap="round" stroke-linejoin="round"/>
<path d="M897.108 134.09H413.046V474.726H897.108V134.09Z" fill="white" stroke="#263238" stroke-width="1.84257" stroke-linecap="round" stroke-linejoin="round"/>
<path d="M904.516 113.768C904.516 115.225 904.084 116.65 903.274 117.862C902.464 119.074 901.313 120.019 899.966 120.577C898.619 121.135 897.138 121.281 895.708 120.996C894.278 120.712 892.965 120.01 891.934 118.979C890.903 117.949 890.201 116.635 889.917 115.206C889.633 113.776 889.779 112.294 890.336 110.947C890.894 109.601 891.839 108.449 893.051 107.64C894.263 106.83 895.688 106.397 897.146 106.397C899.1 106.397 900.975 107.174 902.357 108.556C903.739 109.938 904.516 111.813 904.516 113.768Z" fill="white" stroke="#263238" stroke-width="1.84257" stroke-linecap="round" stroke-linejoin="round"/>
<path d="M878.425 113.768C878.425 115.225 877.993 116.65 877.183 117.862C876.373 119.074 875.222 120.019 873.875 120.577C872.529 121.135 871.047 121.281 869.617 120.996C868.187 120.712 866.874 120.01 865.843 118.979C864.813 117.949 864.111 116.635 863.826 115.206C863.542 113.776 863.688 112.294 864.246 110.947C864.803 109.601 865.748 108.449 866.96 107.64C868.172 106.83 869.597 106.397 871.055 106.397C873.01 106.397 874.884 107.174 876.266 108.556C877.649 109.938 878.425 111.813 878.425 113.768Z" fill="white" stroke="#263238" stroke-width="1.84257" stroke-linecap="round" stroke-linejoin="round"/>
<path d="M852.278 113.768C852.278 115.225 851.845 116.65 851.036 117.862C850.226 119.074 849.075 120.019 847.728 120.577C846.381 121.135 844.899 121.281 843.47 120.996C842.04 120.712 840.727 120.01 839.696 118.979C838.665 117.949 837.963 116.635 837.679 115.206C837.394 113.776 837.54 112.294 838.098 110.947C838.656 109.601 839.601 108.449 840.813 107.64C842.025 106.83 843.45 106.397 844.907 106.397C846.862 106.397 848.737 107.174 850.119 108.556C851.501 109.938 852.278 111.813 852.278 113.768Z" fill="white" stroke="#263238" stroke-width="1.84257" stroke-linecap="round" stroke-linejoin="round"/>
<path d="M882.443 148.703H863.28" stroke="#263238" stroke-width="3.68514" stroke-linecap="round" stroke-linejoin="round"/>
<path d="M882.443 156.48H863.28" stroke="#263238" stroke-width="3.68514" stroke-linecap="round" stroke-linejoin="round"/>
<path d="M882.443 164.254H863.28" stroke="#263238" stroke-width="3.68514" stroke-linecap="round" stroke-linejoin="round"/>
<path d="M446.563 349.691H591.629" stroke="#263238" stroke-width="3.68514" stroke-linecap="round" stroke-linejoin="round"/>
<path d="M446.563 361.134H591.629" stroke="#263238" stroke-width="3.68514" stroke-linecap="round" stroke-linejoin="round"/>
<path d="M446.563 372.777H560.95" stroke="#263238" stroke-width="3.68514" stroke-linecap="round" stroke-linejoin="round"/>
<path d="M754.179 137.923V138.845" stroke="#263238" stroke-width="1.84257" stroke-linecap="round" stroke-linejoin="round"/>
<path d="M754.179 144.373V465.404" stroke="#263238" stroke-width="1.84257" stroke-linecap="round" stroke-linejoin="round" stroke-dasharray="1.84 5.52"/>
<path d="M754.179 468.168V469.09" stroke="#263238" stroke-width="1.84257" stroke-linecap="round" stroke-linejoin="round"/>
<path d="M418.869 398.336H419.79" stroke="#263238" stroke-width="1.84257" stroke-linecap="round" stroke-linejoin="round"/>
<path d="M425.299 398.336H886.016" stroke="#263238" stroke-width="1.84257" stroke-linecap="round" stroke-linejoin="round" stroke-dasharray="1.84 5.52"/>
<path d="M888.779 398.336H889.701" stroke="#263238" stroke-width="1.84257" stroke-linecap="round" stroke-linejoin="round"/>
<path d="M757.366 395.146H751.009V401.503H757.366V395.146Z" fill="white" stroke="#263238" stroke-width="1.84257" stroke-linecap="round" stroke-linejoin="round"/>
<path d="M728.808 337.272H643.939" stroke="#263238" stroke-width="1.84257" stroke-linecap="round" stroke-linejoin="round"/>
<path d="M730.446 376.518C730.446 376.518 730.446 337.069 686.372 337.069C642.297 337.069 642.224 376.518 642.224 376.518" stroke="#263238" stroke-width="1.84257" stroke-linecap="round" stroke-linejoin="round"/>
<path d="M730.448 380.241C732.503 380.241 734.17 378.575 734.17 376.519C734.17 374.464 732.503 372.797 730.448 372.797C728.392 372.797 726.726 374.464 726.726 376.519C726.726 378.575 728.392 380.241 730.448 380.241Z" fill="#E6007A" stroke="#263238" stroke-width="1.84257" stroke-linecap="round" stroke-linejoin="round"/>
<path d="M638.539 376.519C638.539 375.79 638.755 375.078 639.16 374.472C639.565 373.866 640.141 373.393 640.814 373.114C641.487 372.836 642.228 372.763 642.943 372.905C643.658 373.047 644.315 373.398 644.83 373.913C645.345 374.429 645.696 375.085 645.839 375.8C645.981 376.515 645.908 377.256 645.629 377.929C645.35 378.603 644.878 379.178 644.272 379.583C643.666 379.988 642.953 380.204 642.224 380.204C641.247 380.204 640.31 379.816 639.618 379.125C638.927 378.434 638.539 377.497 638.539 376.519Z" fill="#E6007A" stroke="#263238" stroke-width="1.84257" stroke-linecap="round" stroke-linejoin="round"/>
<path d="M727.185 340.33H733.708V333.807H727.185V340.33Z" fill="#E6007A" stroke="#263238" stroke-width="1.84257" stroke-linecap="round" stroke-linejoin="round"/>
<path d="M683.11 340.33H689.633V333.807H683.11V340.33Z" fill="#E6007A" stroke="#263238" stroke-width="1.84257" stroke-linecap="round" stroke-linejoin="round"/>
<path d="M639.036 340.33H645.559V333.807H639.036V340.33Z" fill="#E6007A" stroke="#263238" stroke-width="1.84257" stroke-linecap="round" stroke-linejoin="round"/>
<path d="M625.904 221.056V202.204L611.817 201.006C610.981 198.059 609.811 195.218 608.329 192.538L617.436 181.727L604.122 168.413L593.285 177.52C590.614 176.019 587.77 174.848 584.817 174.032L583.592 159.919H564.793L563.568 174.032C560.622 174.844 557.787 176.016 555.127 177.52L544.29 168.413L530.976 181.727L540.082 192.538C538.59 195.213 537.419 198.055 536.594 201.006L522.481 202.204V221.056L536.594 222.254C537.423 225.203 538.594 228.045 540.082 230.722L530.976 241.533L544.29 254.847L555.127 245.74C557.77 247.24 560.587 248.412 563.515 249.228L564.74 263.341H583.565L584.79 249.228C587.734 248.41 590.569 247.239 593.231 245.74L604.069 254.847L617.383 241.533L608.276 230.722C609.753 228.04 610.923 225.199 611.764 222.254L625.904 221.056ZM574.166 233.518C569.837 233.518 565.605 232.234 562.006 229.829C558.406 227.424 555.601 224.006 553.944 220.006C552.287 216.007 551.854 211.606 552.698 207.36C553.543 203.114 555.628 199.214 558.689 196.153C561.75 193.092 565.65 191.007 569.896 190.163C574.142 189.318 578.543 189.751 582.542 191.408C586.542 193.065 589.96 195.87 592.365 199.47C594.77 203.069 596.054 207.301 596.054 211.63C596.054 217.435 593.748 223.002 589.643 227.107C585.538 231.212 579.971 233.518 574.166 233.518Z" fill="#E6007A" stroke="#263238" stroke-width="2.66277" stroke-linecap="round" stroke-linejoin="round"/>
<path d="M689.914 263.288V250.4L680.249 249.548C679.693 247.534 678.897 245.594 677.879 243.77L684.11 236.368L674.976 227.261L667.574 233.492C665.745 232.476 663.806 231.672 661.796 231.095L660.97 221.403H648.082L647.23 231.069C645.219 231.645 643.281 232.449 641.452 233.465L634.049 227.234L624.916 236.341L631.174 243.743C630.136 245.562 629.331 247.503 628.777 249.522L619.111 250.374V263.262L628.777 264.087C629.326 266.108 630.131 268.05 631.174 269.865L624.916 277.321L634.049 286.428L641.452 280.197C643.281 281.213 645.219 282.017 647.23 282.593L648.082 292.233H660.97L661.796 282.593C663.806 282.017 665.745 281.213 667.574 280.197L674.976 286.428L684.11 277.321L678.012 269.892C679.035 268.07 679.831 266.129 680.382 264.114L689.914 263.288ZM654.526 271.809C651.559 271.814 648.657 270.939 646.187 269.294C643.718 267.648 641.792 265.307 640.654 262.567C639.516 259.827 639.217 256.81 639.795 253.9C640.373 250.989 641.801 248.315 643.899 246.217C645.997 244.119 648.671 242.691 651.581 242.113C654.492 241.535 657.508 241.835 660.249 242.973C662.989 244.111 665.33 246.036 666.976 248.506C668.621 250.975 669.496 253.877 669.491 256.844C669.484 260.811 667.905 264.613 665.1 267.418C662.295 270.223 658.493 271.802 654.526 271.809Z" fill="#E6007A" stroke="#263238" stroke-width="2.66277" stroke-linecap="round" stroke-linejoin="round"/>
<path d="M772.385 420.004H843.748" stroke="#263238" stroke-width="3.68514" stroke-linecap="round" stroke-linejoin="round"/>
<path d="M772.385 431.445H843.748" stroke="#263238" stroke-width="3.68514" stroke-linecap="round" stroke-linejoin="round"/>
<path d="M772.385 443.09H813.069" stroke="#263238" stroke-width="3.68514" stroke-linecap="round" stroke-linejoin="round"/>
<path d="M678.356 447.844H640.786C638.343 447.844 635.999 446.874 634.272 445.146C632.544 443.418 631.573 441.075 631.573 438.631C631.573 436.188 632.544 433.845 634.272 432.117C635.999 430.389 638.343 429.418 640.786 429.418H678.356C680.8 429.418 683.143 430.389 684.871 432.117C686.598 433.845 687.569 436.188 687.569 438.631C687.569 441.075 686.598 443.418 684.871 445.146C683.143 446.874 680.8 447.844 678.356 447.844Z" fill="#E6007A" stroke="#263238" stroke-width="1.84257" stroke-linecap="round" stroke-linejoin="round"/>
<path d="M748.378 447.844H710.808C708.364 447.844 706.021 446.874 704.293 445.146C702.565 443.418 701.595 441.075 701.595 438.631C701.595 436.188 702.565 433.845 704.293 432.117C706.021 430.389 708.364 429.418 710.808 429.418H748.378C750.821 429.418 753.164 430.389 754.892 432.117C756.62 433.845 757.591 436.188 757.591 438.631C757.591 441.075 756.62 443.418 754.892 445.146C753.164 446.874 750.821 447.844 748.378 447.844Z" fill="#E6007A" stroke="#263238" stroke-width="1.84257" stroke-linecap="round" stroke-linejoin="round"/>
<path d="M857.27 250.173H777.598V329.846H857.27V250.173Z" fill="white" stroke="#263238" stroke-width="1.84257" stroke-linecap="round" stroke-linejoin="round"/>
<path d="M777.598 250.173L857.27 329.846" stroke="#263238" stroke-width="1.84257" stroke-linecap="round" stroke-linejoin="round"/>
<path d="M857.27 250.173L777.598 329.846" stroke="#263238" stroke-width="1.84257" stroke-linecap="round" stroke-linejoin="round"/>
<path d="M808.848 159.722V178.313L800.648 186.513H782.057V159.722H808.848Z" fill="white" stroke="#263238" stroke-width="1.84257" stroke-linecap="round" stroke-linejoin="round"/>
<path d="M808.851 178.313L800.651 186.513V178.313H808.851Z" fill="white" stroke="#263238" stroke-width="1.84257" stroke-linecap="round" stroke-linejoin="round"/>
<path d="M523.932 303.497V322.089L515.732 330.307H497.141V303.497H523.932Z" fill="white" stroke="#263238" stroke-width="1.84257" stroke-linecap="round" stroke-linejoin="round"/>
<path d="M523.932 322.089L515.732 330.307V322.089H523.932Z" fill="white" stroke="#263238" stroke-width="1.84257" stroke-linecap="round" stroke-linejoin="round"/>
<path d="M422.701 418.051V436.642L414.502 444.842H395.892V418.051H422.701Z" fill="white" stroke="#263238" stroke-width="1.84257" stroke-linecap="round" stroke-linejoin="round"/>
<path d="M422.699 436.641L414.5 444.841V436.641H422.699Z" fill="white" stroke="#263238" stroke-width="1.84257" stroke-linecap="round" stroke-linejoin="round"/>
<path d="M943.184 183.472H844.312V245.437H943.184V183.472Z" fill="#263238" stroke="#263238" stroke-width="1.84257" stroke-linecap="round" stroke-linejoin="round"/>
<path d="M943.184 183.472H844.312V192.887H943.184V183.472Z" fill="#E6007A" stroke="#263238" stroke-width="1.84257" stroke-linecap="round" stroke-linejoin="round"/>
<path d="M854.391 200.83H879.671" stroke="white" stroke-width="1.84257" stroke-linecap="round" stroke-linejoin="round"/>
<path d="M867.03 207.887H910.773" stroke="white" stroke-width="1.84257" stroke-linecap="round" stroke-linejoin="round"/>
<path d="M861.447 214.464H874.327" stroke="white" stroke-width="1.84257" stroke-linecap="round" stroke-linejoin="round"/>
<path d="M867.03 222.221H896.493" stroke="white" stroke-width="1.84257" stroke-linecap="round" stroke-linejoin="round"/>
<path d="M854.391 229.262H879.671" stroke="white" stroke-width="1.84257" stroke-linecap="round" stroke-linejoin="round"/>
<path d="M571.334 432.791H472.462V494.756H571.334V432.791Z" fill="#263238" stroke="#263238" stroke-width="1.84257" stroke-linecap="round" stroke-linejoin="round"/>
<path d="M571.334 432.791H472.462V442.206H571.334V432.791Z" fill="#E6007A" stroke="#263238" stroke-width="1.84257" stroke-linecap="round" stroke-linejoin="round"/>
<path d="M482.56 450.166H507.821" stroke="white" stroke-width="1.84257" stroke-linecap="round" stroke-linejoin="round"/>
<path d="M495.183 457.205H538.925" stroke="white" stroke-width="1.84257" stroke-linecap="round" stroke-linejoin="round"/>
<path d="M489.597 463.782H502.476" stroke="white" stroke-width="1.84257" stroke-linecap="round" stroke-linejoin="round"/>
<path d="M495.183 471.541H524.645" stroke="white" stroke-width="1.84257" stroke-linecap="round" stroke-linejoin="round"/>
<path d="M719.799 103.612H628.96C627.896 103.617 626.877 104.042 626.125 104.794C625.373 105.546 624.948 106.565 624.943 107.629V150.008C624.948 151.07 625.374 152.087 626.126 152.837C626.879 153.586 627.898 154.007 628.96 154.007H669.681L674.324 170.59L678.986 154.007H719.799C720.861 154.007 721.88 153.586 722.633 152.837C723.386 152.087 723.811 151.07 723.816 150.008V107.629C723.811 106.565 723.386 105.546 722.634 104.794C721.882 104.042 720.863 103.617 719.799 103.612Z" fill="#E6007A" stroke="#263238" stroke-width="1.84257" stroke-linecap="round" stroke-linejoin="round"/>
<path d="M640.018 115.734H708.653" stroke="#263238" stroke-width="3.68514" stroke-linecap="round" stroke-linejoin="round"/>
<path d="M640.018 124.432H708.653" stroke="#263238" stroke-width="3.68514" stroke-linecap="round" stroke-linejoin="round"/>
<path d="M640.018 133.129H708.653" stroke="#263238" stroke-width="3.68514" stroke-linecap="round" stroke-linejoin="round"/>
<path d="M640.018 141.828H691.739" stroke="#263238" stroke-width="3.68514" stroke-linecap="round" stroke-linejoin="round"/>
<rect x="26" y="1" width="900" height="476" rx="31.41" fill="url(#paint0_linear_2802_22576)"/>
<path d="M67.1426 473.84H247.77L211.757 264.327H76.686L67.1426 473.84Z" fill="#DBDBDB"/>
<path d="M67.1426 473.84H82.9812L91.8669 264.327H76.686L67.1426 473.84Z" fill="#A6A6A6"/>
<path d="M225.823 291.912C237.621 343.307 262.064 404.916 272.493 414.916C285.687 427.573 372.974 450.754 377.323 451.224C388.061 452.325 409.698 374.715 398.222 373.051C380.773 370.528 317.204 367.078 313.392 363.159C309.58 359.239 282.627 325.253 255.044 287.039C236.011 260.637 218.507 260.02 225.823 291.912Z" fill="white"/>
<path d="M368.665 447.05C370.007 447.694 388.195 456.875 399.47 460.137C407.886 462.58 432.288 468.942 435.899 459.949C438.355 453.815 424.449 448.378 414.691 444.325C409.564 442.177 403.228 436.795 404.745 433.493C407.429 427.721 420.61 433.493 429.308 438.58C446.127 448.352 468.529 465.935 478.811 457.372C482.69 454.137 478.18 448.271 471.576 442.513C482.314 449.224 493.696 454.727 498.153 451.318C500.703 449.372 500.837 446.701 499.401 443.654C502.716 444.728 505.629 444.526 507.669 442.311C511.146 438.674 509.454 433.305 505.642 427.788C506.298 427.718 506.927 427.493 507.478 427.131C508.029 426.769 508.485 426.281 508.81 425.708C516.166 414.473 479.28 382.219 466.542 379.212C428.959 370.286 389.483 371.95 389.483 371.95C374.813 383.816 368.638 447.023 368.665 447.05Z" fill="white"/>
<path d="M423.846 412.499C432.778 413.904 441.311 417.189 448.879 422.137C458.382 428.418 464.691 435.76 472.677 443.17C472.72 443.209 472.745 443.263 472.748 443.321C472.751 443.379 472.73 443.436 472.691 443.478C472.652 443.521 472.597 443.547 472.539 443.549C472.481 443.552 472.425 443.531 472.382 443.492C468.583 439.975 452.825 426.754 448.745 423.747C441.387 418.205 432.863 414.413 423.819 412.66C423.798 412.657 423.779 412.645 423.766 412.627C423.754 412.61 423.749 412.588 423.752 412.566C423.756 412.545 423.768 412.526 423.785 412.513C423.803 412.501 423.825 412.496 423.846 412.499Z" fill="#263238"/>
<path d="M430.838 396.58C440.704 399.265 450.798 401.949 459.952 406.674C469.979 411.775 477.817 420.097 485.522 428.15C490.148 432.956 494.667 437.877 499.079 442.915C499.267 443.13 498.985 443.465 498.783 443.251C490.971 434.964 482.918 426.911 474.623 419.09C466.959 411.82 457.937 406.132 448.073 402.352C442.422 400.204 436.624 398.486 430.838 396.782C430.691 396.728 430.731 396.554 430.838 396.58Z" fill="#263238"/>
<path d="M441.377 382.661C450.96 384.62 459.309 386.312 467.806 391.439C479.027 398.244 489.872 409.694 493.684 413.747C497.886 418.244 501.926 422.861 505.912 427.546C506.073 427.734 505.738 428.016 505.577 427.828C496.47 417.557 486.705 407.891 476.342 398.889C471.482 394.519 465.971 390.933 460.007 388.258C453.963 385.882 447.725 384.032 441.363 382.728C441.363 382.728 441.336 382.647 441.377 382.661Z" fill="#263238"/>
<path d="M383.431 368.862L356.586 453.907C356.586 453.907 283.916 433.156 270.682 418.834C257.447 404.512 232.844 330.541 225.636 294.702C218.428 258.864 236.548 259.737 253.206 282.34C269.863 304.944 311.339 359.721 313.607 360.916C315.876 362.111 383.431 368.862 383.431 368.862Z" fill="#E6007A"/>
<path d="M349.619 416.123C352.867 406.096 356.196 396.097 359.015 385.949C360.652 380.178 362.317 374.419 363.901 368.634C363.901 368.419 363.592 368.285 363.511 368.5C359.861 378.433 356.21 388.406 353.002 398.513C349.794 408.62 346.532 418.579 343.472 428.673C341.727 434.418 340.17 440.176 338.787 446.029C338.795 446.049 338.808 446.067 338.826 446.079C338.844 446.092 338.866 446.099 338.888 446.099C338.91 446.099 338.931 446.092 338.949 446.079C338.967 446.067 338.981 446.049 338.988 446.029C343.042 436.27 346.344 426.217 349.619 416.123Z" fill="#263238"/>
<path opacity="0.1" d="M319.942 442.204L316.721 441.077C308.667 438.191 300.358 435.036 293.003 431.828L291.312 431.09C288.13 429.667 285.137 428.245 282.426 426.822L281.084 426.07C277.894 424.43 274.889 422.454 272.117 420.178C271.862 419.949 271.607 419.721 271.379 419.493C271.151 419.265 270.909 419.037 270.708 418.822C257.42 404.5 232.91 330.542 225.702 294.69C225.608 294.22 225.514 293.71 225.42 293.187C224.937 290.502 224.508 287.066 224.159 283.402C223.487 271.577 226.977 266.315 232.427 266.382C255.554 312.233 305.647 414.124 319.942 442.204Z" fill="black"/>
<path d="M292.627 473.84H108.872C106.845 470.136 136.966 309.172 198.978 263.844C212.723 253.791 237.111 260.261 243.903 270.032C277.956 319.172 292.627 473.84 292.627 473.84Z" fill="#E6007A"/>
<path d="M263.406 312.85C265.098 318.953 266.731 325.074 268.306 331.213C268.104 328.528 267.809 325.843 267.46 323.159C267.46 323.011 267.688 322.944 267.715 323.159C268.377 326.462 268.745 329.818 268.816 333.186C270.695 340.568 272.484 347.991 274.185 355.454C277.325 369.749 280.131 384.138 282.453 398.58C283.795 406.728 284.775 414.929 286.158 423.063C286.158 423.211 285.943 423.278 285.916 423.063C284.641 415.855 282.95 408.688 281.379 401.587C279.809 394.486 278.278 387.332 276.829 380.205C273.849 365.87 270.708 351.575 267.755 337.253C266.091 329.199 264.547 321.078 262.883 312.998C262.89 312.941 262.914 312.886 262.952 312.842C262.99 312.798 263.04 312.767 263.096 312.751C263.151 312.735 263.211 312.736 263.266 312.754C263.321 312.772 263.37 312.805 263.406 312.85Z" fill="#263238"/>
<mask id="path-138-inside-1_2802_22576" fill="white">
<path fill-rule="evenodd" clip-rule="evenodd" d="M100.739 452.754C77.8538 430.768 148.43 311.522 178.107 279.751C191.207 265.711 216.912 250.449 202.133 303.629C195.099 329.045 188.276 347.181 183.86 358.919L183.86 358.919L183.86 358.919L183.86 358.919C180.263 368.481 178.263 373.798 179.046 375.346C179.741 376.729 191.054 372.472 204.175 367.535L204.175 367.535C212.289 364.481 221.095 361.168 228.507 358.768C231.098 357.347 258.594 342.455 284.388 336.233C288.517 335.239 293.759 334.208 299.85 333.642C304.404 333.063 308.351 332.683 311.897 332.341C326.535 330.929 334.356 330.175 349.929 318.904C363.15 309.334 374.935 313.669 367.379 328.877C364.35 334.987 360.118 340.297 355.273 344.844C365.057 350.08 375.112 357.464 385.057 367.723C394.56 377.521 401.164 398.232 379.822 387.857C372.562 384.332 367.085 380.374 362.294 376.911C357.096 373.153 352.705 369.979 347.719 368.577C361.382 385.148 378.567 412.744 368.373 421.842C360.051 429.264 350.306 417.399 350.306 417.399C350.306 417.399 356.776 433.036 347.782 438.11C339.595 442.714 332.601 433.077 332.601 433.077C332.601 433.077 334.897 443.251 326.159 446.163C320.57 448.038 317.083 442.743 312.984 436.52C310.381 432.568 307.531 428.241 303.739 425.139C299.767 426.643 293.888 428.14 286.208 428.159C250.561 445.153 123.621 474.737 100.739 452.754Z"/>
</mask>
<path fill-rule="evenodd" clip-rule="evenodd" d="M100.739 452.754C77.8538 430.768 148.43 311.522 178.107 279.751C191.207 265.711 216.912 250.449 202.133 303.629C195.099 329.045 188.276 347.181 183.86 358.919L183.86 358.919L183.86 358.919L183.86 358.919C180.263 368.481 178.263 373.798 179.046 375.346C179.741 376.729 191.054 372.472 204.175 367.535L204.175 367.535C212.289 364.481 221.095 361.168 228.507 358.768C231.098 357.347 258.594 342.455 284.388 336.233C288.517 335.239 293.759 334.208 299.85 333.642C304.404 333.063 308.351 332.683 311.897 332.341C326.535 330.929 334.356 330.175 349.929 318.904C363.15 309.334 374.935 313.669 367.379 328.877C364.35 334.987 360.118 340.297 355.273 344.844C365.057 350.08 375.112 357.464 385.057 367.723C394.56 377.521 401.164 398.232 379.822 387.857C372.562 384.332 367.085 380.374 362.294 376.911C357.096 373.153 352.705 369.979 347.719 368.577C361.382 385.148 378.567 412.744 368.373 421.842C360.051 429.264 350.306 417.399 350.306 417.399C350.306 417.399 356.776 433.036 347.782 438.11C339.595 442.714 332.601 433.077 332.601 433.077C332.601 433.077 334.897 443.251 326.159 446.163C320.57 448.038 317.083 442.743 312.984 436.52C310.381 432.568 307.531 428.241 303.739 425.139C299.767 426.643 293.888 428.14 286.208 428.159C250.561 445.153 123.621 474.737 100.739 452.754Z" fill="white"/>
<path d="M178.107 279.751L179.088 280.667L179.088 280.666L178.107 279.751ZM100.739 452.754L99.8094 453.722H99.8094L100.739 452.754ZM202.133 303.629L200.84 303.27L200.84 303.271L202.133 303.629ZM183.86 358.919L185.117 359.392L183.86 358.919ZM179.046 375.346L180.246 374.744L180.244 374.74L179.046 375.346ZM204.175 367.535L203.751 366.261L203.726 366.269L203.702 366.278L204.175 367.535ZM204.175 367.535L204.6 368.808L204.624 368.8L204.648 368.791L204.175 367.535ZM228.507 358.768L228.921 360.045L229.041 360.006L229.153 359.945L228.507 358.768ZM284.388 336.233L284.074 334.928L284.073 334.929L284.388 336.233ZM299.85 333.642L299.974 334.978L299.996 334.976L300.019 334.973L299.85 333.642ZM311.897 332.341L312.026 333.677L311.897 332.341ZM349.929 318.904L350.716 319.992L350.716 319.991L349.929 318.904ZM367.379 328.877L366.177 328.28L366.176 328.281L367.379 328.877ZM355.273 344.844L354.354 343.865L352.991 345.145L354.64 346.027L355.273 344.844ZM385.057 367.723L384.093 368.657L384.094 368.657L385.057 367.723ZM379.822 387.857L380.409 386.649L380.408 386.649L379.822 387.857ZM362.294 376.911L361.508 377.998L362.294 376.911ZM347.718 368.577L348.082 367.285L343.957 366.124L346.683 369.431L347.718 368.577ZM368.373 421.842L369.266 422.843L369.266 422.843L368.373 421.842ZM350.306 417.399L351.343 416.547L349.066 417.912L350.306 417.399ZM347.782 438.11L348.44 439.28L348.442 439.279L347.782 438.11ZM332.601 433.077L333.688 432.288L331.292 433.372L332.601 433.077ZM326.159 446.163L325.734 444.89L325.732 444.891L326.159 446.163ZM312.984 436.52L311.863 437.259L312.984 436.52ZM303.739 425.139L304.589 424.101L303.989 423.61L303.264 423.884L303.739 425.139ZM286.208 428.159L286.205 426.817L285.903 426.817L285.631 426.947L286.208 428.159ZM177.126 278.834C162.166 294.85 137.036 332.728 118.515 369.315C109.25 387.616 101.598 405.674 97.7012 420.575C95.7538 428.022 94.7252 434.75 94.9345 440.361C95.1433 445.957 96.5932 450.632 99.8094 453.722L101.669 451.786C99.164 449.379 97.8133 445.518 97.6171 440.261C97.4216 435.018 98.3839 428.575 100.298 421.254C104.125 406.621 111.681 388.758 120.91 370.528C139.374 334.053 164.371 296.422 179.088 280.667L177.126 278.834ZM203.427 303.989C207.133 290.652 208.352 281.443 207.793 275.366C207.512 272.319 206.776 269.949 205.581 268.234C204.358 266.48 202.705 265.489 200.804 265.16C198.949 264.839 196.937 265.157 194.928 265.844C192.91 266.534 190.812 267.625 188.742 268.95C184.605 271.598 180.457 275.264 177.126 278.835L179.088 280.666C182.307 277.217 186.285 273.71 190.19 271.211C192.142 269.961 194.043 268.984 195.797 268.384C197.56 267.781 199.092 267.588 200.345 267.805C201.552 268.014 202.572 268.612 203.379 269.769C204.213 270.966 204.863 272.829 205.119 275.612C205.633 281.191 204.523 290.016 200.84 303.27L203.427 303.989ZM185.117 359.392C189.536 347.644 196.376 329.463 203.427 303.987L200.84 303.271C193.822 328.628 187.016 346.718 182.604 358.447L185.117 359.392ZM180.244 374.74C180.255 374.761 180.159 374.516 180.289 373.675C180.407 372.91 180.672 371.877 181.092 370.539C181.929 367.866 183.312 364.189 185.117 359.392L182.604 358.447C180.812 363.211 179.396 366.973 178.53 369.736C178.098 371.116 177.785 372.3 177.636 373.266C177.498 374.157 177.446 375.157 177.849 375.952L180.244 374.74ZM203.702 366.278C197.132 368.751 191.053 371.038 186.529 372.536C184.26 373.287 182.432 373.824 181.149 374.089C180.497 374.224 180.061 374.272 179.809 374.268C179.68 374.266 179.677 374.251 179.743 374.274C179.815 374.299 180.08 374.413 180.246 374.744L177.847 375.948C178.1 376.452 178.534 376.695 178.855 376.807C179.17 376.918 179.494 376.948 179.766 376.952C180.317 376.961 180.981 376.865 181.692 376.718C183.136 376.419 185.086 375.842 187.373 375.085C191.96 373.566 198.098 371.256 204.648 368.791L203.702 366.278ZM203.751 366.261L203.751 366.261L204.6 368.808L204.6 368.808L203.751 366.261ZM228.094 357.491C220.645 359.903 211.808 363.228 203.703 366.278L204.648 368.791C212.771 365.735 221.544 362.433 228.921 360.045L228.094 357.491ZM284.073 334.929C258.09 341.196 230.457 356.167 227.861 357.591L229.153 359.945C231.74 358.526 259.099 343.714 284.703 337.538L284.073 334.929ZM299.726 332.305C293.556 332.879 288.249 333.923 284.074 334.928L284.702 337.538C288.785 336.556 293.962 335.537 299.974 334.978L299.726 332.305ZM311.768 331.005C308.222 331.347 304.257 331.729 299.681 332.31L300.019 334.973C304.551 334.398 308.479 334.019 312.026 333.677L311.768 331.005ZM349.142 317.817C341.433 323.396 335.716 326.32 330.166 328.037C324.588 329.763 319.114 330.296 311.768 331.005L312.026 333.677C319.318 332.974 325.073 332.423 330.959 330.602C336.872 328.772 342.852 325.683 350.716 319.992L349.142 317.817ZM368.581 329.474C370.53 325.551 371.32 322.164 371.034 319.419C370.742 316.605 369.315 314.509 367.036 313.393C364.829 312.313 362.003 312.237 358.975 312.983C355.928 313.735 352.556 315.345 349.142 317.817L350.716 319.991C353.913 317.678 356.973 316.242 359.617 315.59C362.281 314.933 364.408 315.096 365.856 315.805C367.231 316.478 368.159 317.719 368.364 319.696C368.577 321.742 368.005 324.6 366.177 328.28L368.581 329.474ZM356.192 345.823C361.131 341.187 365.469 335.751 368.581 329.473L366.176 328.281C363.231 334.222 359.105 339.407 354.354 343.865L356.192 345.823ZM386.021 366.789C375.983 356.435 365.818 348.965 355.906 343.66L354.64 346.027C364.296 351.195 374.24 358.493 384.093 368.657L386.021 366.789ZM379.235 389.064C384.607 391.675 388.598 392.539 391.348 391.757C392.796 391.345 393.87 390.482 394.537 389.281C395.182 388.119 395.396 386.734 395.348 385.31C395.253 382.476 394.108 379.089 392.443 375.848C390.767 372.585 388.497 369.342 386.021 366.788L384.094 368.657C386.368 371.003 388.488 374.023 390.056 377.075C391.635 380.149 392.589 383.128 392.665 385.4C392.703 386.529 392.521 387.382 392.19 387.978C391.88 388.535 391.398 388.951 390.613 389.175C388.895 389.664 385.709 389.226 380.409 386.649L379.235 389.064ZM361.508 377.998C366.298 381.461 371.859 385.483 379.236 389.064L380.408 386.649C373.264 383.181 367.871 379.286 363.08 375.823L361.508 377.998ZM347.355 369.869C352.068 371.194 356.26 374.205 361.508 377.998L363.08 375.823C357.932 372.102 353.342 368.764 348.082 367.285L347.355 369.869ZM346.683 369.431C353.473 377.667 361.111 388.611 365.776 398.581C368.113 403.573 369.661 408.233 370.031 412.138C370.401 416.04 369.583 418.962 367.479 420.84L369.266 422.843C372.259 420.172 373.116 416.234 372.704 411.885C372.292 407.539 370.601 402.558 368.208 397.443C363.413 387.197 355.627 376.058 348.754 367.723L346.683 369.431ZM367.479 420.84C365.655 422.467 363.821 422.995 362.083 422.938C360.301 422.879 358.524 422.2 356.897 421.246C355.278 420.296 353.883 419.119 352.885 418.166C352.389 417.692 351.998 417.28 351.733 416.99C351.6 416.845 351.5 416.73 351.434 416.654C351.401 416.615 351.376 416.587 351.361 416.569C351.354 416.56 351.348 416.553 351.345 416.55C351.344 416.548 351.343 416.547 351.342 416.546C351.342 416.546 351.342 416.546 351.342 416.546C351.342 416.546 351.343 416.546 351.343 416.546C351.343 416.547 351.343 416.547 350.306 417.399C349.269 418.251 349.269 418.251 349.269 418.252C349.269 418.252 349.27 418.252 349.27 418.253C349.271 418.254 349.272 418.255 349.273 418.256C349.275 418.258 349.277 418.262 349.281 418.265C349.287 418.273 349.296 418.284 349.307 418.297C349.329 418.323 349.36 418.36 349.401 418.407C349.482 418.501 349.599 418.634 349.749 418.799C350.049 419.128 350.484 419.585 351.032 420.108C352.121 421.148 353.682 422.473 355.54 423.562C357.39 424.647 359.609 425.542 361.995 425.621C364.424 425.701 366.929 424.928 369.266 422.843L367.479 420.84ZM350.306 417.399C349.066 417.912 349.065 417.912 349.065 417.912C349.065 417.912 349.065 417.911 349.065 417.911C349.065 417.911 349.065 417.912 349.066 417.912C349.066 417.913 349.067 417.915 349.068 417.917C349.07 417.923 349.074 417.932 349.079 417.945C349.089 417.971 349.105 418.01 349.126 418.064C349.168 418.171 349.229 418.332 349.305 418.54C349.457 418.957 349.666 419.564 349.891 420.309C350.342 421.805 350.847 423.833 351.082 425.997C351.565 430.444 350.862 434.831 347.123 436.941L348.442 439.279C353.696 436.315 354.255 430.347 353.751 425.707C353.493 423.327 352.942 421.129 352.461 419.534C352.22 418.734 351.994 418.079 351.827 417.621C351.744 417.392 351.675 417.212 351.627 417.088C351.602 417.025 351.583 416.977 351.569 416.943C351.563 416.926 351.557 416.913 351.553 416.903C351.551 416.898 351.55 416.894 351.549 416.892C351.548 416.89 351.547 416.889 351.547 416.888C351.547 416.887 351.547 416.887 351.547 416.887C351.546 416.886 351.546 416.886 350.306 417.399ZM347.125 436.94C343.644 438.897 340.412 437.888 337.862 436.2C336.588 435.357 335.536 434.372 334.799 433.59C334.432 433.201 334.149 432.867 333.959 432.634C333.864 432.518 333.793 432.427 333.748 432.367C333.725 432.337 333.708 432.315 333.698 432.302C333.693 432.295 333.69 432.291 333.688 432.288C333.687 432.287 333.687 432.287 333.687 432.287C333.687 432.287 333.687 432.287 333.687 432.287C333.687 432.287 333.687 432.287 333.687 432.287C333.688 432.288 333.688 432.288 332.601 433.077C331.515 433.865 331.515 433.865 331.516 433.866C331.516 433.866 331.516 433.867 331.517 433.867C331.517 433.868 331.518 433.869 331.519 433.87C331.52 433.872 331.523 433.875 331.525 433.879C331.53 433.885 331.537 433.895 331.545 433.906C331.562 433.929 331.586 433.96 331.617 434C331.677 434.079 331.765 434.191 331.877 434.329C332.102 434.605 332.428 434.988 332.845 435.431C333.675 436.312 334.884 437.448 336.381 438.439C339.374 440.42 343.733 441.927 348.44 439.28L347.125 436.94ZM332.601 433.077C331.292 433.372 331.292 433.371 331.292 433.371C331.292 433.371 331.292 433.37 331.292 433.37C331.292 433.37 331.292 433.369 331.292 433.369C331.291 433.369 331.292 433.369 331.292 433.37C331.292 433.372 331.293 433.376 331.294 433.383C331.297 433.396 331.302 433.418 331.308 433.449C331.32 433.51 331.337 433.606 331.358 433.733C331.399 433.986 331.449 434.358 331.485 434.817C331.558 435.74 331.569 436.983 331.335 438.292C330.875 440.875 329.501 443.635 325.734 444.89L326.583 447.437C331.555 445.78 333.402 441.995 333.978 438.763C334.263 437.165 334.246 435.682 334.162 434.606C334.119 434.066 334.059 433.621 334.008 433.306C333.983 433.149 333.96 433.023 333.943 432.934C333.934 432.89 333.927 432.855 333.921 432.829C333.918 432.816 333.916 432.806 333.914 432.798C333.914 432.794 333.913 432.79 333.912 432.788C333.912 432.786 333.912 432.785 333.911 432.784C333.911 432.783 333.911 432.783 333.911 432.782C333.911 432.782 333.911 432.781 332.601 433.077ZM325.732 444.891C324.572 445.28 323.581 445.283 322.681 445.03C321.762 444.772 320.85 444.224 319.909 443.379C317.983 441.653 316.187 438.944 314.105 435.782L311.863 437.259C313.879 440.32 315.876 443.369 318.117 445.378C319.258 446.401 320.522 447.213 321.956 447.615C323.41 448.023 324.951 447.984 326.586 447.436L325.732 444.891ZM314.105 435.782C311.524 431.863 308.567 427.354 304.589 424.101L302.89 426.178C306.495 429.128 309.237 433.272 311.863 437.259L314.105 435.782ZM286.211 429.501C294.068 429.482 300.106 427.95 304.214 426.395L303.264 423.884C299.428 425.336 293.709 426.798 286.205 426.817L286.211 429.501ZM99.8094 453.722C102.928 456.718 107.695 458.732 113.527 460.016C119.385 461.306 126.463 461.891 134.355 461.917C150.14 461.97 169.352 459.788 188.916 456.395C228.015 449.615 268.8 437.945 286.786 429.37L285.631 426.947C267.968 435.367 227.46 446.986 188.457 453.75C168.97 457.13 149.929 459.284 134.364 459.232C126.58 459.206 119.708 458.628 114.105 457.395C108.476 456.155 104.271 454.285 101.669 451.786L99.8094 453.722Z" fill="#1C1C26" mask="url(#path-138-inside-1_2802_22576)"/>
<path d="M324.707 375.359C332.412 381.144 346.546 398.741 350.452 416.969C350.546 417.385 350.277 417.681 350.116 417.318C343.34 402.391 334.776 388.342 324.613 375.48C324.611 375.466 324.612 375.452 324.616 375.438C324.62 375.424 324.626 375.411 324.635 375.4C324.644 375.389 324.655 375.379 324.667 375.372C324.679 375.365 324.693 375.361 324.707 375.359Z" fill="#263238"/>
<path d="M309.727 389.815C315.861 395.48 329.62 414.285 332.948 432.902C333.029 433.318 332.747 433.586 332.599 433.224C326.582 417.973 318.859 403.452 309.58 389.936C309.513 389.842 309.647 389.748 309.727 389.815Z" fill="#263238"/>
<path d="M347.701 368.393C356.103 370.876 361.58 374.997 368.667 379.923C372.145 382.407 375.762 384.693 379.499 386.768C382.921 388.62 387.968 391.426 391.579 388.526C393.619 386.916 393.579 383.976 393.136 381.654C392.11 378.245 390.551 375.02 388.519 372.097C388.438 371.99 388.626 371.842 388.707 371.963C390.681 374.616 392.373 377.468 393.753 380.473C394.665 382.534 394.931 384.822 394.518 387.037C393.284 391.667 387.807 392.271 383.942 391.063C381.64 390.22 379.428 389.15 377.338 387.869C375.297 386.701 373.311 385.426 371.365 384.11C367.338 381.426 363.539 378.486 359.58 375.748C355.706 373.158 351.671 370.818 347.499 368.742C347.419 368.594 347.54 368.352 347.701 368.393Z" fill="#263238"/>
<path d="M365.298 397.963C363.123 393.171 351.352 373.212 347.526 368.594C347.511 368.57 347.505 368.542 347.509 368.514C347.513 368.486 347.526 368.46 347.547 368.441C347.567 368.422 347.594 368.411 347.622 368.409C347.65 368.408 347.678 368.416 347.701 368.433C354.251 374.634 364.788 391.131 367.231 396.419C369.673 401.708 372.452 408.312 372.452 414.137C372.452 422.915 366.627 424.58 364.479 425.009C361.92 425.464 359.283 425.033 357.003 423.788C354.357 422.144 352.074 419.979 350.291 417.425C350.197 417.305 350.358 417.13 350.452 417.251C353.499 420.714 358.506 424.123 363.325 423.506C364.38 423.398 365.403 423.083 366.336 422.578C367.269 422.074 368.093 421.39 368.761 420.566C370.045 418.447 370.522 415.935 370.103 413.493C369.647 408.056 367.539 402.889 365.298 397.963Z" fill="#263238"/>
<path d="M228.307 358.876L268.95 444.378C268.95 444.378 109.974 480.095 96.2557 452.432C82.5379 424.768 144.282 316.421 172.133 284.905C199.985 253.388 212.401 262.596 205.005 296.515C197.609 330.434 179.556 376.178 179.556 376.178L228.307 358.876Z" fill="#E6007A"/>
<path d="M131.235 398.901C138.624 393.813 146.371 389.264 154.415 385.291C162.38 381.391 170.621 378.084 179.073 375.398C183.891 373.801 188.75 372.459 193.623 371.063C193.77 371.063 193.824 371.251 193.69 371.305C185.205 374.049 176.887 377.285 168.778 380.996C160.724 384.575 152.706 388.324 144.724 392.244C140.228 394.445 135.839 396.861 131.409 399.224C131.208 399.331 131.047 398.995 131.235 398.901Z" fill="#263238"/>
<path d="M227.891 358.621C227.085 358.836 183.596 373.185 182.254 373.856C182.429 373.198 190.227 350.084 191.395 346.702C191.516 346.353 191.61 346.017 191.73 345.682C192.522 344.165 193.314 342.662 194.053 341.132C194.992 339.145 195.918 337.172 196.844 335.185C196.844 335.185 196.777 335.078 196.75 335.185C195.73 337.118 194.719 339.055 193.717 340.997C193.247 341.883 192.818 342.796 192.375 343.682C193.14 341.293 193.865 338.89 194.603 336.487C195.771 332.648 196.818 328.783 197.851 324.904C197.851 324.783 197.703 324.743 197.663 324.904C195.355 331.615 192.831 338.326 190.509 345.037C188.187 351.749 179.234 376.594 179.301 376.567C179.368 376.54 227.193 359.668 228.119 359.292C228.208 359.262 228.281 359.198 228.323 359.113C228.364 359.029 228.371 358.932 228.34 358.843C228.31 358.754 228.246 358.68 228.162 358.639C228.077 358.597 227.98 358.591 227.891 358.621Z" fill="#263238"/>
<path d="M230.816 414.406C226.346 404.862 221.944 395.279 217.111 385.896C214.427 380.527 211.648 375.225 208.857 369.923C208.749 369.722 208.4 369.923 208.481 370.084C212.601 379.843 216.749 389.614 221.299 399.185C225.849 408.755 230.292 418.258 234.95 427.721C237.634 433.09 240.4 438.378 243.379 443.6C243.379 443.707 243.608 443.6 243.567 443.506C239.782 433.613 235.326 424.016 230.816 414.406Z" fill="#263238"/>
<path d="M271.003 445.721C269.42 443.036 267.406 439.291 265.701 436.728C265.259 436.057 264.735 436.191 265.097 436.902C266.305 439.291 267.312 441.976 268.507 444.432C266.279 444.875 264.037 445.278 261.796 445.774L254.078 447.318C249.013 448.347 243.948 449.336 238.883 450.284C228.619 452.182 218.329 453.859 208.011 455.318C187.281 458.352 166.408 460.31 145.476 461.184C139.623 461.398 133.758 461.506 127.906 461.425C122.128 461.441 116.353 461.163 110.604 460.593C110.456 460.593 110.416 460.835 110.604 460.875C115.56 461.918 120.592 462.569 125.651 462.821C130.957 463.09 136.263 463.197 141.57 463.143C152.133 463.022 162.697 462.338 173.22 461.371C194.079 459.457 214.839 456.66 235.501 452.982C241.29 451.962 247.062 450.875 252.816 449.721C255.715 449.13 258.614 448.553 261.514 447.909C264.413 447.264 271.272 446.164 271.003 445.721Z" fill="#263238"/>
<path d="M258.162 245.802C258.659 246.077 259.064 246.301 259.362 246.466L259.949 246.791C258.405 249.549 251.875 261.595 249.327 272.542L248.674 272.39C248.674 272.39 248.674 272.39 248.674 272.39C248.657 272.463 248.622 272.646 248.569 272.924C248.202 274.844 246.967 281.311 244.734 287.701C243.455 291.36 241.867 294.938 239.96 297.585C238.041 300.249 235.908 301.828 233.56 301.817C230.986 301.801 228.163 300.602 225.276 298.494C222.398 296.392 219.515 293.429 216.837 289.99C211.501 283.139 207.048 274.491 205.089 267.253C205.089 267.252 205.089 267.252 205.089 267.251C205.1 267.181 205.123 267.074 205.159 266.925C205.231 266.63 205.347 266.215 205.504 265.689C205.817 264.639 206.281 263.18 206.854 261.428C207.92 258.168 209.355 253.913 210.866 249.431C210.978 249.098 211.091 248.764 211.204 248.428C214.312 239.207 217.666 229.23 218.717 225.202C218.992 225.29 219.37 225.433 219.849 225.634C221.003 226.119 222.646 226.896 224.624 227.878C228.576 229.84 233.818 232.594 239.054 235.398C244.29 238.201 249.515 241.05 253.431 243.199C255.39 244.273 257.021 245.172 258.162 245.802ZM218.853 224.659C218.853 224.66 218.853 224.661 218.853 224.662L218.853 224.659Z" fill="white" stroke="#1C1C26" stroke-width="1.34226"/>
<path d="M244.213 275.173C245.663 275.569 247.145 275.838 248.642 275.979C248.817 275.106 248.978 274.368 249.085 273.804C249.081 273.777 249.081 273.75 249.085 273.724C249.079 273.661 249.079 273.598 249.085 273.536C249.085 273.321 249.166 273.079 249.219 272.851C249.209 272.807 249.209 272.761 249.219 272.717V272.529C249.898 269.749 250.736 267.011 251.729 264.328C253.679 259.131 255.961 254.064 258.561 249.16C258.776 248.744 258.964 248.382 259.152 248.06C259.702 247.026 260.051 246.409 260.132 246.248L259.031 245.617L257.568 244.811H257.501L256.521 244.288L255.313 243.603C254.964 243.429 254.575 243.214 254.199 242.999L253.984 242.879C253.528 242.623 253.031 242.368 252.521 242.073L252.186 241.899L250.736 241.093L249.971 240.691L247.609 239.348L245.81 238.369L244.28 237.536L239.045 234.718L237.354 233.805C235.287 232.704 233.26 231.63 231.314 230.624C230.871 230.396 230.441 230.154 229.971 229.953L229.112 229.496L228.092 228.973L225.877 227.845L224.535 227.174C223.877 226.839 223.26 226.543 222.683 226.275C222.388 226.114 222.106 225.993 221.837 225.872C221.045 225.496 220.361 225.188 219.784 224.959L219.421 224.798C219.112 236.879 220.039 268.704 244.213 275.173Z" fill="#263238"/>
<path d="M231.268 171.201L231.268 171.201C238.415 161.137 250.532 156.348 262.595 156.486C274.663 156.623 286.551 161.689 293.231 171.172L293.232 171.172C294.316 172.71 295.186 175.017 295.82 177.961C296.452 180.894 296.839 184.411 296.989 188.33C297.289 196.167 296.638 205.561 295.132 215.011C293.627 224.462 291.271 233.945 288.173 241.965C285.066 250.006 281.246 256.489 276.862 260.034L276.862 260.034C267.72 267.427 256.871 268.658 246.912 265.608C236.939 262.554 227.87 255.204 222.38 245.462C220.542 242.197 219.526 236.81 219.232 230.248C218.939 223.713 219.365 216.111 220.34 208.487C221.314 200.865 222.835 193.24 224.724 186.662C226.617 180.068 228.865 174.584 231.268 171.201Z" fill="white" stroke="#1C1C26" stroke-width="1.34226"/>
<path d="M266.091 212.663C266.091 212.529 265.822 212.771 265.809 212.905C265.433 216.113 264.467 219.724 261.433 220.354C261.339 220.354 261.326 220.542 261.433 220.542C265.044 220.569 266.265 215.751 266.091 212.663Z" fill="#263238"/>
<path d="M263.742 208.905C258.668 207.765 256.749 218.006 261.46 219.066C266.171 220.127 267.997 209.858 263.742 208.905Z" fill="#263238"/>
<path d="M283.54 216.45C283.54 216.329 283.755 216.651 283.728 216.772C283.03 219.926 282.775 223.658 285.446 225.242C285.527 225.242 285.446 225.457 285.446 225.416C281.97 224.235 282.372 219.282 283.54 216.45Z" fill="#263238"/>
<path d="M286.99 213.63C292.157 214.193 290.641 224.502 285.849 223.979C281.057 223.455 282.654 213.147 286.99 213.63Z" fill="#263238"/>
<path d="M260.574 203.47C261.994 203.325 263.405 203.106 264.802 202.812C266.323 202.787 267.794 202.264 268.99 201.323C269.305 200.953 269.49 200.489 269.514 200.003C269.538 199.518 269.401 199.037 269.124 198.638C267.849 196.987 265.782 196.826 263.822 197.068C261.837 197.252 259.991 198.165 258.641 199.631C258.351 199.983 258.17 200.411 258.12 200.864C258.069 201.316 258.152 201.774 258.356 202.181C258.561 202.587 258.88 202.926 259.274 203.155C259.667 203.384 260.119 203.493 260.574 203.47Z" fill="#263238"/>
<path d="M291.915 209.214C290.588 208.679 289.293 208.07 288.036 207.389C286.583 206.939 285.319 206.024 284.438 204.785C284.238 204.341 284.189 203.844 284.301 203.371C284.413 202.897 284.678 202.474 285.056 202.167C286.747 200.946 288.774 201.375 290.599 202.167C292.454 202.902 293.97 204.298 294.854 206.087C295.03 206.505 295.081 206.966 295 207.413C294.92 207.86 294.711 208.274 294.4 208.605C294.089 208.936 293.689 209.17 293.248 209.278C292.807 209.386 292.344 209.364 291.915 209.214Z" fill="#263238"/>
<path d="M256.831 241.349C257.448 242.235 258.025 243.402 259.153 243.711C260.337 243.906 261.548 243.851 262.71 243.55C262.735 243.536 262.764 243.532 262.792 243.54C262.805 243.543 262.818 243.55 262.83 243.558C262.841 243.567 262.85 243.578 262.857 243.59C262.864 243.603 262.869 243.616 262.871 243.63C262.872 243.644 262.871 243.659 262.868 243.672C262.864 243.686 262.858 243.699 262.849 243.71C262.84 243.721 262.829 243.731 262.817 243.738C262.248 244.278 261.543 244.655 260.778 244.827C260.012 245 259.214 244.962 258.468 244.718C257.855 244.424 257.342 243.958 256.991 243.376C256.64 242.794 256.468 242.122 256.495 241.443C256.482 241.241 256.696 241.228 256.831 241.349Z" fill="#263238"/>
<path d="M261.944 232.476C262.513 233.884 263.367 235.158 264.453 236.218C265.538 237.278 266.832 238.102 268.252 238.637C269.487 239.119 270.784 239.422 272.105 239.537C272.355 239.563 272.607 239.563 272.856 239.537H273.581C273.755 239.532 273.923 239.472 274.06 239.366C274.198 239.26 274.298 239.113 274.346 238.946C274.359 238.835 274.359 238.722 274.346 238.611V238.329C274.87 235.899 275.326 232.141 275.326 232.141C276.145 232.745 280.306 235.644 280.48 234.356C281.823 223.618 283.313 211.806 282.4 200.893C282.385 200.824 282.347 200.762 282.292 200.717C282.237 200.673 282.169 200.648 282.098 200.648C282.027 200.648 281.958 200.673 281.904 200.717C281.849 200.762 281.811 200.824 281.796 200.893C280.105 211.108 280.212 221.55 278.668 231.832C277.191 230.779 275.574 229.939 273.863 229.336C273.501 229.336 273.111 236.611 272.789 237.684V237.792C268.588 237.55 265.729 235.738 262.266 232.235C262.065 232.02 261.796 232.195 261.944 232.476Z" fill="#263238"/>
<path d="M270.897 238.033C269.228 239.523 267.203 240.558 265.018 241.039C263.82 241.27 262.581 241.119 261.474 240.61C259.071 239.469 259.447 237.133 260.279 235.241C260.737 234.235 261.309 233.284 261.984 232.409C264.277 235.188 267.401 237.16 270.897 238.033Z" fill="#263238"/>
<path d="M265.018 241.039C263.82 241.27 262.581 241.119 261.474 240.61C259.071 239.469 259.447 237.133 260.279 235.241C262.937 236.019 265.286 238.368 265.018 241.039Z" fill="#FF99BA"/>
<path d="M255.998 225.94C253.538 225.149 251.348 223.684 249.679 221.711C248.01 219.738 246.928 217.336 246.556 214.779C246.184 212.222 246.537 209.611 247.574 207.245C248.612 204.878 250.293 202.85 252.426 201.391C254.559 199.931 257.058 199.1 259.64 198.991C262.222 198.882 264.783 199.499 267.032 200.773C269.28 202.046 271.126 203.925 272.36 206.196C273.594 208.467 274.166 211.038 274.011 213.618C273.779 217.271 272.11 220.684 269.368 223.109C266.626 225.534 263.035 226.774 259.38 226.557C258.233 226.485 257.097 226.278 255.998 225.94ZM263.877 201.39C262.928 201.088 261.945 200.903 260.951 200.84C257.914 200.654 254.92 201.633 252.579 203.577C250.239 205.521 248.727 208.284 248.352 211.303C247.977 214.323 248.768 217.372 250.562 219.829C252.356 222.287 255.02 223.968 258.01 224.53C261 225.093 264.093 224.494 266.657 222.856C269.222 221.219 271.065 218.665 271.813 215.716C272.561 212.766 272.156 209.643 270.682 206.981C269.208 204.32 266.774 202.32 263.877 201.39Z" fill="#E6007A"/>
<path d="M287.138 231.872C282.104 230.248 279.191 223.631 280.574 216.557C281.181 213.166 282.833 210.05 285.299 207.644C286.294 206.547 287.556 205.725 288.962 205.259C290.369 204.792 291.872 204.696 293.326 204.981C294.78 205.266 296.136 205.922 297.262 206.885C298.388 207.847 299.247 209.085 299.755 210.477C301.133 213.635 301.486 217.147 300.761 220.517C299.298 227.993 293.58 233.188 288.023 232.087C287.715 232.033 287.433 231.953 287.138 231.872ZM293.647 206.973C293.428 206.901 293.204 206.843 292.976 206.799C291.809 206.623 290.616 206.731 289.499 207.114C288.382 207.497 287.374 208.144 286.56 209C284.377 211.14 282.918 213.909 282.386 216.919C281.124 223.389 283.795 229.389 288.372 230.342C292.95 231.295 297.688 226.705 298.949 220.221C299.602 217.237 299.296 214.123 298.077 211.322C297.689 210.325 297.093 209.422 296.329 208.672C295.566 207.922 294.652 207.343 293.647 206.973Z" fill="#E6007A"/>
<path d="M273.246 215.107L272.347 213.483C274.749 212.14 279.957 210.798 282.575 214.959L281.004 215.939C278.669 212.181 273.461 214.986 273.246 215.107Z" fill="#E6007A"/>
<path d="M212.174 206.759L210.725 205.618C211.262 204.933 216.094 199.027 220.241 199.161C224.147 199.296 247.986 206.329 249.006 206.638L248.482 208.41C241.65 206.383 223.194 201.108 220.188 201.014C217.436 200.92 213.463 205.134 212.174 206.759Z" fill="#E6007A"/>
<path d="M295.928 192.624C277.848 199.228 260.896 177.859 260.896 177.859C258.722 180.88 255.631 183.118 252.083 184.24C248.535 185.362 244.72 185.309 241.205 184.088C241.205 184.088 231.5 209.362 224.655 207.55C214.212 204.866 220.078 168.464 225.165 162.33C230.252 156.195 239.58 156.692 239.58 156.692C239.58 156.692 241.621 151.444 249.352 148.155C257.902 144.518 280.667 158.209 280.667 158.209C282.921 155.273 285.83 152.906 289.163 151.296C289.975 150.89 290.86 150.652 291.766 150.597C292.672 150.542 293.58 150.672 294.435 150.978C295.289 151.284 296.073 151.76 296.738 152.378C297.403 152.996 297.936 153.742 298.304 154.571C296.503 156.157 295.085 158.13 294.157 160.343C290.962 167.658 297.19 169.242 298.908 162.316C299.65 159.746 299.435 156.995 298.304 154.571C302.546 150.84 307.928 150.652 310.384 153.86C314.707 159.658 310.975 187.148 295.928 192.624Z" fill="#E6007A"/>
<path d="M228.131 210.409C228.131 210.409 222.48 192.691 214.708 194.302C206.936 195.912 208.064 219.348 214.923 224.637C215.754 225.377 216.727 225.941 217.782 226.296C218.837 226.651 219.953 226.788 221.063 226.7C222.172 226.613 223.253 226.301 224.239 225.785C225.225 225.269 226.097 224.559 226.802 223.697L228.131 210.409Z" fill="white"/>
<path d="M226.805 223.697C226.1 224.559 225.229 225.269 224.242 225.785C223.256 226.301 222.176 226.613 221.066 226.7C219.956 226.788 218.84 226.651 217.785 226.296C216.73 225.941 215.757 225.377 214.926 224.637C208.067 219.348 208.356 194.302 214.711 194.302C221.066 194.301 225.191 199.855 228.344 213.896" stroke="#1C1C26" stroke-width="1.34226"/>
<path d="M215.233 200.987C215.208 200.983 215.183 200.987 215.161 200.998C215.138 201.009 215.12 201.027 215.108 201.049C215.096 201.071 215.092 201.097 215.095 201.122C215.098 201.146 215.109 201.17 215.126 201.188C219.877 205.081 221.179 211.013 221.555 216.852C220.562 214.342 218.696 212.557 215.408 213.644C215.233 213.644 215.3 213.966 215.408 213.98C216.459 213.973 217.487 214.291 218.35 214.892C219.213 215.493 219.869 216.347 220.226 217.335C220.813 218.991 221.218 220.706 221.434 222.449C221.542 223.013 222.495 223.027 222.481 222.449V222.302C224.83 215.376 222.455 204.007 215.233 200.987Z" fill="#263238"/>
<path d="M249.877 269.992L242.522 291.307L206.818 258.06L197.422 268.731C197.422 268.731 229.274 321.938 229.475 319.535L243.515 296.555L256.092 312.73L255.555 279.106L249.877 269.992Z" fill="#EBEBEB"/>
<path d="M256.697 293.039C256.294 286.489 256.63 285.992 255.918 279.455C255.918 279.227 255.542 279.12 255.475 279.455C254.133 285.777 255.247 304.717 255.193 310.73L255.126 310.663C254.469 309.965 243.69 296.381 243.543 296.596C241.167 300.193 230.053 317.012 229.503 318.515C224.469 310.059 205.154 279.334 199.194 271.335C199.164 271.281 199.114 271.242 199.055 271.226C198.996 271.209 198.932 271.217 198.879 271.247C198.826 271.278 198.786 271.328 198.77 271.387C198.754 271.446 198.762 271.509 198.792 271.563C203.235 280.489 228.791 321.857 229.18 321.75C229.449 321.951 242.522 301.307 243.731 297.468C246.066 300.368 256.965 315.642 257.019 314.676C257.283 307.463 257.175 300.241 256.697 293.039Z" fill="#263238"/>
<path d="M468.692 470.324H284.038V478.605H468.692V470.324Z" fill="#2C3C44"/>
<path d="M468.691 470.324H375.753V478.605H468.691V470.324Z" fill="#263238"/>
<path d="M385.753 478.606H565.709L589.239 356.38H409.283L385.753 478.606Z" fill="#2C3C44"/>
<path d="M472.5 417.114C472.294 419.001 472.491 420.91 473.076 422.715C473.661 424.519 474.622 426.178 475.894 427.581C477.167 428.984 478.721 430.098 480.455 430.85C482.189 431.602 484.062 431.975 485.95 431.943C489.965 431.867 493.814 430.317 496.771 427.585C499.728 424.854 501.589 421.129 502.004 417.114C502.209 415.225 502.013 413.314 501.426 411.508C500.84 409.702 499.878 408.043 498.603 406.64C497.329 405.237 495.772 404.123 494.036 403.372C492.3 402.621 490.425 402.25 488.535 402.285C484.52 402.354 480.669 403.901 477.713 406.635C474.757 409.368 472.902 413.097 472.5 417.114Z" fill="#1C1C26"/>
<path d="M496.604 424.419V421.961L492.406 417.762H489.948L496.604 424.419Z" fill="white"/>
<path d="M481.448 426.261H483.876L488.002 422.165L492.098 426.261H494.582L488.002 419.708L481.448 426.261Z" fill="white"/>
<path d="M479.4 411.105V413.563L483.599 417.762H486.057L479.4 411.105Z" fill="white"/>
<path d="M494.555 409.263H492.127L488.001 413.358L483.905 409.263H481.421L488.001 415.816L494.555 409.263Z" fill="white"/>
<path d="M488.021 418.887C488.654 418.887 489.167 418.374 489.167 417.741C489.167 417.108 488.654 416.595 488.021 416.595C487.388 416.595 486.875 417.108 486.875 417.741C486.875 418.374 487.388 418.887 488.021 418.887Z" fill="#E6007A"/>
<path d="M574.151 434.713L565.695 478.592H426.154L574.151 434.713Z" fill="#263238"/>
<path d="M147.772 472.346H114.027V477.608H147.772V472.346Z" fill="#455A64"/>
<path d="M147.772 472.346H114.027V475.823H147.772V472.346Z" fill="#263238"/>
<path d="M73.9747 458.185C76.0251 461.215 78.9025 463.592 82.2647 465.034C85.6269 466.476 89.3325 466.922 92.9408 466.319C94.1105 466.097 95.2565 465.764 96.3636 465.326C98.0449 464.676 99.6478 463.838 101.142 462.83L96.8468 456.467C96.0512 457.022 95.2065 457.503 94.3233 457.904C86.2698 461.541 81.1961 455.219 80.1894 453.769C75.572 447.259 73.9076 432.414 78.6055 426.696C78.9142 426.28 80.2565 425.609 85.706 426.763C86.6993 426.991 87.8402 427.246 89.1288 427.595C90.1284 427.938 91.1644 428.163 92.216 428.267L92.3502 424.441L92.726 420.643C92.377 420.575 91.8267 420.414 91.1153 420.213C88.6036 419.476 86.0358 418.947 83.4376 418.629C79.4109 418.213 75.2499 418.629 72.6996 421.851C65.089 431.179 68.1762 450.038 73.9747 458.185Z" fill="#23272E"/>
<path d="M96.876 456.467C96.0804 457.022 95.2357 457.503 94.3525 457.904L96.3928 465.326C98.0741 464.676 99.677 463.838 101.171 462.83L96.876 456.467Z" fill="#263238"/>
<path d="M83.4658 418.629L85.7342 426.763C86.7275 426.992 87.8684 427.247 89.157 427.596C90.1565 427.938 91.1926 428.164 92.2442 428.267L92.3784 424.441L92.7542 420.643C92.4052 420.576 91.8549 420.415 91.1435 420.213C88.6318 419.477 86.064 418.947 83.4658 418.629Z" fill="#263238"/>
<path d="M175.799 408.736C175.799 408.736 171.772 443.138 164.752 457.621C157.732 472.104 148.001 473.728 141.934 473.728H119.867C113.814 473.728 104.042 472.118 97.049 457.621C90.0558 443.125 86.0156 408.736 86.0156 408.736H175.799Z" fill="#23272E"/>
<mask id="mask1_2802_22576" style="mask-type:alpha" maskUnits="userSpaceOnUse" x="86" y="408" width="90" height="66">
<path d="M175.801 408.737C175.801 408.737 171.774 443.139 164.754 457.622C157.734 472.105 148.003 473.729 141.936 473.729H119.869C113.816 473.729 104.044 472.118 97.0509 457.622C90.0578 443.125 86.0176 408.737 86.0176 408.737H175.801Z" fill="#23272E"/>
</mask>
<g mask="url(#mask1_2802_22576)">
<path d="M192.129 458.24V451.67L180.906 440.447H174.336L192.129 458.24Z" fill="white"/>
<path d="M151.619 463.163H158.11L169.138 452.216L180.087 463.163H186.728L169.138 445.646L151.619 463.163Z" fill="white"/>
<path d="M146.144 422.651V429.221L157.367 440.444H163.936L146.144 422.651Z" fill="white"/>
<path d="M186.655 417.726H180.165L169.136 428.673L158.187 417.726H151.547L169.136 435.243L186.655 417.726Z" fill="white"/>
<path d="M169.186 443.451C170.878 443.451 172.25 442.079 172.25 440.388C172.25 438.696 170.878 437.324 169.186 437.324C167.495 437.324 166.123 438.696 166.123 440.388C166.123 442.079 167.495 443.451 169.186 443.451Z" fill="#E6007A"/>
</g>
<path d="M51.9209 473.84L119.893 473.505L187.865 473.397L323.808 473.169L459.752 473.384L527.724 473.505L595.696 473.84L527.724 474.162L459.752 474.283L323.808 474.511L187.865 474.283L119.893 474.162L51.9209 473.84Z" fill="#263238"/>
</g>
<line x1="915.885" y1="479.148" x2="0.00024398" y2="479.148" stroke="#8BA1BE" stroke-opacity="0.2" stroke-width="3.67825"/>
<defs>
<linearGradient id="paint0_linear_2802_22576" x1="748.965" y1="412.923" x2="824.524" y2="-147.887" gradientUnits="userSpaceOnUse">
<stop stop-opacity="0.88"/>
<stop offset="1" stop-opacity="0"/>
</linearGradient>
</defs>
</svg>
