<svg width="64" height="64" viewBox="0 0 64 64" fill="none" xmlns="http://www.w3.org/2000/svg">
<circle cx="32" cy="32" r="32" fill="white"/>
<path d="M48.9995 45.0217V40.1931L40.7507 31.9443H35.9221L48.9995 45.0217Z" fill="#1C1C26"/>
<path d="M19.2235 48.6415H23.9941L32.0997 40.5955L40.1474 48.6415H45.0278L32.0997 35.7669L19.2235 48.6415Z" fill="#1C1C26"/>
<path d="M15.1997 18.8651V23.6937L23.4486 31.9425H28.2772L15.1997 18.8651Z" fill="#1C1C26"/>
<path d="M44.9758 15.2454H40.2052L32.0995 23.2913L24.0519 15.2454H19.1714L32.0995 28.1199L44.9758 15.2454Z" fill="#1C1C26"/>
<path d="M32.1378 34.1539C33.3813 34.1539 34.3894 33.1458 34.3894 31.9023C34.3894 30.6588 33.3813 29.6507 32.1378 29.6507C30.8943 29.6507 29.8862 30.6588 29.8862 31.9023C29.8862 33.1458 30.8943 34.1539 32.1378 34.1539Z" fill="#E6007A"/>
</svg>
