<svg width="140" height="140" viewBox="0 0 140 140" fill="none" xmlns="http://www.w3.org/2000/svg">
<path d="M132.79 70C132.79 64 140.97 56.94 139.49 51.38C137.95 45.63 127.3 43.64 124.39 38.6C121.48 33.56 125 23.29 120.85 19.14C116.7 14.99 106.51 18.57 101.39 15.61C96.2696 12.65 94.3896 2.05001 88.6196 0.51001C83.0596 -0.96999 76.0296 7.21002 69.9996 7.21002C63.9696 7.21002 56.9396 -0.96999 51.3796 0.51001C45.6296 2.05001 43.6396 12.7 38.5996 15.61C33.5596 18.52 23.2896 15 19.1396 19.15C14.9896 23.3 18.5696 33.49 15.6096 38.61C12.6496 43.73 2.04961 45.61 0.509614 51.38C-1.00039 56.94 7.20961 64 7.20961 70C7.20961 76 -0.970386 83.06 0.509614 88.62C2.04961 94.37 12.6996 96.36 15.6096 101.4C18.5196 106.44 14.9996 116.71 19.1496 120.86C23.2996 125.01 33.4896 121.43 38.6096 124.39C43.7296 127.35 45.6096 137.95 51.3796 139.49C56.9396 140.97 63.9696 132.79 69.9996 132.79C76.0296 132.79 83.0596 140.97 88.6196 139.49C94.3696 137.95 96.3596 127.3 101.4 124.39C106.44 121.48 116.71 125 120.86 120.85C125.01 116.7 121.43 106.51 124.39 101.39C127.35 96.27 137.95 94.39 139.49 88.62C141 83.06 132.79 76 132.79 70Z" fill="#02C076"/>
<path d="M69.1295 95.16L41.9995 66.44C41.3762 65.777 41.0419 64.8935 41.07 63.984C41.0981 63.0744 41.4864 62.2133 42.1495 61.59C42.8125 60.9668 43.696 60.6324 44.6055 60.6606C45.5151 60.6887 46.3762 61.077 46.9995 61.74L68.2995 84.3L95.1995 45.3C95.4439 44.9046 95.7662 44.563 96.1468 44.296C96.5273 44.029 96.9582 43.8421 97.4132 43.7467C97.8682 43.6513 98.3378 43.6494 98.7936 43.7411C99.2493 43.8328 99.6817 44.0162 100.064 44.2802C100.447 44.5441 100.772 44.8831 101.02 45.2765C101.267 45.67 101.432 46.1097 101.505 46.5689C101.577 47.0281 101.556 47.4972 101.441 47.9478C101.327 48.3984 101.122 48.821 100.839 49.19L69.1295 95.16Z" fill="white"/>
</svg>
